<?xml version="1.0" encoding="utf-8" standalone="no"?>
<!DOCTYPE svg PUBLIC "-//W3C//DTD SVG 1.1//EN"
  "http://www.w3.org/Graphics/SVG/1.1/DTD/svg11.dtd">
<svg xmlns:xlink="http://www.w3.org/1999/xlink" width="610.244063pt" height="245.336521pt" viewBox="0 0 610.244063 245.336521" xmlns="http://www.w3.org/2000/svg" version="1.1">
 <metadata>
  <rdf:RDF xmlns:dc="http://purl.org/dc/elements/1.1/" xmlns:cc="http://creativecommons.org/ns#" xmlns:rdf="http://www.w3.org/1999/02/22-rdf-syntax-ns#">
   <cc:Work>
    <dc:type rdf:resource="http://purl.org/dc/dcmitype/StillImage"/>
    <dc:date>2025-08-12T15:06:22.576082</dc:date>
    <dc:format>image/svg+xml</dc:format>
    <dc:creator>
     <cc:Agent>
      <dc:title>Matplotlib v3.10.1, https://matplotlib.org/</dc:title>
     </cc:Agent>
    </dc:creator>
   </cc:Work>
  </rdf:RDF>
 </metadata>
 <defs>
  <style type="text/css">*{stroke-linejoin: round; stroke-linecap: butt}</style>
 </defs>
 <g id="figure_1">
  <g id="patch_1">
   <path d="M 0 245.336521 
L 610.244063 245.336521 
L 610.244063 0 
L 0 0 
z
" style="fill: #ffffff"/>
  </g>
  <g id="axes_1">
   <g id="patch_2">
    <path d="M 45.044063 190.3 
L 603.044062 190.3 
L 603.044062 23.98 
L 45.044063 23.98 
z
" style="fill: #ffffff"/>
   </g>
   <g id="matplotlib.axis_1">
    <g id="xtick_1">
     <g id="line2d_1">
      <defs>
       <path id="mfa4b3800e0" d="M 0 0 
L 0 3.5 
" style="stroke: #000000; stroke-width: 0.8"/>
      </defs>
      <g>
       <use xlink:href="#mfa4b3800e0" x="62.481563" y="190.3" style="stroke: #000000; stroke-width: 0.8"/>
      </g>
     </g>
     <g id="text_1">
      <!-- bace -->
      <g transform="translate(50.312697 219.962772) rotate(-45) scale(0.1 -0.1)">
       <defs>
        <path id="Montserrat-Medium-62" d="M 2381 -38 
Q 1946 -38 1597 157 
Q 1248 352 1046 736 
Q 845 1120 845 1696 
Q 845 2272 1053 2656 
Q 1261 3040 1609 3232 
Q 1958 3424 2381 3424 
Q 2880 3424 3264 3206 
Q 3648 2989 3872 2601 
Q 4096 2214 4096 1696 
Q 4096 1178 3872 787 
Q 3648 397 3264 179 
Q 2880 -38 2381 -38 
z
M 582 0 
L 582 4749 
L 1197 4749 
L 1197 2490 
L 1133 1702 
L 1171 915 
L 1171 0 
L 582 0 
z
M 2330 499 
Q 2656 499 2915 646 
Q 3174 794 3324 1066 
Q 3475 1338 3475 1696 
Q 3475 2061 3324 2326 
Q 3174 2592 2915 2739 
Q 2656 2886 2330 2886 
Q 2010 2886 1750 2739 
Q 1491 2592 1340 2326 
Q 1190 2061 1190 1696 
Q 1190 1338 1340 1066 
Q 1491 794 1750 646 
Q 2010 499 2330 499 
z
" transform="scale(0.015625)"/>
        <path id="Montserrat-Medium-61" d="M 2688 0 
L 2688 717 
L 2656 851 
L 2656 2074 
Q 2656 2464 2429 2678 
Q 2202 2893 1747 2893 
Q 1446 2893 1158 2793 
Q 870 2694 672 2528 
L 416 2989 
Q 678 3200 1046 3312 
Q 1414 3424 1818 3424 
Q 2515 3424 2892 3085 
Q 3270 2746 3270 2048 
L 3270 0 
L 2688 0 
z
M 1574 -38 
Q 1197 -38 912 90 
Q 627 218 473 445 
Q 320 672 320 960 
Q 320 1235 451 1459 
Q 582 1683 880 1817 
Q 1178 1952 1683 1952 
L 2758 1952 
L 2758 1510 
L 1709 1510 
Q 1248 1510 1088 1356 
Q 928 1203 928 986 
Q 928 736 1126 585 
Q 1325 435 1677 435 
Q 2022 435 2281 588 
Q 2541 742 2656 1037 
L 2778 614 
Q 2656 314 2349 138 
Q 2042 -38 1574 -38 
z
" transform="scale(0.015625)"/>
        <path id="Montserrat-Medium-63" d="M 2061 -38 
Q 1542 -38 1136 186 
Q 730 410 499 800 
Q 269 1190 269 1696 
Q 269 2202 499 2592 
Q 730 2982 1136 3203 
Q 1542 3424 2061 3424 
Q 2522 3424 2883 3241 
Q 3245 3059 3443 2701 
L 2976 2400 
Q 2810 2650 2570 2768 
Q 2330 2886 2054 2886 
Q 1722 2886 1459 2739 
Q 1197 2592 1043 2326 
Q 890 2061 890 1696 
Q 890 1331 1043 1062 
Q 1197 794 1459 646 
Q 1722 499 2054 499 
Q 2330 499 2570 617 
Q 2810 736 2976 986 
L 3443 691 
Q 3245 339 2883 150 
Q 2522 -38 2061 -38 
z
" transform="scale(0.015625)"/>
        <path id="Montserrat-Medium-65" d="M 2093 -38 
Q 1549 -38 1136 186 
Q 723 410 496 800 
Q 269 1190 269 1696 
Q 269 2202 489 2592 
Q 710 2982 1097 3203 
Q 1485 3424 1971 3424 
Q 2464 3424 2841 3206 
Q 3219 2989 3433 2595 
Q 3648 2202 3648 1677 
Q 3648 1638 3645 1587 
Q 3642 1536 3635 1491 
L 749 1491 
L 749 1933 
L 3315 1933 
L 3066 1779 
Q 3072 2106 2931 2362 
Q 2790 2618 2544 2762 
Q 2298 2906 1971 2906 
Q 1651 2906 1401 2762 
Q 1152 2618 1011 2358 
Q 870 2099 870 1766 
L 870 1664 
Q 870 1325 1027 1059 
Q 1184 794 1465 646 
Q 1747 499 2112 499 
Q 2413 499 2659 601 
Q 2906 704 3091 909 
L 3430 512 
Q 3200 243 2857 102 
Q 2515 -38 2093 -38 
z
" transform="scale(0.015625)"/>
       </defs>
       <use xlink:href="#Montserrat-Medium-62"/>
       <use xlink:href="#Montserrat-Medium-61" transform="translate(68.199982 0)"/>
       <use xlink:href="#Montserrat-Medium-63" transform="translate(127.999969 0)"/>
       <use xlink:href="#Montserrat-Medium-65" transform="translate(185.09996 0)"/>
      </g>
     </g>
    </g>
    <g id="xtick_2">
     <g id="line2d_2">
      <g>
       <use xlink:href="#mfa4b3800e0" x="97.356563" y="190.3" style="stroke: #000000; stroke-width: 0.8"/>
      </g>
     </g>
     <g id="text_2">
      <!-- cdk2 -->
      <g transform="translate(85.335747 219.814722) rotate(-45) scale(0.1 -0.1)">
       <defs>
        <path id="Montserrat-Medium-64" d="M 1984 -38 
Q 1491 -38 1104 179 
Q 717 397 493 787 
Q 269 1178 269 1696 
Q 269 2214 493 2601 
Q 717 2989 1104 3206 
Q 1491 3424 1984 3424 
Q 2413 3424 2758 3232 
Q 3104 3040 3312 2656 
Q 3520 2272 3520 1696 
Q 3520 1120 3318 736 
Q 3117 352 2771 157 
Q 2426 -38 1984 -38 
z
M 2035 499 
Q 2355 499 2614 646 
Q 2874 794 3024 1066 
Q 3174 1338 3174 1696 
Q 3174 2061 3024 2326 
Q 2874 2592 2614 2739 
Q 2355 2886 2035 2886 
Q 1709 2886 1453 2739 
Q 1197 2592 1043 2326 
Q 890 2061 890 1696 
Q 890 1338 1043 1066 
Q 1197 794 1453 646 
Q 1709 499 2035 499 
z
M 3194 0 
L 3194 915 
L 3232 1702 
L 3168 2490 
L 3168 4749 
L 3782 4749 
L 3782 0 
L 3194 0 
z
" transform="scale(0.015625)"/>
        <path id="Montserrat-Medium-6b" d="M 1082 819 
L 1094 1606 
L 3046 3392 
L 3789 3392 
L 2291 1920 
L 1958 1638 
L 1082 819 
z
M 582 0 
L 582 4749 
L 1197 4749 
L 1197 0 
L 582 0 
z
M 3174 0 
L 1843 1651 
L 2240 2144 
L 3930 0 
L 3174 0 
z
" transform="scale(0.015625)"/>
        <path id="Montserrat-Medium-32" d="M 237 0 
L 237 435 
L 2061 2195 
Q 2304 2426 2422 2602 
Q 2541 2778 2582 2928 
Q 2624 3078 2624 3219 
Q 2624 3565 2381 3763 
Q 2138 3962 1670 3962 
Q 1312 3962 1024 3843 
Q 736 3725 525 3475 
L 90 3853 
Q 346 4179 778 4355 
Q 1210 4531 1728 4531 
Q 2195 4531 2540 4380 
Q 2886 4230 3075 3948 
Q 3264 3667 3264 3283 
Q 3264 3066 3206 2854 
Q 3149 2643 2989 2406 
Q 2829 2170 2528 1875 
L 902 307 
L 749 557 
L 3456 557 
L 3456 0 
L 237 0 
z
" transform="scale(0.015625)"/>
       </defs>
       <use xlink:href="#Montserrat-Medium-63"/>
       <use xlink:href="#Montserrat-Medium-64" transform="translate(57.099991 0)"/>
       <use xlink:href="#Montserrat-Medium-6b" transform="translate(125.299973 0)"/>
       <use xlink:href="#Montserrat-Medium-32" transform="translate(186.799957 0)"/>
      </g>
     </g>
    </g>
    <g id="xtick_3">
     <g id="line2d_3">
      <g>
       <use xlink:href="#mfa4b3800e0" x="132.231562" y="190.3" style="stroke: #000000; stroke-width: 0.8"/>
      </g>
     </g>
     <g id="text_3">
      <!-- jnk1 -->
      <g transform="translate(123.796 216.441602) rotate(-45) scale(0.1 -0.1)">
       <defs>
        <path id="Montserrat-Medium-6a" d="M 147 -1280 
Q -64 -1280 -259 -1229 
Q -454 -1178 -589 -1075 
L -390 -602 
Q -198 -762 109 -762 
Q 352 -762 483 -611 
Q 614 -461 614 -166 
L 614 3392 
L 1229 3392 
L 1229 -154 
Q 1229 -672 950 -976 
Q 672 -1280 147 -1280 
z
M 922 4045 
Q 742 4045 624 4160 
Q 506 4275 506 4442 
Q 506 4614 624 4729 
Q 742 4845 922 4845 
Q 1101 4845 1219 4733 
Q 1338 4621 1338 4454 
Q 1338 4282 1222 4163 
Q 1107 4045 922 4045 
z
" transform="scale(0.015625)"/>
        <path id="Montserrat-Medium-6e" d="M 582 0 
L 582 3392 
L 1171 3392 
L 1171 2477 
L 1075 2720 
Q 1242 3053 1587 3238 
Q 1933 3424 2394 3424 
Q 2810 3424 3126 3264 
Q 3443 3104 3622 2777 
Q 3802 2451 3802 1952 
L 3802 0 
L 3187 0 
L 3187 1882 
Q 3187 2374 2947 2624 
Q 2707 2874 2272 2874 
Q 1946 2874 1702 2746 
Q 1459 2618 1328 2368 
Q 1197 2118 1197 1747 
L 1197 0 
L 582 0 
z
" transform="scale(0.015625)"/>
        <path id="Montserrat-Medium-31" d="M 1062 0 
L 1062 4224 
L 1338 3923 
L 51 3923 
L 51 4480 
L 1696 4480 
L 1696 0 
L 1062 0 
z
" transform="scale(0.015625)"/>
       </defs>
       <use xlink:href="#Montserrat-Medium-6a"/>
       <use xlink:href="#Montserrat-Medium-6e" transform="translate(28.399994 0)"/>
       <use xlink:href="#Montserrat-Medium-6b" transform="translate(96.499985 0)"/>
       <use xlink:href="#Montserrat-Medium-31" transform="translate(157.999969 0)"/>
      </g>
     </g>
    </g>
    <g id="xtick_4">
     <g id="line2d_4">
      <g>
       <use xlink:href="#mfa4b3800e0" x="167.106562" y="190.3" style="stroke: #000000; stroke-width: 0.8"/>
      </g>
     </g>
     <g id="text_4">
      <!-- mcl1 -->
      <g transform="translate(156.252473 218.647996) rotate(-45) scale(0.1 -0.1)">
       <defs>
        <path id="Montserrat-Medium-6d" d="M 582 0 
L 582 3392 
L 1171 3392 
L 1171 2490 
L 1075 2720 
Q 1235 3053 1568 3238 
Q 1901 3424 2342 3424 
Q 2829 3424 3181 3184 
Q 3533 2944 3642 2458 
L 3392 2560 
Q 3546 2950 3930 3187 
Q 4314 3424 4826 3424 
Q 5235 3424 5548 3264 
Q 5862 3104 6038 2777 
Q 6214 2451 6214 1952 
L 6214 0 
L 5600 0 
L 5600 1882 
Q 5600 2374 5369 2624 
Q 5139 2874 4723 2874 
Q 4416 2874 4185 2746 
Q 3955 2618 3830 2368 
Q 3706 2118 3706 1747 
L 3706 0 
L 3091 0 
L 3091 1882 
Q 3091 2374 2864 2624 
Q 2637 2874 2214 2874 
Q 1914 2874 1683 2746 
Q 1453 2618 1325 2368 
Q 1197 2118 1197 1747 
L 1197 0 
L 582 0 
z
" transform="scale(0.015625)"/>
        <path id="Montserrat-Medium-6c" d="M 582 0 
L 582 4749 
L 1197 4749 
L 1197 0 
L 582 0 
z
" transform="scale(0.015625)"/>
       </defs>
       <use xlink:href="#Montserrat-Medium-6d"/>
       <use xlink:href="#Montserrat-Medium-63" transform="translate(105.699982 0)"/>
       <use xlink:href="#Montserrat-Medium-6c" transform="translate(162.799973 0)"/>
       <use xlink:href="#Montserrat-Medium-31" transform="translate(190.699966 0)"/>
      </g>
     </g>
    </g>
    <g id="xtick_5">
     <g id="line2d_5">
      <g>
       <use xlink:href="#mfa4b3800e0" x="201.981562" y="190.3" style="stroke: #000000; stroke-width: 0.8"/>
      </g>
     </g>
     <g id="text_5">
      <!-- p38 -->
      <g transform="translate(193.806745 215.968724) rotate(-45) scale(0.1 -0.1)">
       <defs>
        <path id="Montserrat-Medium-70" d="M 2381 -38 
Q 1958 -38 1609 157 
Q 1261 352 1053 736 
Q 845 1120 845 1696 
Q 845 2272 1046 2656 
Q 1248 3040 1597 3232 
Q 1946 3424 2381 3424 
Q 2880 3424 3264 3206 
Q 3648 2989 3872 2601 
Q 4096 2214 4096 1696 
Q 4096 1178 3872 787 
Q 3648 397 3264 179 
Q 2880 -38 2381 -38 
z
M 582 -1242 
L 582 3392 
L 1171 3392 
L 1171 2477 
L 1133 1690 
L 1197 902 
L 1197 -1242 
L 582 -1242 
z
M 2330 499 
Q 2656 499 2915 646 
Q 3174 794 3324 1066 
Q 3475 1338 3475 1696 
Q 3475 2061 3324 2326 
Q 3174 2592 2915 2739 
Q 2656 2886 2330 2886 
Q 2010 2886 1750 2739 
Q 1491 2592 1340 2326 
Q 1190 2061 1190 1696 
Q 1190 1338 1340 1066 
Q 1491 794 1750 646 
Q 2010 499 2330 499 
z
" transform="scale(0.015625)"/>
        <path id="Montserrat-Medium-33" d="M 1677 -51 
Q 1203 -51 758 96 
Q 314 243 32 493 
L 326 998 
Q 550 787 908 652 
Q 1267 518 1677 518 
Q 2176 518 2454 732 
Q 2733 947 2733 1312 
Q 2733 1664 2467 1878 
Q 2202 2093 1626 2093 
L 1267 2093 
L 1267 2541 
L 2598 4179 
L 2688 3923 
L 237 3923 
L 237 4480 
L 3194 4480 
L 3194 4045 
L 1869 2413 
L 1536 2611 
L 1747 2611 
Q 2560 2611 2966 2246 
Q 3373 1882 3373 1318 
Q 3373 941 3187 627 
Q 3002 314 2627 131 
Q 2253 -51 1677 -51 
z
" transform="scale(0.015625)"/>
        <path id="Montserrat-Medium-38" d="M 2054 -51 
Q 1510 -51 1113 109 
Q 717 269 499 566 
Q 282 864 282 1267 
Q 282 1664 490 1942 
Q 698 2221 1094 2365 
Q 1491 2509 2054 2509 
Q 2618 2509 3018 2365 
Q 3418 2221 3629 1939 
Q 3840 1658 3840 1267 
Q 3840 864 3622 566 
Q 3405 269 3001 109 
Q 2598 -51 2054 -51 
z
M 2054 467 
Q 2592 467 2896 688 
Q 3200 909 3200 1286 
Q 3200 1658 2896 1872 
Q 2592 2086 2054 2086 
Q 1523 2086 1222 1872 
Q 922 1658 922 1286 
Q 922 909 1222 688 
Q 1523 467 2054 467 
z
M 2054 2573 
Q 2522 2573 2787 2765 
Q 3053 2957 3053 3290 
Q 3053 3629 2777 3821 
Q 2502 4013 2054 4013 
Q 1606 4013 1340 3821 
Q 1075 3629 1075 3290 
Q 1075 2957 1334 2765 
Q 1594 2573 2054 2573 
z
M 2054 2163 
Q 1542 2163 1184 2300 
Q 826 2438 634 2697 
Q 442 2957 442 3315 
Q 442 3693 643 3965 
Q 845 4237 1209 4384 
Q 1574 4531 2054 4531 
Q 2541 4531 2905 4384 
Q 3270 4237 3475 3965 
Q 3680 3693 3680 3315 
Q 3680 2957 3488 2697 
Q 3296 2438 2931 2300 
Q 2566 2163 2054 2163 
z
" transform="scale(0.015625)"/>
       </defs>
       <use xlink:href="#Montserrat-Medium-70"/>
       <use xlink:href="#Montserrat-Medium-33" transform="translate(68.199982 0)"/>
       <use xlink:href="#Montserrat-Medium-38" transform="translate(125.399979 0)"/>
      </g>
     </g>
    </g>
    <g id="xtick_6">
     <g id="line2d_6">
      <g>
       <use xlink:href="#mfa4b3800e0" x="236.856562" y="190.3" style="stroke: #000000; stroke-width: 0.8"/>
      </g>
     </g>
     <g id="text_6">
      <!-- ptp1b -->
      <g transform="translate(222.091289 222.55918) rotate(-45) scale(0.1 -0.1)">
       <defs>
        <path id="Montserrat-Medium-74" d="M 1747 -38 
Q 1235 -38 953 237 
Q 672 512 672 1024 
L 672 4134 
L 1286 4134 
L 1286 1050 
Q 1286 774 1424 627 
Q 1562 480 1818 480 
Q 2106 480 2298 640 
L 2490 198 
Q 2349 77 2153 19 
Q 1958 -38 1747 -38 
z
M 96 2886 
L 96 3392 
L 2259 3392 
L 2259 2886 
L 96 2886 
z
" transform="scale(0.015625)"/>
       </defs>
       <use xlink:href="#Montserrat-Medium-70"/>
       <use xlink:href="#Montserrat-Medium-74" transform="translate(68.199982 0)"/>
       <use xlink:href="#Montserrat-Medium-70" transform="translate(109.599976 0)"/>
       <use xlink:href="#Montserrat-Medium-31" transform="translate(177.799957 0)"/>
       <use xlink:href="#Montserrat-Medium-62" transform="translate(214.799942 0)"/>
      </g>
     </g>
    </g>
    <g id="xtick_7">
     <g id="line2d_7">
      <g>
       <use xlink:href="#mfa4b3800e0" x="271.731562" y="190.3" style="stroke: #000000; stroke-width: 0.8"/>
      </g>
     </g>
     <g id="text_7">
      <!-- thrombin -->
      <g transform="translate(242.761177 236.764292) rotate(-45) scale(0.1 -0.1)">
       <defs>
        <path id="Montserrat-Medium-68" d="M 582 0 
L 582 4749 
L 1197 4749 
L 1197 2477 
L 1075 2720 
Q 1242 3053 1587 3238 
Q 1933 3424 2394 3424 
Q 2810 3424 3126 3264 
Q 3443 3104 3622 2777 
Q 3802 2451 3802 1952 
L 3802 0 
L 3187 0 
L 3187 1882 
Q 3187 2374 2947 2624 
Q 2707 2874 2272 2874 
Q 1946 2874 1702 2746 
Q 1459 2618 1328 2368 
Q 1197 2118 1197 1747 
L 1197 0 
L 582 0 
z
" transform="scale(0.015625)"/>
        <path id="Montserrat-Medium-72" d="M 582 0 
L 582 3392 
L 1171 3392 
L 1171 2470 
L 1114 2701 
Q 1254 3053 1587 3238 
Q 1920 3424 2406 3424 
L 2406 2829 
Q 2368 2835 2333 2835 
Q 2298 2835 2266 2835 
Q 1773 2835 1485 2540 
Q 1197 2246 1197 1690 
L 1197 0 
L 582 0 
z
" transform="scale(0.015625)"/>
        <path id="Montserrat-Medium-6f" d="M 2035 -38 
Q 1523 -38 1126 186 
Q 730 410 499 803 
Q 269 1197 269 1696 
Q 269 2202 499 2592 
Q 730 2982 1126 3203 
Q 1523 3424 2035 3424 
Q 2541 3424 2941 3203 
Q 3341 2982 3568 2595 
Q 3795 2208 3795 1696 
Q 3795 1190 3568 800 
Q 3341 410 2941 186 
Q 2541 -38 2035 -38 
z
M 2035 499 
Q 2362 499 2621 646 
Q 2880 794 3027 1066 
Q 3174 1338 3174 1696 
Q 3174 2061 3027 2326 
Q 2880 2592 2621 2739 
Q 2362 2886 2035 2886 
Q 1709 2886 1453 2739 
Q 1197 2592 1043 2326 
Q 890 2061 890 1696 
Q 890 1338 1043 1066 
Q 1197 794 1453 646 
Q 1709 499 2035 499 
z
" transform="scale(0.015625)"/>
        <path id="Montserrat-Medium-69" d="M 582 0 
L 582 3392 
L 1197 3392 
L 1197 0 
L 582 0 
z
M 890 4045 
Q 710 4045 592 4160 
Q 474 4275 474 4442 
Q 474 4614 592 4729 
Q 710 4845 890 4845 
Q 1069 4845 1187 4733 
Q 1306 4621 1306 4454 
Q 1306 4282 1190 4163 
Q 1075 4045 890 4045 
z
" transform="scale(0.015625)"/>
       </defs>
       <use xlink:href="#Montserrat-Medium-74"/>
       <use xlink:href="#Montserrat-Medium-68" transform="translate(41.399994 0)"/>
       <use xlink:href="#Montserrat-Medium-72" transform="translate(109.499985 0)"/>
       <use xlink:href="#Montserrat-Medium-6f" transform="translate(150.499969 0)"/>
       <use xlink:href="#Montserrat-Medium-6d" transform="translate(213.999954 0)"/>
       <use xlink:href="#Montserrat-Medium-62" transform="translate(319.699936 0)"/>
       <use xlink:href="#Montserrat-Medium-69" transform="translate(387.899918 0)"/>
       <use xlink:href="#Montserrat-Medium-6e" transform="translate(415.799911 0)"/>
      </g>
     </g>
    </g>
    <g id="xtick_8">
     <g id="line2d_8">
      <g>
       <use xlink:href="#mfa4b3800e0" x="306.606562" y="190.3" style="stroke: #000000; stroke-width: 0.8"/>
      </g>
     </g>
     <g id="text_8">
      <!-- tyk2 -->
      <g transform="translate(296.564541 217.835928) rotate(-45) scale(0.1 -0.1)">
       <defs>
        <path id="Montserrat-Medium-79" d="M 730 -1280 
Q 486 -1280 256 -1200 
Q 26 -1120 -141 -966 
L 122 -506 
Q 250 -627 403 -691 
Q 557 -755 730 -755 
Q 954 -755 1101 -640 
Q 1248 -525 1376 -230 
L 1587 237 
L 1651 314 
L 2982 3392 
L 3584 3392 
L 1939 -339 
Q 1792 -698 1609 -902 
Q 1427 -1107 1209 -1193 
Q 992 -1280 730 -1280 
z
M 1536 -109 
L -13 3392 
L 627 3392 
L 1946 371 
L 1536 -109 
z
" transform="scale(0.015625)"/>
       </defs>
       <use xlink:href="#Montserrat-Medium-74"/>
       <use xlink:href="#Montserrat-Medium-79" transform="translate(41.399994 0)"/>
       <use xlink:href="#Montserrat-Medium-6b" transform="translate(97.299988 0)"/>
       <use xlink:href="#Montserrat-Medium-32" transform="translate(158.799973 0)"/>
      </g>
     </g>
    </g>
    <g id="xtick_9">
     <g id="line2d_9">
      <g>
       <use xlink:href="#mfa4b3800e0" x="341.481562" y="190.3" style="stroke: #000000; stroke-width: 0.8"/>
      </g>
     </g>
     <g id="text_9">
      <!-- cdk8 -->
      <g transform="translate(328.965772 220.309697) rotate(-45) scale(0.1 -0.1)">
       <use xlink:href="#Montserrat-Medium-63"/>
       <use xlink:href="#Montserrat-Medium-64" transform="translate(57.099991 0)"/>
       <use xlink:href="#Montserrat-Medium-6b" transform="translate(125.299973 0)"/>
       <use xlink:href="#Montserrat-Medium-38" transform="translate(186.799957 0)"/>
      </g>
     </g>
    </g>
    <g id="xtick_10">
     <g id="line2d_10">
      <g>
       <use xlink:href="#mfa4b3800e0" x="376.356562" y="190.3" style="stroke: #000000; stroke-width: 0.8"/>
      </g>
     </g>
     <g id="text_10">
      <!-- cmet -->
      <g transform="translate(362.83646 221.314009) rotate(-45) scale(0.1 -0.1)">
       <use xlink:href="#Montserrat-Medium-63"/>
       <use xlink:href="#Montserrat-Medium-6d" transform="translate(57.099991 0)"/>
       <use xlink:href="#Montserrat-Medium-65" transform="translate(162.799973 0)"/>
       <use xlink:href="#Montserrat-Medium-74" transform="translate(223.999969 0)"/>
      </g>
     </g>
    </g>
    <g id="xtick_11">
     <g id="line2d_11">
      <g>
       <use xlink:href="#mfa4b3800e0" x="411.231562" y="190.3" style="stroke: #000000; stroke-width: 0.8"/>
      </g>
     </g>
     <g id="text_11">
      <!-- eg5 -->
      <g transform="translate(403.170545 215.770955) rotate(-45) scale(0.1 -0.1)">
       <defs>
        <path id="Montserrat-Medium-67" d="M 2067 -1280 
Q 1600 -1280 1161 -1149 
Q 723 -1018 448 -774 
L 742 -301 
Q 979 -506 1324 -624 
Q 1670 -742 2048 -742 
Q 2650 -742 2931 -460 
Q 3213 -179 3213 397 
L 3213 1114 
L 3277 1786 
L 3245 2464 
L 3245 3392 
L 3827 3392 
L 3827 461 
Q 3827 -435 3379 -857 
Q 2931 -1280 2067 -1280 
z
M 1990 141 
Q 1498 141 1110 349 
Q 723 557 496 928 
Q 269 1299 269 1786 
Q 269 2278 496 2646 
Q 723 3014 1110 3219 
Q 1498 3424 1990 3424 
Q 2426 3424 2784 3248 
Q 3142 3072 3356 2707 
Q 3571 2342 3571 1786 
Q 3571 1235 3356 870 
Q 3142 506 2784 323 
Q 2426 141 1990 141 
z
M 2061 678 
Q 2400 678 2662 819 
Q 2925 960 3075 1209 
Q 3226 1459 3226 1786 
Q 3226 2112 3075 2361 
Q 2925 2611 2662 2748 
Q 2400 2886 2061 2886 
Q 1722 2886 1456 2748 
Q 1190 2611 1040 2361 
Q 890 2112 890 1786 
Q 890 1459 1040 1209 
Q 1190 960 1456 819 
Q 1722 678 2061 678 
z
" transform="scale(0.015625)"/>
        <path id="Montserrat-Medium-35" d="M 1754 -51 
Q 1280 -51 835 96 
Q 390 243 109 493 
L 403 998 
Q 627 787 985 652 
Q 1344 518 1747 518 
Q 2259 518 2534 736 
Q 2810 954 2810 1318 
Q 2810 1568 2688 1753 
Q 2566 1939 2268 2038 
Q 1971 2138 1453 2138 
L 435 2138 
L 672 4480 
L 3200 4480 
L 3200 3923 
L 909 3923 
L 1242 4237 
L 1056 2387 
L 723 2694 
L 1587 2694 
Q 2259 2694 2668 2521 
Q 3078 2349 3264 2045 
Q 3450 1741 3450 1344 
Q 3450 960 3264 643 
Q 3078 326 2704 137 
Q 2330 -51 1754 -51 
z
" transform="scale(0.015625)"/>
       </defs>
       <use xlink:href="#Montserrat-Medium-65"/>
       <use xlink:href="#Montserrat-Medium-67" transform="translate(61.199997 0)"/>
       <use xlink:href="#Montserrat-Medium-35" transform="translate(130.199982 0)"/>
      </g>
     </g>
    </g>
    <g id="xtick_12">
     <g id="line2d_12">
      <g>
       <use xlink:href="#mfa4b3800e0" x="446.106562" y="190.3" style="stroke: #000000; stroke-width: 0.8"/>
      </g>
     </g>
     <g id="text_12">
      <!-- hif2a -->
      <g transform="translate(433.781912 220.118557) rotate(-45) scale(0.1 -0.1)">
       <defs>
        <path id="Montserrat-Medium-66" d="M 672 0 
L 672 3693 
Q 672 4192 963 4489 
Q 1254 4787 1792 4787 
Q 1990 4787 2172 4739 
Q 2355 4691 2483 4589 
L 2298 4122 
Q 2202 4198 2080 4240 
Q 1958 4282 1824 4282 
Q 1555 4282 1414 4131 
Q 1274 3981 1274 3686 
L 1274 3232 
L 1286 2950 
L 1286 0 
L 672 0 
z
M 96 2886 
L 96 3392 
L 2259 3392 
L 2259 2886 
L 96 2886 
z
" transform="scale(0.015625)"/>
       </defs>
       <use xlink:href="#Montserrat-Medium-68"/>
       <use xlink:href="#Montserrat-Medium-69" transform="translate(68.099991 0)"/>
       <use xlink:href="#Montserrat-Medium-66" transform="translate(95.999985 0)"/>
       <use xlink:href="#Montserrat-Medium-32" transform="translate(131.299973 0)"/>
       <use xlink:href="#Montserrat-Medium-61" transform="translate(188.699966 0)"/>
      </g>
     </g>
    </g>
    <g id="xtick_13">
     <g id="line2d_13">
      <g>
       <use xlink:href="#mfa4b3800e0" x="480.981562" y="190.3" style="stroke: #000000; stroke-width: 0.8"/>
      </g>
     </g>
     <g id="text_13">
      <!-- shp2 -->
      <g transform="translate(468.989473 219.785996) rotate(-45) scale(0.1 -0.1)">
       <defs>
        <path id="Montserrat-Medium-73" d="M 1555 -38 
Q 1133 -38 752 77 
Q 371 192 154 358 
L 410 845 
Q 627 698 947 595 
Q 1267 493 1600 493 
Q 2029 493 2217 614 
Q 2406 736 2406 954 
Q 2406 1114 2291 1203 
Q 2176 1293 1987 1337 
Q 1798 1382 1568 1417 
Q 1338 1453 1107 1507 
Q 877 1562 685 1661 
Q 493 1760 377 1936 
Q 262 2112 262 2406 
Q 262 2714 435 2944 
Q 608 3174 925 3299 
Q 1242 3424 1677 3424 
Q 2010 3424 2352 3344 
Q 2694 3264 2912 3117 
L 2650 2630 
Q 2419 2784 2169 2841 
Q 1920 2899 1670 2899 
Q 1267 2899 1068 2768 
Q 870 2637 870 2432 
Q 870 2259 988 2166 
Q 1107 2074 1296 2022 
Q 1485 1971 1715 1936 
Q 1946 1901 2176 1846 
Q 2406 1792 2595 1696 
Q 2784 1600 2902 1427 
Q 3021 1254 3021 966 
Q 3021 659 2841 435 
Q 2662 211 2336 86 
Q 2010 -38 1555 -38 
z
" transform="scale(0.015625)"/>
       </defs>
       <use xlink:href="#Montserrat-Medium-73"/>
       <use xlink:href="#Montserrat-Medium-68" transform="translate(50.099991 0)"/>
       <use xlink:href="#Montserrat-Medium-70" transform="translate(118.199982 0)"/>
       <use xlink:href="#Montserrat-Medium-32" transform="translate(186.399963 0)"/>
      </g>
     </g>
    </g>
    <g id="xtick_14">
     <g id="line2d_14">
      <g>
       <use xlink:href="#mfa4b3800e0" x="515.856562" y="190.3" style="stroke: #000000; stroke-width: 0.8"/>
      </g>
     </g>
     <g id="text_14">
      <!-- syk -->
      <g transform="translate(509.259477 214.390992) rotate(-45) scale(0.1 -0.1)">
       <use xlink:href="#Montserrat-Medium-73"/>
       <use xlink:href="#Montserrat-Medium-79" transform="translate(50.099991 0)"/>
       <use xlink:href="#Montserrat-Medium-6b" transform="translate(105.999985 0)"/>
      </g>
     </g>
    </g>
    <g id="xtick_15">
     <g id="line2d_15">
      <g>
       <use xlink:href="#mfa4b3800e0" x="550.731562" y="190.3" style="stroke: #000000; stroke-width: 0.8"/>
      </g>
     </g>
     <g id="text_15">
      <!-- pfkfb3 -->
      <g transform="translate(532.989811 225.619627) rotate(-45) scale(0.1 -0.1)">
       <use xlink:href="#Montserrat-Medium-70"/>
       <use xlink:href="#Montserrat-Medium-66" transform="translate(68.199982 0)"/>
       <use xlink:href="#Montserrat-Medium-6b" transform="translate(103.499969 0)"/>
       <use xlink:href="#Montserrat-Medium-66" transform="translate(164.999954 0)"/>
       <use xlink:href="#Montserrat-Medium-62" transform="translate(200.299942 0)"/>
       <use xlink:href="#Montserrat-Medium-33" transform="translate(268.499924 0)"/>
      </g>
     </g>
    </g>
    <g id="xtick_16">
     <g id="line2d_16">
      <g>
       <use xlink:href="#mfa4b3800e0" x="585.606562" y="190.3" style="stroke: #000000; stroke-width: 0.8"/>
      </g>
     </g>
     <g id="text_16">
      <!-- tnks2 -->
      <g transform="translate(571.160592 222.239877) rotate(-45) scale(0.1 -0.1)">
       <use xlink:href="#Montserrat-Medium-74"/>
       <use xlink:href="#Montserrat-Medium-6e" transform="translate(41.399994 0)"/>
       <use xlink:href="#Montserrat-Medium-6b" transform="translate(109.499985 0)"/>
       <use xlink:href="#Montserrat-Medium-73" transform="translate(170.999969 0)"/>
       <use xlink:href="#Montserrat-Medium-32" transform="translate(221.09996 0)"/>
      </g>
     </g>
    </g>
   </g>
   <g id="matplotlib.axis_2">
    <g id="ytick_1">
     <g id="line2d_17">
      <path d="M 45.044063 190.3 
L 603.044062 190.3 
" clip-path="url(#p8df7278c8b)" style="fill: none; stroke: #b0b0b0; stroke-opacity: 0.5; stroke-width: 0.8; stroke-linecap: square"/>
     </g>
     <g id="line2d_18">
      <defs>
       <path id="mc5f30f8b74" d="M 0 0 
L -3.5 0 
" style="stroke: #000000; stroke-width: 0.8"/>
      </defs>
      <g>
       <use xlink:href="#mc5f30f8b74" x="45.044063" y="190.3" style="stroke: #000000; stroke-width: 0.8"/>
      </g>
     </g>
     <g id="text_17">
      <!-- 0.0 -->
      <g transform="translate(22.433125 194.010156) scale(0.1 -0.1)">
       <defs>
        <path id="Montserrat-Medium-30" d="M 2138 -51 
Q 1613 -51 1200 217 
Q 787 486 547 998 
Q 307 1510 307 2240 
Q 307 2970 547 3482 
Q 787 3994 1200 4262 
Q 1613 4531 2138 4531 
Q 2656 4531 3072 4262 
Q 3488 3994 3725 3482 
Q 3962 2970 3962 2240 
Q 3962 1510 3725 998 
Q 3488 486 3072 217 
Q 2656 -51 2138 -51 
z
M 2138 518 
Q 2490 518 2755 710 
Q 3021 902 3171 1286 
Q 3322 1670 3322 2240 
Q 3322 2810 3171 3194 
Q 3021 3578 2755 3770 
Q 2490 3962 2138 3962 
Q 1786 3962 1517 3770 
Q 1248 3578 1097 3194 
Q 947 2810 947 2240 
Q 947 1670 1097 1286 
Q 1248 902 1517 710 
Q 1786 518 2138 518 
z
" transform="scale(0.015625)"/>
        <path id="Montserrat-Medium-2e" d="M 730 -38 
Q 550 -38 422 86 
Q 294 211 294 403 
Q 294 595 422 716 
Q 550 838 730 838 
Q 902 838 1027 716 
Q 1152 595 1152 403 
Q 1152 211 1027 86 
Q 902 -38 730 -38 
z
" transform="scale(0.015625)"/>
       </defs>
       <use xlink:href="#Montserrat-Medium-30"/>
       <use xlink:href="#Montserrat-Medium-2e" transform="translate(66.699997 0)"/>
       <use xlink:href="#Montserrat-Medium-30" transform="translate(89.399994 0)"/>
      </g>
     </g>
    </g>
    <g id="ytick_2">
     <g id="line2d_19">
      <path d="M 45.044063 162.276108 
L 603.044062 162.276108 
" clip-path="url(#p8df7278c8b)" style="fill: none; stroke: #b0b0b0; stroke-opacity: 0.5; stroke-width: 0.8; stroke-linecap: square"/>
     </g>
     <g id="line2d_20">
      <g>
       <use xlink:href="#mc5f30f8b74" x="45.044063" y="162.276108" style="stroke: #000000; stroke-width: 0.8"/>
      </g>
     </g>
     <g id="text_18">
      <!-- 0.5 -->
      <g transform="translate(23.362813 165.986264) scale(0.1 -0.1)">
       <use xlink:href="#Montserrat-Medium-30"/>
       <use xlink:href="#Montserrat-Medium-2e" transform="translate(66.699997 0)"/>
       <use xlink:href="#Montserrat-Medium-35" transform="translate(89.399994 0)"/>
      </g>
     </g>
    </g>
    <g id="ytick_3">
     <g id="line2d_21">
      <path d="M 45.044063 134.252216 
L 603.044062 134.252216 
" clip-path="url(#p8df7278c8b)" style="fill: none; stroke: #b0b0b0; stroke-opacity: 0.5; stroke-width: 0.8; stroke-linecap: square"/>
     </g>
     <g id="line2d_22">
      <g>
       <use xlink:href="#mc5f30f8b74" x="45.044063" y="134.252216" style="stroke: #000000; stroke-width: 0.8"/>
      </g>
     </g>
     <g id="text_19">
      <!-- 1.0 -->
      <g transform="translate(25.403438 137.962372) scale(0.1 -0.1)">
       <use xlink:href="#Montserrat-Medium-31"/>
       <use xlink:href="#Montserrat-Medium-2e" transform="translate(36.999985 0)"/>
       <use xlink:href="#Montserrat-Medium-30" transform="translate(59.699982 0)"/>
      </g>
     </g>
    </g>
    <g id="ytick_4">
     <g id="line2d_23">
      <path d="M 45.044063 106.228324 
L 603.044062 106.228324 
" clip-path="url(#p8df7278c8b)" style="fill: none; stroke: #b0b0b0; stroke-opacity: 0.5; stroke-width: 0.8; stroke-linecap: square"/>
     </g>
     <g id="line2d_24">
      <g>
       <use xlink:href="#mc5f30f8b74" x="45.044063" y="106.228324" style="stroke: #000000; stroke-width: 0.8"/>
      </g>
     </g>
     <g id="text_20">
      <!-- 1.5 -->
      <g transform="translate(26.333125 109.93848) scale(0.1 -0.1)">
       <use xlink:href="#Montserrat-Medium-31"/>
       <use xlink:href="#Montserrat-Medium-2e" transform="translate(36.999985 0)"/>
       <use xlink:href="#Montserrat-Medium-35" transform="translate(59.699982 0)"/>
      </g>
     </g>
    </g>
    <g id="ytick_5">
     <g id="line2d_25">
      <path d="M 45.044063 78.204431 
L 603.044062 78.204431 
" clip-path="url(#p8df7278c8b)" style="fill: none; stroke: #b0b0b0; stroke-opacity: 0.5; stroke-width: 0.8; stroke-linecap: square"/>
     </g>
     <g id="line2d_26">
      <g>
       <use xlink:href="#mc5f30f8b74" x="45.044063" y="78.204431" style="stroke: #000000; stroke-width: 0.8"/>
      </g>
     </g>
     <g id="text_21">
      <!-- 2.0 -->
      <g transform="translate(23.362813 81.914588) scale(0.1 -0.1)">
       <use xlink:href="#Montserrat-Medium-32"/>
       <use xlink:href="#Montserrat-Medium-2e" transform="translate(57.399994 0)"/>
       <use xlink:href="#Montserrat-Medium-30" transform="translate(80.099991 0)"/>
      </g>
     </g>
    </g>
    <g id="ytick_6">
     <g id="line2d_27">
      <path d="M 45.044063 50.180539 
L 603.044062 50.180539 
" clip-path="url(#p8df7278c8b)" style="fill: none; stroke: #b0b0b0; stroke-opacity: 0.5; stroke-width: 0.8; stroke-linecap: square"/>
     </g>
     <g id="line2d_28">
      <g>
       <use xlink:href="#mc5f30f8b74" x="45.044063" y="50.180539" style="stroke: #000000; stroke-width: 0.8"/>
      </g>
     </g>
     <g id="text_22">
      <!-- 2.5 -->
      <g transform="translate(24.2925 53.890696) scale(0.1 -0.1)">
       <use xlink:href="#Montserrat-Medium-32"/>
       <use xlink:href="#Montserrat-Medium-2e" transform="translate(57.399994 0)"/>
       <use xlink:href="#Montserrat-Medium-35" transform="translate(80.099991 0)"/>
      </g>
     </g>
    </g>
    <g id="text_23">
     <!-- $\mathrm{Abs.} \Delta\Delta G\ \mathrm{(kcal/mol)}$ -->
     <g transform="translate(16.104375 166.12) rotate(-90) scale(0.12 -0.12)">
      <defs>
       <path id="DejaVuSans-41" d="M 2188 4044 
L 1331 1722 
L 3047 1722 
L 2188 4044 
z
M 1831 4666 
L 2547 4666 
L 4325 0 
L 3669 0 
L 3244 1197 
L 1141 1197 
L 716 0 
L 50 0 
L 1831 4666 
z
" transform="scale(0.015625)"/>
       <path id="DejaVuSans-62" d="M 3116 1747 
Q 3116 2381 2855 2742 
Q 2594 3103 2138 3103 
Q 1681 3103 1420 2742 
Q 1159 2381 1159 1747 
Q 1159 1113 1420 752 
Q 1681 391 2138 391 
Q 2594 391 2855 752 
Q 3116 1113 3116 1747 
z
M 1159 2969 
Q 1341 3281 1617 3432 
Q 1894 3584 2278 3584 
Q 2916 3584 3314 3078 
Q 3713 2572 3713 1747 
Q 3713 922 3314 415 
Q 2916 -91 2278 -91 
Q 1894 -91 1617 61 
Q 1341 213 1159 525 
L 1159 0 
L 581 0 
L 581 4863 
L 1159 4863 
L 1159 2969 
z
" transform="scale(0.015625)"/>
       <path id="DejaVuSans-73" d="M 2834 3397 
L 2834 2853 
Q 2591 2978 2328 3040 
Q 2066 3103 1784 3103 
Q 1356 3103 1142 2972 
Q 928 2841 928 2578 
Q 928 2378 1081 2264 
Q 1234 2150 1697 2047 
L 1894 2003 
Q 2506 1872 2764 1633 
Q 3022 1394 3022 966 
Q 3022 478 2636 193 
Q 2250 -91 1575 -91 
Q 1294 -91 989 -36 
Q 684 19 347 128 
L 347 722 
Q 666 556 975 473 
Q 1284 391 1588 391 
Q 1994 391 2212 530 
Q 2431 669 2431 922 
Q 2431 1156 2273 1281 
Q 2116 1406 1581 1522 
L 1381 1569 
Q 847 1681 609 1914 
Q 372 2147 372 2553 
Q 372 3047 722 3315 
Q 1072 3584 1716 3584 
Q 2034 3584 2315 3537 
Q 2597 3491 2834 3397 
z
" transform="scale(0.015625)"/>
       <path id="DejaVuSans-2e" d="M 684 794 
L 1344 794 
L 1344 0 
L 684 0 
L 684 794 
z
" transform="scale(0.015625)"/>
       <path id="DejaVuSans-394" d="M 2188 4044 
L 906 525 
L 3472 525 
L 2188 4044 
z
M 50 0 
L 1831 4666 
L 2547 4666 
L 4325 0 
L 50 0 
z
" transform="scale(0.015625)"/>
       <path id="DejaVuSans-Oblique-47" d="M 3494 697 
L 3738 1919 
L 2700 1919 
L 2797 2438 
L 4453 2438 
L 4050 384 
Q 3634 156 3143 32 
Q 2653 -91 2156 -91 
Q 1278 -91 783 396 
Q 288 884 288 1753 
Q 288 2475 589 3126 
Q 891 3778 1422 4213 
Q 1756 4484 2153 4617 
Q 2550 4750 3034 4750 
Q 3472 4750 3873 4639 
Q 4275 4528 4641 4306 
L 4513 3634 
Q 4231 3928 3853 4083 
Q 3475 4238 3047 4238 
Q 2550 4238 2172 4048 
Q 1794 3859 1497 3463 
Q 1244 3125 1098 2667 
Q 953 2209 953 1734 
Q 953 1081 1287 751 
Q 1622 422 2284 422 
Q 2616 422 2925 492 
Q 3234 563 3494 697 
z
" transform="scale(0.015625)"/>
       <path id="DejaVuSans-28" d="M 1984 4856 
Q 1566 4138 1362 3434 
Q 1159 2731 1159 2009 
Q 1159 1288 1364 580 
Q 1569 -128 1984 -844 
L 1484 -844 
Q 1016 -109 783 600 
Q 550 1309 550 2009 
Q 550 2706 781 3412 
Q 1013 4119 1484 4856 
L 1984 4856 
z
" transform="scale(0.015625)"/>
       <path id="DejaVuSans-6b" d="M 581 4863 
L 1159 4863 
L 1159 1991 
L 2875 3500 
L 3609 3500 
L 1753 1863 
L 3688 0 
L 2938 0 
L 1159 1709 
L 1159 0 
L 581 0 
L 581 4863 
z
" transform="scale(0.015625)"/>
       <path id="DejaVuSans-63" d="M 3122 3366 
L 3122 2828 
Q 2878 2963 2633 3030 
Q 2388 3097 2138 3097 
Q 1578 3097 1268 2742 
Q 959 2388 959 1747 
Q 959 1106 1268 751 
Q 1578 397 2138 397 
Q 2388 397 2633 464 
Q 2878 531 3122 666 
L 3122 134 
Q 2881 22 2623 -34 
Q 2366 -91 2075 -91 
Q 1284 -91 818 406 
Q 353 903 353 1747 
Q 353 2603 823 3093 
Q 1294 3584 2113 3584 
Q 2378 3584 2631 3529 
Q 2884 3475 3122 3366 
z
" transform="scale(0.015625)"/>
       <path id="DejaVuSans-61" d="M 2194 1759 
Q 1497 1759 1228 1600 
Q 959 1441 959 1056 
Q 959 750 1161 570 
Q 1363 391 1709 391 
Q 2188 391 2477 730 
Q 2766 1069 2766 1631 
L 2766 1759 
L 2194 1759 
z
M 3341 1997 
L 3341 0 
L 2766 0 
L 2766 531 
Q 2569 213 2275 61 
Q 1981 -91 1556 -91 
Q 1019 -91 701 211 
Q 384 513 384 1019 
Q 384 1609 779 1909 
Q 1175 2209 1959 2209 
L 2766 2209 
L 2766 2266 
Q 2766 2663 2505 2880 
Q 2244 3097 1772 3097 
Q 1472 3097 1187 3025 
Q 903 2953 641 2809 
L 641 3341 
Q 956 3463 1253 3523 
Q 1550 3584 1831 3584 
Q 2591 3584 2966 3190 
Q 3341 2797 3341 1997 
z
" transform="scale(0.015625)"/>
       <path id="DejaVuSans-6c" d="M 603 4863 
L 1178 4863 
L 1178 0 
L 603 0 
L 603 4863 
z
" transform="scale(0.015625)"/>
       <path id="DejaVuSans-2f" d="M 1625 4666 
L 2156 4666 
L 531 -594 
L 0 -594 
L 1625 4666 
z
" transform="scale(0.015625)"/>
       <path id="DejaVuSans-6d" d="M 3328 2828 
Q 3544 3216 3844 3400 
Q 4144 3584 4550 3584 
Q 5097 3584 5394 3201 
Q 5691 2819 5691 2113 
L 5691 0 
L 5113 0 
L 5113 2094 
Q 5113 2597 4934 2840 
Q 4756 3084 4391 3084 
Q 3944 3084 3684 2787 
Q 3425 2491 3425 1978 
L 3425 0 
L 2847 0 
L 2847 2094 
Q 2847 2600 2669 2842 
Q 2491 3084 2119 3084 
Q 1678 3084 1418 2786 
Q 1159 2488 1159 1978 
L 1159 0 
L 581 0 
L 581 3500 
L 1159 3500 
L 1159 2956 
Q 1356 3278 1631 3431 
Q 1906 3584 2284 3584 
Q 2666 3584 2933 3390 
Q 3200 3197 3328 2828 
z
" transform="scale(0.015625)"/>
       <path id="DejaVuSans-6f" d="M 1959 3097 
Q 1497 3097 1228 2736 
Q 959 2375 959 1747 
Q 959 1119 1226 758 
Q 1494 397 1959 397 
Q 2419 397 2687 759 
Q 2956 1122 2956 1747 
Q 2956 2369 2687 2733 
Q 2419 3097 1959 3097 
z
M 1959 3584 
Q 2709 3584 3137 3096 
Q 3566 2609 3566 1747 
Q 3566 888 3137 398 
Q 2709 -91 1959 -91 
Q 1206 -91 779 398 
Q 353 888 353 1747 
Q 353 2609 779 3096 
Q 1206 3584 1959 3584 
z
" transform="scale(0.015625)"/>
       <path id="DejaVuSans-29" d="M 513 4856 
L 1013 4856 
Q 1481 4119 1714 3412 
Q 1947 2706 1947 2009 
Q 1947 1309 1714 600 
Q 1481 -109 1013 -844 
L 513 -844 
Q 928 -128 1133 580 
Q 1338 1288 1338 2009 
Q 1338 2731 1133 3434 
Q 928 4138 513 4856 
z
" transform="scale(0.015625)"/>
      </defs>
      <use xlink:href="#DejaVuSans-41" transform="translate(0 0.015625)"/>
      <use xlink:href="#DejaVuSans-62" transform="translate(68.408203 0.015625)"/>
      <use xlink:href="#DejaVuSans-73" transform="translate(131.884766 0.015625)"/>
      <use xlink:href="#DejaVuSans-2e" transform="translate(183.984375 0.015625)"/>
      <use xlink:href="#DejaVuSans-394" transform="translate(235.253906 0.015625)"/>
      <use xlink:href="#DejaVuSans-394" transform="translate(303.662109 0.015625)"/>
      <use xlink:href="#DejaVuSans-Oblique-47" transform="translate(372.070312 0.015625)"/>
      <use xlink:href="#DejaVuSans-28" transform="translate(482.030925 0.015625)"/>
      <use xlink:href="#DejaVuSans-6b" transform="translate(521.044597 0.015625)"/>
      <use xlink:href="#DejaVuSans-63" transform="translate(578.954753 0.015625)"/>
      <use xlink:href="#DejaVuSans-61" transform="translate(633.935222 0.015625)"/>
      <use xlink:href="#DejaVuSans-6c" transform="translate(695.214519 0.015625)"/>
      <use xlink:href="#DejaVuSans-2f" transform="translate(722.997722 0.015625)"/>
      <use xlink:href="#DejaVuSans-6d" transform="translate(756.689128 0.015625)"/>
      <use xlink:href="#DejaVuSans-6f" transform="translate(854.101238 0.015625)"/>
      <use xlink:href="#DejaVuSans-6c" transform="translate(915.282878 0.015625)"/>
      <use xlink:href="#DejaVuSans-29" transform="translate(943.066082 0.015625)"/>
     </g>
    </g>
   </g>
   <g id="patch_3">
    <path d="M 48.531563 190.3 
L 57.831563 190.3 
L 57.831563 110.951919 
L 48.531563 110.951919 
z
" clip-path="url(#p8df7278c8b)" style="fill: #3274a1; stroke: #000000; stroke-width: 0.5; stroke-linejoin: miter"/>
   </g>
   <g id="patch_4">
    <path d="M 83.406563 190.3 
L 92.706563 190.3 
L 92.706563 133.31585 
L 83.406563 133.31585 
z
" clip-path="url(#p8df7278c8b)" style="fill: #3274a1; stroke: #000000; stroke-width: 0.5; stroke-linejoin: miter"/>
   </g>
   <g id="patch_5">
    <path d="M 118.281563 190.3 
L 127.581563 190.3 
L 127.581563 124.947661 
L 118.281563 124.947661 
z
" clip-path="url(#p8df7278c8b)" style="fill: #3274a1; stroke: #000000; stroke-width: 0.5; stroke-linejoin: miter"/>
   </g>
   <g id="patch_6">
    <path d="M 153.156563 190.3 
L 162.456563 190.3 
L 162.456563 103.676795 
L 153.156563 103.676795 
z
" clip-path="url(#p8df7278c8b)" style="fill: #3274a1; stroke: #000000; stroke-width: 0.5; stroke-linejoin: miter"/>
   </g>
   <g id="patch_7">
    <path d="M 188.031563 190.3 
L 197.331563 190.3 
L 197.331563 122.144104 
L 188.031563 122.144104 
z
" clip-path="url(#p8df7278c8b)" style="fill: #3274a1; stroke: #000000; stroke-width: 0.5; stroke-linejoin: miter"/>
   </g>
   <g id="patch_8">
    <path d="M 222.906563 190.3 
L 232.206563 190.3 
L 232.206563 103.530464 
L 222.906563 103.530464 
z
" clip-path="url(#p8df7278c8b)" style="fill: #3274a1; stroke: #000000; stroke-width: 0.5; stroke-linejoin: miter"/>
   </g>
   <g id="patch_9">
    <path d="M 257.781563 190.3 
L 267.081563 190.3 
L 267.081563 132.224176 
L 257.781563 132.224176 
z
" clip-path="url(#p8df7278c8b)" style="fill: #3274a1; stroke: #000000; stroke-width: 0.5; stroke-linejoin: miter"/>
   </g>
   <g id="patch_10">
    <path d="M 292.656563 190.3 
L 301.956563 190.3 
L 301.956563 135.941773 
L 292.656563 135.941773 
z
" clip-path="url(#p8df7278c8b)" style="fill: #3274a1; stroke: #000000; stroke-width: 0.5; stroke-linejoin: miter"/>
   </g>
   <g id="patch_11">
    <path d="M 327.531563 190.3 
L 336.831563 190.3 
L 336.831563 58.67641 
L 327.531563 58.67641 
z
" clip-path="url(#p8df7278c8b)" style="fill: #3274a1; stroke: #000000; stroke-width: 0.5; stroke-linejoin: miter"/>
   </g>
   <g id="patch_12">
    <path d="M 362.406563 190.3 
L 371.706562 190.3 
L 371.706562 82.217283 
L 362.406563 82.217283 
z
" clip-path="url(#p8df7278c8b)" style="fill: #3274a1; stroke: #000000; stroke-width: 0.5; stroke-linejoin: miter"/>
   </g>
   <g id="patch_13">
    <path d="M 397.281563 190.3 
L 406.581562 190.3 
L 406.581562 100.062277 
L 397.281563 100.062277 
z
" clip-path="url(#p8df7278c8b)" style="fill: #3274a1; stroke: #000000; stroke-width: 0.5; stroke-linejoin: miter"/>
   </g>
   <g id="patch_14">
    <path d="M 432.156563 190.3 
L 441.456562 190.3 
L 441.456562 94.465106 
L 432.156563 94.465106 
z
" clip-path="url(#p8df7278c8b)" style="fill: #3274a1; stroke: #000000; stroke-width: 0.5; stroke-linejoin: miter"/>
   </g>
   <g id="patch_15">
    <path d="M 467.031563 190.3 
L 476.331562 190.3 
L 476.331562 74.807441 
L 467.031563 74.807441 
z
" clip-path="url(#p8df7278c8b)" style="fill: #3274a1; stroke: #000000; stroke-width: 0.5; stroke-linejoin: miter"/>
   </g>
   <g id="patch_16">
    <path d="M 501.906563 190.3 
L 511.206562 190.3 
L 511.206562 133.75909 
L 501.906563 133.75909 
z
" clip-path="url(#p8df7278c8b)" style="fill: #3274a1; stroke: #000000; stroke-width: 0.5; stroke-linejoin: miter"/>
   </g>
   <g id="patch_17">
    <path d="M 536.781563 190.3 
L 546.081563 190.3 
L 546.081563 113.291317 
L 536.781563 113.291317 
z
" clip-path="url(#p8df7278c8b)" style="fill: #3274a1; stroke: #000000; stroke-width: 0.5; stroke-linejoin: miter"/>
   </g>
   <g id="patch_18">
    <path d="M 571.656563 190.3 
L 580.956563 190.3 
L 580.956563 134.207014 
L 571.656563 134.207014 
z
" clip-path="url(#p8df7278c8b)" style="fill: #3274a1; stroke: #000000; stroke-width: 0.5; stroke-linejoin: miter"/>
   </g>
   <g id="patch_19">
    <path d="M 57.831563 190.3 
L 67.131563 190.3 
L 67.131563 141.111627 
L 57.831563 141.111627 
z
" clip-path="url(#p8df7278c8b)" style="fill: #b5c8e1; stroke: #000000; stroke-width: 0.5; stroke-linejoin: miter"/>
   </g>
   <g id="patch_20">
    <path d="M 92.706563 190.3 
L 102.006563 190.3 
L 102.006563 134.737963 
L 92.706563 134.737963 
z
" clip-path="url(#p8df7278c8b)" style="fill: #b5c8e1; stroke: #000000; stroke-width: 0.5; stroke-linejoin: miter"/>
   </g>
   <g id="patch_21">
    <path d="M 127.581563 190.3 
L 136.881563 190.3 
L 136.881563 145.383426 
L 127.581563 145.383426 
z
" clip-path="url(#p8df7278c8b)" style="fill: #b5c8e1; stroke: #000000; stroke-width: 0.5; stroke-linejoin: miter"/>
   </g>
   <g id="patch_22">
    <path d="M 162.456563 190.3 
L 171.756563 190.3 
L 171.756563 117.552344 
L 162.456563 117.552344 
z
" clip-path="url(#p8df7278c8b)" style="fill: #b5c8e1; stroke: #000000; stroke-width: 0.5; stroke-linejoin: miter"/>
   </g>
   <g id="patch_23">
    <path d="M 197.331563 190.3 
L 206.631563 190.3 
L 206.631563 147.246628 
L 197.331563 147.246628 
z
" clip-path="url(#p8df7278c8b)" style="fill: #b5c8e1; stroke: #000000; stroke-width: 0.5; stroke-linejoin: miter"/>
   </g>
   <g id="patch_24">
    <path d="M 232.206563 190.3 
L 241.506563 190.3 
L 241.506563 103.513628 
L 232.206563 103.513628 
z
" clip-path="url(#p8df7278c8b)" style="fill: #b5c8e1; stroke: #000000; stroke-width: 0.5; stroke-linejoin: miter"/>
   </g>
   <g id="patch_25">
    <path d="M 267.081563 190.3 
L 276.381563 190.3 
L 276.381563 125.681575 
L 267.081563 125.681575 
z
" clip-path="url(#p8df7278c8b)" style="fill: #b5c8e1; stroke: #000000; stroke-width: 0.5; stroke-linejoin: miter"/>
   </g>
   <g id="patch_26">
    <path d="M 301.956563 190.3 
L 311.256563 190.3 
L 311.256563 136.385145 
L 301.956563 136.385145 
z
" clip-path="url(#p8df7278c8b)" style="fill: #b5c8e1; stroke: #000000; stroke-width: 0.5; stroke-linejoin: miter"/>
   </g>
   <g id="patch_27">
    <path d="M 336.831562 190.3 
L 346.131562 190.3 
L 346.131562 119.576 
L 336.831562 119.576 
z
" clip-path="url(#p8df7278c8b)" style="fill: #b5c8e1; stroke: #000000; stroke-width: 0.5; stroke-linejoin: miter"/>
   </g>
   <g id="patch_28">
    <path d="M 371.706563 190.3 
L 381.006562 190.3 
L 381.006562 112.56074 
L 371.706563 112.56074 
z
" clip-path="url(#p8df7278c8b)" style="fill: #b5c8e1; stroke: #000000; stroke-width: 0.5; stroke-linejoin: miter"/>
   </g>
   <g id="patch_29">
    <path d="M 406.581563 190.3 
L 415.881562 190.3 
L 415.881562 137.32191 
L 406.581563 137.32191 
z
" clip-path="url(#p8df7278c8b)" style="fill: #b5c8e1; stroke: #000000; stroke-width: 0.5; stroke-linejoin: miter"/>
   </g>
   <g id="patch_30">
    <path d="M 441.456563 190.3 
L 450.756562 190.3 
L 450.756562 89.550046 
L 441.456563 89.550046 
z
" clip-path="url(#p8df7278c8b)" style="fill: #b5c8e1; stroke: #000000; stroke-width: 0.5; stroke-linejoin: miter"/>
   </g>
   <g id="patch_31">
    <path d="M 476.331563 190.3 
L 485.631562 190.3 
L 485.631562 77.210251 
L 476.331563 77.210251 
z
" clip-path="url(#p8df7278c8b)" style="fill: #b5c8e1; stroke: #000000; stroke-width: 0.5; stroke-linejoin: miter"/>
   </g>
   <g id="patch_32">
    <path d="M 511.206563 190.3 
L 520.506562 190.3 
L 520.506562 131.830877 
L 511.206563 131.830877 
z
" clip-path="url(#p8df7278c8b)" style="fill: #b5c8e1; stroke: #000000; stroke-width: 0.5; stroke-linejoin: miter"/>
   </g>
   <g id="patch_33">
    <path d="M 546.081563 190.3 
L 555.381562 190.3 
L 555.381562 123.164379 
L 546.081563 123.164379 
z
" clip-path="url(#p8df7278c8b)" style="fill: #b5c8e1; stroke: #000000; stroke-width: 0.5; stroke-linejoin: miter"/>
   </g>
   <g id="patch_34">
    <path d="M 580.956563 190.3 
L 590.256562 190.3 
L 590.256562 152.455291 
L 580.956563 152.455291 
z
" clip-path="url(#p8df7278c8b)" style="fill: #b5c8e1; stroke: #000000; stroke-width: 0.5; stroke-linejoin: miter"/>
   </g>
   <g id="patch_35">
    <path d="M 67.131563 190.3 
L 76.431562 190.3 
L 76.431562 119.863452 
L 67.131563 119.863452 
z
" clip-path="url(#p8df7278c8b)" style="fill: #e1812c; stroke: #000000; stroke-width: 0.5; stroke-linejoin: miter"/>
   </g>
   <g id="patch_36">
    <path d="M 102.006563 190.3 
L 111.306562 190.3 
L 111.306562 145.37051 
L 102.006563 145.37051 
z
" clip-path="url(#p8df7278c8b)" style="fill: #e1812c; stroke: #000000; stroke-width: 0.5; stroke-linejoin: miter"/>
   </g>
   <g id="patch_37">
    <path d="M 136.881563 190.3 
L 146.181563 190.3 
L 146.181563 157.948091 
L 136.881563 157.948091 
z
" clip-path="url(#p8df7278c8b)" style="fill: #e1812c; stroke: #000000; stroke-width: 0.5; stroke-linejoin: miter"/>
   </g>
   <g id="patch_38">
    <path d="M 171.756563 190.3 
L 181.056563 190.3 
L 181.056563 123.97787 
L 171.756563 123.97787 
z
" clip-path="url(#p8df7278c8b)" style="fill: #e1812c; stroke: #000000; stroke-width: 0.5; stroke-linejoin: miter"/>
   </g>
   <g id="patch_39">
    <path d="M 206.631562 190.3 
L 215.931563 190.3 
L 215.931563 147.392807 
L 206.631562 147.392807 
z
" clip-path="url(#p8df7278c8b)" style="fill: #e1812c; stroke: #000000; stroke-width: 0.5; stroke-linejoin: miter"/>
   </g>
   <g id="patch_40">
    <path d="M 241.506562 190.3 
L 250.806563 190.3 
L 250.806563 152.969906 
L 241.506562 152.969906 
z
" clip-path="url(#p8df7278c8b)" style="fill: #e1812c; stroke: #000000; stroke-width: 0.5; stroke-linejoin: miter"/>
   </g>
   <g id="patch_41">
    <path d="M 276.381562 190.3 
L 285.681562 190.3 
L 285.681562 129.79773 
L 276.381562 129.79773 
z
" clip-path="url(#p8df7278c8b)" style="fill: #e1812c; stroke: #000000; stroke-width: 0.5; stroke-linejoin: miter"/>
   </g>
   <g id="patch_42">
    <path d="M 311.256562 190.3 
L 320.556562 190.3 
L 320.556562 147.55709 
L 311.256562 147.55709 
z
" clip-path="url(#p8df7278c8b)" style="fill: #e1812c; stroke: #000000; stroke-width: 0.5; stroke-linejoin: miter"/>
   </g>
   <g id="patch_43">
    <path d="M 346.131562 190.3 
L 355.431562 190.3 
L 355.431562 121.776394 
L 346.131562 121.776394 
z
" clip-path="url(#p8df7278c8b)" style="fill: #e1812c; stroke: #000000; stroke-width: 0.5; stroke-linejoin: miter"/>
   </g>
   <g id="patch_44">
    <path d="M 381.006562 190.3 
L 390.306562 190.3 
L 390.306562 129.266913 
L 381.006562 129.266913 
z
" clip-path="url(#p8df7278c8b)" style="fill: #e1812c; stroke: #000000; stroke-width: 0.5; stroke-linejoin: miter"/>
   </g>
   <g id="patch_45">
    <path d="M 415.881562 190.3 
L 425.181562 190.3 
L 425.181562 134.364311 
L 415.881562 134.364311 
z
" clip-path="url(#p8df7278c8b)" style="fill: #e1812c; stroke: #000000; stroke-width: 0.5; stroke-linejoin: miter"/>
   </g>
   <g id="patch_46">
    <path d="M 450.756562 190.3 
L 460.056562 190.3 
L 460.056562 124.92026 
L 450.756562 124.92026 
z
" clip-path="url(#p8df7278c8b)" style="fill: #e1812c; stroke: #000000; stroke-width: 0.5; stroke-linejoin: miter"/>
   </g>
   <g id="patch_47">
    <path d="M 485.631562 190.3 
L 494.931562 190.3 
L 494.931562 130.659152 
L 485.631562 130.659152 
z
" clip-path="url(#p8df7278c8b)" style="fill: #e1812c; stroke: #000000; stroke-width: 0.5; stroke-linejoin: miter"/>
   </g>
   <g id="patch_48">
    <path d="M 520.506562 190.3 
L 529.806562 190.3 
L 529.806562 133.281091 
L 520.506562 133.281091 
z
" clip-path="url(#p8df7278c8b)" style="fill: #e1812c; stroke: #000000; stroke-width: 0.5; stroke-linejoin: miter"/>
   </g>
   <g id="patch_49">
    <path d="M 555.381562 190.3 
L 564.681562 190.3 
L 564.681562 130.252442 
L 555.381562 130.252442 
z
" clip-path="url(#p8df7278c8b)" style="fill: #e1812c; stroke: #000000; stroke-width: 0.5; stroke-linejoin: miter"/>
   </g>
   <g id="patch_50">
    <path d="M 590.256562 190.3 
L 599.556562 190.3 
L 599.556562 140.622981 
L 590.256562 140.622981 
z
" clip-path="url(#p8df7278c8b)" style="fill: #e1812c; stroke: #000000; stroke-width: 0.5; stroke-linejoin: miter"/>
   </g>
   <g id="patch_51">
    <path d="M 62.481563 190.3 
L 62.481563 190.3 
L 62.481563 190.3 
L 62.481563 190.3 
z
" clip-path="url(#p8df7278c8b)" style="fill: #3274a1; stroke: #000000; stroke-width: 0.5; stroke-linejoin: miter"/>
   </g>
   <g id="patch_52">
    <path d="M 62.481563 190.3 
L 62.481563 190.3 
L 62.481563 190.3 
L 62.481563 190.3 
z
" clip-path="url(#p8df7278c8b)" style="fill: #b5c8e1; stroke: #000000; stroke-width: 0.5; stroke-linejoin: miter"/>
   </g>
   <g id="patch_53">
    <path d="M 62.481563 190.3 
L 62.481563 190.3 
L 62.481563 190.3 
L 62.481563 190.3 
z
" clip-path="url(#p8df7278c8b)" style="fill: #e1812c; stroke: #000000; stroke-width: 0.5; stroke-linejoin: miter"/>
   </g>
   <g id="line2d_29">
    <path d="M 51.437813 126.199995 
L 54.925313 126.199995 
M 53.181563 126.199995 
L 53.181563 94.42587 
M 51.437813 94.42587 
L 54.925313 94.42587 
" clip-path="url(#p8df7278c8b)" style="fill: none; stroke: #424242; stroke-width: 0.75; stroke-linecap: square"/>
   </g>
   <g id="line2d_30">
    <path d="M 86.312813 148.774783 
L 89.800313 148.774783 
M 88.056563 148.774783 
L 88.056563 117.983321 
M 86.312813 117.983321 
L 89.800313 117.983321 
" clip-path="url(#p8df7278c8b)" style="fill: none; stroke: #424242; stroke-width: 0.75; stroke-linecap: square"/>
   </g>
   <g id="line2d_31">
    <path d="M 121.187813 141.693675 
L 124.675313 141.693675 
M 122.931563 141.693675 
L 122.931563 105.031693 
M 121.187813 105.031693 
L 124.675313 105.031693 
" clip-path="url(#p8df7278c8b)" style="fill: none; stroke: #424242; stroke-width: 0.75; stroke-linecap: square"/>
   </g>
   <g id="line2d_32">
    <path d="M 156.062813 120.862927 
L 159.550313 120.862927 
M 157.806563 120.862927 
L 157.806563 83.546137 
M 156.062813 83.546137 
L 159.550313 83.546137 
" clip-path="url(#p8df7278c8b)" style="fill: none; stroke: #424242; stroke-width: 0.75; stroke-linecap: square"/>
   </g>
   <g id="line2d_33">
    <path d="M 190.937813 135.244419 
L 194.425313 135.244419 
M 192.681562 135.244419 
L 192.681562 107.870351 
M 190.937813 107.870351 
L 194.425313 107.870351 
" clip-path="url(#p8df7278c8b)" style="fill: none; stroke: #424242; stroke-width: 0.75; stroke-linecap: square"/>
   </g>
   <g id="line2d_34">
    <path d="M 225.812813 122.830797 
L 229.300313 122.830797 
M 227.556562 122.830797 
L 227.556562 81.644737 
M 225.812813 81.644737 
L 229.300313 81.644737 
" clip-path="url(#p8df7278c8b)" style="fill: none; stroke: #424242; stroke-width: 0.75; stroke-linecap: square"/>
   </g>
   <g id="line2d_35">
    <path d="M 260.687813 147.99735 
L 264.175313 147.99735 
M 262.431562 147.99735 
L 262.431562 115.670372 
M 260.687813 115.670372 
L 264.175313 115.670372 
" clip-path="url(#p8df7278c8b)" style="fill: none; stroke: #424242; stroke-width: 0.75; stroke-linecap: square"/>
   </g>
   <g id="line2d_36">
    <path d="M 295.562813 152.791342 
L 299.050313 152.791342 
M 297.306562 152.791342 
L 297.306562 118.568058 
M 295.562813 118.568058 
L 299.050313 118.568058 
" clip-path="url(#p8df7278c8b)" style="fill: none; stroke: #424242; stroke-width: 0.75; stroke-linecap: square"/>
   </g>
   <g id="line2d_37">
    <path d="M 330.437813 84.588392 
L 333.925313 84.588392 
M 332.181562 84.588392 
L 332.181562 31.9 
M 330.437813 31.9 
L 333.925313 31.9 
" clip-path="url(#p8df7278c8b)" style="fill: none; stroke: #424242; stroke-width: 0.75; stroke-linecap: square"/>
   </g>
   <g id="line2d_38">
    <path d="M 365.312812 109.257809 
L 368.800313 109.257809 
M 367.056562 109.257809 
L 367.056562 52.033378 
M 365.312812 52.033378 
L 368.800313 52.033378 
" clip-path="url(#p8df7278c8b)" style="fill: none; stroke: #424242; stroke-width: 0.75; stroke-linecap: square"/>
   </g>
   <g id="line2d_39">
    <path d="M 400.187812 118.899092 
L 403.675313 118.899092 
M 401.931562 118.899092 
L 401.931562 80.669523 
M 400.187812 80.669523 
L 403.675313 80.669523 
" clip-path="url(#p8df7278c8b)" style="fill: none; stroke: #424242; stroke-width: 0.75; stroke-linecap: square"/>
   </g>
   <g id="line2d_40">
    <path d="M 435.062812 110.179525 
L 438.550313 110.179525 
M 436.806562 110.179525 
L 436.806562 76.294191 
M 435.062812 76.294191 
L 438.550313 76.294191 
" clip-path="url(#p8df7278c8b)" style="fill: none; stroke: #424242; stroke-width: 0.75; stroke-linecap: square"/>
   </g>
   <g id="line2d_41">
    <path d="M 469.937812 107.583901 
L 473.425313 107.583901 
M 471.681562 107.583901 
L 471.681562 42.234971 
M 469.937812 42.234971 
L 473.425313 42.234971 
" clip-path="url(#p8df7278c8b)" style="fill: none; stroke: #424242; stroke-width: 0.75; stroke-linecap: square"/>
   </g>
   <g id="line2d_42">
    <path d="M 504.812812 143.849339 
L 508.300313 143.849339 
M 506.556562 143.849339 
L 506.556562 121.666082 
M 504.812812 121.666082 
L 508.300313 121.666082 
" clip-path="url(#p8df7278c8b)" style="fill: none; stroke: #424242; stroke-width: 0.75; stroke-linecap: square"/>
   </g>
   <g id="line2d_43">
    <path d="M 539.687812 128.013737 
L 543.175313 128.013737 
M 541.431563 128.013737 
L 541.431563 96.636602 
M 539.687812 96.636602 
L 543.175313 96.636602 
" clip-path="url(#p8df7278c8b)" style="fill: none; stroke: #424242; stroke-width: 0.75; stroke-linecap: square"/>
   </g>
   <g id="line2d_44">
    <path d="M 574.562812 147.52468 
L 578.050313 147.52468 
M 576.306562 147.52468 
L 576.306562 119.836362 
M 574.562812 119.836362 
L 578.050313 119.836362 
" clip-path="url(#p8df7278c8b)" style="fill: none; stroke: #424242; stroke-width: 0.75; stroke-linecap: square"/>
   </g>
   <g id="line2d_45">
    <path d="M 60.737813 151.187183 
L 64.225313 151.187183 
M 62.481563 151.187183 
L 62.481563 131.47322 
M 60.737813 131.47322 
L 64.225313 131.47322 
" clip-path="url(#p8df7278c8b)" style="fill: none; stroke: #424242; stroke-width: 0.75; stroke-linecap: square"/>
   </g>
   <g id="line2d_46">
    <path d="M 95.612813 148.307319 
L 99.100313 148.307319 
M 97.356563 148.307319 
L 97.356563 119.400861 
M 95.612813 119.400861 
L 99.100313 119.400861 
" clip-path="url(#p8df7278c8b)" style="fill: none; stroke: #424242; stroke-width: 0.75; stroke-linecap: square"/>
   </g>
   <g id="line2d_47">
    <path d="M 130.487813 158.965371 
L 133.975313 158.965371 
M 132.231562 158.965371 
L 132.231562 130.516601 
M 130.487813 130.516601 
L 133.975313 130.516601 
" clip-path="url(#p8df7278c8b)" style="fill: none; stroke: #424242; stroke-width: 0.75; stroke-linecap: square"/>
   </g>
   <g id="line2d_48">
    <path d="M 165.362813 128.885739 
L 168.850313 128.885739 
M 167.106562 128.885739 
L 167.106562 104.668919 
M 165.362813 104.668919 
L 168.850313 104.668919 
" clip-path="url(#p8df7278c8b)" style="fill: none; stroke: #424242; stroke-width: 0.75; stroke-linecap: square"/>
   </g>
   <g id="line2d_49">
    <path d="M 200.237813 157.522222 
L 203.725313 157.522222 
M 201.981562 157.522222 
L 201.981562 135.233969 
M 200.237813 135.233969 
L 203.725313 135.233969 
" clip-path="url(#p8df7278c8b)" style="fill: none; stroke: #424242; stroke-width: 0.75; stroke-linecap: square"/>
   </g>
   <g id="line2d_50">
    <path d="M 235.112813 125.242344 
L 238.600313 125.242344 
M 236.856562 125.242344 
L 236.856562 77.663875 
M 235.112813 77.663875 
L 238.600313 77.663875 
" clip-path="url(#p8df7278c8b)" style="fill: none; stroke: #424242; stroke-width: 0.75; stroke-linecap: square"/>
   </g>
   <g id="line2d_51">
    <path d="M 269.987813 143.082661 
L 273.475313 143.082661 
M 271.731562 143.082661 
L 271.731562 108.981087 
M 269.987813 108.981087 
L 273.475313 108.981087 
" clip-path="url(#p8df7278c8b)" style="fill: none; stroke: #424242; stroke-width: 0.75; stroke-linecap: square"/>
   </g>
   <g id="line2d_52">
    <path d="M 304.862813 149.947152 
L 308.350313 149.947152 
M 306.606562 149.947152 
L 306.606562 120.596601 
M 304.862813 120.596601 
L 308.350313 120.596601 
" clip-path="url(#p8df7278c8b)" style="fill: none; stroke: #424242; stroke-width: 0.75; stroke-linecap: square"/>
   </g>
   <g id="line2d_53">
    <path d="M 339.737813 133.41418 
L 343.225313 133.41418 
M 341.481562 133.41418 
L 341.481562 105.173276 
M 339.737813 105.173276 
L 343.225313 105.173276 
" clip-path="url(#p8df7278c8b)" style="fill: none; stroke: #424242; stroke-width: 0.75; stroke-linecap: square"/>
   </g>
   <g id="line2d_54">
    <path d="M 374.612812 133.175508 
L 378.100313 133.175508 
M 376.356562 133.175508 
L 376.356562 84.326833 
M 374.612812 84.326833 
L 378.100313 84.326833 
" clip-path="url(#p8df7278c8b)" style="fill: none; stroke: #424242; stroke-width: 0.75; stroke-linecap: square"/>
   </g>
   <g id="line2d_55">
    <path d="M 409.487812 145.327689 
L 412.975313 145.327689 
M 411.231562 145.327689 
L 411.231562 128.808251 
M 409.487812 128.808251 
L 412.975313 128.808251 
" clip-path="url(#p8df7278c8b)" style="fill: none; stroke: #424242; stroke-width: 0.75; stroke-linecap: square"/>
   </g>
   <g id="line2d_56">
    <path d="M 444.362812 105.926458 
L 447.850313 105.926458 
M 446.106562 105.926458 
L 446.106562 72.939798 
M 444.362812 72.939798 
L 447.850313 72.939798 
" clip-path="url(#p8df7278c8b)" style="fill: none; stroke: #424242; stroke-width: 0.75; stroke-linecap: square"/>
   </g>
   <g id="line2d_57">
    <path d="M 479.237812 100.931725 
L 482.725313 100.931725 
M 480.981562 100.931725 
L 480.981562 52.46899 
M 479.237812 52.46899 
L 482.725313 52.46899 
" clip-path="url(#p8df7278c8b)" style="fill: none; stroke: #424242; stroke-width: 0.75; stroke-linecap: square"/>
   </g>
   <g id="line2d_58">
    <path d="M 514.112813 142.537022 
L 517.600313 142.537022 
M 515.856562 142.537022 
L 515.856562 120.181077 
M 514.112813 120.181077 
L 517.600313 120.181077 
" clip-path="url(#p8df7278c8b)" style="fill: none; stroke: #424242; stroke-width: 0.75; stroke-linecap: square"/>
   </g>
   <g id="line2d_59">
    <path d="M 548.987813 134.839231 
L 552.475313 134.839231 
M 550.731562 134.839231 
L 550.731562 108.483044 
M 548.987813 108.483044 
L 552.475313 108.483044 
" clip-path="url(#p8df7278c8b)" style="fill: none; stroke: #424242; stroke-width: 0.75; stroke-linecap: square"/>
   </g>
   <g id="line2d_60">
    <path d="M 583.862813 160.286801 
L 587.350312 160.286801 
M 585.606562 160.286801 
L 585.606562 144.039482 
M 583.862813 144.039482 
L 587.350312 144.039482 
" clip-path="url(#p8df7278c8b)" style="fill: none; stroke: #424242; stroke-width: 0.75; stroke-linecap: square"/>
   </g>
   <g id="line2d_61">
    <path d="M 70.037813 133.868493 
L 73.525313 133.868493 
M 71.781563 133.868493 
L 71.781563 103.825906 
M 70.037813 103.825906 
L 73.525313 103.825906 
" clip-path="url(#p8df7278c8b)" style="fill: none; stroke: #424242; stroke-width: 0.75; stroke-linecap: square"/>
   </g>
   <g id="line2d_62">
    <path d="M 104.912813 165.182555 
L 108.400313 165.182555 
M 106.656563 165.182555 
L 106.656563 118.131043 
M 104.912813 118.131043 
L 108.400313 118.131043 
" clip-path="url(#p8df7278c8b)" style="fill: none; stroke: #424242; stroke-width: 0.75; stroke-linecap: square"/>
   </g>
   <g id="line2d_63">
    <path d="M 139.787813 165.252376 
L 143.275312 165.252376 
M 141.531563 165.252376 
L 141.531563 150.833613 
M 139.787813 150.833613 
L 143.275312 150.833613 
" clip-path="url(#p8df7278c8b)" style="fill: none; stroke: #424242; stroke-width: 0.75; stroke-linecap: square"/>
   </g>
   <g id="line2d_64">
    <path d="M 174.662813 133.793714 
L 178.150312 133.793714 
M 176.406563 133.793714 
L 176.406563 114.752523 
M 174.662813 114.752523 
L 178.150312 114.752523 
" clip-path="url(#p8df7278c8b)" style="fill: none; stroke: #424242; stroke-width: 0.75; stroke-linecap: square"/>
   </g>
   <g id="line2d_65">
    <path d="M 209.537813 156.01891 
L 213.025312 156.01891 
M 211.281563 156.01891 
L 211.281563 137.516988 
M 209.537813 137.516988 
L 213.025312 137.516988 
" clip-path="url(#p8df7278c8b)" style="fill: none; stroke: #424242; stroke-width: 0.75; stroke-linecap: square"/>
   </g>
   <g id="line2d_66">
    <path d="M 244.412813 159.811861 
L 247.900312 159.811861 
M 246.156563 159.811861 
L 246.156563 145.87778 
M 244.412813 145.87778 
L 247.900312 145.87778 
" clip-path="url(#p8df7278c8b)" style="fill: none; stroke: #424242; stroke-width: 0.75; stroke-linecap: square"/>
   </g>
   <g id="line2d_67">
    <path d="M 279.287813 148.777729 
L 282.775312 148.777729 
M 281.031563 148.777729 
L 281.031563 106.932029 
M 279.287813 106.932029 
L 282.775312 106.932029 
" clip-path="url(#p8df7278c8b)" style="fill: none; stroke: #424242; stroke-width: 0.75; stroke-linecap: square"/>
   </g>
   <g id="line2d_68">
    <path d="M 314.162813 158.745757 
L 317.650312 158.745757 
M 315.906563 158.745757 
L 315.906563 135.049211 
M 314.162813 135.049211 
L 317.650312 135.049211 
" clip-path="url(#p8df7278c8b)" style="fill: none; stroke: #424242; stroke-width: 0.75; stroke-linecap: square"/>
   </g>
   <g id="line2d_69">
    <path d="M 349.037812 135.639398 
L 352.525312 135.639398 
M 350.781562 135.639398 
L 350.781562 107.400397 
M 349.037812 107.400397 
L 352.525312 107.400397 
" clip-path="url(#p8df7278c8b)" style="fill: none; stroke: #424242; stroke-width: 0.75; stroke-linecap: square"/>
   </g>
   <g id="line2d_70">
    <path d="M 383.912812 140.781783 
L 387.400312 140.781783 
M 385.656562 140.781783 
L 385.656562 117.130355 
M 383.912812 117.130355 
L 387.400312 117.130355 
" clip-path="url(#p8df7278c8b)" style="fill: none; stroke: #424242; stroke-width: 0.75; stroke-linecap: square"/>
   </g>
   <g id="line2d_71">
    <path d="M 418.787812 145.774778 
L 422.275312 145.774778 
M 420.531562 145.774778 
L 420.531562 121.369848 
M 418.787812 121.369848 
L 422.275312 121.369848 
" clip-path="url(#p8df7278c8b)" style="fill: none; stroke: #424242; stroke-width: 0.75; stroke-linecap: square"/>
   </g>
   <g id="line2d_72">
    <path d="M 453.662812 136.656491 
L 457.150312 136.656491 
M 455.406562 136.656491 
L 455.406562 111.990386 
M 453.662812 111.990386 
L 457.150312 111.990386 
" clip-path="url(#p8df7278c8b)" style="fill: none; stroke: #424242; stroke-width: 0.75; stroke-linecap: square"/>
   </g>
   <g id="line2d_73">
    <path d="M 488.537812 143.510359 
L 492.025312 143.510359 
M 490.281562 143.510359 
L 490.281562 115.77121 
M 488.537812 115.77121 
L 492.025312 115.77121 
" clip-path="url(#p8df7278c8b)" style="fill: none; stroke: #424242; stroke-width: 0.75; stroke-linecap: square"/>
   </g>
   <g id="line2d_74">
    <path d="M 523.412812 141.258466 
L 526.900313 141.258466 
M 525.156562 141.258466 
L 525.156562 125.470194 
M 523.412812 125.470194 
L 526.900313 125.470194 
" clip-path="url(#p8df7278c8b)" style="fill: none; stroke: #424242; stroke-width: 0.75; stroke-linecap: square"/>
   </g>
   <g id="line2d_75">
    <path d="M 558.287812 139.887778 
L 561.775313 139.887778 
M 560.031562 139.887778 
L 560.031562 118.158646 
M 558.287812 118.158646 
L 561.775313 118.158646 
" clip-path="url(#p8df7278c8b)" style="fill: none; stroke: #424242; stroke-width: 0.75; stroke-linecap: square"/>
   </g>
   <g id="line2d_76">
    <path d="M 593.162812 150.74918 
L 596.650313 150.74918 
M 594.906562 150.74918 
L 594.906562 127.946139 
M 593.162812 127.946139 
L 596.650313 127.946139 
" clip-path="url(#p8df7278c8b)" style="fill: none; stroke: #424242; stroke-width: 0.75; stroke-linecap: square"/>
   </g>
   <g id="patch_54">
    <path d="M 45.044063 190.3 
L 45.044063 23.98 
" style="fill: none; stroke: #000000; stroke-width: 0.8; stroke-linejoin: miter; stroke-linecap: square"/>
   </g>
   <g id="patch_55">
    <path d="M 45.044063 190.3 
L 603.044062 190.3 
" style="fill: none; stroke: #000000; stroke-width: 0.8; stroke-linejoin: miter; stroke-linecap: square"/>
   </g>
   <g id="text_24">
    <!-- $|\Delta\Delta G_{experimental} - \Delta\Delta G_{calculated}|$ Deviation -->
    <g transform="translate(186.354062 17.98) scale(0.14 -0.14)">
     <defs>
      <path id="DejaVuSans-7c" d="M 1344 4891 
L 1344 -1509 
L 813 -1509 
L 813 4891 
L 1344 4891 
z
" transform="scale(0.015625)"/>
      <path id="DejaVuSans-Oblique-65" d="M 3078 2063 
Q 3088 2113 3092 2166 
Q 3097 2219 3097 2272 
Q 3097 2653 2873 2875 
Q 2650 3097 2266 3097 
Q 1838 3097 1509 2826 
Q 1181 2556 1013 2059 
L 3078 2063 
z
M 3578 1613 
L 903 1613 
Q 884 1494 878 1425 
Q 872 1356 872 1306 
Q 872 872 1139 634 
Q 1406 397 1894 397 
Q 2269 397 2603 481 
Q 2938 566 3225 728 
L 3116 159 
Q 2806 34 2476 -28 
Q 2147 -91 1806 -91 
Q 1078 -91 686 257 
Q 294 606 294 1247 
Q 294 1794 489 2264 
Q 684 2734 1063 3103 
Q 1306 3334 1642 3459 
Q 1978 3584 2356 3584 
Q 2950 3584 3301 3228 
Q 3653 2872 3653 2272 
Q 3653 2128 3634 1964 
Q 3616 1800 3578 1613 
z
" transform="scale(0.015625)"/>
      <path id="DejaVuSans-Oblique-78" d="M 3841 3500 
L 2234 1784 
L 3219 0 
L 2559 0 
L 1819 1388 
L 531 0 
L -166 0 
L 1556 1844 
L 641 3500 
L 1300 3500 
L 1972 2234 
L 3144 3500 
L 3841 3500 
z
" transform="scale(0.015625)"/>
      <path id="DejaVuSans-Oblique-70" d="M 3175 2156 
Q 3175 2616 2975 2859 
Q 2775 3103 2400 3103 
Q 2144 3103 1911 2972 
Q 1678 2841 1497 2591 
Q 1319 2344 1212 1994 
Q 1106 1644 1106 1300 
Q 1106 863 1306 627 
Q 1506 391 1875 391 
Q 2147 391 2380 519 
Q 2613 647 2778 891 
Q 2956 1147 3065 1494 
Q 3175 1841 3175 2156 
z
M 1394 2969 
Q 1625 3272 1939 3428 
Q 2253 3584 2638 3584 
Q 3175 3584 3472 3232 
Q 3769 2881 3769 2247 
Q 3769 1728 3584 1258 
Q 3400 788 3053 416 
Q 2822 169 2531 39 
Q 2241 -91 1919 -91 
Q 1547 -91 1294 64 
Q 1041 219 916 525 
L 556 -1331 
L -19 -1331 
L 922 3500 
L 1497 3500 
L 1394 2969 
z
" transform="scale(0.015625)"/>
      <path id="DejaVuSans-Oblique-72" d="M 2853 2969 
Q 2766 3016 2653 3041 
Q 2541 3066 2413 3066 
Q 1953 3066 1609 2717 
Q 1266 2369 1153 1784 
L 800 0 
L 225 0 
L 909 3500 
L 1484 3500 
L 1375 2956 
Q 1603 3259 1920 3421 
Q 2238 3584 2597 3584 
Q 2691 3584 2781 3573 
Q 2872 3563 2963 3538 
L 2853 2969 
z
" transform="scale(0.015625)"/>
      <path id="DejaVuSans-Oblique-69" d="M 1172 4863 
L 1747 4863 
L 1606 4134 
L 1031 4134 
L 1172 4863 
z
M 909 3500 
L 1484 3500 
L 800 0 
L 225 0 
L 909 3500 
z
" transform="scale(0.015625)"/>
      <path id="DejaVuSans-Oblique-6d" d="M 5747 2113 
L 5338 0 
L 4763 0 
L 5166 2094 
Q 5191 2228 5203 2325 
Q 5216 2422 5216 2491 
Q 5216 2772 5059 2928 
Q 4903 3084 4622 3084 
Q 4203 3084 3875 2770 
Q 3547 2456 3450 1953 
L 3066 0 
L 2491 0 
L 2900 2094 
Q 2925 2209 2937 2307 
Q 2950 2406 2950 2484 
Q 2950 2769 2794 2926 
Q 2638 3084 2363 3084 
Q 1938 3084 1609 2770 
Q 1281 2456 1184 1953 
L 800 0 
L 225 0 
L 909 3500 
L 1484 3500 
L 1375 2956 
Q 1609 3263 1923 3423 
Q 2238 3584 2597 3584 
Q 2978 3584 3223 3384 
Q 3469 3184 3519 2828 
Q 3781 3197 4126 3390 
Q 4472 3584 4856 3584 
Q 5306 3584 5551 3325 
Q 5797 3066 5797 2591 
Q 5797 2488 5784 2364 
Q 5772 2241 5747 2113 
z
" transform="scale(0.015625)"/>
      <path id="DejaVuSans-Oblique-6e" d="M 3566 2113 
L 3156 0 
L 2578 0 
L 2988 2091 
Q 3016 2238 3031 2350 
Q 3047 2463 3047 2528 
Q 3047 2791 2881 2937 
Q 2716 3084 2419 3084 
Q 1956 3084 1622 2776 
Q 1288 2469 1184 1941 
L 800 0 
L 225 0 
L 903 3500 
L 1478 3500 
L 1363 2950 
Q 1603 3253 1940 3418 
Q 2278 3584 2650 3584 
Q 3113 3584 3367 3334 
Q 3622 3084 3622 2631 
Q 3622 2519 3608 2391 
Q 3594 2263 3566 2113 
z
" transform="scale(0.015625)"/>
      <path id="DejaVuSans-Oblique-74" d="M 2706 3500 
L 2619 3053 
L 1472 3053 
L 1100 1153 
Q 1081 1047 1072 975 
Q 1063 903 1063 863 
Q 1063 663 1183 572 
Q 1303 481 1569 481 
L 2150 481 
L 2053 0 
L 1503 0 
Q 991 0 739 200 
Q 488 400 488 806 
Q 488 878 497 964 
Q 506 1050 525 1153 
L 897 3053 
L 409 3053 
L 500 3500 
L 978 3500 
L 1172 4494 
L 1747 4494 
L 1556 3500 
L 2706 3500 
z
" transform="scale(0.015625)"/>
      <path id="DejaVuSans-Oblique-61" d="M 3438 1997 
L 3047 0 
L 2472 0 
L 2578 531 
Q 2325 219 2001 64 
Q 1678 -91 1281 -91 
Q 834 -91 548 182 
Q 263 456 263 884 
Q 263 1497 752 1853 
Q 1241 2209 2100 2209 
L 2900 2209 
L 2931 2363 
Q 2938 2388 2941 2417 
Q 2944 2447 2944 2509 
Q 2944 2788 2717 2942 
Q 2491 3097 2081 3097 
Q 1800 3097 1504 3025 
Q 1209 2953 897 2809 
L 997 3341 
Q 1322 3463 1633 3523 
Q 1944 3584 2234 3584 
Q 2853 3584 3176 3315 
Q 3500 3047 3500 2534 
Q 3500 2431 3484 2292 
Q 3469 2153 3438 1997 
z
M 2816 1759 
L 2241 1759 
Q 1534 1759 1195 1570 
Q 856 1381 856 984 
Q 856 709 1029 553 
Q 1203 397 1509 397 
Q 1978 397 2328 733 
Q 2678 1069 2791 1631 
L 2816 1759 
z
" transform="scale(0.015625)"/>
      <path id="DejaVuSans-Oblique-6c" d="M 1172 4863 
L 1747 4863 
L 800 0 
L 225 0 
L 1172 4863 
z
" transform="scale(0.015625)"/>
      <path id="DejaVuSans-2212" d="M 678 2272 
L 4684 2272 
L 4684 1741 
L 678 1741 
L 678 2272 
z
" transform="scale(0.015625)"/>
      <path id="DejaVuSans-Oblique-63" d="M 3431 3366 
L 3316 2797 
Q 3109 2947 2876 3022 
Q 2644 3097 2394 3097 
Q 2119 3097 1870 3000 
Q 1622 2903 1453 2725 
Q 1184 2453 1037 2087 
Q 891 1722 891 1331 
Q 891 859 1127 628 
Q 1363 397 1844 397 
Q 2081 397 2348 469 
Q 2616 541 2906 684 
L 2797 116 
Q 2547 13 2283 -39 
Q 2019 -91 1741 -91 
Q 1044 -91 669 257 
Q 294 606 294 1253 
Q 294 1797 489 2255 
Q 684 2713 1069 3078 
Q 1331 3328 1684 3456 
Q 2038 3584 2456 3584 
Q 2700 3584 2940 3529 
Q 3181 3475 3431 3366 
z
" transform="scale(0.015625)"/>
      <path id="DejaVuSans-Oblique-75" d="M 428 1388 
L 838 3500 
L 1416 3500 
L 1006 1409 
Q 975 1256 961 1147 
Q 947 1038 947 966 
Q 947 700 1109 554 
Q 1272 409 1569 409 
Q 2031 409 2368 721 
Q 2706 1034 2809 1563 
L 3194 3500 
L 3769 3500 
L 3091 0 
L 2516 0 
L 2631 550 
Q 2388 244 2052 76 
Q 1716 -91 1338 -91 
Q 878 -91 622 161 
Q 366 413 366 863 
Q 366 956 381 1097 
Q 397 1238 428 1388 
z
" transform="scale(0.015625)"/>
      <path id="DejaVuSans-Oblique-64" d="M 2675 525 
Q 2444 222 2128 65 
Q 1813 -91 1428 -91 
Q 903 -91 598 267 
Q 294 625 294 1247 
Q 294 1766 478 2236 
Q 663 2706 1013 3078 
Q 1244 3325 1534 3454 
Q 1825 3584 2144 3584 
Q 2481 3584 2739 3421 
Q 2997 3259 3138 2956 
L 3513 4863 
L 4091 4863 
L 3144 0 
L 2566 0 
L 2675 525 
z
M 891 1350 
Q 891 897 1095 644 
Q 1300 391 1663 391 
Q 1931 391 2161 520 
Q 2391 650 2566 903 
Q 2750 1166 2856 1509 
Q 2963 1853 2963 2188 
Q 2963 2622 2758 2865 
Q 2553 3109 2194 3109 
Q 1922 3109 1687 2981 
Q 1453 2853 1288 2613 
Q 1106 2353 998 2009 
Q 891 1666 891 1350 
z
" transform="scale(0.015625)"/>
      <path id="Montserrat-Medium-20" transform="scale(0.015625)"/>
      <path id="Montserrat-Medium-44" d="M 672 0 
L 672 4480 
L 2560 4480 
Q 3277 4480 3824 4198 
Q 4371 3917 4675 3411 
Q 4979 2906 4979 2240 
Q 4979 1574 4675 1068 
Q 4371 563 3824 281 
Q 3277 0 2560 0 
L 672 0 
z
M 1312 557 
L 2522 557 
Q 3078 557 3484 768 
Q 3891 979 4115 1360 
Q 4339 1741 4339 2240 
Q 4339 2746 4115 3123 
Q 3891 3501 3484 3712 
Q 3078 3923 2522 3923 
L 1312 3923 
L 1312 557 
z
" transform="scale(0.015625)"/>
      <path id="Montserrat-Medium-76" d="M 1472 0 
L -13 3392 
L 627 3392 
L 1946 320 
L 1638 320 
L 2982 3392 
L 3584 3392 
L 2099 0 
L 1472 0 
z
" transform="scale(0.015625)"/>
     </defs>
     <use xlink:href="#DejaVuSans-7c" transform="translate(0 0.578125)"/>
     <use xlink:href="#DejaVuSans-394" transform="translate(33.691406 0.578125)"/>
     <use xlink:href="#DejaVuSans-394" transform="translate(102.099609 0.578125)"/>
     <use xlink:href="#DejaVuSans-Oblique-47" transform="translate(170.507812 0.578125)"/>
     <use xlink:href="#DejaVuSans-Oblique-65" transform="translate(247.998047 -15.828125) scale(0.7)"/>
     <use xlink:href="#DejaVuSans-Oblique-78" transform="translate(291.064453 -15.828125) scale(0.7)"/>
     <use xlink:href="#DejaVuSans-Oblique-70" transform="translate(332.490234 -15.828125) scale(0.7)"/>
     <use xlink:href="#DejaVuSans-Oblique-65" transform="translate(376.923828 -15.828125) scale(0.7)"/>
     <use xlink:href="#DejaVuSans-Oblique-72" transform="translate(419.990234 -15.828125) scale(0.7)"/>
     <use xlink:href="#DejaVuSans-Oblique-69" transform="translate(448.769531 -15.828125) scale(0.7)"/>
     <use xlink:href="#DejaVuSans-Oblique-6d" transform="translate(468.217773 -15.828125) scale(0.7)"/>
     <use xlink:href="#DejaVuSans-Oblique-65" transform="translate(536.40625 -15.828125) scale(0.7)"/>
     <use xlink:href="#DejaVuSans-Oblique-6e" transform="translate(579.472656 -15.828125) scale(0.7)"/>
     <use xlink:href="#DejaVuSans-Oblique-74" transform="translate(623.837891 -15.828125) scale(0.7)"/>
     <use xlink:href="#DejaVuSans-Oblique-61" transform="translate(651.28418 -15.828125) scale(0.7)"/>
     <use xlink:href="#DejaVuSans-Oblique-6c" transform="translate(694.179688 -15.828125) scale(0.7)"/>
     <use xlink:href="#DejaVuSans-2212" transform="translate(735.844727 0.578125)"/>
     <use xlink:href="#DejaVuSans-394" transform="translate(839.116211 0.578125)"/>
     <use xlink:href="#DejaVuSans-394" transform="translate(907.524414 0.578125)"/>
     <use xlink:href="#DejaVuSans-Oblique-47" transform="translate(975.932617 0.578125)"/>
     <use xlink:href="#DejaVuSans-Oblique-63" transform="translate(1053.422852 -15.828125) scale(0.7)"/>
     <use xlink:href="#DejaVuSans-Oblique-61" transform="translate(1091.90918 -15.828125) scale(0.7)"/>
     <use xlink:href="#DejaVuSans-Oblique-6c" transform="translate(1134.804688 -15.828125) scale(0.7)"/>
     <use xlink:href="#DejaVuSans-Oblique-63" transform="translate(1154.25293 -15.828125) scale(0.7)"/>
     <use xlink:href="#DejaVuSans-Oblique-75" transform="translate(1192.739258 -15.828125) scale(0.7)"/>
     <use xlink:href="#DejaVuSans-Oblique-6c" transform="translate(1237.104492 -15.828125) scale(0.7)"/>
     <use xlink:href="#DejaVuSans-Oblique-61" transform="translate(1256.552734 -15.828125) scale(0.7)"/>
     <use xlink:href="#DejaVuSans-Oblique-74" transform="translate(1299.448242 -15.828125) scale(0.7)"/>
     <use xlink:href="#DejaVuSans-Oblique-65" transform="translate(1326.894531 -15.828125) scale(0.7)"/>
     <use xlink:href="#DejaVuSans-Oblique-64" transform="translate(1369.960938 -15.828125) scale(0.7)"/>
     <use xlink:href="#DejaVuSans-7c" transform="translate(1417.128906 0.578125)"/>
     <use xlink:href="#Montserrat-Medium-20" transform="translate(1450.820312 0.578125)"/>
     <use xlink:href="#Montserrat-Medium-44" transform="translate(1477.720306 0.578125)"/>
     <use xlink:href="#Montserrat-Medium-65" transform="translate(1560.320297 0.578125)"/>
     <use xlink:href="#Montserrat-Medium-76" transform="translate(1621.520294 0.578125)"/>
     <use xlink:href="#Montserrat-Medium-69" transform="translate(1677.420288 0.578125)"/>
     <use xlink:href="#Montserrat-Medium-61" transform="translate(1705.320282 0.578125)"/>
     <use xlink:href="#Montserrat-Medium-74" transform="translate(1765.12027 0.578125)"/>
     <use xlink:href="#Montserrat-Medium-69" transform="translate(1806.520264 0.578125)"/>
     <use xlink:href="#Montserrat-Medium-6f" transform="translate(1834.420258 0.578125)"/>
     <use xlink:href="#Montserrat-Medium-6e" transform="translate(1897.920242 0.578125)"/>
    </g>
   </g>
   <g id="legend_1">
    <g id="patch_56">
     <path d="M 54.044063 40.550313 
L 74.044063 40.550313 
L 74.044063 33.550313 
L 54.044063 33.550313 
z
" style="fill: #3274a1; stroke: #000000; stroke-width: 0.5; stroke-linejoin: miter"/>
    </g>
    <g id="text_25">
     <!-- QligFEPv2 OpenFF 2.2.1 -->
     <g transform="translate(82.044063 40.550313) scale(0.1 -0.1)">
      <defs>
       <path id="Montserrat-MediumItalic-51" d="M 2490 -51 
Q 1824 -51 1350 185 
Q 877 422 630 848 
Q 384 1274 384 1837 
Q 384 2394 576 2883 
Q 768 3373 1126 3744 
Q 1485 4115 1984 4323 
Q 2483 4531 3104 4531 
Q 3776 4531 4249 4294 
Q 4723 4058 4969 3632 
Q 5216 3206 5216 2643 
Q 5216 2086 5024 1596 
Q 4832 1107 4473 736 
Q 4115 365 3612 157 
Q 3110 -51 2490 -51 
z
M 3776 -934 
Q 3251 -934 2841 -668 
Q 2432 -403 2131 90 
L 2848 243 
Q 3027 -109 3257 -269 
Q 3488 -429 3795 -429 
Q 4026 -429 4240 -336 
Q 4454 -243 4621 -70 
L 4883 -461 
Q 4685 -704 4393 -819 
Q 4102 -934 3776 -934 
z
M 2547 518 
Q 3008 518 3385 681 
Q 3763 845 4025 1136 
Q 4288 1427 4429 1804 
Q 4570 2182 4570 2605 
Q 4570 3008 4397 3312 
Q 4224 3616 3885 3789 
Q 3546 3962 3053 3962 
Q 2586 3962 2211 3798 
Q 1837 3635 1571 3344 
Q 1306 3053 1165 2675 
Q 1024 2298 1024 1875 
Q 1024 1472 1200 1168 
Q 1376 864 1712 691 
Q 2048 518 2547 518 
z
" transform="scale(0.015625)"/>
       <path id="Montserrat-MediumItalic-6c" d="M 250 0 
L 1197 4749 
L 1811 4749 
L 864 0 
L 250 0 
z
" transform="scale(0.015625)"/>
       <path id="Montserrat-MediumItalic-69" d="M 250 0 
L 922 3392 
L 1536 3392 
L 864 0 
L 250 0 
z
M 1415 4045 
Q 1242 4045 1133 4153 
Q 1024 4262 1024 4416 
Q 1024 4595 1145 4720 
Q 1267 4845 1466 4845 
Q 1639 4845 1747 4739 
Q 1856 4634 1856 4486 
Q 1856 4288 1734 4166 
Q 1613 4045 1415 4045 
z
" transform="scale(0.015625)"/>
       <path id="Montserrat-MediumItalic-67" d="M 1555 -1280 
Q 1075 -1280 678 -1155 
Q 282 -1030 6 -800 
L 346 -326 
Q 544 -512 873 -624 
Q 1203 -736 1600 -736 
Q 2202 -736 2522 -464 
Q 2842 -192 2950 365 
L 3110 1152 
L 3302 1786 
L 3398 2464 
L 3584 3392 
L 4166 3392 
L 3584 461 
Q 3398 -461 2899 -870 
Q 2400 -1280 1555 -1280 
z
M 1773 141 
Q 1331 141 988 307 
Q 646 474 454 784 
Q 262 1094 262 1523 
Q 262 1933 406 2275 
Q 550 2618 806 2877 
Q 1062 3136 1417 3280 
Q 1773 3424 2195 3424 
Q 2579 3424 2896 3289 
Q 3213 3155 3401 2876 
Q 3590 2598 3590 2157 
Q 3597 1594 3379 1136 
Q 3162 678 2755 409 
Q 2349 141 1773 141 
z
M 1894 678 
Q 2285 678 2582 851 
Q 2880 1024 3053 1325 
Q 3226 1626 3226 2010 
Q 3226 2419 2960 2652 
Q 2694 2886 2214 2886 
Q 1824 2886 1526 2716 
Q 1229 2547 1056 2246 
Q 883 1946 883 1562 
Q 883 1146 1152 912 
Q 1421 678 1894 678 
z
" transform="scale(0.015625)"/>
       <path id="Montserrat-MediumItalic-46" d="M 1389 2362 
L 3693 2362 
L 3584 1811 
L 1274 1811 
L 1389 2362 
z
M 973 0 
L 333 0 
L 1229 4480 
L 4390 4480 
L 4282 3923 
L 1754 3923 
L 973 0 
z
" transform="scale(0.015625)"/>
       <path id="Montserrat-MediumItalic-45" d="M 1427 2547 
L 3731 2547 
L 3622 2003 
L 1318 2003 
L 1427 2547 
z
M 1082 557 
L 3699 557 
L 3590 0 
L 333 0 
L 1229 4480 
L 4390 4480 
L 4282 3923 
L 1754 3923 
L 1082 557 
z
" transform="scale(0.015625)"/>
       <path id="Montserrat-MediumItalic-50" d="M 333 0 
L 1229 4480 
L 2893 4480 
Q 3680 4480 4109 4134 
Q 4538 3789 4538 3168 
Q 4538 2598 4285 2192 
Q 4032 1786 3558 1571 
Q 3085 1357 2438 1357 
L 966 1357 
L 1306 1664 
L 973 0 
L 333 0 
z
M 1293 1594 
L 1069 1914 
L 2451 1914 
Q 3136 1914 3517 2218 
Q 3898 2522 3898 3110 
Q 3898 3514 3622 3718 
Q 3347 3923 2835 3923 
L 1485 3923 
L 1824 4250 
L 1293 1594 
z
" transform="scale(0.015625)"/>
       <path id="Montserrat-MediumItalic-76" d="M 1139 0 
L 326 3392 
L 941 3392 
L 1658 320 
L 1350 320 
L 3302 3392 
L 3923 3392 
L 1766 0 
L 1139 0 
z
" transform="scale(0.015625)"/>
       <path id="Montserrat-MediumItalic-32" d="M -102 0 
L -13 435 
L 2170 2182 
Q 2470 2426 2640 2618 
Q 2810 2810 2880 2979 
Q 2950 3149 2950 3328 
Q 2950 3622 2736 3798 
Q 2522 3974 2074 3974 
Q 1747 3974 1446 3846 
Q 1146 3718 915 3475 
L 486 3846 
Q 768 4160 1206 4345 
Q 1645 4531 2163 4531 
Q 2618 4531 2938 4387 
Q 3258 4243 3424 3993 
Q 3590 3744 3590 3411 
Q 3590 3155 3500 2908 
Q 3411 2662 3196 2403 
Q 2982 2144 2598 1837 
L 659 301 
L 512 557 
L 3226 557 
L 3117 0 
L -102 0 
z
" transform="scale(0.015625)"/>
       <path id="Montserrat-MediumItalic-20" transform="scale(0.015625)"/>
       <path id="Montserrat-MediumItalic-4f" d="M 2490 -51 
Q 1824 -51 1350 185 
Q 877 422 630 848 
Q 384 1274 384 1837 
Q 384 2394 576 2883 
Q 768 3373 1126 3744 
Q 1485 4115 1984 4323 
Q 2483 4531 3104 4531 
Q 3776 4531 4249 4294 
Q 4723 4058 4969 3632 
Q 5216 3206 5216 2643 
Q 5216 2086 5024 1596 
Q 4832 1107 4473 736 
Q 4115 365 3612 157 
Q 3110 -51 2490 -51 
z
M 2547 518 
Q 3008 518 3385 681 
Q 3763 845 4025 1136 
Q 4288 1427 4429 1804 
Q 4570 2182 4570 2605 
Q 4570 3008 4397 3312 
Q 4224 3616 3885 3789 
Q 3546 3962 3053 3962 
Q 2586 3962 2211 3798 
Q 1837 3635 1571 3344 
Q 1306 3053 1165 2675 
Q 1024 2298 1024 1875 
Q 1024 1472 1200 1168 
Q 1376 864 1712 691 
Q 2048 518 2547 518 
z
" transform="scale(0.015625)"/>
       <path id="Montserrat-MediumItalic-70" d="M 2202 -38 
Q 1766 -38 1456 118 
Q 1146 275 979 572 
Q 813 870 813 1293 
Q 813 1933 1030 2409 
Q 1248 2886 1654 3155 
Q 2061 3424 2624 3424 
Q 3059 3424 3395 3251 
Q 3731 3078 3926 2748 
Q 4122 2419 4122 1965 
Q 4122 1530 3978 1165 
Q 3834 800 3574 531 
Q 3315 262 2963 112 
Q 2611 -38 2202 -38 
z
M 0 -1242 
L 922 3392 
L 1510 3392 
L 1331 2515 
L 1133 1728 
L 1043 922 
L 614 -1242 
L 0 -1242 
z
M 2176 499 
Q 2560 499 2857 684 
Q 3155 870 3328 1193 
Q 3501 1517 3501 1933 
Q 3501 2381 3238 2633 
Q 2976 2886 2490 2886 
Q 2112 2886 1808 2704 
Q 1504 2522 1334 2198 
Q 1165 1875 1165 1453 
Q 1165 1011 1427 755 
Q 1690 499 2176 499 
z
" transform="scale(0.015625)"/>
       <path id="Montserrat-MediumItalic-65" d="M 1869 -38 
Q 1370 -38 1005 144 
Q 640 326 441 656 
Q 243 986 243 1434 
Q 243 2010 492 2458 
Q 742 2906 1174 3165 
Q 1606 3424 2157 3424 
Q 2618 3424 2957 3248 
Q 3296 3072 3485 2745 
Q 3674 2419 3674 1958 
Q 3674 1843 3661 1724 
Q 3648 1606 3629 1504 
L 691 1504 
L 768 1952 
L 3334 1952 
L 3085 1798 
Q 3142 2157 3033 2403 
Q 2925 2650 2691 2781 
Q 2458 2912 2131 2912 
Q 1747 2912 1456 2729 
Q 1165 2547 1005 2224 
Q 845 1901 845 1466 
Q 845 1005 1110 752 
Q 1376 499 1920 499 
Q 2240 499 2515 604 
Q 2790 710 2970 890 
L 3232 448 
Q 2989 211 2624 86 
Q 2259 -38 1869 -38 
z
" transform="scale(0.015625)"/>
       <path id="Montserrat-MediumItalic-6e" d="M 2656 3424 
Q 3104 3424 3405 3245 
Q 3706 3066 3824 2723 
Q 3942 2381 3846 1901 
L 3469 0 
L 2854 0 
L 3232 1901 
Q 3328 2362 3142 2618 
Q 2957 2874 2477 2874 
Q 1984 2874 1657 2608 
Q 1331 2342 1222 1792 
L 864 0 
L 250 0 
L 922 3392 
L 1510 3392 
L 1318 2419 
L 1203 2682 
Q 1446 3066 1820 3245 
Q 2195 3424 2656 3424 
z
" transform="scale(0.015625)"/>
       <path id="Montserrat-MediumItalic-2e" d="M 448 -38 
Q 275 -38 156 80 
Q 38 198 38 371 
Q 38 582 172 710 
Q 307 838 493 838 
Q 666 838 781 723 
Q 896 608 896 422 
Q 896 288 832 182 
Q 768 77 669 19 
Q 570 -38 448 -38 
z
" transform="scale(0.015625)"/>
       <path id="Montserrat-MediumItalic-31" d="M 723 0 
L 1562 4198 
L 1786 3923 
L 499 3923 
L 608 4480 
L 2253 4480 
L 1357 0 
L 723 0 
z
" transform="scale(0.015625)"/>
      </defs>
      <use xlink:href="#Montserrat-MediumItalic-51"/>
      <use xlink:href="#Montserrat-MediumItalic-6c" transform="translate(83.999985 0)"/>
      <use xlink:href="#Montserrat-MediumItalic-69" transform="translate(111.899979 0)"/>
      <use xlink:href="#Montserrat-MediumItalic-67" transform="translate(139.799973 0)"/>
      <use xlink:href="#Montserrat-MediumItalic-46" transform="translate(208.799957 0)"/>
      <use xlink:href="#Montserrat-MediumItalic-45" transform="translate(272.299942 0)"/>
      <use xlink:href="#Montserrat-MediumItalic-50" transform="translate(339.299927 0)"/>
      <use xlink:href="#Montserrat-MediumItalic-76" transform="translate(411.499908 0)"/>
      <use xlink:href="#Montserrat-MediumItalic-32" transform="translate(467.399902 0)"/>
      <use xlink:href="#Montserrat-MediumItalic-20" transform="translate(524.799896 0)"/>
      <use xlink:href="#Montserrat-MediumItalic-4f" transform="translate(551.69989 0)"/>
      <use xlink:href="#Montserrat-MediumItalic-70" transform="translate(635.699875 0)"/>
      <use xlink:href="#Montserrat-MediumItalic-65" transform="translate(703.899857 0)"/>
      <use xlink:href="#Montserrat-MediumItalic-6e" transform="translate(764.999847 0)"/>
      <use xlink:href="#Montserrat-MediumItalic-46" transform="translate(833.099838 0)"/>
      <use xlink:href="#Montserrat-MediumItalic-46" transform="translate(896.599823 0)"/>
      <use xlink:href="#Montserrat-MediumItalic-20" transform="translate(960.099808 0)"/>
      <use xlink:href="#Montserrat-MediumItalic-32" transform="translate(986.999802 0)"/>
      <use xlink:href="#Montserrat-MediumItalic-2e" transform="translate(1044.399796 0)"/>
      <use xlink:href="#Montserrat-MediumItalic-32" transform="translate(1067.099792 0)"/>
      <use xlink:href="#Montserrat-MediumItalic-2e" transform="translate(1124.499786 0)"/>
      <use xlink:href="#Montserrat-MediumItalic-31" transform="translate(1147.199783 0)"/>
     </g>
    </g>
    <g id="patch_57">
     <path d="M 54.044063 54.970625 
L 74.044063 54.970625 
L 74.044063 47.970625 
L 54.044063 47.970625 
z
" style="fill: #b5c8e1; stroke: #000000; stroke-width: 0.5; stroke-linejoin: miter"/>
    </g>
    <g id="text_26">
     <!-- Hahn et al. 2023 OpenFF 2.0 -->
     <g transform="translate(82.044063 54.970625) scale(0.1 -0.1)">
      <defs>
       <path id="Montserrat-MediumItalic-48" d="M 4442 4480 
L 5082 4480 
L 4186 0 
L 3546 0 
L 4442 4480 
z
M 973 0 
L 333 0 
L 1229 4480 
L 1869 4480 
L 973 0 
z
M 4006 1997 
L 1318 1997 
L 1427 2554 
L 4115 2554 
L 4006 1997 
z
" transform="scale(0.015625)"/>
       <path id="Montserrat-MediumItalic-61" d="M 1741 -38 
Q 1312 -38 973 138 
Q 634 314 438 640 
Q 243 966 243 1427 
Q 243 1862 387 2227 
Q 531 2592 790 2861 
Q 1050 3130 1402 3277 
Q 1754 3424 2163 3424 
Q 2605 3424 2912 3270 
Q 3219 3117 3385 2819 
Q 3552 2522 3552 2093 
Q 3552 1466 3334 982 
Q 3117 499 2710 230 
Q 2304 -38 1741 -38 
z
M 1875 499 
Q 2259 499 2560 684 
Q 2861 870 3030 1193 
Q 3200 1517 3200 1933 
Q 3200 2381 2937 2633 
Q 2675 2886 2189 2886 
Q 1811 2886 1510 2704 
Q 1210 2522 1037 2198 
Q 864 1875 864 1453 
Q 864 1011 1126 755 
Q 1389 499 1875 499 
z
M 2854 0 
L 3034 877 
L 3238 1664 
L 3322 2470 
L 3501 3392 
L 4115 3392 
L 3443 0 
L 2854 0 
z
" transform="scale(0.015625)"/>
       <path id="Montserrat-MediumItalic-68" d="M 2656 3424 
Q 3104 3424 3405 3245 
Q 3706 3066 3824 2723 
Q 3942 2381 3846 1901 
L 3469 0 
L 2854 0 
L 3232 1901 
Q 3328 2362 3142 2618 
Q 2957 2874 2477 2874 
Q 1984 2874 1657 2608 
Q 1331 2342 1222 1792 
L 864 0 
L 250 0 
L 1197 4749 
L 1811 4749 
L 1344 2419 
L 1203 2682 
Q 1446 3066 1820 3245 
Q 2195 3424 2656 3424 
z
" transform="scale(0.015625)"/>
       <path id="Montserrat-MediumItalic-74" d="M 1414 -38 
Q 1107 -38 886 96 
Q 666 230 573 480 
Q 480 730 544 1069 
L 1158 4134 
L 1773 4134 
L 1158 1082 
Q 1114 806 1213 643 
Q 1312 480 1587 480 
Q 1715 480 1843 521 
Q 1971 563 2074 640 
L 2202 173 
Q 2029 51 1821 6 
Q 1613 -38 1414 -38 
z
M 333 2886 
L 429 3392 
L 2598 3392 
L 2496 2886 
L 333 2886 
z
" transform="scale(0.015625)"/>
       <path id="Montserrat-MediumItalic-30" d="M 1869 -51 
Q 1395 -51 1056 144 
Q 717 339 534 710 
Q 352 1082 352 1594 
Q 352 2176 512 2707 
Q 672 3238 966 3648 
Q 1261 4058 1680 4294 
Q 2099 4531 2618 4531 
Q 3091 4531 3427 4336 
Q 3763 4141 3945 3773 
Q 4128 3405 4128 2886 
Q 4128 2304 3968 1773 
Q 3808 1242 3513 832 
Q 3219 422 2803 185 
Q 2387 -51 1869 -51 
z
M 1920 518 
Q 2298 518 2589 736 
Q 2880 954 3081 1302 
Q 3283 1651 3385 2064 
Q 3488 2477 3488 2874 
Q 3488 3411 3245 3686 
Q 3002 3962 2566 3962 
Q 2189 3962 1894 3744 
Q 1600 3526 1398 3177 
Q 1197 2829 1094 2416 
Q 992 2003 992 1606 
Q 992 1075 1235 796 
Q 1478 518 1920 518 
z
" transform="scale(0.015625)"/>
       <path id="Montserrat-MediumItalic-33" d="M 1402 -51 
Q 896 -51 483 99 
Q 70 250 -166 512 
L 166 1005 
Q 352 794 685 656 
Q 1018 518 1440 518 
Q 1830 518 2102 627 
Q 2374 736 2521 937 
Q 2669 1139 2669 1414 
Q 2669 1754 2425 1923 
Q 2182 2093 1683 2093 
L 1344 2093 
L 1434 2541 
L 3072 4173 
L 3149 3923 
L 678 3923 
L 794 4480 
L 3750 4480 
L 3667 4045 
L 2022 2413 
L 1715 2605 
L 1856 2605 
Q 2323 2605 2646 2467 
Q 2970 2330 3139 2070 
Q 3309 1811 3309 1446 
Q 3309 1011 3072 672 
Q 2835 333 2406 141 
Q 1978 -51 1402 -51 
z
" transform="scale(0.015625)"/>
      </defs>
      <use xlink:href="#Montserrat-MediumItalic-48"/>
      <use xlink:href="#Montserrat-MediumItalic-61" transform="translate(81.199982 0)"/>
      <use xlink:href="#Montserrat-MediumItalic-68" transform="translate(149.399963 0)"/>
      <use xlink:href="#Montserrat-MediumItalic-6e" transform="translate(217.499954 0)"/>
      <use xlink:href="#Montserrat-MediumItalic-20" transform="translate(285.599945 0)"/>
      <use xlink:href="#Montserrat-MediumItalic-65" transform="translate(312.499939 0)"/>
      <use xlink:href="#Montserrat-MediumItalic-74" transform="translate(373.59993 0)"/>
      <use xlink:href="#Montserrat-MediumItalic-20" transform="translate(415.299927 0)"/>
      <use xlink:href="#Montserrat-MediumItalic-61" transform="translate(442.199921 0)"/>
      <use xlink:href="#Montserrat-MediumItalic-6c" transform="translate(510.399902 0)"/>
      <use xlink:href="#Montserrat-MediumItalic-2e" transform="translate(538.299896 0)"/>
      <use xlink:href="#Montserrat-MediumItalic-20" transform="translate(560.999893 0)"/>
      <use xlink:href="#Montserrat-MediumItalic-32" transform="translate(587.899887 0)"/>
      <use xlink:href="#Montserrat-MediumItalic-30" transform="translate(645.299881 0)"/>
      <use xlink:href="#Montserrat-MediumItalic-32" transform="translate(711.899872 0)"/>
      <use xlink:href="#Montserrat-MediumItalic-33" transform="translate(769.299866 0)"/>
      <use xlink:href="#Montserrat-MediumItalic-20" transform="translate(826.499863 0)"/>
      <use xlink:href="#Montserrat-MediumItalic-4f" transform="translate(853.399857 0)"/>
      <use xlink:href="#Montserrat-MediumItalic-70" transform="translate(937.399841 0)"/>
      <use xlink:href="#Montserrat-MediumItalic-65" transform="translate(1005.599823 0)"/>
      <use xlink:href="#Montserrat-MediumItalic-6e" transform="translate(1066.699814 0)"/>
      <use xlink:href="#Montserrat-MediumItalic-46" transform="translate(1134.799805 0)"/>
      <use xlink:href="#Montserrat-MediumItalic-46" transform="translate(1198.299789 0)"/>
      <use xlink:href="#Montserrat-MediumItalic-20" transform="translate(1261.799774 0)"/>
      <use xlink:href="#Montserrat-MediumItalic-32" transform="translate(1288.699768 0)"/>
      <use xlink:href="#Montserrat-MediumItalic-2e" transform="translate(1346.099762 0)"/>
      <use xlink:href="#Montserrat-MediumItalic-30" transform="translate(1368.799759 0)"/>
     </g>
    </g>
    <g id="patch_58">
     <path d="M 54.044063 69.331563 
L 74.044063 69.331563 
L 74.044063 62.331563 
L 54.044063 62.331563 
z
" style="fill: #e1812c; stroke: #000000; stroke-width: 0.5; stroke-linejoin: miter"/>
    </g>
    <g id="text_27">
     <!-- OPLS3e -->
     <g transform="translate(82.044063 69.331563) scale(0.1 -0.1)">
      <defs>
       <path id="Montserrat-MediumItalic-4c" d="M 333 0 
L 1229 4480 
L 1869 4480 
L 1082 557 
L 3514 557 
L 3405 0 
L 333 0 
z
" transform="scale(0.015625)"/>
       <path id="Montserrat-MediumItalic-53" d="M 1715 -51 
Q 1376 -51 1053 22 
Q 730 96 464 217 
Q 198 339 38 493 
L 320 1005 
Q 493 851 726 736 
Q 960 621 1225 557 
Q 1491 493 1773 493 
Q 2131 493 2406 582 
Q 2682 672 2832 841 
Q 2982 1011 2982 1254 
Q 2982 1453 2854 1581 
Q 2726 1709 2524 1789 
Q 2323 1869 2076 1936 
Q 1830 2003 1584 2089 
Q 1338 2176 1136 2304 
Q 934 2432 809 2633 
Q 685 2835 685 3142 
Q 685 3571 921 3881 
Q 1158 4192 1577 4361 
Q 1997 4531 2547 4531 
Q 2963 4531 3340 4435 
Q 3718 4339 3987 4154 
L 3731 3629 
Q 3482 3808 3168 3897 
Q 2854 3987 2515 3987 
Q 2150 3987 1881 3891 
Q 1613 3795 1465 3619 
Q 1318 3443 1312 3206 
Q 1312 3002 1433 2874 
Q 1555 2746 1760 2662 
Q 1965 2579 2211 2505 
Q 2458 2432 2701 2352 
Q 2944 2272 3152 2147 
Q 3360 2022 3485 1830 
Q 3610 1638 3610 1344 
Q 3610 915 3370 598 
Q 3130 282 2704 115 
Q 2278 -51 1715 -51 
z
" transform="scale(0.015625)"/>
      </defs>
      <use xlink:href="#Montserrat-MediumItalic-4f"/>
      <use xlink:href="#Montserrat-MediumItalic-50" transform="translate(83.999985 0)"/>
      <use xlink:href="#Montserrat-MediumItalic-4c" transform="translate(156.199966 0)"/>
      <use xlink:href="#Montserrat-MediumItalic-53" transform="translate(215.59996 0)"/>
      <use xlink:href="#Montserrat-MediumItalic-33" transform="translate(277.699951 0)"/>
      <use xlink:href="#Montserrat-MediumItalic-65" transform="translate(334.899948 0)"/>
     </g>
    </g>
   </g>
  </g>
 </g>
 <defs>
  <clipPath id="p8df7278c8b">
   <rect x="45.044063" y="23.98" width="558" height="166.32"/>
  </clipPath>
 </defs>
</svg>
