<?xml version="1.0" encoding="utf-8" standalone="no"?>
<!DOCTYPE svg PUBLIC "-//W3C//DTD SVG 1.1//EN"
  "http://www.w3.org/Graphics/SVG/1.1/DTD/svg11.dtd">
<svg xmlns:xlink="http://www.w3.org/1999/xlink" width="608.98125pt" height="243.897063pt" viewBox="0 0 608.98125 243.897063" xmlns="http://www.w3.org/2000/svg" version="1.1">
 <metadata>
  <rdf:RDF xmlns:dc="http://purl.org/dc/elements/1.1/" xmlns:cc="http://creativecommons.org/ns#" xmlns:rdf="http://www.w3.org/1999/02/22-rdf-syntax-ns#">
   <cc:Work>
    <dc:type rdf:resource="http://purl.org/dc/dcmitype/StillImage"/>
    <dc:date>2025-08-11T18:09:16.643123</dc:date>
    <dc:format>image/svg+xml</dc:format>
    <dc:creator>
     <cc:Agent>
      <dc:title>Matplotlib v3.10.1, https://matplotlib.org/</dc:title>
     </cc:Agent>
    </dc:creator>
   </cc:Work>
  </rdf:RDF>
 </metadata>
 <defs>
  <style type="text/css">*{stroke-linejoin: round; stroke-linecap: butt}</style>
 </defs>
 <g id="figure_1">
  <g id="patch_1">
   <path d="M 0 243.897063 
L 608.98125 243.897063 
L 608.98125 -0 
L 0 -0 
z
" style="fill: #ffffff"/>
  </g>
  <g id="axes_1">
   <g id="patch_2">
    <path d="M 43.78125 188.76 
L 601.78125 188.76 
L 601.78125 22.44 
L 43.78125 22.44 
z
" style="fill: #ffffff"/>
   </g>
   <g id="matplotlib.axis_1">
    <g id="xtick_1">
     <g id="line2d_1">
      <defs>
       <path id="mca4840a4a7" d="M 0 0 
L 0 3.5 
" style="stroke: #000000; stroke-width: 0.8"/>
      </defs>
      <g>
       <use xlink:href="#mca4840a4a7" x="61.21875" y="188.76" style="stroke: #000000; stroke-width: 0.8"/>
      </g>
     </g>
     <g id="text_1">
      <!-- bace -->
      <g transform="translate(49.601207 218.198487) rotate(-45) scale(0.1 -0.1)">
       <defs>
        <path id="DejaVuSansMono-62" d="M 2869 1747 
Q 2869 2416 2656 2756 
Q 2444 3097 2028 3097 
Q 1609 3097 1393 2755 
Q 1178 2413 1178 1747 
Q 1178 1084 1393 740 
Q 1609 397 2028 397 
Q 2444 397 2656 737 
Q 2869 1078 2869 1747 
z
M 1178 3053 
Q 1316 3309 1558 3446 
Q 1800 3584 2119 3584 
Q 2750 3584 3112 3098 
Q 3475 2613 3475 1759 
Q 3475 894 3111 401 
Q 2747 -91 2113 -91 
Q 1800 -91 1561 45 
Q 1322 181 1178 441 
L 1178 0 
L 603 0 
L 603 4863 
L 1178 4863 
L 1178 3053 
z
" transform="scale(0.015625)"/>
        <path id="DejaVuSansMono-61" d="M 2194 1759 
L 2003 1759 
Q 1500 1759 1245 1582 
Q 991 1406 991 1056 
Q 991 741 1181 566 
Q 1372 391 1709 391 
Q 2184 391 2456 720 
Q 2728 1050 2731 1631 
L 2731 1759 
L 2194 1759 
z
M 3309 1997 
L 3309 0 
L 2731 0 
L 2731 519 
Q 2547 206 2267 57 
Q 1988 -91 1588 -91 
Q 1053 -91 734 211 
Q 416 513 416 1019 
Q 416 1603 808 1906 
Q 1200 2209 1959 2209 
L 2731 2209 
L 2731 2300 
Q 2728 2719 2518 2908 
Q 2309 3097 1850 3097 
Q 1556 3097 1256 3012 
Q 956 2928 672 2766 
L 672 3341 
Q 991 3463 1283 3523 
Q 1575 3584 1850 3584 
Q 2284 3584 2592 3456 
Q 2900 3328 3091 3072 
Q 3209 2916 3259 2686 
Q 3309 2456 3309 1997 
z
" transform="scale(0.015625)"/>
        <path id="DejaVuSansMono-63" d="M 3316 178 
Q 3084 44 2839 -23 
Q 2594 -91 2338 -91 
Q 1525 -91 1067 396 
Q 609 884 609 1747 
Q 609 2609 1067 3096 
Q 1525 3584 2338 3584 
Q 2591 3584 2831 3518 
Q 3072 3453 3316 3316 
L 3316 2713 
Q 3088 2916 2858 3006 
Q 2628 3097 2338 3097 
Q 1797 3097 1506 2747 
Q 1216 2397 1216 1747 
Q 1216 1100 1508 748 
Q 1800 397 2338 397 
Q 2638 397 2875 489 
Q 3113 581 3316 775 
L 3316 178 
z
" transform="scale(0.015625)"/>
        <path id="DejaVuSansMono-65" d="M 3475 1894 
L 3475 1613 
L 984 1613 
L 984 1594 
Q 984 1022 1282 709 
Q 1581 397 2125 397 
Q 2400 397 2700 484 
Q 3000 572 3341 750 
L 3341 178 
Q 3013 44 2708 -23 
Q 2403 -91 2119 -91 
Q 1303 -91 843 398 
Q 384 888 384 1747 
Q 384 2584 834 3084 
Q 1284 3584 2034 3584 
Q 2703 3584 3089 3131 
Q 3475 2678 3475 1894 
z
M 2900 2063 
Q 2888 2569 2661 2833 
Q 2434 3097 2009 3097 
Q 1594 3097 1325 2822 
Q 1056 2547 1006 2059 
L 2900 2063 
z
" transform="scale(0.015625)"/>
       </defs>
       <use xlink:href="#DejaVuSansMono-62"/>
       <use xlink:href="#DejaVuSansMono-61" transform="translate(60.205078 0)"/>
       <use xlink:href="#DejaVuSansMono-63" transform="translate(120.410156 0)"/>
       <use xlink:href="#DejaVuSansMono-65" transform="translate(180.615234 0)"/>
      </g>
     </g>
    </g>
    <g id="xtick_2">
     <g id="line2d_2">
      <g>
       <use xlink:href="#mca4840a4a7" x="96.09375" y="188.76" style="stroke: #000000; stroke-width: 0.8"/>
      </g>
     </g>
     <g id="text_2">
      <!-- cdk2 -->
      <g transform="translate(84.476207 218.198487) rotate(-45) scale(0.1 -0.1)">
       <defs>
        <path id="DejaVuSansMono-64" d="M 2681 3053 
L 2681 4863 
L 3256 4863 
L 3256 0 
L 2681 0 
L 2681 441 
Q 2538 181 2298 45 
Q 2059 -91 1747 -91 
Q 1113 -91 748 401 
Q 384 894 384 1759 
Q 384 2613 750 3098 
Q 1116 3584 1747 3584 
Q 2063 3584 2303 3448 
Q 2544 3313 2681 3053 
z
M 991 1747 
Q 991 1078 1203 737 
Q 1416 397 1831 397 
Q 2247 397 2464 740 
Q 2681 1084 2681 1747 
Q 2681 2413 2464 2755 
Q 2247 3097 1831 3097 
Q 1416 3097 1203 2756 
Q 991 2416 991 1747 
z
" transform="scale(0.015625)"/>
        <path id="DejaVuSansMono-6b" d="M 738 4863 
L 1331 4863 
L 1331 2047 
L 2841 3500 
L 3541 3500 
L 2163 2181 
L 3756 0 
L 3053 0 
L 1759 1806 
L 1331 1403 
L 1331 0 
L 738 0 
L 738 4863 
z
" transform="scale(0.015625)"/>
        <path id="DejaVuSansMono-32" d="M 1166 531 
L 3309 531 
L 3309 0 
L 475 0 
L 475 531 
Q 1059 1147 1496 1619 
Q 1934 2091 2100 2284 
Q 2413 2666 2522 2902 
Q 2631 3138 2631 3384 
Q 2631 3775 2401 3997 
Q 2172 4219 1772 4219 
Q 1488 4219 1175 4116 
Q 863 4013 513 3803 
L 513 4441 
Q 834 4594 1145 4672 
Q 1456 4750 1759 4750 
Q 2444 4750 2861 4386 
Q 3278 4022 3278 3431 
Q 3278 3131 3139 2831 
Q 3000 2531 2688 2169 
Q 2513 1966 2180 1606 
Q 1847 1247 1166 531 
z
" transform="scale(0.015625)"/>
       </defs>
       <use xlink:href="#DejaVuSansMono-63"/>
       <use xlink:href="#DejaVuSansMono-64" transform="translate(60.205078 0)"/>
       <use xlink:href="#DejaVuSansMono-6b" transform="translate(120.410156 0)"/>
       <use xlink:href="#DejaVuSansMono-32" transform="translate(180.615234 0)"/>
      </g>
     </g>
    </g>
    <g id="xtick_3">
     <g id="line2d_3">
      <g>
       <use xlink:href="#mca4840a4a7" x="130.96875" y="188.76" style="stroke: #000000; stroke-width: 0.8"/>
      </g>
     </g>
     <g id="text_3">
      <!-- jnk1 -->
      <g transform="translate(119.351207 218.198487) rotate(-45) scale(0.1 -0.1)">
       <defs>
        <path id="DejaVuSansMono-6a" d="M 1875 -63 
L 1875 3053 
L 884 3053 
L 884 3500 
L 2450 3500 
L 2450 -63 
Q 2450 -672 2170 -1001 
Q 1891 -1331 1375 -1331 
L 581 -1331 
L 581 -844 
L 1313 -844 
Q 1594 -844 1734 -648 
Q 1875 -453 1875 -63 
z
M 1875 4863 
L 2450 4863 
L 2450 4134 
L 1875 4134 
L 1875 4863 
z
" transform="scale(0.015625)"/>
        <path id="DejaVuSansMono-6e" d="M 3284 2169 
L 3284 0 
L 2706 0 
L 2706 2169 
Q 2706 2641 2540 2862 
Q 2375 3084 2022 3084 
Q 1619 3084 1401 2798 
Q 1184 2513 1184 1978 
L 1184 0 
L 609 0 
L 609 3500 
L 1184 3500 
L 1184 2975 
Q 1338 3275 1600 3429 
Q 1863 3584 2222 3584 
Q 2756 3584 3020 3232 
Q 3284 2881 3284 2169 
z
" transform="scale(0.015625)"/>
        <path id="DejaVuSansMono-31" d="M 844 531 
L 1825 531 
L 1825 4097 
L 769 3859 
L 769 4434 
L 1819 4666 
L 2450 4666 
L 2450 531 
L 3419 531 
L 3419 0 
L 844 0 
L 844 531 
z
" transform="scale(0.015625)"/>
       </defs>
       <use xlink:href="#DejaVuSansMono-6a"/>
       <use xlink:href="#DejaVuSansMono-6e" transform="translate(60.205078 0)"/>
       <use xlink:href="#DejaVuSansMono-6b" transform="translate(120.410156 0)"/>
       <use xlink:href="#DejaVuSansMono-31" transform="translate(180.615234 0)"/>
      </g>
     </g>
    </g>
    <g id="xtick_4">
     <g id="line2d_4">
      <g>
       <use xlink:href="#mca4840a4a7" x="165.84375" y="188.76" style="stroke: #000000; stroke-width: 0.8"/>
      </g>
     </g>
     <g id="text_4">
      <!-- mcl1 -->
      <g transform="translate(154.226207 218.198487) rotate(-45) scale(0.1 -0.1)">
       <defs>
        <path id="DejaVuSansMono-6d" d="M 2113 3144 
Q 2219 3369 2383 3476 
Q 2547 3584 2778 3584 
Q 3200 3584 3373 3257 
Q 3547 2931 3547 2028 
L 3547 0 
L 3022 0 
L 3022 2003 
Q 3022 2744 2939 2923 
Q 2856 3103 2638 3103 
Q 2388 3103 2295 2911 
Q 2203 2719 2203 2003 
L 2203 0 
L 1678 0 
L 1678 2003 
Q 1678 2753 1589 2928 
Q 1500 3103 1269 3103 
Q 1041 3103 952 2911 
Q 863 2719 863 2003 
L 863 0 
L 341 0 
L 341 3500 
L 863 3500 
L 863 3200 
Q 966 3388 1120 3486 
Q 1275 3584 1472 3584 
Q 1709 3584 1867 3475 
Q 2025 3366 2113 3144 
z
" transform="scale(0.015625)"/>
        <path id="DejaVuSansMono-6c" d="M 1997 1269 
Q 1997 881 2139 684 
Q 2281 488 2559 488 
L 3231 488 
L 3231 0 
L 2503 0 
Q 1988 0 1705 331 
Q 1422 663 1422 1269 
L 1422 4447 
L 500 4447 
L 500 4897 
L 1997 4897 
L 1997 1269 
z
" transform="scale(0.015625)"/>
       </defs>
       <use xlink:href="#DejaVuSansMono-6d"/>
       <use xlink:href="#DejaVuSansMono-63" transform="translate(60.205078 0)"/>
       <use xlink:href="#DejaVuSansMono-6c" transform="translate(120.410156 0)"/>
       <use xlink:href="#DejaVuSansMono-31" transform="translate(180.615234 0)"/>
      </g>
     </g>
    </g>
    <g id="xtick_5">
     <g id="line2d_5">
      <g>
       <use xlink:href="#mca4840a4a7" x="200.71875" y="188.76" style="stroke: #000000; stroke-width: 0.8"/>
      </g>
     </g>
     <g id="text_5">
      <!-- p38 -->
      <g transform="translate(193.35821 213.941483) rotate(-45) scale(0.1 -0.1)">
       <defs>
        <path id="DejaVuSansMono-70" d="M 1172 441 
L 1172 -1331 
L 594 -1331 
L 594 3500 
L 1172 3500 
L 1172 3053 
Q 1316 3313 1555 3448 
Q 1794 3584 2106 3584 
Q 2741 3584 3102 3093 
Q 3463 2603 3463 1734 
Q 3463 881 3100 395 
Q 2738 -91 2106 -91 
Q 1788 -91 1548 45 
Q 1309 181 1172 441 
z
M 2859 1747 
Q 2859 2416 2648 2756 
Q 2438 3097 2022 3097 
Q 1603 3097 1387 2755 
Q 1172 2413 1172 1747 
Q 1172 1084 1387 740 
Q 1603 397 2022 397 
Q 2438 397 2648 737 
Q 2859 1078 2859 1747 
z
" transform="scale(0.015625)"/>
        <path id="DejaVuSansMono-33" d="M 2425 2497 
Q 2884 2375 3128 2064 
Q 3372 1753 3372 1288 
Q 3372 644 2939 276 
Q 2506 -91 1741 -91 
Q 1419 -91 1084 -31 
Q 750 28 428 141 
L 428 769 
Q 747 603 1056 522 
Q 1366 441 1672 441 
Q 2191 441 2469 675 
Q 2747 909 2747 1350 
Q 2747 1756 2469 1995 
Q 2191 2234 1716 2234 
L 1234 2234 
L 1234 2753 
L 1716 2753 
Q 2150 2753 2394 2943 
Q 2638 3134 2638 3475 
Q 2638 3834 2411 4026 
Q 2184 4219 1766 4219 
Q 1488 4219 1191 4156 
Q 894 4094 569 3969 
L 569 4550 
Q 947 4650 1242 4700 
Q 1538 4750 1766 4750 
Q 2447 4750 2855 4408 
Q 3263 4066 3263 3500 
Q 3263 3116 3048 2859 
Q 2834 2603 2425 2497 
z
" transform="scale(0.015625)"/>
        <path id="DejaVuSansMono-38" d="M 1925 2216 
Q 1503 2216 1273 1980 
Q 1044 1744 1044 1313 
Q 1044 881 1276 642 
Q 1509 403 1925 403 
Q 2350 403 2579 639 
Q 2809 875 2809 1313 
Q 2809 1741 2576 1978 
Q 2344 2216 1925 2216 
z
M 1375 2478 
Q 972 2581 745 2862 
Q 519 3144 519 3541 
Q 519 4097 897 4423 
Q 1275 4750 1925 4750 
Q 2578 4750 2956 4423 
Q 3334 4097 3334 3541 
Q 3334 3144 3107 2862 
Q 2881 2581 2478 2478 
Q 2947 2375 3195 2062 
Q 3444 1750 3444 1253 
Q 3444 622 3041 265 
Q 2638 -91 1925 -91 
Q 1213 -91 811 264 
Q 409 619 409 1247 
Q 409 1747 657 2061 
Q 906 2375 1375 2478 
z
M 1147 3481 
Q 1147 3106 1347 2909 
Q 1547 2713 1925 2713 
Q 2306 2713 2506 2909 
Q 2706 3106 2706 3481 
Q 2706 3863 2507 4063 
Q 2309 4263 1925 4263 
Q 1547 4263 1347 4061 
Q 1147 3859 1147 3481 
z
" transform="scale(0.015625)"/>
       </defs>
       <use xlink:href="#DejaVuSansMono-70"/>
       <use xlink:href="#DejaVuSansMono-33" transform="translate(60.205078 0)"/>
       <use xlink:href="#DejaVuSansMono-38" transform="translate(120.410156 0)"/>
      </g>
     </g>
    </g>
    <g id="xtick_6">
     <g id="line2d_6">
      <g>
       <use xlink:href="#mca4840a4a7" x="235.59375" y="188.76" style="stroke: #000000; stroke-width: 0.8"/>
      </g>
     </g>
     <g id="text_6">
      <!-- ptp1b -->
      <g transform="translate(219.719203 222.455491) rotate(-45) scale(0.1 -0.1)">
       <defs>
        <path id="DejaVuSansMono-74" d="M 1919 4494 
L 1919 3500 
L 3225 3500 
L 3225 3053 
L 1919 3053 
L 1919 1153 
Q 1919 766 2066 612 
Q 2213 459 2578 459 
L 3225 459 
L 3225 0 
L 2522 0 
Q 1875 0 1609 259 
Q 1344 519 1344 1153 
L 1344 3053 
L 409 3053 
L 409 3500 
L 1344 3500 
L 1344 4494 
L 1919 4494 
z
" transform="scale(0.015625)"/>
       </defs>
       <use xlink:href="#DejaVuSansMono-70"/>
       <use xlink:href="#DejaVuSansMono-74" transform="translate(60.205078 0)"/>
       <use xlink:href="#DejaVuSansMono-70" transform="translate(120.410156 0)"/>
       <use xlink:href="#DejaVuSansMono-31" transform="translate(180.615234 0)"/>
       <use xlink:href="#DejaVuSansMono-62" transform="translate(240.820312 0)"/>
      </g>
     </g>
    </g>
    <g id="xtick_7">
     <g id="line2d_7">
      <g>
       <use xlink:href="#mca4840a4a7" x="270.46875" y="188.76" style="stroke: #000000; stroke-width: 0.8"/>
      </g>
     </g>
     <g id="text_7">
      <!-- thrombin -->
      <g transform="translate(241.823191 235.226502) rotate(-45) scale(0.1 -0.1)">
       <defs>
        <path id="DejaVuSansMono-68" d="M 3284 2169 
L 3284 0 
L 2706 0 
L 2706 2169 
Q 2706 2641 2540 2862 
Q 2375 3084 2022 3084 
Q 1619 3084 1401 2798 
Q 1184 2513 1184 1978 
L 1184 0 
L 609 0 
L 609 4863 
L 1184 4863 
L 1184 2975 
Q 1338 3275 1600 3429 
Q 1863 3584 2222 3584 
Q 2756 3584 3020 3232 
Q 3284 2881 3284 2169 
z
" transform="scale(0.015625)"/>
        <path id="DejaVuSansMono-72" d="M 3609 2778 
Q 3425 2922 3234 2987 
Q 3044 3053 2816 3053 
Q 2278 3053 1993 2715 
Q 1709 2378 1709 1741 
L 1709 0 
L 1131 0 
L 1131 3500 
L 1709 3500 
L 1709 2816 
Q 1853 3188 2151 3386 
Q 2450 3584 2859 3584 
Q 3072 3584 3256 3531 
Q 3441 3478 3609 3366 
L 3609 2778 
z
" transform="scale(0.015625)"/>
        <path id="DejaVuSansMono-6f" d="M 1925 3097 
Q 1488 3097 1263 2756 
Q 1038 2416 1038 1747 
Q 1038 1081 1263 739 
Q 1488 397 1925 397 
Q 2366 397 2591 739 
Q 2816 1081 2816 1747 
Q 2816 2416 2591 2756 
Q 2366 3097 1925 3097 
z
M 1925 3584 
Q 2653 3584 3039 3112 
Q 3425 2641 3425 1747 
Q 3425 850 3040 379 
Q 2656 -91 1925 -91 
Q 1197 -91 812 379 
Q 428 850 428 1747 
Q 428 2641 812 3112 
Q 1197 3584 1925 3584 
z
" transform="scale(0.015625)"/>
        <path id="DejaVuSansMono-69" d="M 800 3500 
L 2272 3500 
L 2272 447 
L 3413 447 
L 3413 0 
L 556 0 
L 556 447 
L 1697 447 
L 1697 3053 
L 800 3053 
L 800 3500 
z
M 1697 4863 
L 2272 4863 
L 2272 4134 
L 1697 4134 
L 1697 4863 
z
" transform="scale(0.015625)"/>
       </defs>
       <use xlink:href="#DejaVuSansMono-74"/>
       <use xlink:href="#DejaVuSansMono-68" transform="translate(60.205078 0)"/>
       <use xlink:href="#DejaVuSansMono-72" transform="translate(120.410156 0)"/>
       <use xlink:href="#DejaVuSansMono-6f" transform="translate(180.615234 0)"/>
       <use xlink:href="#DejaVuSansMono-6d" transform="translate(240.820312 0)"/>
       <use xlink:href="#DejaVuSansMono-62" transform="translate(301.025391 0)"/>
       <use xlink:href="#DejaVuSansMono-69" transform="translate(361.230469 0)"/>
       <use xlink:href="#DejaVuSansMono-6e" transform="translate(421.435547 0)"/>
      </g>
     </g>
    </g>
    <g id="xtick_8">
     <g id="line2d_8">
      <g>
       <use xlink:href="#mca4840a4a7" x="305.34375" y="188.76" style="stroke: #000000; stroke-width: 0.8"/>
      </g>
     </g>
     <g id="text_8">
      <!-- tyk2 -->
      <g transform="translate(293.726207 218.198487) rotate(-45) scale(0.1 -0.1)">
       <defs>
        <path id="DejaVuSansMono-79" d="M 2681 1125 
Q 2538 759 2316 163 
Q 2006 -663 1900 -844 
Q 1756 -1088 1540 -1209 
Q 1325 -1331 1038 -1331 
L 575 -1331 
L 575 -850 
L 916 -850 
Q 1169 -850 1312 -703 
Q 1456 -556 1678 56 
L 325 3500 
L 934 3500 
L 1972 763 
L 2994 3500 
L 3603 3500 
L 2681 1125 
z
" transform="scale(0.015625)"/>
       </defs>
       <use xlink:href="#DejaVuSansMono-74"/>
       <use xlink:href="#DejaVuSansMono-79" transform="translate(60.205078 0)"/>
       <use xlink:href="#DejaVuSansMono-6b" transform="translate(120.410156 0)"/>
       <use xlink:href="#DejaVuSansMono-32" transform="translate(180.615234 0)"/>
      </g>
     </g>
    </g>
    <g id="xtick_9">
     <g id="line2d_9">
      <g>
       <use xlink:href="#mca4840a4a7" x="340.21875" y="188.76" style="stroke: #000000; stroke-width: 0.8"/>
      </g>
     </g>
     <g id="text_9">
      <!-- cdk8 -->
      <g transform="translate(328.601207 218.198487) rotate(-45) scale(0.1 -0.1)">
       <use xlink:href="#DejaVuSansMono-63"/>
       <use xlink:href="#DejaVuSansMono-64" transform="translate(60.205078 0)"/>
       <use xlink:href="#DejaVuSansMono-6b" transform="translate(120.410156 0)"/>
       <use xlink:href="#DejaVuSansMono-38" transform="translate(180.615234 0)"/>
      </g>
     </g>
    </g>
    <g id="xtick_10">
     <g id="line2d_10">
      <g>
       <use xlink:href="#mca4840a4a7" x="375.09375" y="188.76" style="stroke: #000000; stroke-width: 0.8"/>
      </g>
     </g>
     <g id="text_10">
      <!-- cmet -->
      <g transform="translate(363.476207 218.198487) rotate(-45) scale(0.1 -0.1)">
       <use xlink:href="#DejaVuSansMono-63"/>
       <use xlink:href="#DejaVuSansMono-6d" transform="translate(60.205078 0)"/>
       <use xlink:href="#DejaVuSansMono-65" transform="translate(120.410156 0)"/>
       <use xlink:href="#DejaVuSansMono-74" transform="translate(180.615234 0)"/>
      </g>
     </g>
    </g>
    <g id="xtick_11">
     <g id="line2d_11">
      <g>
       <use xlink:href="#mca4840a4a7" x="409.96875" y="188.76" style="stroke: #000000; stroke-width: 0.8"/>
      </g>
     </g>
     <g id="text_11">
      <!-- eg5 -->
      <g transform="translate(402.559597 213.89287) rotate(-45) scale(0.1 -0.1)">
       <defs>
        <path id="DejaVuSansMono-67" d="M 2681 1778 
Q 2681 2425 2470 2761 
Q 2259 3097 1856 3097 
Q 1434 3097 1212 2761 
Q 991 2425 991 1778 
Q 991 1131 1214 792 
Q 1438 453 1863 453 
Q 2259 453 2470 793 
Q 2681 1134 2681 1778 
z
M 3256 225 
Q 3256 -563 2884 -969 
Q 2513 -1375 1791 -1375 
Q 1553 -1375 1293 -1331 
Q 1034 -1288 775 -1203 
L 775 -634 
Q 1081 -778 1331 -847 
Q 1581 -916 1791 -916 
Q 2256 -916 2468 -662 
Q 2681 -409 2681 141 
L 2681 166 
L 2681 556 
Q 2544 263 2306 119 
Q 2069 -25 1728 -25 
Q 1116 -25 750 465 
Q 384 956 384 1778 
Q 384 2603 750 3093 
Q 1116 3584 1728 3584 
Q 2066 3584 2300 3450 
Q 2534 3316 2681 3034 
L 2681 3488 
L 3256 3488 
L 3256 225 
z
" transform="scale(0.015625)"/>
        <path id="DejaVuSansMono-35" d="M 647 4666 
L 3009 4666 
L 3009 4134 
L 1222 4134 
L 1222 2988 
Q 1356 3038 1492 3061 
Q 1628 3084 1766 3084 
Q 2491 3084 2916 2656 
Q 3341 2228 3341 1497 
Q 3341 759 2895 334 
Q 2450 -91 1678 -91 
Q 1306 -91 998 -41 
Q 691 9 447 109 
L 447 750 
Q 734 594 1025 517 
Q 1316 441 1619 441 
Q 2141 441 2423 716 
Q 2706 991 2706 1497 
Q 2706 1997 2414 2275 
Q 2122 2553 1600 2553 
Q 1347 2553 1106 2495 
Q 866 2438 647 2322 
L 647 4666 
z
" transform="scale(0.015625)"/>
       </defs>
       <use xlink:href="#DejaVuSansMono-65"/>
       <use xlink:href="#DejaVuSansMono-67" transform="translate(60.205078 0)"/>
       <use xlink:href="#DejaVuSansMono-35" transform="translate(120.410156 0)"/>
      </g>
     </g>
    </g>
    <g id="xtick_12">
     <g id="line2d_12">
      <g>
       <use xlink:href="#mca4840a4a7" x="444.84375" y="188.76" style="stroke: #000000; stroke-width: 0.8"/>
      </g>
     </g>
     <g id="text_12">
      <!-- hif2a -->
      <g transform="translate(428.969203 222.455491) rotate(-45) scale(0.1 -0.1)">
       <defs>
        <path id="DejaVuSansMono-66" d="M 3322 4863 
L 3322 4384 
L 2669 4384 
Q 2359 4384 2239 4257 
Q 2119 4131 2119 3809 
L 2119 3500 
L 3322 3500 
L 3322 3053 
L 2119 3053 
L 2119 0 
L 1544 0 
L 1544 3053 
L 609 3053 
L 609 3500 
L 1544 3500 
L 1544 3744 
Q 1544 4319 1808 4591 
Q 2072 4863 2631 4863 
L 3322 4863 
z
" transform="scale(0.015625)"/>
       </defs>
       <use xlink:href="#DejaVuSansMono-68"/>
       <use xlink:href="#DejaVuSansMono-69" transform="translate(60.205078 0)"/>
       <use xlink:href="#DejaVuSansMono-66" transform="translate(120.410156 0)"/>
       <use xlink:href="#DejaVuSansMono-32" transform="translate(180.615234 0)"/>
       <use xlink:href="#DejaVuSansMono-61" transform="translate(240.820312 0)"/>
      </g>
     </g>
    </g>
    <g id="xtick_13">
     <g id="line2d_13">
      <g>
       <use xlink:href="#mca4840a4a7" x="479.71875" y="188.76" style="stroke: #000000; stroke-width: 0.8"/>
      </g>
     </g>
     <g id="text_13">
      <!-- shp2 -->
      <g transform="translate(468.101207 218.198487) rotate(-45) scale(0.1 -0.1)">
       <defs>
        <path id="DejaVuSansMono-73" d="M 3041 3378 
L 3041 2816 
Q 2794 2959 2544 3031 
Q 2294 3103 2034 3103 
Q 1644 3103 1451 2976 
Q 1259 2850 1259 2591 
Q 1259 2356 1403 2240 
Q 1547 2125 2119 2016 
L 2350 1972 
Q 2778 1891 2998 1647 
Q 3219 1403 3219 1013 
Q 3219 494 2850 201 
Q 2481 -91 1825 -91 
Q 1566 -91 1281 -36 
Q 997 19 666 128 
L 666 722 
Q 988 556 1281 473 
Q 1575 391 1838 391 
Q 2219 391 2428 545 
Q 2638 700 2638 978 
Q 2638 1378 1872 1531 
L 1847 1538 
L 1631 1581 
Q 1134 1678 906 1908 
Q 678 2138 678 2534 
Q 678 3038 1018 3311 
Q 1359 3584 1991 3584 
Q 2272 3584 2531 3532 
Q 2791 3481 3041 3378 
z
" transform="scale(0.015625)"/>
       </defs>
       <use xlink:href="#DejaVuSansMono-73"/>
       <use xlink:href="#DejaVuSansMono-68" transform="translate(60.205078 0)"/>
       <use xlink:href="#DejaVuSansMono-70" transform="translate(120.410156 0)"/>
       <use xlink:href="#DejaVuSansMono-32" transform="translate(180.615234 0)"/>
      </g>
     </g>
    </g>
    <g id="xtick_14">
     <g id="line2d_14">
      <g>
       <use xlink:href="#mca4840a4a7" x="514.59375" y="188.76" style="stroke: #000000; stroke-width: 0.8"/>
      </g>
     </g>
     <g id="text_14">
      <!-- syk -->
      <g transform="translate(507.23321 213.941483) rotate(-45) scale(0.1 -0.1)">
       <use xlink:href="#DejaVuSansMono-73"/>
       <use xlink:href="#DejaVuSansMono-79" transform="translate(60.205078 0)"/>
       <use xlink:href="#DejaVuSansMono-6b" transform="translate(120.410156 0)"/>
      </g>
     </g>
    </g>
    <g id="xtick_15">
     <g id="line2d_15">
      <g>
       <use xlink:href="#mca4840a4a7" x="549.46875" y="188.76" style="stroke: #000000; stroke-width: 0.8"/>
      </g>
     </g>
     <g id="text_15">
      <!-- pfkfb3 -->
      <g transform="translate(529.337199 226.712494) rotate(-45) scale(0.1 -0.1)">
       <use xlink:href="#DejaVuSansMono-70"/>
       <use xlink:href="#DejaVuSansMono-66" transform="translate(60.205078 0)"/>
       <use xlink:href="#DejaVuSansMono-6b" transform="translate(120.410156 0)"/>
       <use xlink:href="#DejaVuSansMono-66" transform="translate(180.615234 0)"/>
       <use xlink:href="#DejaVuSansMono-62" transform="translate(240.820312 0)"/>
       <use xlink:href="#DejaVuSansMono-33" transform="translate(301.025391 0)"/>
      </g>
     </g>
    </g>
    <g id="xtick_16">
     <g id="line2d_16">
      <g>
       <use xlink:href="#mca4840a4a7" x="584.34375" y="188.76" style="stroke: #000000; stroke-width: 0.8"/>
      </g>
     </g>
     <g id="text_16">
      <!-- tnks2 -->
      <g transform="translate(568.469203 222.455491) rotate(-45) scale(0.1 -0.1)">
       <use xlink:href="#DejaVuSansMono-74"/>
       <use xlink:href="#DejaVuSansMono-6e" transform="translate(60.205078 0)"/>
       <use xlink:href="#DejaVuSansMono-6b" transform="translate(120.410156 0)"/>
       <use xlink:href="#DejaVuSansMono-73" transform="translate(180.615234 0)"/>
       <use xlink:href="#DejaVuSansMono-32" transform="translate(240.820312 0)"/>
      </g>
     </g>
    </g>
   </g>
   <g id="matplotlib.axis_2">
    <g id="ytick_1">
     <g id="line2d_17">
      <path d="M 43.78125 188.76 
L 601.78125 188.76 
" clip-path="url(#p40b84452d0)" style="fill: none; stroke: #b0b0b0; stroke-opacity: 0.5; stroke-width: 0.8; stroke-linecap: square"/>
     </g>
     <g id="line2d_18">
      <defs>
       <path id="m69a3b79a5d" d="M 0 0 
L -3.5 0 
" style="stroke: #000000; stroke-width: 0.8"/>
      </defs>
      <g>
       <use xlink:href="#m69a3b79a5d" x="43.78125" y="188.76" style="stroke: #000000; stroke-width: 0.8"/>
      </g>
     </g>
     <g id="text_17">
      <!-- 0.0 -->
      <g transform="translate(20.878125 192.559219) scale(0.1 -0.1)">
       <defs>
        <path id="DejaVuSans-30" d="M 2034 4250 
Q 1547 4250 1301 3770 
Q 1056 3291 1056 2328 
Q 1056 1369 1301 889 
Q 1547 409 2034 409 
Q 2525 409 2770 889 
Q 3016 1369 3016 2328 
Q 3016 3291 2770 3770 
Q 2525 4250 2034 4250 
z
M 2034 4750 
Q 2819 4750 3233 4129 
Q 3647 3509 3647 2328 
Q 3647 1150 3233 529 
Q 2819 -91 2034 -91 
Q 1250 -91 836 529 
Q 422 1150 422 2328 
Q 422 3509 836 4129 
Q 1250 4750 2034 4750 
z
" transform="scale(0.015625)"/>
        <path id="DejaVuSans-2e" d="M 684 794 
L 1344 794 
L 1344 0 
L 684 0 
L 684 794 
z
" transform="scale(0.015625)"/>
       </defs>
       <use xlink:href="#DejaVuSans-30"/>
       <use xlink:href="#DejaVuSans-2e" transform="translate(63.623047 0)"/>
       <use xlink:href="#DejaVuSans-30" transform="translate(95.410156 0)"/>
      </g>
     </g>
    </g>
    <g id="ytick_2">
     <g id="line2d_19">
      <path d="M 43.78125 160.465148 
L 601.78125 160.465148 
" clip-path="url(#p40b84452d0)" style="fill: none; stroke: #b0b0b0; stroke-opacity: 0.5; stroke-width: 0.8; stroke-linecap: square"/>
     </g>
     <g id="line2d_20">
      <g>
       <use xlink:href="#m69a3b79a5d" x="43.78125" y="160.465148" style="stroke: #000000; stroke-width: 0.8"/>
      </g>
     </g>
     <g id="text_18">
      <!-- 0.5 -->
      <g transform="translate(20.878125 164.264367) scale(0.1 -0.1)">
       <defs>
        <path id="DejaVuSans-35" d="M 691 4666 
L 3169 4666 
L 3169 4134 
L 1269 4134 
L 1269 2991 
Q 1406 3038 1543 3061 
Q 1681 3084 1819 3084 
Q 2600 3084 3056 2656 
Q 3513 2228 3513 1497 
Q 3513 744 3044 326 
Q 2575 -91 1722 -91 
Q 1428 -91 1123 -41 
Q 819 9 494 109 
L 494 744 
Q 775 591 1075 516 
Q 1375 441 1709 441 
Q 2250 441 2565 725 
Q 2881 1009 2881 1497 
Q 2881 1984 2565 2268 
Q 2250 2553 1709 2553 
Q 1456 2553 1204 2497 
Q 953 2441 691 2322 
L 691 4666 
z
" transform="scale(0.015625)"/>
       </defs>
       <use xlink:href="#DejaVuSans-30"/>
       <use xlink:href="#DejaVuSans-2e" transform="translate(63.623047 0)"/>
       <use xlink:href="#DejaVuSans-35" transform="translate(95.410156 0)"/>
      </g>
     </g>
    </g>
    <g id="ytick_3">
     <g id="line2d_21">
      <path d="M 43.78125 132.170296 
L 601.78125 132.170296 
" clip-path="url(#p40b84452d0)" style="fill: none; stroke: #b0b0b0; stroke-opacity: 0.5; stroke-width: 0.8; stroke-linecap: square"/>
     </g>
     <g id="line2d_22">
      <g>
       <use xlink:href="#m69a3b79a5d" x="43.78125" y="132.170296" style="stroke: #000000; stroke-width: 0.8"/>
      </g>
     </g>
     <g id="text_19">
      <!-- 1.0 -->
      <g transform="translate(20.878125 135.969515) scale(0.1 -0.1)">
       <defs>
        <path id="DejaVuSans-31" d="M 794 531 
L 1825 531 
L 1825 4091 
L 703 3866 
L 703 4441 
L 1819 4666 
L 2450 4666 
L 2450 531 
L 3481 531 
L 3481 0 
L 794 0 
L 794 531 
z
" transform="scale(0.015625)"/>
       </defs>
       <use xlink:href="#DejaVuSans-31"/>
       <use xlink:href="#DejaVuSans-2e" transform="translate(63.623047 0)"/>
       <use xlink:href="#DejaVuSans-30" transform="translate(95.410156 0)"/>
      </g>
     </g>
    </g>
    <g id="ytick_4">
     <g id="line2d_23">
      <path d="M 43.78125 103.875444 
L 601.78125 103.875444 
" clip-path="url(#p40b84452d0)" style="fill: none; stroke: #b0b0b0; stroke-opacity: 0.5; stroke-width: 0.8; stroke-linecap: square"/>
     </g>
     <g id="line2d_24">
      <g>
       <use xlink:href="#m69a3b79a5d" x="43.78125" y="103.875444" style="stroke: #000000; stroke-width: 0.8"/>
      </g>
     </g>
     <g id="text_20">
      <!-- 1.5 -->
      <g transform="translate(20.878125 107.674663) scale(0.1 -0.1)">
       <use xlink:href="#DejaVuSans-31"/>
       <use xlink:href="#DejaVuSans-2e" transform="translate(63.623047 0)"/>
       <use xlink:href="#DejaVuSans-35" transform="translate(95.410156 0)"/>
      </g>
     </g>
    </g>
    <g id="ytick_5">
     <g id="line2d_25">
      <path d="M 43.78125 75.580592 
L 601.78125 75.580592 
" clip-path="url(#p40b84452d0)" style="fill: none; stroke: #b0b0b0; stroke-opacity: 0.5; stroke-width: 0.8; stroke-linecap: square"/>
     </g>
     <g id="line2d_26">
      <g>
       <use xlink:href="#m69a3b79a5d" x="43.78125" y="75.580592" style="stroke: #000000; stroke-width: 0.8"/>
      </g>
     </g>
     <g id="text_21">
      <!-- 2.0 -->
      <g transform="translate(20.878125 79.379811) scale(0.1 -0.1)">
       <defs>
        <path id="DejaVuSans-32" d="M 1228 531 
L 3431 531 
L 3431 0 
L 469 0 
L 469 531 
Q 828 903 1448 1529 
Q 2069 2156 2228 2338 
Q 2531 2678 2651 2914 
Q 2772 3150 2772 3378 
Q 2772 3750 2511 3984 
Q 2250 4219 1831 4219 
Q 1534 4219 1204 4116 
Q 875 4013 500 3803 
L 500 4441 
Q 881 4594 1212 4672 
Q 1544 4750 1819 4750 
Q 2544 4750 2975 4387 
Q 3406 4025 3406 3419 
Q 3406 3131 3298 2873 
Q 3191 2616 2906 2266 
Q 2828 2175 2409 1742 
Q 1991 1309 1228 531 
z
" transform="scale(0.015625)"/>
       </defs>
       <use xlink:href="#DejaVuSans-32"/>
       <use xlink:href="#DejaVuSans-2e" transform="translate(63.623047 0)"/>
       <use xlink:href="#DejaVuSans-30" transform="translate(95.410156 0)"/>
      </g>
     </g>
    </g>
    <g id="ytick_6">
     <g id="line2d_27">
      <path d="M 43.78125 47.28574 
L 601.78125 47.28574 
" clip-path="url(#p40b84452d0)" style="fill: none; stroke: #b0b0b0; stroke-opacity: 0.5; stroke-width: 0.8; stroke-linecap: square"/>
     </g>
     <g id="line2d_28">
      <g>
       <use xlink:href="#m69a3b79a5d" x="43.78125" y="47.28574" style="stroke: #000000; stroke-width: 0.8"/>
      </g>
     </g>
     <g id="text_22">
      <!-- 2.5 -->
      <g transform="translate(20.878125 51.084959) scale(0.1 -0.1)">
       <use xlink:href="#DejaVuSans-32"/>
       <use xlink:href="#DejaVuSans-2e" transform="translate(63.623047 0)"/>
       <use xlink:href="#DejaVuSans-35" transform="translate(95.410156 0)"/>
      </g>
     </g>
    </g>
    <g id="text_23">
     <!-- $\Delta\Delta \mathrm{G\ Abs. Deviation (kcal/mol)}$ -->
     <g transform="translate(14.798438 178.65) rotate(-90) scale(0.1 -0.1)">
      <defs>
       <path id="DejaVuSans-394" d="M 2188 4044 
L 906 525 
L 3472 525 
L 2188 4044 
z
M 50 0 
L 1831 4666 
L 2547 4666 
L 4325 0 
L 50 0 
z
" transform="scale(0.015625)"/>
       <path id="DejaVuSans-47" d="M 3809 666 
L 3809 1919 
L 2778 1919 
L 2778 2438 
L 4434 2438 
L 4434 434 
Q 4069 175 3628 42 
Q 3188 -91 2688 -91 
Q 1594 -91 976 548 
Q 359 1188 359 2328 
Q 359 3472 976 4111 
Q 1594 4750 2688 4750 
Q 3144 4750 3555 4637 
Q 3966 4525 4313 4306 
L 4313 3634 
Q 3963 3931 3569 4081 
Q 3175 4231 2741 4231 
Q 1884 4231 1454 3753 
Q 1025 3275 1025 2328 
Q 1025 1384 1454 906 
Q 1884 428 2741 428 
Q 3075 428 3337 486 
Q 3600 544 3809 666 
z
" transform="scale(0.015625)"/>
       <path id="DejaVuSans-41" d="M 2188 4044 
L 1331 1722 
L 3047 1722 
L 2188 4044 
z
M 1831 4666 
L 2547 4666 
L 4325 0 
L 3669 0 
L 3244 1197 
L 1141 1197 
L 716 0 
L 50 0 
L 1831 4666 
z
" transform="scale(0.015625)"/>
       <path id="DejaVuSans-62" d="M 3116 1747 
Q 3116 2381 2855 2742 
Q 2594 3103 2138 3103 
Q 1681 3103 1420 2742 
Q 1159 2381 1159 1747 
Q 1159 1113 1420 752 
Q 1681 391 2138 391 
Q 2594 391 2855 752 
Q 3116 1113 3116 1747 
z
M 1159 2969 
Q 1341 3281 1617 3432 
Q 1894 3584 2278 3584 
Q 2916 3584 3314 3078 
Q 3713 2572 3713 1747 
Q 3713 922 3314 415 
Q 2916 -91 2278 -91 
Q 1894 -91 1617 61 
Q 1341 213 1159 525 
L 1159 0 
L 581 0 
L 581 4863 
L 1159 4863 
L 1159 2969 
z
" transform="scale(0.015625)"/>
       <path id="DejaVuSans-73" d="M 2834 3397 
L 2834 2853 
Q 2591 2978 2328 3040 
Q 2066 3103 1784 3103 
Q 1356 3103 1142 2972 
Q 928 2841 928 2578 
Q 928 2378 1081 2264 
Q 1234 2150 1697 2047 
L 1894 2003 
Q 2506 1872 2764 1633 
Q 3022 1394 3022 966 
Q 3022 478 2636 193 
Q 2250 -91 1575 -91 
Q 1294 -91 989 -36 
Q 684 19 347 128 
L 347 722 
Q 666 556 975 473 
Q 1284 391 1588 391 
Q 1994 391 2212 530 
Q 2431 669 2431 922 
Q 2431 1156 2273 1281 
Q 2116 1406 1581 1522 
L 1381 1569 
Q 847 1681 609 1914 
Q 372 2147 372 2553 
Q 372 3047 722 3315 
Q 1072 3584 1716 3584 
Q 2034 3584 2315 3537 
Q 2597 3491 2834 3397 
z
" transform="scale(0.015625)"/>
       <path id="DejaVuSans-44" d="M 1259 4147 
L 1259 519 
L 2022 519 
Q 2988 519 3436 956 
Q 3884 1394 3884 2338 
Q 3884 3275 3436 3711 
Q 2988 4147 2022 4147 
L 1259 4147 
z
M 628 4666 
L 1925 4666 
Q 3281 4666 3915 4102 
Q 4550 3538 4550 2338 
Q 4550 1131 3912 565 
Q 3275 0 1925 0 
L 628 0 
L 628 4666 
z
" transform="scale(0.015625)"/>
       <path id="DejaVuSans-65" d="M 3597 1894 
L 3597 1613 
L 953 1613 
Q 991 1019 1311 708 
Q 1631 397 2203 397 
Q 2534 397 2845 478 
Q 3156 559 3463 722 
L 3463 178 
Q 3153 47 2828 -22 
Q 2503 -91 2169 -91 
Q 1331 -91 842 396 
Q 353 884 353 1716 
Q 353 2575 817 3079 
Q 1281 3584 2069 3584 
Q 2775 3584 3186 3129 
Q 3597 2675 3597 1894 
z
M 3022 2063 
Q 3016 2534 2758 2815 
Q 2500 3097 2075 3097 
Q 1594 3097 1305 2825 
Q 1016 2553 972 2059 
L 3022 2063 
z
" transform="scale(0.015625)"/>
       <path id="DejaVuSans-76" d="M 191 3500 
L 800 3500 
L 1894 563 
L 2988 3500 
L 3597 3500 
L 2284 0 
L 1503 0 
L 191 3500 
z
" transform="scale(0.015625)"/>
       <path id="DejaVuSans-69" d="M 603 3500 
L 1178 3500 
L 1178 0 
L 603 0 
L 603 3500 
z
M 603 4863 
L 1178 4863 
L 1178 4134 
L 603 4134 
L 603 4863 
z
" transform="scale(0.015625)"/>
       <path id="DejaVuSans-61" d="M 2194 1759 
Q 1497 1759 1228 1600 
Q 959 1441 959 1056 
Q 959 750 1161 570 
Q 1363 391 1709 391 
Q 2188 391 2477 730 
Q 2766 1069 2766 1631 
L 2766 1759 
L 2194 1759 
z
M 3341 1997 
L 3341 0 
L 2766 0 
L 2766 531 
Q 2569 213 2275 61 
Q 1981 -91 1556 -91 
Q 1019 -91 701 211 
Q 384 513 384 1019 
Q 384 1609 779 1909 
Q 1175 2209 1959 2209 
L 2766 2209 
L 2766 2266 
Q 2766 2663 2505 2880 
Q 2244 3097 1772 3097 
Q 1472 3097 1187 3025 
Q 903 2953 641 2809 
L 641 3341 
Q 956 3463 1253 3523 
Q 1550 3584 1831 3584 
Q 2591 3584 2966 3190 
Q 3341 2797 3341 1997 
z
" transform="scale(0.015625)"/>
       <path id="DejaVuSans-74" d="M 1172 4494 
L 1172 3500 
L 2356 3500 
L 2356 3053 
L 1172 3053 
L 1172 1153 
Q 1172 725 1289 603 
Q 1406 481 1766 481 
L 2356 481 
L 2356 0 
L 1766 0 
Q 1100 0 847 248 
Q 594 497 594 1153 
L 594 3053 
L 172 3053 
L 172 3500 
L 594 3500 
L 594 4494 
L 1172 4494 
z
" transform="scale(0.015625)"/>
       <path id="DejaVuSans-6f" d="M 1959 3097 
Q 1497 3097 1228 2736 
Q 959 2375 959 1747 
Q 959 1119 1226 758 
Q 1494 397 1959 397 
Q 2419 397 2687 759 
Q 2956 1122 2956 1747 
Q 2956 2369 2687 2733 
Q 2419 3097 1959 3097 
z
M 1959 3584 
Q 2709 3584 3137 3096 
Q 3566 2609 3566 1747 
Q 3566 888 3137 398 
Q 2709 -91 1959 -91 
Q 1206 -91 779 398 
Q 353 888 353 1747 
Q 353 2609 779 3096 
Q 1206 3584 1959 3584 
z
" transform="scale(0.015625)"/>
       <path id="DejaVuSans-6e" d="M 3513 2113 
L 3513 0 
L 2938 0 
L 2938 2094 
Q 2938 2591 2744 2837 
Q 2550 3084 2163 3084 
Q 1697 3084 1428 2787 
Q 1159 2491 1159 1978 
L 1159 0 
L 581 0 
L 581 3500 
L 1159 3500 
L 1159 2956 
Q 1366 3272 1645 3428 
Q 1925 3584 2291 3584 
Q 2894 3584 3203 3211 
Q 3513 2838 3513 2113 
z
" transform="scale(0.015625)"/>
       <path id="DejaVuSans-28" d="M 1984 4856 
Q 1566 4138 1362 3434 
Q 1159 2731 1159 2009 
Q 1159 1288 1364 580 
Q 1569 -128 1984 -844 
L 1484 -844 
Q 1016 -109 783 600 
Q 550 1309 550 2009 
Q 550 2706 781 3412 
Q 1013 4119 1484 4856 
L 1984 4856 
z
" transform="scale(0.015625)"/>
       <path id="DejaVuSans-6b" d="M 581 4863 
L 1159 4863 
L 1159 1991 
L 2875 3500 
L 3609 3500 
L 1753 1863 
L 3688 0 
L 2938 0 
L 1159 1709 
L 1159 0 
L 581 0 
L 581 4863 
z
" transform="scale(0.015625)"/>
       <path id="DejaVuSans-63" d="M 3122 3366 
L 3122 2828 
Q 2878 2963 2633 3030 
Q 2388 3097 2138 3097 
Q 1578 3097 1268 2742 
Q 959 2388 959 1747 
Q 959 1106 1268 751 
Q 1578 397 2138 397 
Q 2388 397 2633 464 
Q 2878 531 3122 666 
L 3122 134 
Q 2881 22 2623 -34 
Q 2366 -91 2075 -91 
Q 1284 -91 818 406 
Q 353 903 353 1747 
Q 353 2603 823 3093 
Q 1294 3584 2113 3584 
Q 2378 3584 2631 3529 
Q 2884 3475 3122 3366 
z
" transform="scale(0.015625)"/>
       <path id="DejaVuSans-6c" d="M 603 4863 
L 1178 4863 
L 1178 0 
L 603 0 
L 603 4863 
z
" transform="scale(0.015625)"/>
       <path id="DejaVuSans-2f" d="M 1625 4666 
L 2156 4666 
L 531 -594 
L 0 -594 
L 1625 4666 
z
" transform="scale(0.015625)"/>
       <path id="DejaVuSans-6d" d="M 3328 2828 
Q 3544 3216 3844 3400 
Q 4144 3584 4550 3584 
Q 5097 3584 5394 3201 
Q 5691 2819 5691 2113 
L 5691 0 
L 5113 0 
L 5113 2094 
Q 5113 2597 4934 2840 
Q 4756 3084 4391 3084 
Q 3944 3084 3684 2787 
Q 3425 2491 3425 1978 
L 3425 0 
L 2847 0 
L 2847 2094 
Q 2847 2600 2669 2842 
Q 2491 3084 2119 3084 
Q 1678 3084 1418 2786 
Q 1159 2488 1159 1978 
L 1159 0 
L 581 0 
L 581 3500 
L 1159 3500 
L 1159 2956 
Q 1356 3278 1631 3431 
Q 1906 3584 2284 3584 
Q 2666 3584 2933 3390 
Q 3200 3197 3328 2828 
z
" transform="scale(0.015625)"/>
       <path id="DejaVuSans-29" d="M 513 4856 
L 1013 4856 
Q 1481 4119 1714 3412 
Q 1947 2706 1947 2009 
Q 1947 1309 1714 600 
Q 1481 -109 1013 -844 
L 513 -844 
Q 928 -128 1133 580 
Q 1338 1288 1338 2009 
Q 1338 2731 1133 3434 
Q 928 4138 513 4856 
z
" transform="scale(0.015625)"/>
      </defs>
      <use xlink:href="#DejaVuSans-394" transform="translate(0 0.015625)"/>
      <use xlink:href="#DejaVuSans-394" transform="translate(68.408203 0.015625)"/>
      <use xlink:href="#DejaVuSans-47" transform="translate(136.816406 0.015625)"/>
      <use xlink:href="#DejaVuSans-41" transform="translate(246.777019 0.015625)"/>
      <use xlink:href="#DejaVuSans-62" transform="translate(315.185222 0.015625)"/>
      <use xlink:href="#DejaVuSans-73" transform="translate(378.661785 0.015625)"/>
      <use xlink:href="#DejaVuSans-2e" transform="translate(430.761394 0.015625)"/>
      <use xlink:href="#DejaVuSans-44" transform="translate(482.030925 0.015625)"/>
      <use xlink:href="#DejaVuSans-65" transform="translate(559.032878 0.015625)"/>
      <use xlink:href="#DejaVuSans-76" transform="translate(620.556316 0.015625)"/>
      <use xlink:href="#DejaVuSans-69" transform="translate(679.736003 0.015625)"/>
      <use xlink:href="#DejaVuSans-61" transform="translate(707.519207 0.015625)"/>
      <use xlink:href="#DejaVuSans-74" transform="translate(768.798503 0.015625)"/>
      <use xlink:href="#DejaVuSans-69" transform="translate(808.007488 0.015625)"/>
      <use xlink:href="#DejaVuSans-6f" transform="translate(835.790691 0.015625)"/>
      <use xlink:href="#DejaVuSans-6e" transform="translate(896.972332 0.015625)"/>
      <use xlink:href="#DejaVuSans-28" transform="translate(960.351238 0.015625)"/>
      <use xlink:href="#DejaVuSans-6b" transform="translate(999.36491 0.015625)"/>
      <use xlink:href="#DejaVuSans-63" transform="translate(1057.275066 0.015625)"/>
      <use xlink:href="#DejaVuSans-61" transform="translate(1112.255535 0.015625)"/>
      <use xlink:href="#DejaVuSans-6c" transform="translate(1173.534832 0.015625)"/>
      <use xlink:href="#DejaVuSans-2f" transform="translate(1201.318035 0.015625)"/>
      <use xlink:href="#DejaVuSans-6d" transform="translate(1235.009441 0.015625)"/>
      <use xlink:href="#DejaVuSans-6f" transform="translate(1332.42155 0.015625)"/>
      <use xlink:href="#DejaVuSans-6c" transform="translate(1393.603191 0.015625)"/>
      <use xlink:href="#DejaVuSans-29" transform="translate(1421.386394 0.015625)"/>
     </g>
    </g>
   </g>
   <g id="patch_3">
    <path d="M 47.26875 188.76 
L 56.56875 188.76 
L 56.56875 108.644711 
L 47.26875 108.644711 
z
" clip-path="url(#p40b84452d0)" style="fill: #3274a1; stroke: #000000; stroke-width: 0.5; stroke-linejoin: miter"/>
   </g>
   <g id="patch_4">
    <path d="M 82.14375 188.76 
L 91.44375 188.76 
L 91.44375 131.224876 
L 82.14375 131.224876 
z
" clip-path="url(#p40b84452d0)" style="fill: #3274a1; stroke: #000000; stroke-width: 0.5; stroke-linejoin: miter"/>
   </g>
   <g id="patch_5">
    <path d="M 117.01875 188.76 
L 126.31875 188.76 
L 126.31875 122.775776 
L 117.01875 122.775776 
z
" clip-path="url(#p40b84452d0)" style="fill: #3274a1; stroke: #000000; stroke-width: 0.5; stroke-linejoin: miter"/>
   </g>
   <g id="patch_6">
    <path d="M 151.89375 188.76 
L 161.19375 188.76 
L 161.19375 101.299245 
L 151.89375 101.299245 
z
" clip-path="url(#p40b84452d0)" style="fill: #3274a1; stroke: #000000; stroke-width: 0.5; stroke-linejoin: miter"/>
   </g>
   <g id="patch_7">
    <path d="M 186.76875 188.76 
L 196.06875 188.76 
L 196.06875 119.945112 
L 186.76875 119.945112 
z
" clip-path="url(#p40b84452d0)" style="fill: #3274a1; stroke: #000000; stroke-width: 0.5; stroke-linejoin: miter"/>
   </g>
   <g id="patch_8">
    <path d="M 221.64375 188.76 
L 230.94375 188.76 
L 230.94375 101.151499 
L 221.64375 101.151499 
z
" clip-path="url(#p40b84452d0)" style="fill: #3274a1; stroke: #000000; stroke-width: 0.5; stroke-linejoin: miter"/>
   </g>
   <g id="patch_9">
    <path d="M 256.51875 188.76 
L 265.81875 188.76 
L 265.81875 130.122647 
L 256.51875 130.122647 
z
" clip-path="url(#p40b84452d0)" style="fill: #3274a1; stroke: #000000; stroke-width: 0.5; stroke-linejoin: miter"/>
   </g>
   <g id="patch_10">
    <path d="M 291.39375 188.76 
L 300.69375 188.76 
L 300.69375 133.87619 
L 291.39375 133.87619 
z
" clip-path="url(#p40b84452d0)" style="fill: #3274a1; stroke: #000000; stroke-width: 0.5; stroke-linejoin: miter"/>
   </g>
   <g id="patch_11">
    <path d="M 326.26875 188.76 
L 335.56875 188.76 
L 335.56875 55.863756 
L 326.26875 55.863756 
z
" clip-path="url(#p40b84452d0)" style="fill: #3274a1; stroke: #000000; stroke-width: 0.5; stroke-linejoin: miter"/>
   </g>
   <g id="patch_12">
    <path d="M 361.14375 188.76 
L 370.44375 188.76 
L 370.44375 79.632244 
L 361.14375 79.632244 
z
" clip-path="url(#p40b84452d0)" style="fill: #3274a1; stroke: #000000; stroke-width: 0.5; stroke-linejoin: miter"/>
   </g>
   <g id="patch_13">
    <path d="M 396.01875 188.76 
L 405.31875 188.76 
L 405.31875 97.649778 
L 396.01875 97.649778 
z
" clip-path="url(#p40b84452d0)" style="fill: #3274a1; stroke: #000000; stroke-width: 0.5; stroke-linejoin: miter"/>
   </g>
   <g id="patch_14">
    <path d="M 430.89375 188.76 
L 440.19375 188.76 
L 440.19375 91.99849 
L 430.89375 91.99849 
z
" clip-path="url(#p40b84452d0)" style="fill: #3274a1; stroke: #000000; stroke-width: 0.5; stroke-linejoin: miter"/>
   </g>
   <g id="patch_15">
    <path d="M 465.76875 188.76 
L 475.06875 188.76 
L 475.06875 72.150757 
L 465.76875 72.150757 
z
" clip-path="url(#p40b84452d0)" style="fill: #3274a1; stroke: #000000; stroke-width: 0.5; stroke-linejoin: miter"/>
   </g>
   <g id="patch_16">
    <path d="M 500.64375 188.76 
L 509.94375 188.76 
L 509.94375 131.672402 
L 500.64375 131.672402 
z
" clip-path="url(#p40b84452d0)" style="fill: #3274a1; stroke: #000000; stroke-width: 0.5; stroke-linejoin: miter"/>
   </g>
   <g id="patch_17">
    <path d="M 535.51875 188.76 
L 544.81875 188.76 
L 544.81875 111.006729 
L 535.51875 111.006729 
z
" clip-path="url(#p40b84452d0)" style="fill: #3274a1; stroke: #000000; stroke-width: 0.5; stroke-linejoin: miter"/>
   </g>
   <g id="patch_18">
    <path d="M 570.39375 188.76 
L 579.69375 188.76 
L 579.69375 132.124657 
L 570.39375 132.124657 
z
" clip-path="url(#p40b84452d0)" style="fill: #3274a1; stroke: #000000; stroke-width: 0.5; stroke-linejoin: miter"/>
   </g>
   <g id="patch_19">
    <path d="M 56.56875 188.76 
L 65.86875 188.76 
L 65.86875 139.09603 
L 56.56875 139.09603 
z
" clip-path="url(#p40b84452d0)" style="fill: #b5c8e1; stroke: #000000; stroke-width: 0.5; stroke-linejoin: miter"/>
   </g>
   <g id="patch_20">
    <path d="M 91.44375 188.76 
L 100.74375 188.76 
L 100.74375 132.66074 
L 91.44375 132.66074 
z
" clip-path="url(#p40b84452d0)" style="fill: #b5c8e1; stroke: #000000; stroke-width: 0.5; stroke-linejoin: miter"/>
   </g>
   <g id="patch_21">
    <path d="M 126.31875 188.76 
L 135.61875 188.76 
L 135.61875 143.409133 
L 126.31875 143.409133 
z
" clip-path="url(#p40b84452d0)" style="fill: #b5c8e1; stroke: #000000; stroke-width: 0.5; stroke-linejoin: miter"/>
   </g>
   <g id="patch_22">
    <path d="M 161.19375 188.76 
L 170.49375 188.76 
L 170.49375 115.308955 
L 161.19375 115.308955 
z
" clip-path="url(#p40b84452d0)" style="fill: #b5c8e1; stroke: #000000; stroke-width: 0.5; stroke-linejoin: miter"/>
   </g>
   <g id="patch_23">
    <path d="M 196.06875 188.76 
L 205.36875 188.76 
L 205.36875 145.290349 
L 196.06875 145.290349 
z
" clip-path="url(#p40b84452d0)" style="fill: #b5c8e1; stroke: #000000; stroke-width: 0.5; stroke-linejoin: miter"/>
   </g>
   <g id="patch_24">
    <path d="M 230.94375 188.76 
L 240.24375 188.76 
L 240.24375 101.134501 
L 230.94375 101.134501 
z
" clip-path="url(#p40b84452d0)" style="fill: #b5c8e1; stroke: #000000; stroke-width: 0.5; stroke-linejoin: miter"/>
   </g>
   <g id="patch_25">
    <path d="M 265.81875 188.76 
L 275.11875 188.76 
L 275.11875 123.516787 
L 265.81875 123.516787 
z
" clip-path="url(#p40b84452d0)" style="fill: #b5c8e1; stroke: #000000; stroke-width: 0.5; stroke-linejoin: miter"/>
   </g>
   <g id="patch_26">
    <path d="M 300.69375 188.76 
L 309.99375 188.76 
L 309.99375 134.323849 
L 300.69375 134.323849 
z
" clip-path="url(#p40b84452d0)" style="fill: #b5c8e1; stroke: #000000; stroke-width: 0.5; stroke-linejoin: miter"/>
   </g>
   <g id="patch_27">
    <path d="M 335.56875 188.76 
L 344.86875 188.76 
L 344.86875 117.352177 
L 335.56875 117.352177 
z
" clip-path="url(#p40b84452d0)" style="fill: #b5c8e1; stroke: #000000; stroke-width: 0.5; stroke-linejoin: miter"/>
   </g>
   <g id="patch_28">
    <path d="M 370.44375 188.76 
L 379.74375 188.76 
L 379.74375 110.269088 
L 370.44375 110.269088 
z
" clip-path="url(#p40b84452d0)" style="fill: #b5c8e1; stroke: #000000; stroke-width: 0.5; stroke-linejoin: miter"/>
   </g>
   <g id="patch_29">
    <path d="M 405.31875 188.76 
L 414.61875 188.76 
L 414.61875 135.269671 
L 405.31875 135.269671 
z
" clip-path="url(#p40b84452d0)" style="fill: #b5c8e1; stroke: #000000; stroke-width: 0.5; stroke-linejoin: miter"/>
   </g>
   <g id="patch_30">
    <path d="M 440.19375 188.76 
L 449.49375 188.76 
L 449.49375 87.035906 
L 440.19375 87.035906 
z
" clip-path="url(#p40b84452d0)" style="fill: #b5c8e1; stroke: #000000; stroke-width: 0.5; stroke-linejoin: miter"/>
   </g>
   <g id="patch_31">
    <path d="M 475.06875 188.76 
L 484.36875 188.76 
L 484.36875 74.576799 
L 475.06875 74.576799 
z
" clip-path="url(#p40b84452d0)" style="fill: #b5c8e1; stroke: #000000; stroke-width: 0.5; stroke-linejoin: miter"/>
   </g>
   <g id="patch_32">
    <path d="M 509.94375 188.76 
L 519.24375 188.76 
L 519.24375 129.725546 
L 509.94375 129.725546 
z
" clip-path="url(#p40b84452d0)" style="fill: #b5c8e1; stroke: #000000; stroke-width: 0.5; stroke-linejoin: miter"/>
   </g>
   <g id="patch_33">
    <path d="M 544.81875 188.76 
L 554.11875 188.76 
L 554.11875 120.975252 
L 544.81875 120.975252 
z
" clip-path="url(#p40b84452d0)" style="fill: #b5c8e1; stroke: #000000; stroke-width: 0.5; stroke-linejoin: miter"/>
   </g>
   <g id="patch_34">
    <path d="M 579.69375 188.76 
L 588.99375 188.76 
L 588.99375 150.549374 
L 579.69375 150.549374 
z
" clip-path="url(#p40b84452d0)" style="fill: #b5c8e1; stroke: #000000; stroke-width: 0.5; stroke-linejoin: miter"/>
   </g>
   <g id="patch_35">
    <path d="M 65.86875 188.76 
L 75.16875 188.76 
L 75.16875 117.642409 
L 65.86875 117.642409 
z
" clip-path="url(#p40b84452d0)" style="fill: #e1812c; stroke: #000000; stroke-width: 0.5; stroke-linejoin: miter"/>
   </g>
   <g id="patch_36">
    <path d="M 100.74375 188.76 
L 110.04375 188.76 
L 110.04375 143.396092 
L 100.74375 143.396092 
z
" clip-path="url(#p40b84452d0)" style="fill: #e1812c; stroke: #000000; stroke-width: 0.5; stroke-linejoin: miter"/>
   </g>
   <g id="patch_37">
    <path d="M 135.61875 188.76 
L 144.91875 188.76 
L 144.91875 156.095284 
L 135.61875 156.095284 
z
" clip-path="url(#p40b84452d0)" style="fill: #e1812c; stroke: #000000; stroke-width: 0.5; stroke-linejoin: miter"/>
   </g>
   <g id="patch_38">
    <path d="M 170.49375 188.76 
L 179.79375 188.76 
L 179.79375 121.796609 
L 170.49375 121.796609 
z
" clip-path="url(#p40b84452d0)" style="fill: #e1812c; stroke: #000000; stroke-width: 0.5; stroke-linejoin: miter"/>
   </g>
   <g id="patch_39">
    <path d="M 205.36875 188.76 
L 214.66875 188.76 
L 214.66875 145.437942 
L 205.36875 145.437942 
z
" clip-path="url(#p40b84452d0)" style="fill: #e1812c; stroke: #000000; stroke-width: 0.5; stroke-linejoin: miter"/>
   </g>
   <g id="patch_40">
    <path d="M 240.24375 188.76 
L 249.54375 188.76 
L 249.54375 151.068965 
L 240.24375 151.068965 
z
" clip-path="url(#p40b84452d0)" style="fill: #e1812c; stroke: #000000; stroke-width: 0.5; stroke-linejoin: miter"/>
   </g>
   <g id="patch_41">
    <path d="M 275.11875 188.76 
L 284.41875 188.76 
L 284.41875 127.67274 
L 275.11875 127.67274 
z
" clip-path="url(#p40b84452d0)" style="fill: #e1812c; stroke: #000000; stroke-width: 0.5; stroke-linejoin: miter"/>
   </g>
   <g id="patch_42">
    <path d="M 309.99375 188.76 
L 319.29375 188.76 
L 319.29375 145.603814 
L 309.99375 145.603814 
z
" clip-path="url(#p40b84452d0)" style="fill: #e1812c; stroke: #000000; stroke-width: 0.5; stroke-linejoin: miter"/>
   </g>
   <g id="patch_43">
    <path d="M 344.86875 188.76 
L 354.16875 188.76 
L 354.16875 119.573847 
L 344.86875 119.573847 
z
" clip-path="url(#p40b84452d0)" style="fill: #e1812c; stroke: #000000; stroke-width: 0.5; stroke-linejoin: miter"/>
   </g>
   <g id="patch_44">
    <path d="M 379.74375 188.76 
L 389.04375 188.76 
L 389.04375 127.136791 
L 379.74375 127.136791 
z
" clip-path="url(#p40b84452d0)" style="fill: #e1812c; stroke: #000000; stroke-width: 0.5; stroke-linejoin: miter"/>
   </g>
   <g id="patch_45">
    <path d="M 414.61875 188.76 
L 423.91875 188.76 
L 423.91875 132.283475 
L 414.61875 132.283475 
z
" clip-path="url(#p40b84452d0)" style="fill: #e1812c; stroke: #000000; stroke-width: 0.5; stroke-linejoin: miter"/>
   </g>
   <g id="patch_46">
    <path d="M 449.49375 188.76 
L 458.79375 188.76 
L 458.79375 122.74811 
L 449.49375 122.74811 
z
" clip-path="url(#p40b84452d0)" style="fill: #e1812c; stroke: #000000; stroke-width: 0.5; stroke-linejoin: miter"/>
   </g>
   <g id="patch_47">
    <path d="M 484.36875 188.76 
L 493.66875 188.76 
L 493.66875 128.542492 
L 484.36875 128.542492 
z
" clip-path="url(#p40b84452d0)" style="fill: #e1812c; stroke: #000000; stroke-width: 0.5; stroke-linejoin: miter"/>
   </g>
   <g id="patch_48">
    <path d="M 519.24375 188.76 
L 528.54375 188.76 
L 528.54375 131.189781 
L 519.24375 131.189781 
z
" clip-path="url(#p40b84452d0)" style="fill: #e1812c; stroke: #000000; stroke-width: 0.5; stroke-linejoin: miter"/>
   </g>
   <g id="patch_49">
    <path d="M 554.11875 188.76 
L 563.41875 188.76 
L 563.41875 128.131849 
L 554.11875 128.131849 
z
" clip-path="url(#p40b84452d0)" style="fill: #e1812c; stroke: #000000; stroke-width: 0.5; stroke-linejoin: miter"/>
   </g>
   <g id="patch_50">
    <path d="M 588.99375 188.76 
L 598.29375 188.76 
L 598.29375 138.602659 
L 588.99375 138.602659 
z
" clip-path="url(#p40b84452d0)" style="fill: #e1812c; stroke: #000000; stroke-width: 0.5; stroke-linejoin: miter"/>
   </g>
   <g id="patch_51">
    <path d="M 61.21875 188.76 
L 61.21875 188.76 
L 61.21875 188.76 
L 61.21875 188.76 
z
" clip-path="url(#p40b84452d0)" style="fill: #3274a1; stroke: #000000; stroke-width: 0.5; stroke-linejoin: miter"/>
   </g>
   <g id="patch_52">
    <path d="M 61.21875 188.76 
L 61.21875 188.76 
L 61.21875 188.76 
L 61.21875 188.76 
z
" clip-path="url(#p40b84452d0)" style="fill: #b5c8e1; stroke: #000000; stroke-width: 0.5; stroke-linejoin: miter"/>
   </g>
   <g id="patch_53">
    <path d="M 61.21875 188.76 
L 61.21875 188.76 
L 61.21875 188.76 
L 61.21875 188.76 
z
" clip-path="url(#p40b84452d0)" style="fill: #e1812c; stroke: #000000; stroke-width: 0.5; stroke-linejoin: miter"/>
   </g>
   <g id="line2d_29">
    <path d="M 50.175 125.093087 
L 53.6625 125.093087 
M 51.91875 125.093087 
L 51.91875 92.124364 
M 50.175 92.124364 
L 53.6625 92.124364 
" clip-path="url(#p40b84452d0)" style="fill: none; stroke: #424242; stroke-width: 0.75; stroke-linecap: square"/>
   </g>
   <g id="line2d_30">
    <path d="M 85.05 145.616785 
L 88.5375 145.616785 
M 86.79375 145.616785 
L 86.79375 114.605929 
M 85.05 114.605929 
L 88.5375 114.605929 
" clip-path="url(#p40b84452d0)" style="fill: none; stroke: #424242; stroke-width: 0.75; stroke-linecap: square"/>
   </g>
   <g id="line2d_31">
    <path d="M 119.925 140.292124 
L 123.4125 140.292124 
M 121.66875 140.292124 
L 121.66875 102.724671 
M 119.925 102.724671 
L 123.4125 102.724671 
" clip-path="url(#p40b84452d0)" style="fill: none; stroke: #424242; stroke-width: 0.75; stroke-linecap: square"/>
   </g>
   <g id="line2d_32">
    <path d="M 154.8 118.796779 
L 158.2875 118.796779 
M 156.54375 118.796779 
L 156.54375 81.475307 
M 154.8 81.475307 
L 158.2875 81.475307 
" clip-path="url(#p40b84452d0)" style="fill: none; stroke: #424242; stroke-width: 0.75; stroke-linecap: square"/>
   </g>
   <g id="line2d_33">
    <path d="M 189.675 132.939466 
L 193.1625 132.939466 
M 191.41875 132.939466 
L 191.41875 106.51215 
M 189.675 106.51215 
L 193.1625 106.51215 
" clip-path="url(#p40b84452d0)" style="fill: none; stroke: #424242; stroke-width: 0.75; stroke-linecap: square"/>
   </g>
   <g id="line2d_34">
    <path d="M 224.55 121.162506 
L 228.0375 121.162506 
M 226.29375 121.162506 
L 226.29375 78.888097 
M 224.55 78.888097 
L 228.0375 78.888097 
" clip-path="url(#p40b84452d0)" style="fill: none; stroke: #424242; stroke-width: 0.75; stroke-linecap: square"/>
   </g>
   <g id="line2d_35">
    <path d="M 259.425 144.266397 
L 262.9125 144.266397 
M 261.16875 144.266397 
L 261.16875 113.8095 
M 259.425 113.8095 
L 262.9125 113.8095 
" clip-path="url(#p40b84452d0)" style="fill: none; stroke: #424242; stroke-width: 0.75; stroke-linecap: square"/>
   </g>
   <g id="line2d_36">
    <path d="M 294.3 149.845136 
L 297.7875 149.845136 
M 296.04375 149.845136 
L 296.04375 116.521024 
M 294.3 116.521024 
L 297.7875 116.521024 
" clip-path="url(#p40b84452d0)" style="fill: none; stroke: #424242; stroke-width: 0.75; stroke-linecap: square"/>
   </g>
   <g id="line2d_37">
    <path d="M 329.175 84.199615 
L 332.6625 84.199615 
M 330.91875 84.199615 
L 330.91875 30.36 
M 329.175 30.36 
L 332.6625 30.36 
" clip-path="url(#p40b84452d0)" style="fill: none; stroke: #424242; stroke-width: 0.75; stroke-linecap: square"/>
   </g>
   <g id="line2d_38">
    <path d="M 364.05 106.580164 
L 367.5375 106.580164 
M 365.79375 106.580164 
L 365.79375 50.135444 
M 364.05 50.135444 
L 367.5375 50.135444 
" clip-path="url(#p40b84452d0)" style="fill: none; stroke: #424242; stroke-width: 0.75; stroke-linecap: square"/>
   </g>
   <g id="line2d_39">
    <path d="M 398.925 115.677773 
L 402.4125 115.677773 
M 400.66875 115.677773 
L 400.66875 78.066379 
M 398.925 78.066379 
L 402.4125 78.066379 
" clip-path="url(#p40b84452d0)" style="fill: none; stroke: #424242; stroke-width: 0.75; stroke-linecap: square"/>
   </g>
   <g id="line2d_40">
    <path d="M 433.8 108.648303 
L 437.2875 108.648303 
M 435.54375 108.648303 
L 435.54375 74.342709 
M 433.8 74.342709 
L 437.2875 74.342709 
" clip-path="url(#p40b84452d0)" style="fill: none; stroke: #424242; stroke-width: 0.75; stroke-linecap: square"/>
   </g>
   <g id="line2d_41">
    <path d="M 468.675 104.040453 
L 472.1625 104.040453 
M 470.41875 104.040453 
L 470.41875 39.971854 
M 468.675 39.971854 
L 472.1625 39.971854 
" clip-path="url(#p40b84452d0)" style="fill: none; stroke: #424242; stroke-width: 0.75; stroke-linecap: square"/>
   </g>
   <g id="line2d_42">
    <path d="M 503.55 142.254662 
L 507.0375 142.254662 
M 505.29375 142.254662 
L 505.29375 120.710161 
M 503.55 120.710161 
L 507.0375 120.710161 
" clip-path="url(#p40b84452d0)" style="fill: none; stroke: #424242; stroke-width: 0.75; stroke-linecap: square"/>
   </g>
   <g id="line2d_43">
    <path d="M 538.425 125.903385 
L 541.9125 125.903385 
M 540.16875 125.903385 
L 540.16875 94.428746 
M 538.425 94.428746 
L 541.9125 94.428746 
" clip-path="url(#p40b84452d0)" style="fill: none; stroke: #424242; stroke-width: 0.75; stroke-linecap: square"/>
   </g>
   <g id="line2d_44">
    <path d="M 573.3 145.435489 
L 576.7875 145.435489 
M 575.04375 145.435489 
L 575.04375 118.550364 
M 573.3 118.550364 
L 576.7875 118.550364 
" clip-path="url(#p40b84452d0)" style="fill: none; stroke: #424242; stroke-width: 0.75; stroke-linecap: square"/>
   </g>
   <g id="line2d_45">
    <path d="M 59.475 148.205143 
L 62.9625 148.205143 
M 61.21875 148.205143 
L 61.21875 129.405287 
M 59.475 129.405287 
L 62.9625 129.405287 
" clip-path="url(#p40b84452d0)" style="fill: none; stroke: #424242; stroke-width: 0.75; stroke-linecap: square"/>
   </g>
   <g id="line2d_46">
    <path d="M 94.35 145.994406 
L 97.8375 145.994406 
M 96.09375 145.994406 
L 96.09375 117.552421 
M 94.35 117.552421 
L 97.8375 117.552421 
" clip-path="url(#p40b84452d0)" style="fill: none; stroke: #424242; stroke-width: 0.75; stroke-linecap: square"/>
   </g>
   <g id="line2d_47">
    <path d="M 129.225 157.972311 
L 132.7125 157.972311 
M 130.96875 157.972311 
L 130.96875 126.868358 
M 129.225 126.868358 
L 132.7125 126.868358 
" clip-path="url(#p40b84452d0)" style="fill: none; stroke: #424242; stroke-width: 0.75; stroke-linecap: square"/>
   </g>
   <g id="line2d_48">
    <path d="M 164.1 127.949714 
L 167.5875 127.949714 
M 165.84375 127.949714 
L 165.84375 102.011404 
M 164.1 102.011404 
L 167.5875 102.011404 
" clip-path="url(#p40b84452d0)" style="fill: none; stroke: #424242; stroke-width: 0.75; stroke-linecap: square"/>
   </g>
   <g id="line2d_49">
    <path d="M 198.975 156.598269 
L 202.4625 156.598269 
M 200.71875 156.598269 
L 200.71875 133.662513 
M 198.975 133.662513 
L 202.4625 133.662513 
" clip-path="url(#p40b84452d0)" style="fill: none; stroke: #424242; stroke-width: 0.75; stroke-linecap: square"/>
   </g>
   <g id="line2d_50">
    <path d="M 233.85 124.119641 
L 237.3375 124.119641 
M 235.59375 124.119641 
L 235.59375 76.638954 
M 233.85 76.638954 
L 237.3375 76.638954 
" clip-path="url(#p40b84452d0)" style="fill: none; stroke: #424242; stroke-width: 0.75; stroke-linecap: square"/>
   </g>
   <g id="line2d_51">
    <path d="M 268.725 141.204017 
L 272.2125 141.204017 
M 270.46875 141.204017 
L 270.46875 107.376343 
M 268.725 107.376343 
L 272.2125 107.376343 
" clip-path="url(#p40b84452d0)" style="fill: none; stroke: #424242; stroke-width: 0.75; stroke-linecap: square"/>
   </g>
   <g id="line2d_52">
    <path d="M 303.6 148.200509 
L 307.0875 148.200509 
M 305.34375 148.200509 
L 305.34375 118.66815 
M 303.6 118.66815 
L 307.0875 118.66815 
" clip-path="url(#p40b84452d0)" style="fill: none; stroke: #424242; stroke-width: 0.75; stroke-linecap: square"/>
   </g>
   <g id="line2d_53">
    <path d="M 338.475 132.95312 
L 341.9625 132.95312 
M 340.21875 132.95312 
L 340.21875 103.56979 
M 338.475 103.56979 
L 341.9625 103.56979 
" clip-path="url(#p40b84452d0)" style="fill: none; stroke: #424242; stroke-width: 0.75; stroke-linecap: square"/>
   </g>
   <g id="line2d_54">
    <path d="M 373.35 131.79328 
L 376.8375 131.79328 
M 375.09375 131.79328 
L 375.09375 79.267031 
M 373.35 79.267031 
L 376.8375 79.267031 
" clip-path="url(#p40b84452d0)" style="fill: none; stroke: #424242; stroke-width: 0.75; stroke-linecap: square"/>
   </g>
   <g id="line2d_55">
    <path d="M 408.225 144.159986 
L 411.7125 144.159986 
M 409.96875 144.159986 
L 409.96875 125.870629 
M 408.225 125.870629 
L 411.7125 125.870629 
" clip-path="url(#p40b84452d0)" style="fill: none; stroke: #424242; stroke-width: 0.75; stroke-linecap: square"/>
   </g>
   <g id="line2d_56">
    <path d="M 443.1 102.956733 
L 446.5875 102.956733 
M 444.84375 102.956733 
L 444.84375 70.512687 
M 443.1 70.512687 
L 446.5875 70.512687 
" clip-path="url(#p40b84452d0)" style="fill: none; stroke: #424242; stroke-width: 0.75; stroke-linecap: square"/>
   </g>
   <g id="line2d_57">
    <path d="M 477.975 97.310028 
L 481.4625 97.310028 
M 479.71875 97.310028 
L 479.71875 50.120531 
M 477.975 50.120531 
L 481.4625 50.120531 
" clip-path="url(#p40b84452d0)" style="fill: none; stroke: #424242; stroke-width: 0.75; stroke-linecap: square"/>
   </g>
   <g id="line2d_58">
    <path d="M 512.85 140.386122 
L 516.3375 140.386122 
M 514.59375 140.386122 
L 514.59375 117.521547 
M 512.85 117.521547 
L 516.3375 117.521547 
" clip-path="url(#p40b84452d0)" style="fill: none; stroke: #424242; stroke-width: 0.75; stroke-linecap: square"/>
   </g>
   <g id="line2d_59">
    <path d="M 547.725 133.92522 
L 551.2125 133.92522 
M 549.46875 133.92522 
L 549.46875 107.735191 
M 547.725 107.735191 
L 551.2125 107.735191 
" clip-path="url(#p40b84452d0)" style="fill: none; stroke: #424242; stroke-width: 0.75; stroke-linecap: square"/>
   </g>
   <g id="line2d_60">
    <path d="M 582.6 158.528758 
L 586.0875 158.528758 
M 584.34375 158.528758 
L 584.34375 142.134407 
M 582.6 142.134407 
L 586.0875 142.134407 
" clip-path="url(#p40b84452d0)" style="fill: none; stroke: #424242; stroke-width: 0.75; stroke-linecap: square"/>
   </g>
   <g id="line2d_61">
    <path d="M 68.775 132.612921 
L 72.2625 132.612921 
M 70.51875 132.612921 
L 70.51875 103.467163 
M 68.775 103.467163 
L 72.2625 103.467163 
" clip-path="url(#p40b84452d0)" style="fill: none; stroke: #424242; stroke-width: 0.75; stroke-linecap: square"/>
   </g>
   <g id="line2d_62">
    <path d="M 103.65 164.12481 
L 107.1375 164.12481 
M 105.39375 164.12481 
L 105.39375 114.958164 
M 103.65 114.958164 
L 107.1375 114.958164 
" clip-path="url(#p40b84452d0)" style="fill: none; stroke: #424242; stroke-width: 0.75; stroke-linecap: square"/>
   </g>
   <g id="line2d_63">
    <path d="M 138.525 163.823263 
L 142.0125 163.823263 
M 140.26875 163.823263 
L 140.26875 148.958683 
M 138.525 148.958683 
L 142.0125 148.958683 
" clip-path="url(#p40b84452d0)" style="fill: none; stroke: #424242; stroke-width: 0.75; stroke-linecap: square"/>
   </g>
   <g id="line2d_64">
    <path d="M 173.4 130.792482 
L 176.8875 130.792482 
M 175.14375 130.792482 
L 175.14375 110.880643 
M 173.4 110.880643 
L 176.8875 110.880643 
" clip-path="url(#p40b84452d0)" style="fill: none; stroke: #424242; stroke-width: 0.75; stroke-linecap: square"/>
   </g>
   <g id="line2d_65">
    <path d="M 208.275 153.828398 
L 211.7625 153.828398 
M 210.01875 153.828398 
L 210.01875 135.835541 
M 208.275 135.835541 
L 211.7625 135.835541 
" clip-path="url(#p40b84452d0)" style="fill: none; stroke: #424242; stroke-width: 0.75; stroke-linecap: square"/>
   </g>
   <g id="line2d_66">
    <path d="M 243.15 158.039528 
L 246.6375 158.039528 
M 244.89375 158.039528 
L 244.89375 144.522407 
M 243.15 144.522407 
L 246.6375 144.522407 
" clip-path="url(#p40b84452d0)" style="fill: none; stroke: #424242; stroke-width: 0.75; stroke-linecap: square"/>
   </g>
   <g id="line2d_67">
    <path d="M 278.025 147.237195 
L 281.5125 147.237195 
M 279.76875 147.237195 
L 279.76875 104.186315 
M 278.025 104.186315 
L 281.5125 104.186315 
" clip-path="url(#p40b84452d0)" style="fill: none; stroke: #424242; stroke-width: 0.75; stroke-linecap: square"/>
   </g>
   <g id="line2d_68">
    <path d="M 312.9 157.714796 
L 316.3875 157.714796 
M 314.64375 157.714796 
L 314.64375 132.72209 
M 312.9 132.72209 
L 316.3875 132.72209 
" clip-path="url(#p40b84452d0)" style="fill: none; stroke: #424242; stroke-width: 0.75; stroke-linecap: square"/>
   </g>
   <g id="line2d_69">
    <path d="M 347.775 133.349772 
L 351.2625 133.349772 
M 349.51875 133.349772 
L 349.51875 104.501599 
M 347.775 104.501599 
L 351.2625 104.501599 
" clip-path="url(#p40b84452d0)" style="fill: none; stroke: #424242; stroke-width: 0.75; stroke-linecap: square"/>
   </g>
   <g id="line2d_70">
    <path d="M 382.65 138.742892 
L 386.1375 138.742892 
M 384.39375 138.742892 
L 384.39375 112.789067 
M 382.65 112.789067 
L 386.1375 112.789067 
" clip-path="url(#p40b84452d0)" style="fill: none; stroke: #424242; stroke-width: 0.75; stroke-linecap: square"/>
   </g>
   <g id="line2d_71">
    <path d="M 417.525 144.299211 
L 421.0125 144.299211 
M 419.26875 144.299211 
L 419.26875 120.216809 
M 417.525 120.216809 
L 421.0125 120.216809 
" clip-path="url(#p40b84452d0)" style="fill: none; stroke: #424242; stroke-width: 0.75; stroke-linecap: square"/>
   </g>
   <g id="line2d_72">
    <path d="M 452.4 135.326587 
L 455.8875 135.326587 
M 454.14375 135.326587 
L 454.14375 110.056985 
M 452.4 110.056985 
L 455.8875 110.056985 
" clip-path="url(#p40b84452d0)" style="fill: none; stroke: #424242; stroke-width: 0.75; stroke-linecap: square"/>
   </g>
   <g id="line2d_73">
    <path d="M 487.275 141.447723 
L 490.7625 141.447723 
M 489.01875 141.447723 
L 489.01875 115.031447 
M 487.275 115.031447 
L 490.7625 115.031447 
" clip-path="url(#p40b84452d0)" style="fill: none; stroke: #424242; stroke-width: 0.75; stroke-linecap: square"/>
   </g>
   <g id="line2d_74">
    <path d="M 522.15 139.119204 
L 525.6375 139.119204 
M 523.89375 139.119204 
L 523.89375 122.390783 
M 522.15 122.390783 
L 525.6375 122.390783 
" clip-path="url(#p40b84452d0)" style="fill: none; stroke: #424242; stroke-width: 0.75; stroke-linecap: square"/>
   </g>
   <g id="line2d_75">
    <path d="M 557.025 138.498483 
L 560.5125 138.498483 
M 558.76875 138.498483 
L 558.76875 115.842023 
M 557.025 115.842023 
L 560.5125 115.842023 
" clip-path="url(#p40b84452d0)" style="fill: none; stroke: #424242; stroke-width: 0.75; stroke-linecap: square"/>
   </g>
   <g id="line2d_76">
    <path d="M 591.9 149.940406 
L 595.3875 149.940406 
M 593.64375 149.940406 
L 593.64375 126.602812 
M 591.9 126.602812 
L 595.3875 126.602812 
" clip-path="url(#p40b84452d0)" style="fill: none; stroke: #424242; stroke-width: 0.75; stroke-linecap: square"/>
   </g>
   <g id="patch_54">
    <path d="M 43.78125 188.76 
L 43.78125 22.44 
" style="fill: none; stroke: #000000; stroke-width: 0.8; stroke-linejoin: miter; stroke-linecap: square"/>
   </g>
   <g id="patch_55">
    <path d="M 43.78125 188.76 
L 601.78125 188.76 
" style="fill: none; stroke: #000000; stroke-width: 0.8; stroke-linejoin: miter; stroke-linecap: square"/>
   </g>
   <g id="text_24">
    <!-- $|\Delta\Delta G_{calc} - \Delta\Delta G_{pred}|$ Deviation:  QligFEPv2-Sage2.2.1, PMX-Sage2.0 and FEP+OPLS3e -->
    <g transform="translate(71.26125 16.44) scale(0.12 -0.12)">
     <defs>
      <path id="DejaVuSans-7c" d="M 1344 4891 
L 1344 -1509 
L 813 -1509 
L 813 4891 
L 1344 4891 
z
" transform="scale(0.015625)"/>
      <path id="DejaVuSans-Oblique-47" d="M 3494 697 
L 3738 1919 
L 2700 1919 
L 2797 2438 
L 4453 2438 
L 4050 384 
Q 3634 156 3143 32 
Q 2653 -91 2156 -91 
Q 1278 -91 783 396 
Q 288 884 288 1753 
Q 288 2475 589 3126 
Q 891 3778 1422 4213 
Q 1756 4484 2153 4617 
Q 2550 4750 3034 4750 
Q 3472 4750 3873 4639 
Q 4275 4528 4641 4306 
L 4513 3634 
Q 4231 3928 3853 4083 
Q 3475 4238 3047 4238 
Q 2550 4238 2172 4048 
Q 1794 3859 1497 3463 
Q 1244 3125 1098 2667 
Q 953 2209 953 1734 
Q 953 1081 1287 751 
Q 1622 422 2284 422 
Q 2616 422 2925 492 
Q 3234 563 3494 697 
z
" transform="scale(0.015625)"/>
      <path id="DejaVuSans-Oblique-63" d="M 3431 3366 
L 3316 2797 
Q 3109 2947 2876 3022 
Q 2644 3097 2394 3097 
Q 2119 3097 1870 3000 
Q 1622 2903 1453 2725 
Q 1184 2453 1037 2087 
Q 891 1722 891 1331 
Q 891 859 1127 628 
Q 1363 397 1844 397 
Q 2081 397 2348 469 
Q 2616 541 2906 684 
L 2797 116 
Q 2547 13 2283 -39 
Q 2019 -91 1741 -91 
Q 1044 -91 669 257 
Q 294 606 294 1253 
Q 294 1797 489 2255 
Q 684 2713 1069 3078 
Q 1331 3328 1684 3456 
Q 2038 3584 2456 3584 
Q 2700 3584 2940 3529 
Q 3181 3475 3431 3366 
z
" transform="scale(0.015625)"/>
      <path id="DejaVuSans-Oblique-61" d="M 3438 1997 
L 3047 0 
L 2472 0 
L 2578 531 
Q 2325 219 2001 64 
Q 1678 -91 1281 -91 
Q 834 -91 548 182 
Q 263 456 263 884 
Q 263 1497 752 1853 
Q 1241 2209 2100 2209 
L 2900 2209 
L 2931 2363 
Q 2938 2388 2941 2417 
Q 2944 2447 2944 2509 
Q 2944 2788 2717 2942 
Q 2491 3097 2081 3097 
Q 1800 3097 1504 3025 
Q 1209 2953 897 2809 
L 997 3341 
Q 1322 3463 1633 3523 
Q 1944 3584 2234 3584 
Q 2853 3584 3176 3315 
Q 3500 3047 3500 2534 
Q 3500 2431 3484 2292 
Q 3469 2153 3438 1997 
z
M 2816 1759 
L 2241 1759 
Q 1534 1759 1195 1570 
Q 856 1381 856 984 
Q 856 709 1029 553 
Q 1203 397 1509 397 
Q 1978 397 2328 733 
Q 2678 1069 2791 1631 
L 2816 1759 
z
" transform="scale(0.015625)"/>
      <path id="DejaVuSans-Oblique-6c" d="M 1172 4863 
L 1747 4863 
L 800 0 
L 225 0 
L 1172 4863 
z
" transform="scale(0.015625)"/>
      <path id="DejaVuSans-2212" d="M 678 2272 
L 4684 2272 
L 4684 1741 
L 678 1741 
L 678 2272 
z
" transform="scale(0.015625)"/>
      <path id="DejaVuSans-Oblique-70" d="M 3175 2156 
Q 3175 2616 2975 2859 
Q 2775 3103 2400 3103 
Q 2144 3103 1911 2972 
Q 1678 2841 1497 2591 
Q 1319 2344 1212 1994 
Q 1106 1644 1106 1300 
Q 1106 863 1306 627 
Q 1506 391 1875 391 
Q 2147 391 2380 519 
Q 2613 647 2778 891 
Q 2956 1147 3065 1494 
Q 3175 1841 3175 2156 
z
M 1394 2969 
Q 1625 3272 1939 3428 
Q 2253 3584 2638 3584 
Q 3175 3584 3472 3232 
Q 3769 2881 3769 2247 
Q 3769 1728 3584 1258 
Q 3400 788 3053 416 
Q 2822 169 2531 39 
Q 2241 -91 1919 -91 
Q 1547 -91 1294 64 
Q 1041 219 916 525 
L 556 -1331 
L -19 -1331 
L 922 3500 
L 1497 3500 
L 1394 2969 
z
" transform="scale(0.015625)"/>
      <path id="DejaVuSans-Oblique-72" d="M 2853 2969 
Q 2766 3016 2653 3041 
Q 2541 3066 2413 3066 
Q 1953 3066 1609 2717 
Q 1266 2369 1153 1784 
L 800 0 
L 225 0 
L 909 3500 
L 1484 3500 
L 1375 2956 
Q 1603 3259 1920 3421 
Q 2238 3584 2597 3584 
Q 2691 3584 2781 3573 
Q 2872 3563 2963 3538 
L 2853 2969 
z
" transform="scale(0.015625)"/>
      <path id="DejaVuSans-Oblique-65" d="M 3078 2063 
Q 3088 2113 3092 2166 
Q 3097 2219 3097 2272 
Q 3097 2653 2873 2875 
Q 2650 3097 2266 3097 
Q 1838 3097 1509 2826 
Q 1181 2556 1013 2059 
L 3078 2063 
z
M 3578 1613 
L 903 1613 
Q 884 1494 878 1425 
Q 872 1356 872 1306 
Q 872 872 1139 634 
Q 1406 397 1894 397 
Q 2269 397 2603 481 
Q 2938 566 3225 728 
L 3116 159 
Q 2806 34 2476 -28 
Q 2147 -91 1806 -91 
Q 1078 -91 686 257 
Q 294 606 294 1247 
Q 294 1794 489 2264 
Q 684 2734 1063 3103 
Q 1306 3334 1642 3459 
Q 1978 3584 2356 3584 
Q 2950 3584 3301 3228 
Q 3653 2872 3653 2272 
Q 3653 2128 3634 1964 
Q 3616 1800 3578 1613 
z
" transform="scale(0.015625)"/>
      <path id="DejaVuSans-Oblique-64" d="M 2675 525 
Q 2444 222 2128 65 
Q 1813 -91 1428 -91 
Q 903 -91 598 267 
Q 294 625 294 1247 
Q 294 1766 478 2236 
Q 663 2706 1013 3078 
Q 1244 3325 1534 3454 
Q 1825 3584 2144 3584 
Q 2481 3584 2739 3421 
Q 2997 3259 3138 2956 
L 3513 4863 
L 4091 4863 
L 3144 0 
L 2566 0 
L 2675 525 
z
M 891 1350 
Q 891 897 1095 644 
Q 1300 391 1663 391 
Q 1931 391 2161 520 
Q 2391 650 2566 903 
Q 2750 1166 2856 1509 
Q 2963 1853 2963 2188 
Q 2963 2622 2758 2865 
Q 2553 3109 2194 3109 
Q 1922 3109 1687 2981 
Q 1453 2853 1288 2613 
Q 1106 2353 998 2009 
Q 891 1666 891 1350 
z
" transform="scale(0.015625)"/>
      <path id="DejaVuSans-20" transform="scale(0.015625)"/>
      <path id="DejaVuSans-3a" d="M 750 794 
L 1409 794 
L 1409 0 
L 750 0 
L 750 794 
z
M 750 3309 
L 1409 3309 
L 1409 2516 
L 750 2516 
L 750 3309 
z
" transform="scale(0.015625)"/>
      <path id="DejaVuSans-51" d="M 2522 4238 
Q 1834 4238 1429 3725 
Q 1025 3213 1025 2328 
Q 1025 1447 1429 934 
Q 1834 422 2522 422 
Q 3209 422 3611 934 
Q 4013 1447 4013 2328 
Q 4013 3213 3611 3725 
Q 3209 4238 2522 4238 
z
M 3406 84 
L 4238 -825 
L 3475 -825 
L 2784 -78 
Q 2681 -84 2626 -87 
Q 2572 -91 2522 -91 
Q 1538 -91 948 567 
Q 359 1225 359 2328 
Q 359 3434 948 4092 
Q 1538 4750 2522 4750 
Q 3503 4750 4090 4092 
Q 4678 3434 4678 2328 
Q 4678 1516 4351 937 
Q 4025 359 3406 84 
z
" transform="scale(0.015625)"/>
      <path id="DejaVuSans-67" d="M 2906 1791 
Q 2906 2416 2648 2759 
Q 2391 3103 1925 3103 
Q 1463 3103 1205 2759 
Q 947 2416 947 1791 
Q 947 1169 1205 825 
Q 1463 481 1925 481 
Q 2391 481 2648 825 
Q 2906 1169 2906 1791 
z
M 3481 434 
Q 3481 -459 3084 -895 
Q 2688 -1331 1869 -1331 
Q 1566 -1331 1297 -1286 
Q 1028 -1241 775 -1147 
L 775 -588 
Q 1028 -725 1275 -790 
Q 1522 -856 1778 -856 
Q 2344 -856 2625 -561 
Q 2906 -266 2906 331 
L 2906 616 
Q 2728 306 2450 153 
Q 2172 0 1784 0 
Q 1141 0 747 490 
Q 353 981 353 1791 
Q 353 2603 747 3093 
Q 1141 3584 1784 3584 
Q 2172 3584 2450 3431 
Q 2728 3278 2906 2969 
L 2906 3500 
L 3481 3500 
L 3481 434 
z
" transform="scale(0.015625)"/>
      <path id="DejaVuSans-46" d="M 628 4666 
L 3309 4666 
L 3309 4134 
L 1259 4134 
L 1259 2759 
L 3109 2759 
L 3109 2228 
L 1259 2228 
L 1259 0 
L 628 0 
L 628 4666 
z
" transform="scale(0.015625)"/>
      <path id="DejaVuSans-45" d="M 628 4666 
L 3578 4666 
L 3578 4134 
L 1259 4134 
L 1259 2753 
L 3481 2753 
L 3481 2222 
L 1259 2222 
L 1259 531 
L 3634 531 
L 3634 0 
L 628 0 
L 628 4666 
z
" transform="scale(0.015625)"/>
      <path id="DejaVuSans-50" d="M 1259 4147 
L 1259 2394 
L 2053 2394 
Q 2494 2394 2734 2622 
Q 2975 2850 2975 3272 
Q 2975 3691 2734 3919 
Q 2494 4147 2053 4147 
L 1259 4147 
z
M 628 4666 
L 2053 4666 
Q 2838 4666 3239 4311 
Q 3641 3956 3641 3272 
Q 3641 2581 3239 2228 
Q 2838 1875 2053 1875 
L 1259 1875 
L 1259 0 
L 628 0 
L 628 4666 
z
" transform="scale(0.015625)"/>
      <path id="DejaVuSans-2d" d="M 313 2009 
L 1997 2009 
L 1997 1497 
L 313 1497 
L 313 2009 
z
" transform="scale(0.015625)"/>
      <path id="DejaVuSans-53" d="M 3425 4513 
L 3425 3897 
Q 3066 4069 2747 4153 
Q 2428 4238 2131 4238 
Q 1616 4238 1336 4038 
Q 1056 3838 1056 3469 
Q 1056 3159 1242 3001 
Q 1428 2844 1947 2747 
L 2328 2669 
Q 3034 2534 3370 2195 
Q 3706 1856 3706 1288 
Q 3706 609 3251 259 
Q 2797 -91 1919 -91 
Q 1588 -91 1214 -16 
Q 841 59 441 206 
L 441 856 
Q 825 641 1194 531 
Q 1563 422 1919 422 
Q 2459 422 2753 634 
Q 3047 847 3047 1241 
Q 3047 1584 2836 1778 
Q 2625 1972 2144 2069 
L 1759 2144 
Q 1053 2284 737 2584 
Q 422 2884 422 3419 
Q 422 4038 858 4394 
Q 1294 4750 2059 4750 
Q 2388 4750 2728 4690 
Q 3069 4631 3425 4513 
z
" transform="scale(0.015625)"/>
      <path id="DejaVuSans-2c" d="M 750 794 
L 1409 794 
L 1409 256 
L 897 -744 
L 494 -744 
L 750 256 
L 750 794 
z
" transform="scale(0.015625)"/>
      <path id="DejaVuSans-4d" d="M 628 4666 
L 1569 4666 
L 2759 1491 
L 3956 4666 
L 4897 4666 
L 4897 0 
L 4281 0 
L 4281 4097 
L 3078 897 
L 2444 897 
L 1241 4097 
L 1241 0 
L 628 0 
L 628 4666 
z
" transform="scale(0.015625)"/>
      <path id="DejaVuSans-58" d="M 403 4666 
L 1081 4666 
L 2241 2931 
L 3406 4666 
L 4084 4666 
L 2584 2425 
L 4184 0 
L 3506 0 
L 2194 1984 
L 872 0 
L 191 0 
L 1856 2491 
L 403 4666 
z
" transform="scale(0.015625)"/>
      <path id="DejaVuSans-64" d="M 2906 2969 
L 2906 4863 
L 3481 4863 
L 3481 0 
L 2906 0 
L 2906 525 
Q 2725 213 2448 61 
Q 2172 -91 1784 -91 
Q 1150 -91 751 415 
Q 353 922 353 1747 
Q 353 2572 751 3078 
Q 1150 3584 1784 3584 
Q 2172 3584 2448 3432 
Q 2725 3281 2906 2969 
z
M 947 1747 
Q 947 1113 1208 752 
Q 1469 391 1925 391 
Q 2381 391 2643 752 
Q 2906 1113 2906 1747 
Q 2906 2381 2643 2742 
Q 2381 3103 1925 3103 
Q 1469 3103 1208 2742 
Q 947 2381 947 1747 
z
" transform="scale(0.015625)"/>
      <path id="DejaVuSans-2b" d="M 2944 4013 
L 2944 2272 
L 4684 2272 
L 4684 1741 
L 2944 1741 
L 2944 0 
L 2419 0 
L 2419 1741 
L 678 1741 
L 678 2272 
L 2419 2272 
L 2419 4013 
L 2944 4013 
z
" transform="scale(0.015625)"/>
      <path id="DejaVuSans-4f" d="M 2522 4238 
Q 1834 4238 1429 3725 
Q 1025 3213 1025 2328 
Q 1025 1447 1429 934 
Q 1834 422 2522 422 
Q 3209 422 3611 934 
Q 4013 1447 4013 2328 
Q 4013 3213 3611 3725 
Q 3209 4238 2522 4238 
z
M 2522 4750 
Q 3503 4750 4090 4092 
Q 4678 3434 4678 2328 
Q 4678 1225 4090 567 
Q 3503 -91 2522 -91 
Q 1538 -91 948 565 
Q 359 1222 359 2328 
Q 359 3434 948 4092 
Q 1538 4750 2522 4750 
z
" transform="scale(0.015625)"/>
      <path id="DejaVuSans-4c" d="M 628 4666 
L 1259 4666 
L 1259 531 
L 3531 531 
L 3531 0 
L 628 0 
L 628 4666 
z
" transform="scale(0.015625)"/>
      <path id="DejaVuSans-33" d="M 2597 2516 
Q 3050 2419 3304 2112 
Q 3559 1806 3559 1356 
Q 3559 666 3084 287 
Q 2609 -91 1734 -91 
Q 1441 -91 1130 -33 
Q 819 25 488 141 
L 488 750 
Q 750 597 1062 519 
Q 1375 441 1716 441 
Q 2309 441 2620 675 
Q 2931 909 2931 1356 
Q 2931 1769 2642 2001 
Q 2353 2234 1838 2234 
L 1294 2234 
L 1294 2753 
L 1863 2753 
Q 2328 2753 2575 2939 
Q 2822 3125 2822 3475 
Q 2822 3834 2567 4026 
Q 2313 4219 1838 4219 
Q 1578 4219 1281 4162 
Q 984 4106 628 3988 
L 628 4550 
Q 988 4650 1302 4700 
Q 1616 4750 1894 4750 
Q 2613 4750 3031 4423 
Q 3450 4097 3450 3541 
Q 3450 3153 3228 2886 
Q 3006 2619 2597 2516 
z
" transform="scale(0.015625)"/>
     </defs>
     <use xlink:href="#DejaVuSans-7c" transform="translate(0 0.578125)"/>
     <use xlink:href="#DejaVuSans-394" transform="translate(33.691406 0.578125)"/>
     <use xlink:href="#DejaVuSans-394" transform="translate(102.099609 0.578125)"/>
     <use xlink:href="#DejaVuSans-Oblique-47" transform="translate(170.507812 0.578125)"/>
     <use xlink:href="#DejaVuSans-Oblique-63" transform="translate(247.998047 -15.828125) scale(0.7)"/>
     <use xlink:href="#DejaVuSans-Oblique-61" transform="translate(286.484375 -15.828125) scale(0.7)"/>
     <use xlink:href="#DejaVuSans-Oblique-6c" transform="translate(329.379883 -15.828125) scale(0.7)"/>
     <use xlink:href="#DejaVuSans-Oblique-63" transform="translate(348.828125 -15.828125) scale(0.7)"/>
     <use xlink:href="#DejaVuSans-2212" transform="translate(409.53125 0.578125)"/>
     <use xlink:href="#DejaVuSans-394" transform="translate(512.802734 0.578125)"/>
     <use xlink:href="#DejaVuSans-394" transform="translate(581.210938 0.578125)"/>
     <use xlink:href="#DejaVuSans-Oblique-47" transform="translate(649.619141 0.578125)"/>
     <use xlink:href="#DejaVuSans-Oblique-70" transform="translate(727.109375 -15.828125) scale(0.7)"/>
     <use xlink:href="#DejaVuSans-Oblique-72" transform="translate(771.542969 -15.828125) scale(0.7)"/>
     <use xlink:href="#DejaVuSans-Oblique-65" transform="translate(800.322266 -15.828125) scale(0.7)"/>
     <use xlink:href="#DejaVuSans-Oblique-64" transform="translate(843.388672 -15.828125) scale(0.7)"/>
     <use xlink:href="#DejaVuSans-7c" transform="translate(890.556641 0.578125)"/>
     <use xlink:href="#DejaVuSans-20" transform="translate(924.248047 0.578125)"/>
     <use xlink:href="#DejaVuSans-44" transform="translate(956.035156 0.578125)"/>
     <use xlink:href="#DejaVuSans-65" transform="translate(1033.037109 0.578125)"/>
     <use xlink:href="#DejaVuSans-76" transform="translate(1094.560547 0.578125)"/>
     <use xlink:href="#DejaVuSans-69" transform="translate(1153.740234 0.578125)"/>
     <use xlink:href="#DejaVuSans-61" transform="translate(1181.523438 0.578125)"/>
     <use xlink:href="#DejaVuSans-74" transform="translate(1242.802734 0.578125)"/>
     <use xlink:href="#DejaVuSans-69" transform="translate(1282.011719 0.578125)"/>
     <use xlink:href="#DejaVuSans-6f" transform="translate(1309.794922 0.578125)"/>
     <use xlink:href="#DejaVuSans-6e" transform="translate(1370.976562 0.578125)"/>
     <use xlink:href="#DejaVuSans-3a" transform="translate(1434.355469 0.578125)"/>
     <use xlink:href="#DejaVuSans-20" transform="translate(1468.046875 0.578125)"/>
     <use xlink:href="#DejaVuSans-20" transform="translate(1499.833984 0.578125)"/>
     <use xlink:href="#DejaVuSans-51" transform="translate(1531.621094 0.578125)"/>
     <use xlink:href="#DejaVuSans-6c" transform="translate(1610.332031 0.578125)"/>
     <use xlink:href="#DejaVuSans-69" transform="translate(1638.115234 0.578125)"/>
     <use xlink:href="#DejaVuSans-67" transform="translate(1665.898438 0.578125)"/>
     <use xlink:href="#DejaVuSans-46" transform="translate(1729.375 0.578125)"/>
     <use xlink:href="#DejaVuSans-45" transform="translate(1786.894531 0.578125)"/>
     <use xlink:href="#DejaVuSans-50" transform="translate(1850.078125 0.578125)"/>
     <use xlink:href="#DejaVuSans-76" transform="translate(1910.380859 0.578125)"/>
     <use xlink:href="#DejaVuSans-32" transform="translate(1969.560547 0.578125)"/>
     <use xlink:href="#DejaVuSans-2d" transform="translate(2033.183594 0.578125)"/>
     <use xlink:href="#DejaVuSans-53" transform="translate(2069.267578 0.578125)"/>
     <use xlink:href="#DejaVuSans-61" transform="translate(2132.744141 0.578125)"/>
     <use xlink:href="#DejaVuSans-67" transform="translate(2194.023438 0.578125)"/>
     <use xlink:href="#DejaVuSans-65" transform="translate(2257.5 0.578125)"/>
     <use xlink:href="#DejaVuSans-32" transform="translate(2319.023438 0.578125)"/>
     <use xlink:href="#DejaVuSans-2e" transform="translate(2382.646484 0.578125)"/>
     <use xlink:href="#DejaVuSans-32" transform="translate(2408.933594 0.578125)"/>
     <use xlink:href="#DejaVuSans-2e" transform="translate(2472.556641 0.578125)"/>
     <use xlink:href="#DejaVuSans-31" transform="translate(2504.34375 0.578125)"/>
     <use xlink:href="#DejaVuSans-2c" transform="translate(2567.966797 0.578125)"/>
     <use xlink:href="#DejaVuSans-20" transform="translate(2599.753906 0.578125)"/>
     <use xlink:href="#DejaVuSans-50" transform="translate(2631.541016 0.578125)"/>
     <use xlink:href="#DejaVuSans-4d" transform="translate(2691.84375 0.578125)"/>
     <use xlink:href="#DejaVuSans-58" transform="translate(2778.123047 0.578125)"/>
     <use xlink:href="#DejaVuSans-2d" transform="translate(2846.628906 0.578125)"/>
     <use xlink:href="#DejaVuSans-53" transform="translate(2882.712891 0.578125)"/>
     <use xlink:href="#DejaVuSans-61" transform="translate(2946.189453 0.578125)"/>
     <use xlink:href="#DejaVuSans-67" transform="translate(3007.46875 0.578125)"/>
     <use xlink:href="#DejaVuSans-65" transform="translate(3070.945312 0.578125)"/>
     <use xlink:href="#DejaVuSans-32" transform="translate(3132.46875 0.578125)"/>
     <use xlink:href="#DejaVuSans-2e" transform="translate(3196.091797 0.578125)"/>
     <use xlink:href="#DejaVuSans-30" transform="translate(3227.878906 0.578125)"/>
     <use xlink:href="#DejaVuSans-20" transform="translate(3291.501953 0.578125)"/>
     <use xlink:href="#DejaVuSans-61" transform="translate(3323.289062 0.578125)"/>
     <use xlink:href="#DejaVuSans-6e" transform="translate(3384.568359 0.578125)"/>
     <use xlink:href="#DejaVuSans-64" transform="translate(3447.947266 0.578125)"/>
     <use xlink:href="#DejaVuSans-20" transform="translate(3511.423828 0.578125)"/>
     <use xlink:href="#DejaVuSans-46" transform="translate(3543.210938 0.578125)"/>
     <use xlink:href="#DejaVuSans-45" transform="translate(3600.730469 0.578125)"/>
     <use xlink:href="#DejaVuSans-50" transform="translate(3663.914062 0.578125)"/>
     <use xlink:href="#DejaVuSans-2b" transform="translate(3724.216797 0.578125)"/>
     <use xlink:href="#DejaVuSans-4f" transform="translate(3808.005859 0.578125)"/>
     <use xlink:href="#DejaVuSans-50" transform="translate(3886.716797 0.578125)"/>
     <use xlink:href="#DejaVuSans-4c" transform="translate(3947.019531 0.578125)"/>
     <use xlink:href="#DejaVuSans-53" transform="translate(4002.732422 0.578125)"/>
     <use xlink:href="#DejaVuSans-33" transform="translate(4066.208984 0.578125)"/>
     <use xlink:href="#DejaVuSans-65" transform="translate(4129.832031 0.578125)"/>
    </g>
   </g>
   <g id="legend_1">
    <g id="patch_56">
     <path d="M 52.78125 39.038438 
L 72.78125 39.038438 
L 72.78125 32.038438 
L 52.78125 32.038438 
z
" style="fill: #3274a1; stroke: #000000; stroke-width: 0.5; stroke-linejoin: miter"/>
    </g>
    <g id="text_25">
     <!-- QligFEPv2 OpenFF 2.2.1 -->
     <g transform="translate(80.78125 39.038438) scale(0.1 -0.1)">
      <defs>
       <path id="DejaVuSans-70" d="M 1159 525 
L 1159 -1331 
L 581 -1331 
L 581 3500 
L 1159 3500 
L 1159 2969 
Q 1341 3281 1617 3432 
Q 1894 3584 2278 3584 
Q 2916 3584 3314 3078 
Q 3713 2572 3713 1747 
Q 3713 922 3314 415 
Q 2916 -91 2278 -91 
Q 1894 -91 1617 61 
Q 1341 213 1159 525 
z
M 3116 1747 
Q 3116 2381 2855 2742 
Q 2594 3103 2138 3103 
Q 1681 3103 1420 2742 
Q 1159 2381 1159 1747 
Q 1159 1113 1420 752 
Q 1681 391 2138 391 
Q 2594 391 2855 752 
Q 3116 1113 3116 1747 
z
" transform="scale(0.015625)"/>
      </defs>
      <use xlink:href="#DejaVuSans-51"/>
      <use xlink:href="#DejaVuSans-6c" transform="translate(78.710938 0)"/>
      <use xlink:href="#DejaVuSans-69" transform="translate(106.494141 0)"/>
      <use xlink:href="#DejaVuSans-67" transform="translate(134.277344 0)"/>
      <use xlink:href="#DejaVuSans-46" transform="translate(197.753906 0)"/>
      <use xlink:href="#DejaVuSans-45" transform="translate(255.273438 0)"/>
      <use xlink:href="#DejaVuSans-50" transform="translate(318.457031 0)"/>
      <use xlink:href="#DejaVuSans-76" transform="translate(378.759766 0)"/>
      <use xlink:href="#DejaVuSans-32" transform="translate(437.939453 0)"/>
      <use xlink:href="#DejaVuSans-20" transform="translate(501.5625 0)"/>
      <use xlink:href="#DejaVuSans-4f" transform="translate(533.349609 0)"/>
      <use xlink:href="#DejaVuSans-70" transform="translate(612.060547 0)"/>
      <use xlink:href="#DejaVuSans-65" transform="translate(675.537109 0)"/>
      <use xlink:href="#DejaVuSans-6e" transform="translate(737.060547 0)"/>
      <use xlink:href="#DejaVuSans-46" transform="translate(800.439453 0)"/>
      <use xlink:href="#DejaVuSans-46" transform="translate(857.958984 0)"/>
      <use xlink:href="#DejaVuSans-20" transform="translate(915.478516 0)"/>
      <use xlink:href="#DejaVuSans-32" transform="translate(947.265625 0)"/>
      <use xlink:href="#DejaVuSans-2e" transform="translate(1010.888672 0)"/>
      <use xlink:href="#DejaVuSans-32" transform="translate(1042.675781 0)"/>
      <use xlink:href="#DejaVuSans-2e" transform="translate(1106.298828 0)"/>
      <use xlink:href="#DejaVuSans-31" transform="translate(1138.085938 0)"/>
     </g>
    </g>
    <g id="patch_57">
     <path d="M 52.78125 53.716563 
L 72.78125 53.716563 
L 72.78125 46.716563 
L 52.78125 46.716563 
z
" style="fill: #b5c8e1; stroke: #000000; stroke-width: 0.5; stroke-linejoin: miter"/>
    </g>
    <g id="text_26">
     <!-- Hahn et al. 2023 OpenFF 2.0 -->
     <g transform="translate(80.78125 53.716563) scale(0.1 -0.1)">
      <defs>
       <path id="DejaVuSans-48" d="M 628 4666 
L 1259 4666 
L 1259 2753 
L 3553 2753 
L 3553 4666 
L 4184 4666 
L 4184 0 
L 3553 0 
L 3553 2222 
L 1259 2222 
L 1259 0 
L 628 0 
L 628 4666 
z
" transform="scale(0.015625)"/>
       <path id="DejaVuSans-68" d="M 3513 2113 
L 3513 0 
L 2938 0 
L 2938 2094 
Q 2938 2591 2744 2837 
Q 2550 3084 2163 3084 
Q 1697 3084 1428 2787 
Q 1159 2491 1159 1978 
L 1159 0 
L 581 0 
L 581 4863 
L 1159 4863 
L 1159 2956 
Q 1366 3272 1645 3428 
Q 1925 3584 2291 3584 
Q 2894 3584 3203 3211 
Q 3513 2838 3513 2113 
z
" transform="scale(0.015625)"/>
      </defs>
      <use xlink:href="#DejaVuSans-48"/>
      <use xlink:href="#DejaVuSans-61" transform="translate(75.195312 0)"/>
      <use xlink:href="#DejaVuSans-68" transform="translate(136.474609 0)"/>
      <use xlink:href="#DejaVuSans-6e" transform="translate(199.853516 0)"/>
      <use xlink:href="#DejaVuSans-20" transform="translate(263.232422 0)"/>
      <use xlink:href="#DejaVuSans-65" transform="translate(295.019531 0)"/>
      <use xlink:href="#DejaVuSans-74" transform="translate(356.542969 0)"/>
      <use xlink:href="#DejaVuSans-20" transform="translate(395.751953 0)"/>
      <use xlink:href="#DejaVuSans-61" transform="translate(427.539062 0)"/>
      <use xlink:href="#DejaVuSans-6c" transform="translate(488.818359 0)"/>
      <use xlink:href="#DejaVuSans-2e" transform="translate(516.601562 0)"/>
      <use xlink:href="#DejaVuSans-20" transform="translate(548.388672 0)"/>
      <use xlink:href="#DejaVuSans-32" transform="translate(580.175781 0)"/>
      <use xlink:href="#DejaVuSans-30" transform="translate(643.798828 0)"/>
      <use xlink:href="#DejaVuSans-32" transform="translate(707.421875 0)"/>
      <use xlink:href="#DejaVuSans-33" transform="translate(771.044922 0)"/>
      <use xlink:href="#DejaVuSans-20" transform="translate(834.667969 0)"/>
      <use xlink:href="#DejaVuSans-4f" transform="translate(866.455078 0)"/>
      <use xlink:href="#DejaVuSans-70" transform="translate(945.166016 0)"/>
      <use xlink:href="#DejaVuSans-65" transform="translate(1008.642578 0)"/>
      <use xlink:href="#DejaVuSans-6e" transform="translate(1070.166016 0)"/>
      <use xlink:href="#DejaVuSans-46" transform="translate(1133.544922 0)"/>
      <use xlink:href="#DejaVuSans-46" transform="translate(1191.064453 0)"/>
      <use xlink:href="#DejaVuSans-20" transform="translate(1248.583984 0)"/>
      <use xlink:href="#DejaVuSans-32" transform="translate(1280.371094 0)"/>
      <use xlink:href="#DejaVuSans-2e" transform="translate(1343.994141 0)"/>
      <use xlink:href="#DejaVuSans-30" transform="translate(1375.78125 0)"/>
     </g>
    </g>
    <g id="patch_58">
     <path d="M 52.78125 68.394688 
L 72.78125 68.394688 
L 72.78125 61.394688 
L 52.78125 61.394688 
z
" style="fill: #e1812c; stroke: #000000; stroke-width: 0.5; stroke-linejoin: miter"/>
    </g>
    <g id="text_27">
     <!-- OPLS3e -->
     <g transform="translate(80.78125 68.394688) scale(0.1 -0.1)">
      <use xlink:href="#DejaVuSans-4f"/>
      <use xlink:href="#DejaVuSans-50" transform="translate(78.710938 0)"/>
      <use xlink:href="#DejaVuSans-4c" transform="translate(139.013672 0)"/>
      <use xlink:href="#DejaVuSans-53" transform="translate(194.726562 0)"/>
      <use xlink:href="#DejaVuSans-33" transform="translate(258.203125 0)"/>
      <use xlink:href="#DejaVuSans-65" transform="translate(321.826172 0)"/>
     </g>
    </g>
   </g>
  </g>
 </g>
 <defs>
  <clipPath id="p40b84452d0">
   <rect x="43.78125" y="22.44" width="558" height="166.32"/>
  </clipPath>
 </defs>
</svg>
