<?xml version="1.0" encoding="utf-8" standalone="no"?>
<!DOCTYPE svg PUBLIC "-//W3C//DTD SVG 1.1//EN"
  "http://www.w3.org/Graphics/SVG/1.1/DTD/svg11.dtd">
<svg xmlns:xlink="http://www.w3.org/1999/xlink" width="611.970937pt" height="246.456521pt" viewBox="0 0 611.970937 246.456521" xmlns="http://www.w3.org/2000/svg" version="1.1">
 <metadata>
  <rdf:RDF xmlns:dc="http://purl.org/dc/elements/1.1/" xmlns:cc="http://creativecommons.org/ns#" xmlns:rdf="http://www.w3.org/1999/02/22-rdf-syntax-ns#">
   <cc:Work>
    <dc:type rdf:resource="http://purl.org/dc/dcmitype/StillImage"/>
    <dc:date>2025-08-31T22:10:06.669955</dc:date>
    <dc:format>image/svg+xml</dc:format>
    <dc:creator>
     <cc:Agent>
      <dc:title>Matplotlib v3.10.5, https://matplotlib.org/</dc:title>
     </cc:Agent>
    </dc:creator>
   </cc:Work>
  </rdf:RDF>
 </metadata>
 <defs>
  <style type="text/css">*{stroke-linejoin: round; stroke-linecap: butt}</style>
 </defs>
 <g id="figure_1">
  <g id="patch_1">
   <path d="M 0 246.456521 
L 611.970937 246.456521 
L 611.970937 0 
L 0 0 
z
" style="fill: #ffffff"/>
  </g>
  <g id="axes_1">
   <g id="patch_2">
    <path d="M 46.770938 191.42 
L 604.770937 191.42 
L 604.770937 25.1 
L 46.770938 25.1 
z
" style="fill: #ffffff"/>
   </g>
   <g id="matplotlib.axis_1">
    <g id="xtick_1">
     <g id="line2d_1">
      <defs>
       <path id="m260de986f8" d="M 0 0 
L 0 3.5 
" style="stroke: #000000; stroke-width: 0.8"/>
      </defs>
      <g>
       <use xlink:href="#m260de986f8" x="64.208438" y="191.42" style="stroke: #000000; stroke-width: 0.8"/>
      </g>
     </g>
     <g id="text_1">
      <!-- bace -->
      <g transform="translate(52.039572 221.082772) rotate(-45) scale(0.1 -0.1)">
       <defs>
        <path id="Montserrat-Medium-62" d="M 2381 -38 
Q 1946 -38 1597 157 
Q 1248 352 1046 736 
Q 845 1120 845 1696 
Q 845 2272 1053 2656 
Q 1261 3040 1609 3232 
Q 1958 3424 2381 3424 
Q 2880 3424 3264 3206 
Q 3648 2989 3872 2601 
Q 4096 2214 4096 1696 
Q 4096 1178 3872 787 
Q 3648 397 3264 179 
Q 2880 -38 2381 -38 
z
M 582 0 
L 582 4749 
L 1197 4749 
L 1197 2490 
L 1133 1702 
L 1171 915 
L 1171 0 
L 582 0 
z
M 2330 499 
Q 2656 499 2915 646 
Q 3174 794 3324 1066 
Q 3475 1338 3475 1696 
Q 3475 2061 3324 2326 
Q 3174 2592 2915 2739 
Q 2656 2886 2330 2886 
Q 2010 2886 1750 2739 
Q 1491 2592 1340 2326 
Q 1190 2061 1190 1696 
Q 1190 1338 1340 1066 
Q 1491 794 1750 646 
Q 2010 499 2330 499 
z
" transform="scale(0.015625)"/>
        <path id="Montserrat-Medium-61" d="M 2688 0 
L 2688 717 
L 2656 851 
L 2656 2074 
Q 2656 2464 2429 2678 
Q 2202 2893 1747 2893 
Q 1446 2893 1158 2793 
Q 870 2694 672 2528 
L 416 2989 
Q 678 3200 1046 3312 
Q 1414 3424 1818 3424 
Q 2515 3424 2892 3085 
Q 3270 2746 3270 2048 
L 3270 0 
L 2688 0 
z
M 1574 -38 
Q 1197 -38 912 90 
Q 627 218 473 445 
Q 320 672 320 960 
Q 320 1235 451 1459 
Q 582 1683 880 1817 
Q 1178 1952 1683 1952 
L 2758 1952 
L 2758 1510 
L 1709 1510 
Q 1248 1510 1088 1356 
Q 928 1203 928 986 
Q 928 736 1126 585 
Q 1325 435 1677 435 
Q 2022 435 2281 588 
Q 2541 742 2656 1037 
L 2778 614 
Q 2656 314 2349 138 
Q 2042 -38 1574 -38 
z
" transform="scale(0.015625)"/>
        <path id="Montserrat-Medium-63" d="M 2061 -38 
Q 1542 -38 1136 186 
Q 730 410 499 800 
Q 269 1190 269 1696 
Q 269 2202 499 2592 
Q 730 2982 1136 3203 
Q 1542 3424 2061 3424 
Q 2522 3424 2883 3241 
Q 3245 3059 3443 2701 
L 2976 2400 
Q 2810 2650 2570 2768 
Q 2330 2886 2054 2886 
Q 1722 2886 1459 2739 
Q 1197 2592 1043 2326 
Q 890 2061 890 1696 
Q 890 1331 1043 1062 
Q 1197 794 1459 646 
Q 1722 499 2054 499 
Q 2330 499 2570 617 
Q 2810 736 2976 986 
L 3443 691 
Q 3245 339 2883 150 
Q 2522 -38 2061 -38 
z
" transform="scale(0.015625)"/>
        <path id="Montserrat-Medium-65" d="M 2093 -38 
Q 1549 -38 1136 186 
Q 723 410 496 800 
Q 269 1190 269 1696 
Q 269 2202 489 2592 
Q 710 2982 1097 3203 
Q 1485 3424 1971 3424 
Q 2464 3424 2841 3206 
Q 3219 2989 3433 2595 
Q 3648 2202 3648 1677 
Q 3648 1638 3645 1587 
Q 3642 1536 3635 1491 
L 749 1491 
L 749 1933 
L 3315 1933 
L 3066 1779 
Q 3072 2106 2931 2362 
Q 2790 2618 2544 2762 
Q 2298 2906 1971 2906 
Q 1651 2906 1401 2762 
Q 1152 2618 1011 2358 
Q 870 2099 870 1766 
L 870 1664 
Q 870 1325 1027 1059 
Q 1184 794 1465 646 
Q 1747 499 2112 499 
Q 2413 499 2659 601 
Q 2906 704 3091 909 
L 3430 512 
Q 3200 243 2857 102 
Q 2515 -38 2093 -38 
z
" transform="scale(0.015625)"/>
       </defs>
       <use xlink:href="#Montserrat-Medium-62"/>
       <use xlink:href="#Montserrat-Medium-61" transform="translate(68.199982 0)"/>
       <use xlink:href="#Montserrat-Medium-63" transform="translate(127.999969 0)"/>
       <use xlink:href="#Montserrat-Medium-65" transform="translate(185.09996 0)"/>
      </g>
     </g>
    </g>
    <g id="xtick_2">
     <g id="line2d_2">
      <g>
       <use xlink:href="#m260de986f8" x="99.083438" y="191.42" style="stroke: #000000; stroke-width: 0.8"/>
      </g>
     </g>
     <g id="text_2">
      <!-- cdk2 -->
      <g transform="translate(87.062622 220.934722) rotate(-45) scale(0.1 -0.1)">
       <defs>
        <path id="Montserrat-Medium-64" d="M 1984 -38 
Q 1491 -38 1104 179 
Q 717 397 493 787 
Q 269 1178 269 1696 
Q 269 2214 493 2601 
Q 717 2989 1104 3206 
Q 1491 3424 1984 3424 
Q 2413 3424 2758 3232 
Q 3104 3040 3312 2656 
Q 3520 2272 3520 1696 
Q 3520 1120 3318 736 
Q 3117 352 2771 157 
Q 2426 -38 1984 -38 
z
M 2035 499 
Q 2355 499 2614 646 
Q 2874 794 3024 1066 
Q 3174 1338 3174 1696 
Q 3174 2061 3024 2326 
Q 2874 2592 2614 2739 
Q 2355 2886 2035 2886 
Q 1709 2886 1453 2739 
Q 1197 2592 1043 2326 
Q 890 2061 890 1696 
Q 890 1338 1043 1066 
Q 1197 794 1453 646 
Q 1709 499 2035 499 
z
M 3194 0 
L 3194 915 
L 3232 1702 
L 3168 2490 
L 3168 4749 
L 3782 4749 
L 3782 0 
L 3194 0 
z
" transform="scale(0.015625)"/>
        <path id="Montserrat-Medium-6b" d="M 1082 819 
L 1094 1606 
L 3046 3392 
L 3789 3392 
L 2291 1920 
L 1958 1638 
L 1082 819 
z
M 582 0 
L 582 4749 
L 1197 4749 
L 1197 0 
L 582 0 
z
M 3174 0 
L 1843 1651 
L 2240 2144 
L 3930 0 
L 3174 0 
z
" transform="scale(0.015625)"/>
        <path id="Montserrat-Medium-32" d="M 237 0 
L 237 435 
L 2061 2195 
Q 2304 2426 2422 2602 
Q 2541 2778 2582 2928 
Q 2624 3078 2624 3219 
Q 2624 3565 2381 3763 
Q 2138 3962 1670 3962 
Q 1312 3962 1024 3843 
Q 736 3725 525 3475 
L 90 3853 
Q 346 4179 778 4355 
Q 1210 4531 1728 4531 
Q 2195 4531 2540 4380 
Q 2886 4230 3075 3948 
Q 3264 3667 3264 3283 
Q 3264 3066 3206 2854 
Q 3149 2643 2989 2406 
Q 2829 2170 2528 1875 
L 902 307 
L 749 557 
L 3456 557 
L 3456 0 
L 237 0 
z
" transform="scale(0.015625)"/>
       </defs>
       <use xlink:href="#Montserrat-Medium-63"/>
       <use xlink:href="#Montserrat-Medium-64" transform="translate(57.099991 0)"/>
       <use xlink:href="#Montserrat-Medium-6b" transform="translate(125.299973 0)"/>
       <use xlink:href="#Montserrat-Medium-32" transform="translate(186.799957 0)"/>
      </g>
     </g>
    </g>
    <g id="xtick_3">
     <g id="line2d_3">
      <g>
       <use xlink:href="#m260de986f8" x="133.958438" y="191.42" style="stroke: #000000; stroke-width: 0.8"/>
      </g>
     </g>
     <g id="text_3">
      <!-- jnk1 -->
      <g transform="translate(125.522875 217.561602) rotate(-45) scale(0.1 -0.1)">
       <defs>
        <path id="Montserrat-Medium-6a" d="M 147 -1280 
Q -64 -1280 -259 -1229 
Q -454 -1178 -589 -1075 
L -390 -602 
Q -198 -762 109 -762 
Q 352 -762 483 -611 
Q 614 -461 614 -166 
L 614 3392 
L 1229 3392 
L 1229 -154 
Q 1229 -672 950 -976 
Q 672 -1280 147 -1280 
z
M 922 4045 
Q 742 4045 624 4160 
Q 506 4275 506 4442 
Q 506 4614 624 4729 
Q 742 4845 922 4845 
Q 1101 4845 1219 4733 
Q 1338 4621 1338 4454 
Q 1338 4282 1222 4163 
Q 1107 4045 922 4045 
z
" transform="scale(0.015625)"/>
        <path id="Montserrat-Medium-6e" d="M 582 0 
L 582 3392 
L 1171 3392 
L 1171 2477 
L 1075 2720 
Q 1242 3053 1587 3238 
Q 1933 3424 2394 3424 
Q 2810 3424 3126 3264 
Q 3443 3104 3622 2777 
Q 3802 2451 3802 1952 
L 3802 0 
L 3187 0 
L 3187 1882 
Q 3187 2374 2947 2624 
Q 2707 2874 2272 2874 
Q 1946 2874 1702 2746 
Q 1459 2618 1328 2368 
Q 1197 2118 1197 1747 
L 1197 0 
L 582 0 
z
" transform="scale(0.015625)"/>
        <path id="Montserrat-Medium-31" d="M 1062 0 
L 1062 4224 
L 1338 3923 
L 51 3923 
L 51 4480 
L 1696 4480 
L 1696 0 
L 1062 0 
z
" transform="scale(0.015625)"/>
       </defs>
       <use xlink:href="#Montserrat-Medium-6a"/>
       <use xlink:href="#Montserrat-Medium-6e" transform="translate(28.399994 0)"/>
       <use xlink:href="#Montserrat-Medium-6b" transform="translate(96.499985 0)"/>
       <use xlink:href="#Montserrat-Medium-31" transform="translate(157.999969 0)"/>
      </g>
     </g>
    </g>
    <g id="xtick_4">
     <g id="line2d_4">
      <g>
       <use xlink:href="#m260de986f8" x="168.833438" y="191.42" style="stroke: #000000; stroke-width: 0.8"/>
      </g>
     </g>
     <g id="text_4">
      <!-- mcl1 -->
      <g transform="translate(157.979348 219.767996) rotate(-45) scale(0.1 -0.1)">
       <defs>
        <path id="Montserrat-Medium-6d" d="M 582 0 
L 582 3392 
L 1171 3392 
L 1171 2490 
L 1075 2720 
Q 1235 3053 1568 3238 
Q 1901 3424 2342 3424 
Q 2829 3424 3181 3184 
Q 3533 2944 3642 2458 
L 3392 2560 
Q 3546 2950 3930 3187 
Q 4314 3424 4826 3424 
Q 5235 3424 5548 3264 
Q 5862 3104 6038 2777 
Q 6214 2451 6214 1952 
L 6214 0 
L 5600 0 
L 5600 1882 
Q 5600 2374 5369 2624 
Q 5139 2874 4723 2874 
Q 4416 2874 4185 2746 
Q 3955 2618 3830 2368 
Q 3706 2118 3706 1747 
L 3706 0 
L 3091 0 
L 3091 1882 
Q 3091 2374 2864 2624 
Q 2637 2874 2214 2874 
Q 1914 2874 1683 2746 
Q 1453 2618 1325 2368 
Q 1197 2118 1197 1747 
L 1197 0 
L 582 0 
z
" transform="scale(0.015625)"/>
        <path id="Montserrat-Medium-6c" d="M 582 0 
L 582 4749 
L 1197 4749 
L 1197 0 
L 582 0 
z
" transform="scale(0.015625)"/>
       </defs>
       <use xlink:href="#Montserrat-Medium-6d"/>
       <use xlink:href="#Montserrat-Medium-63" transform="translate(105.699982 0)"/>
       <use xlink:href="#Montserrat-Medium-6c" transform="translate(162.799973 0)"/>
       <use xlink:href="#Montserrat-Medium-31" transform="translate(190.699966 0)"/>
      </g>
     </g>
    </g>
    <g id="xtick_5">
     <g id="line2d_5">
      <g>
       <use xlink:href="#m260de986f8" x="203.708438" y="191.42" style="stroke: #000000; stroke-width: 0.8"/>
      </g>
     </g>
     <g id="text_5">
      <!-- p38 -->
      <g transform="translate(195.53362 217.088724) rotate(-45) scale(0.1 -0.1)">
       <defs>
        <path id="Montserrat-Medium-70" d="M 2381 -38 
Q 1958 -38 1609 157 
Q 1261 352 1053 736 
Q 845 1120 845 1696 
Q 845 2272 1046 2656 
Q 1248 3040 1597 3232 
Q 1946 3424 2381 3424 
Q 2880 3424 3264 3206 
Q 3648 2989 3872 2601 
Q 4096 2214 4096 1696 
Q 4096 1178 3872 787 
Q 3648 397 3264 179 
Q 2880 -38 2381 -38 
z
M 582 -1242 
L 582 3392 
L 1171 3392 
L 1171 2477 
L 1133 1690 
L 1197 902 
L 1197 -1242 
L 582 -1242 
z
M 2330 499 
Q 2656 499 2915 646 
Q 3174 794 3324 1066 
Q 3475 1338 3475 1696 
Q 3475 2061 3324 2326 
Q 3174 2592 2915 2739 
Q 2656 2886 2330 2886 
Q 2010 2886 1750 2739 
Q 1491 2592 1340 2326 
Q 1190 2061 1190 1696 
Q 1190 1338 1340 1066 
Q 1491 794 1750 646 
Q 2010 499 2330 499 
z
" transform="scale(0.015625)"/>
        <path id="Montserrat-Medium-33" d="M 1677 -51 
Q 1203 -51 758 96 
Q 314 243 32 493 
L 326 998 
Q 550 787 908 652 
Q 1267 518 1677 518 
Q 2176 518 2454 732 
Q 2733 947 2733 1312 
Q 2733 1664 2467 1878 
Q 2202 2093 1626 2093 
L 1267 2093 
L 1267 2541 
L 2598 4179 
L 2688 3923 
L 237 3923 
L 237 4480 
L 3194 4480 
L 3194 4045 
L 1869 2413 
L 1536 2611 
L 1747 2611 
Q 2560 2611 2966 2246 
Q 3373 1882 3373 1318 
Q 3373 941 3187 627 
Q 3002 314 2627 131 
Q 2253 -51 1677 -51 
z
" transform="scale(0.015625)"/>
        <path id="Montserrat-Medium-38" d="M 2054 -51 
Q 1510 -51 1113 109 
Q 717 269 499 566 
Q 282 864 282 1267 
Q 282 1664 490 1942 
Q 698 2221 1094 2365 
Q 1491 2509 2054 2509 
Q 2618 2509 3018 2365 
Q 3418 2221 3629 1939 
Q 3840 1658 3840 1267 
Q 3840 864 3622 566 
Q 3405 269 3001 109 
Q 2598 -51 2054 -51 
z
M 2054 467 
Q 2592 467 2896 688 
Q 3200 909 3200 1286 
Q 3200 1658 2896 1872 
Q 2592 2086 2054 2086 
Q 1523 2086 1222 1872 
Q 922 1658 922 1286 
Q 922 909 1222 688 
Q 1523 467 2054 467 
z
M 2054 2573 
Q 2522 2573 2787 2765 
Q 3053 2957 3053 3290 
Q 3053 3629 2777 3821 
Q 2502 4013 2054 4013 
Q 1606 4013 1340 3821 
Q 1075 3629 1075 3290 
Q 1075 2957 1334 2765 
Q 1594 2573 2054 2573 
z
M 2054 2163 
Q 1542 2163 1184 2300 
Q 826 2438 634 2697 
Q 442 2957 442 3315 
Q 442 3693 643 3965 
Q 845 4237 1209 4384 
Q 1574 4531 2054 4531 
Q 2541 4531 2905 4384 
Q 3270 4237 3475 3965 
Q 3680 3693 3680 3315 
Q 3680 2957 3488 2697 
Q 3296 2438 2931 2300 
Q 2566 2163 2054 2163 
z
" transform="scale(0.015625)"/>
       </defs>
       <use xlink:href="#Montserrat-Medium-70"/>
       <use xlink:href="#Montserrat-Medium-33" transform="translate(68.199982 0)"/>
       <use xlink:href="#Montserrat-Medium-38" transform="translate(125.399979 0)"/>
      </g>
     </g>
    </g>
    <g id="xtick_6">
     <g id="line2d_6">
      <g>
       <use xlink:href="#m260de986f8" x="238.583438" y="191.42" style="stroke: #000000; stroke-width: 0.8"/>
      </g>
     </g>
     <g id="text_6">
      <!-- ptp1b -->
      <g transform="translate(223.818164 223.67918) rotate(-45) scale(0.1 -0.1)">
       <defs>
        <path id="Montserrat-Medium-74" d="M 1747 -38 
Q 1235 -38 953 237 
Q 672 512 672 1024 
L 672 4134 
L 1286 4134 
L 1286 1050 
Q 1286 774 1424 627 
Q 1562 480 1818 480 
Q 2106 480 2298 640 
L 2490 198 
Q 2349 77 2153 19 
Q 1958 -38 1747 -38 
z
M 96 2886 
L 96 3392 
L 2259 3392 
L 2259 2886 
L 96 2886 
z
" transform="scale(0.015625)"/>
       </defs>
       <use xlink:href="#Montserrat-Medium-70"/>
       <use xlink:href="#Montserrat-Medium-74" transform="translate(68.199982 0)"/>
       <use xlink:href="#Montserrat-Medium-70" transform="translate(109.599976 0)"/>
       <use xlink:href="#Montserrat-Medium-31" transform="translate(177.799957 0)"/>
       <use xlink:href="#Montserrat-Medium-62" transform="translate(214.799942 0)"/>
      </g>
     </g>
    </g>
    <g id="xtick_7">
     <g id="line2d_7">
      <g>
       <use xlink:href="#m260de986f8" x="273.458438" y="191.42" style="stroke: #000000; stroke-width: 0.8"/>
      </g>
     </g>
     <g id="text_7">
      <!-- thrombin -->
      <g transform="translate(244.488052 237.884292) rotate(-45) scale(0.1 -0.1)">
       <defs>
        <path id="Montserrat-Medium-68" d="M 582 0 
L 582 4749 
L 1197 4749 
L 1197 2477 
L 1075 2720 
Q 1242 3053 1587 3238 
Q 1933 3424 2394 3424 
Q 2810 3424 3126 3264 
Q 3443 3104 3622 2777 
Q 3802 2451 3802 1952 
L 3802 0 
L 3187 0 
L 3187 1882 
Q 3187 2374 2947 2624 
Q 2707 2874 2272 2874 
Q 1946 2874 1702 2746 
Q 1459 2618 1328 2368 
Q 1197 2118 1197 1747 
L 1197 0 
L 582 0 
z
" transform="scale(0.015625)"/>
        <path id="Montserrat-Medium-72" d="M 582 0 
L 582 3392 
L 1171 3392 
L 1171 2470 
L 1114 2701 
Q 1254 3053 1587 3238 
Q 1920 3424 2406 3424 
L 2406 2829 
Q 2368 2835 2333 2835 
Q 2298 2835 2266 2835 
Q 1773 2835 1485 2540 
Q 1197 2246 1197 1690 
L 1197 0 
L 582 0 
z
" transform="scale(0.015625)"/>
        <path id="Montserrat-Medium-6f" d="M 2035 -38 
Q 1523 -38 1126 186 
Q 730 410 499 803 
Q 269 1197 269 1696 
Q 269 2202 499 2592 
Q 730 2982 1126 3203 
Q 1523 3424 2035 3424 
Q 2541 3424 2941 3203 
Q 3341 2982 3568 2595 
Q 3795 2208 3795 1696 
Q 3795 1190 3568 800 
Q 3341 410 2941 186 
Q 2541 -38 2035 -38 
z
M 2035 499 
Q 2362 499 2621 646 
Q 2880 794 3027 1066 
Q 3174 1338 3174 1696 
Q 3174 2061 3027 2326 
Q 2880 2592 2621 2739 
Q 2362 2886 2035 2886 
Q 1709 2886 1453 2739 
Q 1197 2592 1043 2326 
Q 890 2061 890 1696 
Q 890 1338 1043 1066 
Q 1197 794 1453 646 
Q 1709 499 2035 499 
z
" transform="scale(0.015625)"/>
        <path id="Montserrat-Medium-69" d="M 582 0 
L 582 3392 
L 1197 3392 
L 1197 0 
L 582 0 
z
M 890 4045 
Q 710 4045 592 4160 
Q 474 4275 474 4442 
Q 474 4614 592 4729 
Q 710 4845 890 4845 
Q 1069 4845 1187 4733 
Q 1306 4621 1306 4454 
Q 1306 4282 1190 4163 
Q 1075 4045 890 4045 
z
" transform="scale(0.015625)"/>
       </defs>
       <use xlink:href="#Montserrat-Medium-74"/>
       <use xlink:href="#Montserrat-Medium-68" transform="translate(41.399994 0)"/>
       <use xlink:href="#Montserrat-Medium-72" transform="translate(109.499985 0)"/>
       <use xlink:href="#Montserrat-Medium-6f" transform="translate(150.499969 0)"/>
       <use xlink:href="#Montserrat-Medium-6d" transform="translate(213.999954 0)"/>
       <use xlink:href="#Montserrat-Medium-62" transform="translate(319.699936 0)"/>
       <use xlink:href="#Montserrat-Medium-69" transform="translate(387.899918 0)"/>
       <use xlink:href="#Montserrat-Medium-6e" transform="translate(415.799911 0)"/>
      </g>
     </g>
    </g>
    <g id="xtick_8">
     <g id="line2d_8">
      <g>
       <use xlink:href="#m260de986f8" x="308.333438" y="191.42" style="stroke: #000000; stroke-width: 0.8"/>
      </g>
     </g>
     <g id="text_8">
      <!-- tyk2 -->
      <g transform="translate(298.291416 218.955928) rotate(-45) scale(0.1 -0.1)">
       <defs>
        <path id="Montserrat-Medium-79" d="M 730 -1280 
Q 486 -1280 256 -1200 
Q 26 -1120 -141 -966 
L 122 -506 
Q 250 -627 403 -691 
Q 557 -755 730 -755 
Q 954 -755 1101 -640 
Q 1248 -525 1376 -230 
L 1587 237 
L 1651 314 
L 2982 3392 
L 3584 3392 
L 1939 -339 
Q 1792 -698 1609 -902 
Q 1427 -1107 1209 -1193 
Q 992 -1280 730 -1280 
z
M 1536 -109 
L -13 3392 
L 627 3392 
L 1946 371 
L 1536 -109 
z
" transform="scale(0.015625)"/>
       </defs>
       <use xlink:href="#Montserrat-Medium-74"/>
       <use xlink:href="#Montserrat-Medium-79" transform="translate(41.399994 0)"/>
       <use xlink:href="#Montserrat-Medium-6b" transform="translate(97.299988 0)"/>
       <use xlink:href="#Montserrat-Medium-32" transform="translate(158.799973 0)"/>
      </g>
     </g>
    </g>
    <g id="xtick_9">
     <g id="line2d_9">
      <g>
       <use xlink:href="#m260de986f8" x="343.208438" y="191.42" style="stroke: #000000; stroke-width: 0.8"/>
      </g>
     </g>
     <g id="text_9">
      <!-- cdk8 -->
      <g transform="translate(330.692647 221.429697) rotate(-45) scale(0.1 -0.1)">
       <use xlink:href="#Montserrat-Medium-63"/>
       <use xlink:href="#Montserrat-Medium-64" transform="translate(57.099991 0)"/>
       <use xlink:href="#Montserrat-Medium-6b" transform="translate(125.299973 0)"/>
       <use xlink:href="#Montserrat-Medium-38" transform="translate(186.799957 0)"/>
      </g>
     </g>
    </g>
    <g id="xtick_10">
     <g id="line2d_10">
      <g>
       <use xlink:href="#m260de986f8" x="378.083438" y="191.42" style="stroke: #000000; stroke-width: 0.8"/>
      </g>
     </g>
     <g id="text_10">
      <!-- cmet -->
      <g transform="translate(364.563335 222.434009) rotate(-45) scale(0.1 -0.1)">
       <use xlink:href="#Montserrat-Medium-63"/>
       <use xlink:href="#Montserrat-Medium-6d" transform="translate(57.099991 0)"/>
       <use xlink:href="#Montserrat-Medium-65" transform="translate(162.799973 0)"/>
       <use xlink:href="#Montserrat-Medium-74" transform="translate(223.999969 0)"/>
      </g>
     </g>
    </g>
    <g id="xtick_11">
     <g id="line2d_11">
      <g>
       <use xlink:href="#m260de986f8" x="412.958438" y="191.42" style="stroke: #000000; stroke-width: 0.8"/>
      </g>
     </g>
     <g id="text_11">
      <!-- eg5 -->
      <g transform="translate(404.89742 216.890955) rotate(-45) scale(0.1 -0.1)">
       <defs>
        <path id="Montserrat-Medium-67" d="M 2067 -1280 
Q 1600 -1280 1161 -1149 
Q 723 -1018 448 -774 
L 742 -301 
Q 979 -506 1324 -624 
Q 1670 -742 2048 -742 
Q 2650 -742 2931 -460 
Q 3213 -179 3213 397 
L 3213 1114 
L 3277 1786 
L 3245 2464 
L 3245 3392 
L 3827 3392 
L 3827 461 
Q 3827 -435 3379 -857 
Q 2931 -1280 2067 -1280 
z
M 1990 141 
Q 1498 141 1110 349 
Q 723 557 496 928 
Q 269 1299 269 1786 
Q 269 2278 496 2646 
Q 723 3014 1110 3219 
Q 1498 3424 1990 3424 
Q 2426 3424 2784 3248 
Q 3142 3072 3356 2707 
Q 3571 2342 3571 1786 
Q 3571 1235 3356 870 
Q 3142 506 2784 323 
Q 2426 141 1990 141 
z
M 2061 678 
Q 2400 678 2662 819 
Q 2925 960 3075 1209 
Q 3226 1459 3226 1786 
Q 3226 2112 3075 2361 
Q 2925 2611 2662 2748 
Q 2400 2886 2061 2886 
Q 1722 2886 1456 2748 
Q 1190 2611 1040 2361 
Q 890 2112 890 1786 
Q 890 1459 1040 1209 
Q 1190 960 1456 819 
Q 1722 678 2061 678 
z
" transform="scale(0.015625)"/>
        <path id="Montserrat-Medium-35" d="M 1754 -51 
Q 1280 -51 835 96 
Q 390 243 109 493 
L 403 998 
Q 627 787 985 652 
Q 1344 518 1747 518 
Q 2259 518 2534 736 
Q 2810 954 2810 1318 
Q 2810 1568 2688 1753 
Q 2566 1939 2268 2038 
Q 1971 2138 1453 2138 
L 435 2138 
L 672 4480 
L 3200 4480 
L 3200 3923 
L 909 3923 
L 1242 4237 
L 1056 2387 
L 723 2694 
L 1587 2694 
Q 2259 2694 2668 2521 
Q 3078 2349 3264 2045 
Q 3450 1741 3450 1344 
Q 3450 960 3264 643 
Q 3078 326 2704 137 
Q 2330 -51 1754 -51 
z
" transform="scale(0.015625)"/>
       </defs>
       <use xlink:href="#Montserrat-Medium-65"/>
       <use xlink:href="#Montserrat-Medium-67" transform="translate(61.199997 0)"/>
       <use xlink:href="#Montserrat-Medium-35" transform="translate(130.199982 0)"/>
      </g>
     </g>
    </g>
    <g id="xtick_12">
     <g id="line2d_12">
      <g>
       <use xlink:href="#m260de986f8" x="447.833438" y="191.42" style="stroke: #000000; stroke-width: 0.8"/>
      </g>
     </g>
     <g id="text_12">
      <!-- hif2a -->
      <g transform="translate(435.508787 221.238557) rotate(-45) scale(0.1 -0.1)">
       <defs>
        <path id="Montserrat-Medium-66" d="M 672 0 
L 672 3693 
Q 672 4192 963 4489 
Q 1254 4787 1792 4787 
Q 1990 4787 2172 4739 
Q 2355 4691 2483 4589 
L 2298 4122 
Q 2202 4198 2080 4240 
Q 1958 4282 1824 4282 
Q 1555 4282 1414 4131 
Q 1274 3981 1274 3686 
L 1274 3232 
L 1286 2950 
L 1286 0 
L 672 0 
z
M 96 2886 
L 96 3392 
L 2259 3392 
L 2259 2886 
L 96 2886 
z
" transform="scale(0.015625)"/>
       </defs>
       <use xlink:href="#Montserrat-Medium-68"/>
       <use xlink:href="#Montserrat-Medium-69" transform="translate(68.099991 0)"/>
       <use xlink:href="#Montserrat-Medium-66" transform="translate(95.999985 0)"/>
       <use xlink:href="#Montserrat-Medium-32" transform="translate(131.299973 0)"/>
       <use xlink:href="#Montserrat-Medium-61" transform="translate(188.699966 0)"/>
      </g>
     </g>
    </g>
    <g id="xtick_13">
     <g id="line2d_13">
      <g>
       <use xlink:href="#m260de986f8" x="482.708438" y="191.42" style="stroke: #000000; stroke-width: 0.8"/>
      </g>
     </g>
     <g id="text_13">
      <!-- shp2 -->
      <g transform="translate(470.716348 220.905996) rotate(-45) scale(0.1 -0.1)">
       <defs>
        <path id="Montserrat-Medium-73" d="M 1555 -38 
Q 1133 -38 752 77 
Q 371 192 154 358 
L 410 845 
Q 627 698 947 595 
Q 1267 493 1600 493 
Q 2029 493 2217 614 
Q 2406 736 2406 954 
Q 2406 1114 2291 1203 
Q 2176 1293 1987 1337 
Q 1798 1382 1568 1417 
Q 1338 1453 1107 1507 
Q 877 1562 685 1661 
Q 493 1760 377 1936 
Q 262 2112 262 2406 
Q 262 2714 435 2944 
Q 608 3174 925 3299 
Q 1242 3424 1677 3424 
Q 2010 3424 2352 3344 
Q 2694 3264 2912 3117 
L 2650 2630 
Q 2419 2784 2169 2841 
Q 1920 2899 1670 2899 
Q 1267 2899 1068 2768 
Q 870 2637 870 2432 
Q 870 2259 988 2166 
Q 1107 2074 1296 2022 
Q 1485 1971 1715 1936 
Q 1946 1901 2176 1846 
Q 2406 1792 2595 1696 
Q 2784 1600 2902 1427 
Q 3021 1254 3021 966 
Q 3021 659 2841 435 
Q 2662 211 2336 86 
Q 2010 -38 1555 -38 
z
" transform="scale(0.015625)"/>
       </defs>
       <use xlink:href="#Montserrat-Medium-73"/>
       <use xlink:href="#Montserrat-Medium-68" transform="translate(50.099991 0)"/>
       <use xlink:href="#Montserrat-Medium-70" transform="translate(118.199982 0)"/>
       <use xlink:href="#Montserrat-Medium-32" transform="translate(186.399963 0)"/>
      </g>
     </g>
    </g>
    <g id="xtick_14">
     <g id="line2d_14">
      <g>
       <use xlink:href="#m260de986f8" x="517.583437" y="191.42" style="stroke: #000000; stroke-width: 0.8"/>
      </g>
     </g>
     <g id="text_14">
      <!-- syk -->
      <g transform="translate(510.986352 215.510992) rotate(-45) scale(0.1 -0.1)">
       <use xlink:href="#Montserrat-Medium-73"/>
       <use xlink:href="#Montserrat-Medium-79" transform="translate(50.099991 0)"/>
       <use xlink:href="#Montserrat-Medium-6b" transform="translate(105.999985 0)"/>
      </g>
     </g>
    </g>
    <g id="xtick_15">
     <g id="line2d_15">
      <g>
       <use xlink:href="#m260de986f8" x="552.458437" y="191.42" style="stroke: #000000; stroke-width: 0.8"/>
      </g>
     </g>
     <g id="text_15">
      <!-- pfkfb3 -->
      <g transform="translate(534.716686 226.739627) rotate(-45) scale(0.1 -0.1)">
       <use xlink:href="#Montserrat-Medium-70"/>
       <use xlink:href="#Montserrat-Medium-66" transform="translate(68.199982 0)"/>
       <use xlink:href="#Montserrat-Medium-6b" transform="translate(103.499969 0)"/>
       <use xlink:href="#Montserrat-Medium-66" transform="translate(164.999954 0)"/>
       <use xlink:href="#Montserrat-Medium-62" transform="translate(200.299942 0)"/>
       <use xlink:href="#Montserrat-Medium-33" transform="translate(268.499924 0)"/>
      </g>
     </g>
    </g>
    <g id="xtick_16">
     <g id="line2d_16">
      <g>
       <use xlink:href="#m260de986f8" x="587.333437" y="191.42" style="stroke: #000000; stroke-width: 0.8"/>
      </g>
     </g>
     <g id="text_16">
      <!-- tnks2 -->
      <g transform="translate(572.887467 223.359877) rotate(-45) scale(0.1 -0.1)">
       <use xlink:href="#Montserrat-Medium-74"/>
       <use xlink:href="#Montserrat-Medium-6e" transform="translate(41.399994 0)"/>
       <use xlink:href="#Montserrat-Medium-6b" transform="translate(109.499985 0)"/>
       <use xlink:href="#Montserrat-Medium-73" transform="translate(170.999969 0)"/>
       <use xlink:href="#Montserrat-Medium-32" transform="translate(221.09996 0)"/>
      </g>
     </g>
    </g>
   </g>
   <g id="matplotlib.axis_2">
    <g id="ytick_1">
     <g id="line2d_17">
      <path d="M 46.770938 191.42 
L 604.770937 191.42 
" clip-path="url(#pb584beda2a)" style="fill: none; stroke: #b0b0b0; stroke-opacity: 0.5; stroke-width: 0.8; stroke-linecap: square"/>
     </g>
     <g id="line2d_18">
      <defs>
       <path id="m8c1f5ee4fb" d="M 0 0 
L -3.5 0 
" style="stroke: #000000; stroke-width: 0.8"/>
      </defs>
      <g>
       <use xlink:href="#m8c1f5ee4fb" x="46.770938" y="191.42" style="stroke: #000000; stroke-width: 0.8"/>
      </g>
     </g>
     <g id="text_17">
      <!-- 0.0 -->
      <g transform="translate(24.16 195.130156) scale(0.1 -0.1)">
       <defs>
        <path id="Montserrat-Medium-30" d="M 2138 -51 
Q 1613 -51 1200 217 
Q 787 486 547 998 
Q 307 1510 307 2240 
Q 307 2970 547 3482 
Q 787 3994 1200 4262 
Q 1613 4531 2138 4531 
Q 2656 4531 3072 4262 
Q 3488 3994 3725 3482 
Q 3962 2970 3962 2240 
Q 3962 1510 3725 998 
Q 3488 486 3072 217 
Q 2656 -51 2138 -51 
z
M 2138 518 
Q 2490 518 2755 710 
Q 3021 902 3171 1286 
Q 3322 1670 3322 2240 
Q 3322 2810 3171 3194 
Q 3021 3578 2755 3770 
Q 2490 3962 2138 3962 
Q 1786 3962 1517 3770 
Q 1248 3578 1097 3194 
Q 947 2810 947 2240 
Q 947 1670 1097 1286 
Q 1248 902 1517 710 
Q 1786 518 2138 518 
z
" transform="scale(0.015625)"/>
        <path id="Montserrat-Medium-2e" d="M 730 -38 
Q 550 -38 422 86 
Q 294 211 294 403 
Q 294 595 422 716 
Q 550 838 730 838 
Q 902 838 1027 716 
Q 1152 595 1152 403 
Q 1152 211 1027 86 
Q 902 -38 730 -38 
z
" transform="scale(0.015625)"/>
       </defs>
       <use xlink:href="#Montserrat-Medium-30"/>
       <use xlink:href="#Montserrat-Medium-2e" transform="translate(66.699997 0)"/>
       <use xlink:href="#Montserrat-Medium-30" transform="translate(89.399994 0)"/>
      </g>
     </g>
    </g>
    <g id="ytick_2">
     <g id="line2d_19">
      <path d="M 46.770938 166.080408 
L 604.770937 166.080408 
" clip-path="url(#pb584beda2a)" style="fill: none; stroke: #b0b0b0; stroke-opacity: 0.5; stroke-width: 0.8; stroke-linecap: square"/>
     </g>
     <g id="line2d_20">
      <g>
       <use xlink:href="#m8c1f5ee4fb" x="46.770938" y="166.080408" style="stroke: #000000; stroke-width: 0.8"/>
      </g>
     </g>
     <g id="text_18">
      <!-- 0.5 -->
      <g transform="translate(25.089688 169.790564) scale(0.1 -0.1)">
       <use xlink:href="#Montserrat-Medium-30"/>
       <use xlink:href="#Montserrat-Medium-2e" transform="translate(66.699997 0)"/>
       <use xlink:href="#Montserrat-Medium-35" transform="translate(89.399994 0)"/>
      </g>
     </g>
    </g>
    <g id="ytick_3">
     <g id="line2d_21">
      <path d="M 46.770938 140.740816 
L 604.770937 140.740816 
" clip-path="url(#pb584beda2a)" style="fill: none; stroke: #b0b0b0; stroke-opacity: 0.5; stroke-width: 0.8; stroke-linecap: square"/>
     </g>
     <g id="line2d_22">
      <g>
       <use xlink:href="#m8c1f5ee4fb" x="46.770938" y="140.740816" style="stroke: #000000; stroke-width: 0.8"/>
      </g>
     </g>
     <g id="text_19">
      <!-- 1.0 -->
      <g transform="translate(27.130313 144.450972) scale(0.1 -0.1)">
       <use xlink:href="#Montserrat-Medium-31"/>
       <use xlink:href="#Montserrat-Medium-2e" transform="translate(36.999985 0)"/>
       <use xlink:href="#Montserrat-Medium-30" transform="translate(59.699982 0)"/>
      </g>
     </g>
    </g>
    <g id="ytick_4">
     <g id="line2d_23">
      <path d="M 46.770938 115.401223 
L 604.770937 115.401223 
" clip-path="url(#pb584beda2a)" style="fill: none; stroke: #b0b0b0; stroke-opacity: 0.5; stroke-width: 0.8; stroke-linecap: square"/>
     </g>
     <g id="line2d_24">
      <g>
       <use xlink:href="#m8c1f5ee4fb" x="46.770938" y="115.401223" style="stroke: #000000; stroke-width: 0.8"/>
      </g>
     </g>
     <g id="text_20">
      <!-- 1.5 -->
      <g transform="translate(28.06 119.11138) scale(0.1 -0.1)">
       <use xlink:href="#Montserrat-Medium-31"/>
       <use xlink:href="#Montserrat-Medium-2e" transform="translate(36.999985 0)"/>
       <use xlink:href="#Montserrat-Medium-35" transform="translate(59.699982 0)"/>
      </g>
     </g>
    </g>
    <g id="ytick_5">
     <g id="line2d_25">
      <path d="M 46.770938 90.061631 
L 604.770937 90.061631 
" clip-path="url(#pb584beda2a)" style="fill: none; stroke: #b0b0b0; stroke-opacity: 0.5; stroke-width: 0.8; stroke-linecap: square"/>
     </g>
     <g id="line2d_26">
      <g>
       <use xlink:href="#m8c1f5ee4fb" x="46.770938" y="90.061631" style="stroke: #000000; stroke-width: 0.8"/>
      </g>
     </g>
     <g id="text_21">
      <!-- 2.0 -->
      <g transform="translate(25.089688 93.771787) scale(0.1 -0.1)">
       <use xlink:href="#Montserrat-Medium-32"/>
       <use xlink:href="#Montserrat-Medium-2e" transform="translate(57.399994 0)"/>
       <use xlink:href="#Montserrat-Medium-30" transform="translate(80.099991 0)"/>
      </g>
     </g>
    </g>
    <g id="ytick_6">
     <g id="line2d_27">
      <path d="M 46.770938 64.722039 
L 604.770937 64.722039 
" clip-path="url(#pb584beda2a)" style="fill: none; stroke: #b0b0b0; stroke-opacity: 0.5; stroke-width: 0.8; stroke-linecap: square"/>
     </g>
     <g id="line2d_28">
      <g>
       <use xlink:href="#m8c1f5ee4fb" x="46.770938" y="64.722039" style="stroke: #000000; stroke-width: 0.8"/>
      </g>
     </g>
     <g id="text_22">
      <!-- 2.5 -->
      <g transform="translate(26.019375 68.432195) scale(0.1 -0.1)">
       <use xlink:href="#Montserrat-Medium-32"/>
       <use xlink:href="#Montserrat-Medium-2e" transform="translate(57.399994 0)"/>
       <use xlink:href="#Montserrat-Medium-35" transform="translate(80.099991 0)"/>
      </g>
     </g>
    </g>
    <g id="ytick_7">
     <g id="line2d_29">
      <path d="M 46.770938 39.382447 
L 604.770937 39.382447 
" clip-path="url(#pb584beda2a)" style="fill: none; stroke: #b0b0b0; stroke-opacity: 0.5; stroke-width: 0.8; stroke-linecap: square"/>
     </g>
     <g id="line2d_30">
      <g>
       <use xlink:href="#m8c1f5ee4fb" x="46.770938" y="39.382447" style="stroke: #000000; stroke-width: 0.8"/>
      </g>
     </g>
     <g id="text_23">
      <!-- 3.0 -->
      <g transform="translate(25.11 43.092603) scale(0.1 -0.1)">
       <use xlink:href="#Montserrat-Medium-33"/>
       <use xlink:href="#Montserrat-Medium-2e" transform="translate(57.199997 0)"/>
       <use xlink:href="#Montserrat-Medium-30" transform="translate(79.899994 0)"/>
      </g>
     </g>
    </g>
    <g id="text_24">
     <!-- $|\Delta\Delta G_{exp} - \Delta\Delta G_{calc}|$ -->
     <g transform="translate(16.44 161.84) rotate(-90) scale(0.12 -0.12)">
      <defs>
       <path id="DejaVuSans-7c" d="M 1344 4891 
L 1344 -1509 
L 813 -1509 
L 813 4891 
L 1344 4891 
z
" transform="scale(0.015625)"/>
       <path id="DejaVuSans-394" d="M 2188 4044 
L 906 525 
L 3472 525 
L 2188 4044 
z
M 50 0 
L 1831 4666 
L 2547 4666 
L 4325 0 
L 50 0 
z
" transform="scale(0.015625)"/>
       <path id="DejaVuSans-Oblique-47" d="M 3494 697 
L 3738 1919 
L 2700 1919 
L 2797 2438 
L 4453 2438 
L 4050 384 
Q 3634 156 3143 32 
Q 2653 -91 2156 -91 
Q 1278 -91 783 396 
Q 288 884 288 1753 
Q 288 2475 589 3126 
Q 891 3778 1422 4213 
Q 1756 4484 2153 4617 
Q 2550 4750 3034 4750 
Q 3472 4750 3873 4639 
Q 4275 4528 4641 4306 
L 4513 3634 
Q 4231 3928 3853 4083 
Q 3475 4238 3047 4238 
Q 2550 4238 2172 4048 
Q 1794 3859 1497 3463 
Q 1244 3125 1098 2667 
Q 953 2209 953 1734 
Q 953 1081 1287 751 
Q 1622 422 2284 422 
Q 2616 422 2925 492 
Q 3234 563 3494 697 
z
" transform="scale(0.015625)"/>
       <path id="DejaVuSans-Oblique-65" d="M 3078 2063 
Q 3088 2113 3092 2166 
Q 3097 2219 3097 2272 
Q 3097 2653 2873 2875 
Q 2650 3097 2266 3097 
Q 1838 3097 1509 2826 
Q 1181 2556 1013 2059 
L 3078 2063 
z
M 3578 1613 
L 903 1613 
Q 884 1494 878 1425 
Q 872 1356 872 1306 
Q 872 872 1139 634 
Q 1406 397 1894 397 
Q 2269 397 2603 481 
Q 2938 566 3225 728 
L 3116 159 
Q 2806 34 2476 -28 
Q 2147 -91 1806 -91 
Q 1078 -91 686 257 
Q 294 606 294 1247 
Q 294 1794 489 2264 
Q 684 2734 1063 3103 
Q 1306 3334 1642 3459 
Q 1978 3584 2356 3584 
Q 2950 3584 3301 3228 
Q 3653 2872 3653 2272 
Q 3653 2128 3634 1964 
Q 3616 1800 3578 1613 
z
" transform="scale(0.015625)"/>
       <path id="DejaVuSans-Oblique-78" d="M 3841 3500 
L 2234 1784 
L 3219 0 
L 2559 0 
L 1819 1388 
L 531 0 
L -166 0 
L 1556 1844 
L 641 3500 
L 1300 3500 
L 1972 2234 
L 3144 3500 
L 3841 3500 
z
" transform="scale(0.015625)"/>
       <path id="DejaVuSans-Oblique-70" d="M 3175 2156 
Q 3175 2616 2975 2859 
Q 2775 3103 2400 3103 
Q 2144 3103 1911 2972 
Q 1678 2841 1497 2591 
Q 1319 2344 1212 1994 
Q 1106 1644 1106 1300 
Q 1106 863 1306 627 
Q 1506 391 1875 391 
Q 2147 391 2380 519 
Q 2613 647 2778 891 
Q 2956 1147 3065 1494 
Q 3175 1841 3175 2156 
z
M 1394 2969 
Q 1625 3272 1939 3428 
Q 2253 3584 2638 3584 
Q 3175 3584 3472 3232 
Q 3769 2881 3769 2247 
Q 3769 1728 3584 1258 
Q 3400 788 3053 416 
Q 2822 169 2531 39 
Q 2241 -91 1919 -91 
Q 1547 -91 1294 64 
Q 1041 219 916 525 
L 556 -1331 
L -19 -1331 
L 922 3500 
L 1497 3500 
L 1394 2969 
z
" transform="scale(0.015625)"/>
       <path id="DejaVuSans-2212" d="M 678 2272 
L 4684 2272 
L 4684 1741 
L 678 1741 
L 678 2272 
z
" transform="scale(0.015625)"/>
       <path id="DejaVuSans-Oblique-63" d="M 3431 3366 
L 3316 2797 
Q 3109 2947 2876 3022 
Q 2644 3097 2394 3097 
Q 2119 3097 1870 3000 
Q 1622 2903 1453 2725 
Q 1184 2453 1037 2087 
Q 891 1722 891 1331 
Q 891 859 1127 628 
Q 1363 397 1844 397 
Q 2081 397 2348 469 
Q 2616 541 2906 684 
L 2797 116 
Q 2547 13 2283 -39 
Q 2019 -91 1741 -91 
Q 1044 -91 669 257 
Q 294 606 294 1253 
Q 294 1797 489 2255 
Q 684 2713 1069 3078 
Q 1331 3328 1684 3456 
Q 2038 3584 2456 3584 
Q 2700 3584 2940 3529 
Q 3181 3475 3431 3366 
z
" transform="scale(0.015625)"/>
       <path id="DejaVuSans-Oblique-61" d="M 3438 1997 
L 3047 0 
L 2472 0 
L 2578 531 
Q 2325 219 2001 64 
Q 1678 -91 1281 -91 
Q 834 -91 548 182 
Q 263 456 263 884 
Q 263 1497 752 1853 
Q 1241 2209 2100 2209 
L 2900 2209 
L 2931 2363 
Q 2938 2388 2941 2417 
Q 2944 2447 2944 2509 
Q 2944 2788 2717 2942 
Q 2491 3097 2081 3097 
Q 1800 3097 1504 3025 
Q 1209 2953 897 2809 
L 997 3341 
Q 1322 3463 1633 3523 
Q 1944 3584 2234 3584 
Q 2853 3584 3176 3315 
Q 3500 3047 3500 2534 
Q 3500 2431 3484 2292 
Q 3469 2153 3438 1997 
z
M 2816 1759 
L 2241 1759 
Q 1534 1759 1195 1570 
Q 856 1381 856 984 
Q 856 709 1029 553 
Q 1203 397 1509 397 
Q 1978 397 2328 733 
Q 2678 1069 2791 1631 
L 2816 1759 
z
" transform="scale(0.015625)"/>
       <path id="DejaVuSans-Oblique-6c" d="M 1172 4863 
L 1747 4863 
L 800 0 
L 225 0 
L 1172 4863 
z
" transform="scale(0.015625)"/>
      </defs>
      <use xlink:href="#DejaVuSans-7c" transform="translate(0 0.578125)"/>
      <use xlink:href="#DejaVuSans-394" transform="translate(33.691406 0.578125)"/>
      <use xlink:href="#DejaVuSans-394" transform="translate(102.099609 0.578125)"/>
      <use xlink:href="#DejaVuSans-Oblique-47" transform="translate(170.507812 0.578125)"/>
      <use xlink:href="#DejaVuSans-Oblique-65" transform="translate(247.998047 -15.828125) scale(0.7)"/>
      <use xlink:href="#DejaVuSans-Oblique-78" transform="translate(291.064453 -15.828125) scale(0.7)"/>
      <use xlink:href="#DejaVuSans-Oblique-70" transform="translate(332.490234 -15.828125) scale(0.7)"/>
      <use xlink:href="#DejaVuSans-2212" transform="translate(399.140625 0.578125)"/>
      <use xlink:href="#DejaVuSans-394" transform="translate(502.412109 0.578125)"/>
      <use xlink:href="#DejaVuSans-394" transform="translate(570.820312 0.578125)"/>
      <use xlink:href="#DejaVuSans-Oblique-47" transform="translate(639.228516 0.578125)"/>
      <use xlink:href="#DejaVuSans-Oblique-63" transform="translate(716.71875 -15.828125) scale(0.7)"/>
      <use xlink:href="#DejaVuSans-Oblique-61" transform="translate(755.205078 -15.828125) scale(0.7)"/>
      <use xlink:href="#DejaVuSans-Oblique-6c" transform="translate(798.100586 -15.828125) scale(0.7)"/>
      <use xlink:href="#DejaVuSans-Oblique-63" transform="translate(817.548828 -15.828125) scale(0.7)"/>
      <use xlink:href="#DejaVuSans-7c" transform="translate(858.769531 0.578125)"/>
     </g>
    </g>
   </g>
   <g id="patch_3">
    <path d="M 50.258437 191.42 
L 59.558437 191.42 
L 59.558437 131.589293 
L 50.258437 131.589293 
z
" clip-path="url(#pb584beda2a)" style="fill: #3274a1; stroke: #000000; stroke-width: 0.5; stroke-linejoin: miter"/>
   </g>
   <g id="patch_4">
    <path d="M 85.133437 191.42 
L 94.433437 191.42 
L 94.433437 133.821785 
L 85.133437 133.821785 
z
" clip-path="url(#pb584beda2a)" style="fill: #3274a1; stroke: #000000; stroke-width: 0.5; stroke-linejoin: miter"/>
   </g>
   <g id="patch_5">
    <path d="M 120.008438 191.42 
L 129.308438 191.42 
L 129.308438 157.899661 
L 120.008438 157.899661 
z
" clip-path="url(#pb584beda2a)" style="fill: #3274a1; stroke: #000000; stroke-width: 0.5; stroke-linejoin: miter"/>
   </g>
   <g id="patch_6">
    <path d="M 154.883438 191.42 
L 164.183438 191.42 
L 164.183438 116.733326 
L 154.883438 116.733326 
z
" clip-path="url(#pb584beda2a)" style="fill: #3274a1; stroke: #000000; stroke-width: 0.5; stroke-linejoin: miter"/>
   </g>
   <g id="patch_7">
    <path d="M 189.758438 191.42 
L 199.058438 191.42 
L 199.058438 127.083866 
L 189.758438 127.083866 
z
" clip-path="url(#pb584beda2a)" style="fill: #3274a1; stroke: #000000; stroke-width: 0.5; stroke-linejoin: miter"/>
   </g>
   <g id="patch_8">
    <path d="M 224.633437 191.42 
L 233.933438 191.42 
L 233.933438 78.380753 
L 224.633437 78.380753 
z
" clip-path="url(#pb584beda2a)" style="fill: #3274a1; stroke: #000000; stroke-width: 0.5; stroke-linejoin: miter"/>
   </g>
   <g id="patch_9">
    <path d="M 259.508438 191.42 
L 268.808438 191.42 
L 268.808438 140.167878 
L 259.508438 140.167878 
z
" clip-path="url(#pb584beda2a)" style="fill: #3274a1; stroke: #000000; stroke-width: 0.5; stroke-linejoin: miter"/>
   </g>
   <g id="patch_10">
    <path d="M 294.383438 191.42 
L 303.683438 191.42 
L 303.683438 154.136706 
L 294.383438 154.136706 
z
" clip-path="url(#pb584beda2a)" style="fill: #3274a1; stroke: #000000; stroke-width: 0.5; stroke-linejoin: miter"/>
   </g>
   <g id="patch_11">
    <path d="M 329.258438 191.42 
L 338.558438 191.42 
L 338.558438 86.332915 
L 329.258438 86.332915 
z
" clip-path="url(#pb584beda2a)" style="fill: #3274a1; stroke: #000000; stroke-width: 0.5; stroke-linejoin: miter"/>
   </g>
   <g id="patch_12">
    <path d="M 364.133438 191.42 
L 373.433437 191.42 
L 373.433437 121.048676 
L 364.133438 121.048676 
z
" clip-path="url(#pb584beda2a)" style="fill: #3274a1; stroke: #000000; stroke-width: 0.5; stroke-linejoin: miter"/>
   </g>
   <g id="patch_13">
    <path d="M 399.008438 191.42 
L 408.308437 191.42 
L 408.308437 101.782448 
L 399.008438 101.782448 
z
" clip-path="url(#pb584beda2a)" style="fill: #3274a1; stroke: #000000; stroke-width: 0.5; stroke-linejoin: miter"/>
   </g>
   <g id="patch_14">
    <path d="M 433.883438 191.42 
L 443.183437 191.42 
L 443.183437 106.776617 
L 433.883438 106.776617 
z
" clip-path="url(#pb584beda2a)" style="fill: #3274a1; stroke: #000000; stroke-width: 0.5; stroke-linejoin: miter"/>
   </g>
   <g id="patch_15">
    <path d="M 468.758438 191.42 
L 478.058437 191.42 
L 478.058437 65.465338 
L 468.758438 65.465338 
z
" clip-path="url(#pb584beda2a)" style="fill: #3274a1; stroke: #000000; stroke-width: 0.5; stroke-linejoin: miter"/>
   </g>
   <g id="patch_16">
    <path d="M 503.633438 191.42 
L 512.933437 191.42 
L 512.933437 138.97272 
L 503.633438 138.97272 
z
" clip-path="url(#pb584beda2a)" style="fill: #3274a1; stroke: #000000; stroke-width: 0.5; stroke-linejoin: miter"/>
   </g>
   <g id="patch_17">
    <path d="M 538.508438 191.42 
L 547.808437 191.42 
L 547.808437 121.488573 
L 538.508438 121.488573 
z
" clip-path="url(#pb584beda2a)" style="fill: #3274a1; stroke: #000000; stroke-width: 0.5; stroke-linejoin: miter"/>
   </g>
   <g id="patch_18">
    <path d="M 573.383438 191.42 
L 582.683437 191.42 
L 582.683437 142.181446 
L 573.383438 142.181446 
z
" clip-path="url(#pb584beda2a)" style="fill: #3274a1; stroke: #000000; stroke-width: 0.5; stroke-linejoin: miter"/>
   </g>
   <g id="patch_19">
    <path d="M 59.558438 191.42 
L 68.858438 191.42 
L 68.858438 146.943191 
L 59.558438 146.943191 
z
" clip-path="url(#pb584beda2a)" style="fill: #b5c8e1; stroke: #000000; stroke-width: 0.5; stroke-linejoin: miter"/>
   </g>
   <g id="patch_20">
    <path d="M 94.433437 191.42 
L 103.733437 191.42 
L 103.733437 141.180035 
L 94.433437 141.180035 
z
" clip-path="url(#pb584beda2a)" style="fill: #b5c8e1; stroke: #000000; stroke-width: 0.5; stroke-linejoin: miter"/>
   </g>
   <g id="patch_21">
    <path d="M 129.308437 191.42 
L 138.608437 191.42 
L 138.608437 150.805811 
L 129.308437 150.805811 
z
" clip-path="url(#pb584beda2a)" style="fill: #b5c8e1; stroke: #000000; stroke-width: 0.5; stroke-linejoin: miter"/>
   </g>
   <g id="patch_22">
    <path d="M 164.183437 191.42 
L 173.483437 191.42 
L 173.483437 125.64056 
L 164.183437 125.64056 
z
" clip-path="url(#pb584beda2a)" style="fill: #b5c8e1; stroke: #000000; stroke-width: 0.5; stroke-linejoin: miter"/>
   </g>
   <g id="patch_23">
    <path d="M 199.058437 191.42 
L 208.358438 191.42 
L 208.358438 152.490543 
L 199.058437 152.490543 
z
" clip-path="url(#pb584beda2a)" style="fill: #b5c8e1; stroke: #000000; stroke-width: 0.5; stroke-linejoin: miter"/>
   </g>
   <g id="patch_24">
    <path d="M 233.933437 191.42 
L 243.233438 191.42 
L 243.233438 112.946558 
L 233.933437 112.946558 
z
" clip-path="url(#pb584beda2a)" style="fill: #b5c8e1; stroke: #000000; stroke-width: 0.5; stroke-linejoin: miter"/>
   </g>
   <g id="patch_25">
    <path d="M 268.808437 191.42 
L 278.108437 191.42 
L 278.108437 132.991124 
L 268.808437 132.991124 
z
" clip-path="url(#pb584beda2a)" style="fill: #b5c8e1; stroke: #000000; stroke-width: 0.5; stroke-linejoin: miter"/>
   </g>
   <g id="patch_26">
    <path d="M 303.683437 191.42 
L 312.983437 191.42 
L 312.983437 142.66944 
L 303.683437 142.66944 
z
" clip-path="url(#pb584beda2a)" style="fill: #b5c8e1; stroke: #000000; stroke-width: 0.5; stroke-linejoin: miter"/>
   </g>
   <g id="patch_27">
    <path d="M 338.558437 191.42 
L 347.858437 191.42 
L 347.858437 127.470377 
L 338.558437 127.470377 
z
" clip-path="url(#pb584beda2a)" style="fill: #b5c8e1; stroke: #000000; stroke-width: 0.5; stroke-linejoin: miter"/>
   </g>
   <g id="patch_28">
    <path d="M 373.433438 191.42 
L 382.733437 191.42 
L 382.733437 121.127082 
L 373.433438 121.127082 
z
" clip-path="url(#pb584beda2a)" style="fill: #b5c8e1; stroke: #000000; stroke-width: 0.5; stroke-linejoin: miter"/>
   </g>
   <g id="patch_29">
    <path d="M 408.308438 191.42 
L 417.608437 191.42 
L 417.608437 143.516476 
L 408.308438 143.516476 
z
" clip-path="url(#pb584beda2a)" style="fill: #b5c8e1; stroke: #000000; stroke-width: 0.5; stroke-linejoin: miter"/>
   </g>
   <g id="patch_30">
    <path d="M 443.183438 191.42 
L 452.483437 191.42 
L 452.483437 100.320494 
L 443.183438 100.320494 
z
" clip-path="url(#pb584beda2a)" style="fill: #b5c8e1; stroke: #000000; stroke-width: 0.5; stroke-linejoin: miter"/>
   </g>
   <g id="patch_31">
    <path d="M 478.058438 191.42 
L 487.358437 191.42 
L 487.358437 89.162679 
L 478.058438 89.162679 
z
" clip-path="url(#pb584beda2a)" style="fill: #b5c8e1; stroke: #000000; stroke-width: 0.5; stroke-linejoin: miter"/>
   </g>
   <g id="patch_32">
    <path d="M 512.933438 191.42 
L 522.233438 191.42 
L 522.233438 138.551408 
L 512.933438 138.551408 
z
" clip-path="url(#pb584beda2a)" style="fill: #b5c8e1; stroke: #000000; stroke-width: 0.5; stroke-linejoin: miter"/>
   </g>
   <g id="patch_33">
    <path d="M 547.808438 191.42 
L 557.108438 191.42 
L 557.108438 130.71504 
L 547.808438 130.71504 
z
" clip-path="url(#pb584beda2a)" style="fill: #b5c8e1; stroke: #000000; stroke-width: 0.5; stroke-linejoin: miter"/>
   </g>
   <g id="patch_34">
    <path d="M 582.683438 191.42 
L 591.983438 191.42 
L 591.983438 157.200289 
L 582.683438 157.200289 
z
" clip-path="url(#pb584beda2a)" style="fill: #b5c8e1; stroke: #000000; stroke-width: 0.5; stroke-linejoin: miter"/>
   </g>
   <g id="patch_35">
    <path d="M 68.858437 191.42 
L 78.158437 191.42 
L 78.158437 127.730296 
L 68.858437 127.730296 
z
" clip-path="url(#pb584beda2a)" style="fill: #e1812c; stroke: #000000; stroke-width: 0.5; stroke-linejoin: miter"/>
   </g>
   <g id="patch_36">
    <path d="M 103.733438 191.42 
L 113.033438 191.42 
L 113.033438 150.794132 
L 103.733438 150.794132 
z
" clip-path="url(#pb584beda2a)" style="fill: #e1812c; stroke: #000000; stroke-width: 0.5; stroke-linejoin: miter"/>
   </g>
   <g id="patch_37">
    <path d="M 138.608438 191.42 
L 147.908437 191.42 
L 147.908437 162.166955 
L 138.608438 162.166955 
z
" clip-path="url(#pb584beda2a)" style="fill: #e1812c; stroke: #000000; stroke-width: 0.5; stroke-linejoin: miter"/>
   </g>
   <g id="patch_38">
    <path d="M 173.483438 191.42 
L 182.783437 191.42 
L 182.783437 131.45061 
L 173.483438 131.45061 
z
" clip-path="url(#pb584beda2a)" style="fill: #e1812c; stroke: #000000; stroke-width: 0.5; stroke-linejoin: miter"/>
   </g>
   <g id="patch_39">
    <path d="M 208.358437 191.42 
L 217.658438 191.42 
L 217.658438 152.622721 
L 208.358437 152.622721 
z
" clip-path="url(#pb584beda2a)" style="fill: #e1812c; stroke: #000000; stroke-width: 0.5; stroke-linejoin: miter"/>
   </g>
   <g id="patch_40">
    <path d="M 243.233437 191.42 
L 252.533438 191.42 
L 252.533438 157.66561 
L 243.233437 157.66561 
z
" clip-path="url(#pb584beda2a)" style="fill: #e1812c; stroke: #000000; stroke-width: 0.5; stroke-linejoin: miter"/>
   </g>
   <g id="patch_41">
    <path d="M 278.108437 191.42 
L 287.408437 191.42 
L 287.408437 136.713007 
L 278.108437 136.713007 
z
" clip-path="url(#pb584beda2a)" style="fill: #e1812c; stroke: #000000; stroke-width: 0.5; stroke-linejoin: miter"/>
   </g>
   <g id="patch_42">
    <path d="M 312.983437 191.42 
L 322.283437 191.42 
L 322.283437 152.771267 
L 312.983437 152.771267 
z
" clip-path="url(#pb584beda2a)" style="fill: #e1812c; stroke: #000000; stroke-width: 0.5; stroke-linejoin: miter"/>
   </g>
   <g id="patch_43">
    <path d="M 347.858437 191.42 
L 357.158437 191.42 
L 357.158437 129.460005 
L 347.858437 129.460005 
z
" clip-path="url(#pb584beda2a)" style="fill: #e1812c; stroke: #000000; stroke-width: 0.5; stroke-linejoin: miter"/>
   </g>
   <g id="patch_44">
    <path d="M 382.733437 191.42 
L 392.033437 191.42 
L 392.033437 136.233036 
L 382.733437 136.233036 
z
" clip-path="url(#pb584beda2a)" style="fill: #e1812c; stroke: #000000; stroke-width: 0.5; stroke-linejoin: miter"/>
   </g>
   <g id="patch_45">
    <path d="M 417.608437 191.42 
L 426.908437 191.42 
L 426.908437 140.842174 
L 417.608437 140.842174 
z
" clip-path="url(#pb584beda2a)" style="fill: #e1812c; stroke: #000000; stroke-width: 0.5; stroke-linejoin: miter"/>
   </g>
   <g id="patch_46">
    <path d="M 452.483437 191.42 
L 461.783437 191.42 
L 461.783437 132.302731 
L 452.483437 132.302731 
z
" clip-path="url(#pb584beda2a)" style="fill: #e1812c; stroke: #000000; stroke-width: 0.5; stroke-linejoin: miter"/>
   </g>
   <g id="patch_47">
    <path d="M 487.358437 191.42 
L 496.658437 191.42 
L 496.658437 137.491918 
L 487.358437 137.491918 
z
" clip-path="url(#pb584beda2a)" style="fill: #e1812c; stroke: #000000; stroke-width: 0.5; stroke-linejoin: miter"/>
   </g>
   <g id="patch_48">
    <path d="M 522.233438 191.42 
L 531.533437 191.42 
L 531.533437 139.862711 
L 522.233438 139.862711 
z
" clip-path="url(#pb584beda2a)" style="fill: #e1812c; stroke: #000000; stroke-width: 0.5; stroke-linejoin: miter"/>
   </g>
   <g id="patch_49">
    <path d="M 557.108438 191.42 
L 566.408437 191.42 
L 566.408437 137.124165 
L 557.108438 137.124165 
z
" clip-path="url(#pb584beda2a)" style="fill: #e1812c; stroke: #000000; stroke-width: 0.5; stroke-linejoin: miter"/>
   </g>
   <g id="patch_50">
    <path d="M 591.983438 191.42 
L 601.283437 191.42 
L 601.283437 146.50135 
L 591.983438 146.50135 
z
" clip-path="url(#pb584beda2a)" style="fill: #e1812c; stroke: #000000; stroke-width: 0.5; stroke-linejoin: miter"/>
   </g>
   <g id="patch_51">
    <path d="M 64.208438 191.42 
L 64.208438 191.42 
L 64.208438 191.42 
L 64.208438 191.42 
z
" clip-path="url(#pb584beda2a)" style="fill: #3274a1; stroke: #000000; stroke-width: 0.5; stroke-linejoin: miter"/>
   </g>
   <g id="patch_52">
    <path d="M 64.208438 191.42 
L 64.208438 191.42 
L 64.208438 191.42 
L 64.208438 191.42 
z
" clip-path="url(#pb584beda2a)" style="fill: #b5c8e1; stroke: #000000; stroke-width: 0.5; stroke-linejoin: miter"/>
   </g>
   <g id="patch_53">
    <path d="M 64.208438 191.42 
L 64.208438 191.42 
L 64.208438 191.42 
L 64.208438 191.42 
z
" clip-path="url(#pb584beda2a)" style="fill: #e1812c; stroke: #000000; stroke-width: 0.5; stroke-linejoin: miter"/>
   </g>
   <g id="line2d_31">
    <path d="M 53.164687 145.774771 
L 56.652187 145.774771 
M 54.908437 145.774771 
L 54.908437 116.983159 
M 53.164687 116.983159 
L 56.652187 116.983159 
" clip-path="url(#pb584beda2a)" style="fill: none; stroke: #424242; stroke-width: 0.75; stroke-linecap: square"/>
   </g>
   <g id="line2d_32">
    <path d="M 88.039687 152.069536 
L 91.527187 152.069536 
M 89.783438 152.069536 
L 89.783438 114.317598 
M 88.039687 114.317598 
L 91.527187 114.317598 
" clip-path="url(#pb584beda2a)" style="fill: none; stroke: #424242; stroke-width: 0.75; stroke-linecap: square"/>
   </g>
   <g id="line2d_33">
    <path d="M 122.914687 166.884644 
L 126.402187 166.884644 
M 124.658438 166.884644 
L 124.658438 146.005576 
M 122.914687 146.005576 
L 126.402187 146.005576 
" clip-path="url(#pb584beda2a)" style="fill: none; stroke: #424242; stroke-width: 0.75; stroke-linecap: square"/>
   </g>
   <g id="line2d_34">
    <path d="M 157.789688 129.820925 
L 161.277187 129.820925 
M 159.533437 129.820925 
L 159.533437 103.462483 
M 157.789688 103.462483 
L 161.277187 103.462483 
" clip-path="url(#pb584beda2a)" style="fill: none; stroke: #424242; stroke-width: 0.75; stroke-linecap: square"/>
   </g>
   <g id="line2d_35">
    <path d="M 192.664688 138.749599 
L 196.152187 138.749599 
M 194.408437 138.749599 
L 194.408437 114.163752 
M 192.664688 114.163752 
L 196.152187 114.163752 
" clip-path="url(#pb584beda2a)" style="fill: none; stroke: #424242; stroke-width: 0.75; stroke-linecap: square"/>
   </g>
   <g id="line2d_36">
    <path d="M 227.539688 111.076069 
L 231.027187 111.076069 
M 229.283437 111.076069 
L 229.283437 43.688744 
M 227.539688 43.688744 
L 231.027187 43.688744 
" clip-path="url(#pb584beda2a)" style="fill: none; stroke: #424242; stroke-width: 0.75; stroke-linecap: square"/>
   </g>
   <g id="line2d_37">
    <path d="M 262.414688 152.416405 
L 265.902187 152.416405 
M 264.158437 152.416405 
L 264.158437 125.059594 
M 262.414688 125.059594 
L 265.902187 125.059594 
" clip-path="url(#pb584beda2a)" style="fill: none; stroke: #424242; stroke-width: 0.75; stroke-linecap: square"/>
   </g>
   <g id="line2d_38">
    <path d="M 297.289688 162.74767 
L 300.777187 162.74767 
M 299.033437 162.74767 
L 299.033437 145.133883 
M 297.289688 145.133883 
L 300.777187 145.133883 
" clip-path="url(#pb584beda2a)" style="fill: none; stroke: #424242; stroke-width: 0.75; stroke-linecap: square"/>
   </g>
   <g id="line2d_39">
    <path d="M 332.164688 108.854831 
L 335.652188 108.854831 
M 333.908437 108.854831 
L 333.908437 57.531765 
M 332.164688 57.531765 
L 335.652188 57.531765 
" clip-path="url(#pb584beda2a)" style="fill: none; stroke: #424242; stroke-width: 0.75; stroke-linecap: square"/>
   </g>
   <g id="line2d_40">
    <path d="M 367.039687 142.869992 
L 370.527188 142.869992 
M 368.783437 142.869992 
L 368.783437 94.960901 
M 367.039687 94.960901 
L 370.527188 94.960901 
" clip-path="url(#pb584beda2a)" style="fill: none; stroke: #424242; stroke-width: 0.75; stroke-linecap: square"/>
   </g>
   <g id="line2d_41">
    <path d="M 401.914687 120.415809 
L 405.402188 120.415809 
M 403.658437 120.415809 
L 403.658437 82.286288 
M 401.914687 82.286288 
L 405.402188 82.286288 
" clip-path="url(#pb584beda2a)" style="fill: none; stroke: #424242; stroke-width: 0.75; stroke-linecap: square"/>
   </g>
   <g id="line2d_42">
    <path d="M 436.789687 122.732828 
L 440.277188 122.732828 
M 438.533437 122.732828 
L 438.533437 89.238798 
M 436.789687 89.238798 
L 440.277188 89.238798 
" clip-path="url(#pb584beda2a)" style="fill: none; stroke: #424242; stroke-width: 0.75; stroke-linecap: square"/>
   </g>
   <g id="line2d_43">
    <path d="M 471.664687 97.919608 
L 475.152188 97.919608 
M 473.408437 97.919608 
L 473.408437 33.02 
M 471.664687 33.02 
L 475.152188 33.02 
" clip-path="url(#pb584beda2a)" style="fill: none; stroke: #424242; stroke-width: 0.75; stroke-linecap: square"/>
   </g>
   <g id="line2d_44">
    <path d="M 506.539687 151.69211 
L 510.027188 151.69211 
M 508.283437 151.69211 
L 508.283437 125.407887 
M 506.539687 125.407887 
L 510.027188 125.407887 
" clip-path="url(#pb584beda2a)" style="fill: none; stroke: #424242; stroke-width: 0.75; stroke-linecap: square"/>
   </g>
   <g id="line2d_45">
    <path d="M 541.414687 139.255241 
L 544.902188 139.255241 
M 543.158437 139.255241 
L 543.158437 102.174712 
M 541.414687 102.174712 
L 544.902188 102.174712 
" clip-path="url(#pb584beda2a)" style="fill: none; stroke: #424242; stroke-width: 0.75; stroke-linecap: square"/>
   </g>
   <g id="line2d_46">
    <path d="M 576.289687 153.605071 
L 579.777188 153.605071 
M 578.033437 153.605071 
L 578.033437 130.5501 
M 576.289687 130.5501 
L 579.777188 130.5501 
" clip-path="url(#pb584beda2a)" style="fill: none; stroke: #424242; stroke-width: 0.75; stroke-linecap: square"/>
   </g>
   <g id="line2d_47">
    <path d="M 62.464688 155.560836 
L 65.952188 155.560836 
M 64.208438 155.560836 
L 64.208438 138.749073 
M 62.464688 138.749073 
L 65.952188 138.749073 
" clip-path="url(#pb584beda2a)" style="fill: none; stroke: #424242; stroke-width: 0.75; stroke-linecap: square"/>
   </g>
   <g id="line2d_48">
    <path d="M 97.339687 154.161339 
L 100.827188 154.161339 
M 99.083438 154.161339 
L 99.083438 127.777249 
M 97.339687 127.777249 
L 100.827188 127.777249 
" clip-path="url(#pb584beda2a)" style="fill: none; stroke: #424242; stroke-width: 0.75; stroke-linecap: square"/>
   </g>
   <g id="line2d_49">
    <path d="M 132.214687 163.176981 
L 135.702187 163.176981 
M 133.958438 163.176981 
L 133.958438 136.23282 
M 132.214687 136.23282 
L 135.702187 136.23282 
" clip-path="url(#pb584beda2a)" style="fill: none; stroke: #424242; stroke-width: 0.75; stroke-linecap: square"/>
   </g>
   <g id="line2d_50">
    <path d="M 167.089688 135.907378 
L 170.577187 135.907378 
M 168.833438 135.907378 
L 168.833438 113.682801 
M 167.089688 113.682801 
L 170.577187 113.682801 
" clip-path="url(#pb584beda2a)" style="fill: none; stroke: #424242; stroke-width: 0.75; stroke-linecap: square"/>
   </g>
   <g id="line2d_51">
    <path d="M 201.964687 161.796433 
L 205.452188 161.796433 
M 203.708438 161.796433 
L 203.708438 141.859378 
M 201.964687 141.859378 
L 205.452188 141.859378 
" clip-path="url(#pb584beda2a)" style="fill: none; stroke: #424242; stroke-width: 0.75; stroke-linecap: square"/>
   </g>
   <g id="line2d_52">
    <path d="M 236.839687 133.778289 
L 240.327188 133.778289 
M 238.583438 133.778289 
L 238.583438 91.534948 
M 236.839687 91.534948 
L 240.327188 91.534948 
" clip-path="url(#pb584beda2a)" style="fill: none; stroke: #424242; stroke-width: 0.75; stroke-linecap: square"/>
   </g>
   <g id="line2d_53">
    <path d="M 271.714687 148.69692 
L 275.202188 148.69692 
M 273.458438 148.69692 
L 273.458438 119.322525 
M 271.714687 119.322525 
L 275.202188 119.322525 
" clip-path="url(#pb584beda2a)" style="fill: none; stroke: #424242; stroke-width: 0.75; stroke-linecap: square"/>
   </g>
   <g id="line2d_54">
    <path d="M 306.589687 154.980259 
L 310.077188 154.980259 
M 308.333438 154.980259 
L 308.333438 127.549974 
M 306.589687 127.549974 
L 310.077188 127.549974 
" clip-path="url(#pb584beda2a)" style="fill: none; stroke: #424242; stroke-width: 0.75; stroke-linecap: square"/>
   </g>
   <g id="line2d_55">
    <path d="M 341.464688 139.747566 
L 344.952188 139.747566 
M 343.208438 139.747566 
L 343.208438 114.039768 
M 341.464688 114.039768 
L 344.952188 114.039768 
" clip-path="url(#pb584beda2a)" style="fill: none; stroke: #424242; stroke-width: 0.75; stroke-linecap: square"/>
   </g>
   <g id="line2d_56">
    <path d="M 376.339687 139.839482 
L 379.827188 139.839482 
M 378.083438 139.839482 
L 378.083438 95.0336 
M 376.339687 95.0336 
L 379.827188 95.0336 
" clip-path="url(#pb584beda2a)" style="fill: none; stroke: #424242; stroke-width: 0.75; stroke-linecap: square"/>
   </g>
   <g id="line2d_57">
    <path d="M 411.214687 151.334454 
L 414.702188 151.334454 
M 412.958438 151.334454 
L 412.958438 134.756708 
M 411.214687 134.756708 
L 414.702188 134.756708 
" clip-path="url(#pb584beda2a)" style="fill: none; stroke: #424242; stroke-width: 0.75; stroke-linecap: square"/>
   </g>
   <g id="line2d_58">
    <path d="M 446.089687 115.439233 
L 449.577188 115.439233 
M 447.833438 115.439233 
L 447.833438 85.695877 
M 446.089687 85.695877 
L 449.577188 85.695877 
" clip-path="url(#pb584beda2a)" style="fill: none; stroke: #424242; stroke-width: 0.75; stroke-linecap: square"/>
   </g>
   <g id="line2d_59">
    <path d="M 480.964687 109.776965 
L 484.452188 109.776965 
M 482.708438 109.776965 
L 482.708438 67.165424 
M 480.964687 67.165424 
L 484.452188 67.165424 
" clip-path="url(#pb584beda2a)" style="fill: none; stroke: #424242; stroke-width: 0.75; stroke-linecap: square"/>
   </g>
   <g id="line2d_60">
    <path d="M 515.839687 147.985012 
L 519.327188 147.985012 
M 517.583437 147.985012 
L 517.583437 127.877753 
M 515.839687 127.877753 
L 519.327188 127.877753 
" clip-path="url(#pb584beda2a)" style="fill: none; stroke: #424242; stroke-width: 0.75; stroke-linecap: square"/>
   </g>
   <g id="line2d_61">
    <path d="M 550.714687 141.878474 
L 554.202188 141.878474 
M 552.458437 141.878474 
L 552.458437 118.021056 
M 550.714687 118.021056 
L 554.202188 118.021056 
" clip-path="url(#pb584beda2a)" style="fill: none; stroke: #424242; stroke-width: 0.75; stroke-linecap: square"/>
   </g>
   <g id="line2d_62">
    <path d="M 585.589688 164.574321 
L 589.077188 164.574321 
M 587.333437 164.574321 
L 587.333437 149.12273 
M 585.589688 149.12273 
L 589.077188 149.12273 
" clip-path="url(#pb584beda2a)" style="fill: none; stroke: #424242; stroke-width: 0.75; stroke-linecap: square"/>
   </g>
   <g id="line2d_63">
    <path d="M 71.764688 140.994326 
L 75.252188 140.994326 
M 73.508437 140.994326 
L 73.508437 114.316345 
M 71.764688 114.316345 
L 75.252188 114.316345 
" clip-path="url(#pb584beda2a)" style="fill: none; stroke: #424242; stroke-width: 0.75; stroke-linecap: square"/>
   </g>
   <g id="line2d_64">
    <path d="M 106.639688 168.491737 
L 110.127188 168.491737 
M 108.383437 168.491737 
L 108.383437 124.961715 
M 106.639688 124.961715 
L 110.127188 124.961715 
" clip-path="url(#pb584beda2a)" style="fill: none; stroke: #424242; stroke-width: 0.75; stroke-linecap: square"/>
   </g>
   <g id="line2d_65">
    <path d="M 141.514688 169.016318 
L 145.002187 169.016318 
M 143.258438 169.016318 
L 143.258438 155.871242 
M 141.514688 155.871242 
L 145.002187 155.871242 
" clip-path="url(#pb584beda2a)" style="fill: none; stroke: #424242; stroke-width: 0.75; stroke-linecap: square"/>
   </g>
   <g id="line2d_66">
    <path d="M 176.389688 140.69599 
L 179.877187 140.69599 
M 178.133438 140.69599 
L 178.133438 122.438412 
M 176.389688 122.438412 
L 179.877187 122.438412 
" clip-path="url(#pb584beda2a)" style="fill: none; stroke: #424242; stroke-width: 0.75; stroke-linecap: square"/>
   </g>
   <g id="line2d_67">
    <path d="M 211.264688 160.578901 
L 214.752187 160.578901 
M 213.008438 160.578901 
L 213.008438 144.101746 
M 211.264688 144.101746 
L 214.752187 144.101746 
" clip-path="url(#pb584beda2a)" style="fill: none; stroke: #424242; stroke-width: 0.75; stroke-linecap: square"/>
   </g>
   <g id="line2d_68">
    <path d="M 246.139688 163.504533 
L 249.627187 163.504533 
M 247.883438 163.504533 
L 247.883438 151.320719 
M 246.139688 151.320719 
L 249.627187 151.320719 
" clip-path="url(#pb584beda2a)" style="fill: none; stroke: #424242; stroke-width: 0.75; stroke-linecap: square"/>
   </g>
   <g id="line2d_69">
    <path d="M 281.014688 154.099556 
L 284.502187 154.099556 
M 282.758438 154.099556 
L 282.758438 116.705407 
M 281.014688 116.705407 
L 284.502187 116.705407 
" clip-path="url(#pb584beda2a)" style="fill: none; stroke: #424242; stroke-width: 0.75; stroke-linecap: square"/>
   </g>
   <g id="line2d_70">
    <path d="M 315.889688 163.066371 
L 319.377187 163.066371 
M 317.633438 163.066371 
L 317.633438 141.244158 
M 315.889688 141.244158 
L 319.377187 141.244158 
" clip-path="url(#pb584beda2a)" style="fill: none; stroke: #424242; stroke-width: 0.75; stroke-linecap: square"/>
   </g>
   <g id="line2d_71">
    <path d="M 350.764687 142.488074 
L 354.252187 142.488074 
M 352.508437 142.488074 
L 352.508437 115.818857 
M 350.764687 115.818857 
L 354.252187 115.818857 
" clip-path="url(#pb584beda2a)" style="fill: none; stroke: #424242; stroke-width: 0.75; stroke-linecap: square"/>
   </g>
   <g id="line2d_72">
    <path d="M 385.639687 146.653609 
L 389.127187 146.653609 
M 387.383437 146.653609 
L 387.383437 124.227181 
M 385.639687 124.227181 
L 389.127187 124.227181 
" clip-path="url(#pb584beda2a)" style="fill: none; stroke: #424242; stroke-width: 0.75; stroke-linecap: square"/>
   </g>
   <g id="line2d_73">
    <path d="M 420.514687 151.83137 
L 424.002187 151.83137 
M 422.258437 151.83137 
L 422.258437 128.672348 
M 420.514687 128.672348 
L 424.002187 128.672348 
" clip-path="url(#pb584beda2a)" style="fill: none; stroke: #424242; stroke-width: 0.75; stroke-linecap: square"/>
   </g>
   <g id="line2d_74">
    <path d="M 455.389687 142.876468 
L 458.877187 142.876468 
M 457.133437 142.876468 
L 457.133437 121.621935 
M 455.389687 121.621935 
L 458.877187 121.621935 
" clip-path="url(#pb584beda2a)" style="fill: none; stroke: #424242; stroke-width: 0.75; stroke-linecap: square"/>
   </g>
   <g id="line2d_75">
    <path d="M 490.264687 149.321888 
L 493.752187 149.321888 
M 492.008437 149.321888 
L 492.008437 125.46353 
M 490.264687 125.46353 
L 493.752187 125.46353 
" clip-path="url(#pb584beda2a)" style="fill: none; stroke: #424242; stroke-width: 0.75; stroke-linecap: square"/>
   </g>
   <g id="line2d_76">
    <path d="M 525.139687 146.932833 
L 528.627187 146.932833 
M 526.883437 146.932833 
L 526.883437 131.67727 
M 525.139687 131.67727 
L 528.627187 131.67727 
" clip-path="url(#pb584beda2a)" style="fill: none; stroke: #424242; stroke-width: 0.75; stroke-linecap: square"/>
   </g>
   <g id="line2d_77">
    <path d="M 560.014687 148.105039 
L 563.502187 148.105039 
M 561.758437 148.105039 
L 561.758437 126.560626 
M 560.014687 126.560626 
L 563.502187 126.560626 
" clip-path="url(#pb584beda2a)" style="fill: none; stroke: #424242; stroke-width: 0.75; stroke-linecap: square"/>
   </g>
   <g id="line2d_78">
    <path d="M 594.889688 156.265961 
L 598.377187 156.265961 
M 596.633437 156.265961 
L 596.633437 135.661494 
M 594.889688 135.661494 
L 598.377187 135.661494 
" clip-path="url(#pb584beda2a)" style="fill: none; stroke: #424242; stroke-width: 0.75; stroke-linecap: square"/>
   </g>
   <g id="patch_54">
    <path d="M 46.770938 191.42 
L 46.770938 25.1 
" style="fill: none; stroke: #000000; stroke-width: 0.8; stroke-linejoin: miter; stroke-linecap: square"/>
   </g>
   <g id="patch_55">
    <path d="M 46.770938 191.42 
L 604.770937 191.42 
" style="fill: none; stroke: #000000; stroke-width: 0.8; stroke-linejoin: miter; stroke-linecap: square"/>
   </g>
   <g id="text_25">
    <!-- $\Delta\Delta G_{bind}$ Absolute Deviation per System (kcal/mol) -->
    <g transform="translate(150.840937 19.1) scale(0.14 -0.14)">
     <defs>
      <path id="DejaVuSans-Oblique-62" d="M 3169 2138 
Q 3169 2591 2961 2847 
Q 2753 3103 2388 3103 
Q 2122 3103 1889 2973 
Q 1656 2844 1484 2597 
Q 1303 2338 1198 1995 
Q 1094 1653 1094 1313 
Q 1094 881 1298 636 
Q 1503 391 1863 391 
Q 2134 391 2365 517 
Q 2597 644 2772 891 
Q 2950 1147 3059 1487 
Q 3169 1828 3169 2138 
z
M 1381 2969 
Q 1594 3256 1914 3420 
Q 2234 3584 2584 3584 
Q 3122 3584 3439 3221 
Q 3756 2859 3756 2241 
Q 3756 1734 3570 1259 
Q 3384 784 3041 416 
Q 2816 172 2522 40 
Q 2228 -91 1906 -91 
Q 1566 -91 1316 65 
Q 1066 222 909 531 
L 806 0 
L 231 0 
L 1178 4863 
L 1753 4863 
L 1381 2969 
z
" transform="scale(0.015625)"/>
      <path id="DejaVuSans-Oblique-69" d="M 1172 4863 
L 1747 4863 
L 1606 4134 
L 1031 4134 
L 1172 4863 
z
M 909 3500 
L 1484 3500 
L 800 0 
L 225 0 
L 909 3500 
z
" transform="scale(0.015625)"/>
      <path id="DejaVuSans-Oblique-6e" d="M 3566 2113 
L 3156 0 
L 2578 0 
L 2988 2091 
Q 3016 2238 3031 2350 
Q 3047 2463 3047 2528 
Q 3047 2791 2881 2937 
Q 2716 3084 2419 3084 
Q 1956 3084 1622 2776 
Q 1288 2469 1184 1941 
L 800 0 
L 225 0 
L 903 3500 
L 1478 3500 
L 1363 2950 
Q 1603 3253 1940 3418 
Q 2278 3584 2650 3584 
Q 3113 3584 3367 3334 
Q 3622 3084 3622 2631 
Q 3622 2519 3608 2391 
Q 3594 2263 3566 2113 
z
" transform="scale(0.015625)"/>
      <path id="DejaVuSans-Oblique-64" d="M 2675 525 
Q 2444 222 2128 65 
Q 1813 -91 1428 -91 
Q 903 -91 598 267 
Q 294 625 294 1247 
Q 294 1766 478 2236 
Q 663 2706 1013 3078 
Q 1244 3325 1534 3454 
Q 1825 3584 2144 3584 
Q 2481 3584 2739 3421 
Q 2997 3259 3138 2956 
L 3513 4863 
L 4091 4863 
L 3144 0 
L 2566 0 
L 2675 525 
z
M 891 1350 
Q 891 897 1095 644 
Q 1300 391 1663 391 
Q 1931 391 2161 520 
Q 2391 650 2566 903 
Q 2750 1166 2856 1509 
Q 2963 1853 2963 2188 
Q 2963 2622 2758 2865 
Q 2553 3109 2194 3109 
Q 1922 3109 1687 2981 
Q 1453 2853 1288 2613 
Q 1106 2353 998 2009 
Q 891 1666 891 1350 
z
" transform="scale(0.015625)"/>
      <path id="Montserrat-Medium-20" transform="scale(0.015625)"/>
      <path id="Montserrat-Medium-41" d="M -6 0 
L 2022 4480 
L 2656 4480 
L 4691 0 
L 4019 0 
L 2208 4122 
L 2464 4122 
L 653 0 
L -6 0 
z
M 858 1120 
L 1030 1632 
L 3552 1632 
L 3738 1120 
L 858 1120 
z
" transform="scale(0.015625)"/>
      <path id="Montserrat-Medium-75" d="M 2010 -38 
Q 1574 -38 1244 122 
Q 915 282 732 611 
Q 550 941 550 1440 
L 550 3392 
L 1165 3392 
L 1165 1510 
Q 1165 1011 1405 761 
Q 1645 512 2080 512 
Q 2400 512 2637 643 
Q 2874 774 3002 1027 
Q 3130 1280 3130 1638 
L 3130 3392 
L 3744 3392 
L 3744 0 
L 3162 0 
L 3162 915 
L 3258 672 
Q 3091 333 2758 147 
Q 2426 -38 2010 -38 
z
" transform="scale(0.015625)"/>
      <path id="Montserrat-Medium-44" d="M 672 0 
L 672 4480 
L 2560 4480 
Q 3277 4480 3824 4198 
Q 4371 3917 4675 3411 
Q 4979 2906 4979 2240 
Q 4979 1574 4675 1068 
Q 4371 563 3824 281 
Q 3277 0 2560 0 
L 672 0 
z
M 1312 557 
L 2522 557 
Q 3078 557 3484 768 
Q 3891 979 4115 1360 
Q 4339 1741 4339 2240 
Q 4339 2746 4115 3123 
Q 3891 3501 3484 3712 
Q 3078 3923 2522 3923 
L 1312 3923 
L 1312 557 
z
" transform="scale(0.015625)"/>
      <path id="Montserrat-Medium-76" d="M 1472 0 
L -13 3392 
L 627 3392 
L 1946 320 
L 1638 320 
L 2982 3392 
L 3584 3392 
L 2099 0 
L 1472 0 
z
" transform="scale(0.015625)"/>
      <path id="Montserrat-Medium-53" d="M 1978 -51 
Q 1466 -51 998 105 
Q 531 262 262 512 
L 499 1011 
Q 755 787 1152 640 
Q 1549 493 1978 493 
Q 2368 493 2611 582 
Q 2854 672 2969 829 
Q 3085 986 3085 1184 
Q 3085 1414 2934 1555 
Q 2784 1696 2544 1782 
Q 2304 1869 2016 1933 
Q 1728 1997 1437 2083 
Q 1146 2170 906 2304 
Q 666 2438 518 2665 
Q 371 2893 371 3251 
Q 371 3597 553 3888 
Q 736 4179 1117 4355 
Q 1498 4531 2086 4531 
Q 2477 4531 2861 4428 
Q 3245 4326 3526 4134 
L 3315 3622 
Q 3027 3814 2707 3900 
Q 2387 3987 2086 3987 
Q 1709 3987 1465 3891 
Q 1222 3795 1110 3635 
Q 998 3475 998 3277 
Q 998 3040 1148 2899 
Q 1299 2758 1539 2675 
Q 1779 2592 2067 2525 
Q 2355 2458 2646 2374 
Q 2938 2291 3178 2156 
Q 3418 2022 3565 1798 
Q 3712 1574 3712 1222 
Q 3712 883 3526 592 
Q 3341 301 2953 125 
Q 2566 -51 1978 -51 
z
" transform="scale(0.015625)"/>
      <path id="Montserrat-Medium-28" d="M 1370 -1242 
Q 1005 -659 806 105 
Q 608 870 608 1754 
Q 608 2637 806 3408 
Q 1005 4179 1370 4749 
L 1952 4749 
Q 1568 4070 1389 3331 
Q 1210 2592 1210 1754 
Q 1210 915 1389 176 
Q 1568 -563 1952 -1242 
L 1370 -1242 
z
" transform="scale(0.015625)"/>
      <path id="Montserrat-Medium-2f" d="M -179 -640 
L 1933 5389 
L 2490 5389 
L 378 -640 
L -179 -640 
z
" transform="scale(0.015625)"/>
      <path id="Montserrat-Medium-29" d="M 205 -1242 
Q 595 -563 774 176 
Q 954 915 954 1754 
Q 954 2592 774 3331 
Q 595 4070 205 4749 
L 787 4749 
Q 1165 4179 1360 3408 
Q 1555 2637 1555 1754 
Q 1555 870 1360 105 
Q 1165 -659 787 -1242 
L 205 -1242 
z
" transform="scale(0.015625)"/>
     </defs>
     <use xlink:href="#DejaVuSans-394" transform="translate(0 0.796875)"/>
     <use xlink:href="#DejaVuSans-394" transform="translate(68.408203 0.796875)"/>
     <use xlink:href="#DejaVuSans-Oblique-47" transform="translate(136.816406 0.796875)"/>
     <use xlink:href="#DejaVuSans-Oblique-62" transform="translate(214.306641 -15.609375) scale(0.7)"/>
     <use xlink:href="#DejaVuSans-Oblique-69" transform="translate(258.740234 -15.609375) scale(0.7)"/>
     <use xlink:href="#DejaVuSans-Oblique-6e" transform="translate(278.188477 -15.609375) scale(0.7)"/>
     <use xlink:href="#DejaVuSans-Oblique-64" transform="translate(322.553711 -15.609375) scale(0.7)"/>
     <use xlink:href="#Montserrat-Medium-20" transform="translate(369.72168 0.796875)"/>
     <use xlink:href="#Montserrat-Medium-41" transform="translate(396.621674 0.796875)"/>
     <use xlink:href="#Montserrat-Medium-62" transform="translate(469.821655 0.796875)"/>
     <use xlink:href="#Montserrat-Medium-73" transform="translate(538.021637 0.796875)"/>
     <use xlink:href="#Montserrat-Medium-6f" transform="translate(588.121628 0.796875)"/>
     <use xlink:href="#Montserrat-Medium-6c" transform="translate(651.621613 0.796875)"/>
     <use xlink:href="#Montserrat-Medium-75" transform="translate(679.521606 0.796875)"/>
     <use xlink:href="#Montserrat-Medium-74" transform="translate(747.221588 0.796875)"/>
     <use xlink:href="#Montserrat-Medium-65" transform="translate(788.621582 0.796875)"/>
     <use xlink:href="#Montserrat-Medium-20" transform="translate(849.821579 0.796875)"/>
     <use xlink:href="#Montserrat-Medium-44" transform="translate(876.721573 0.796875)"/>
     <use xlink:href="#Montserrat-Medium-65" transform="translate(959.321564 0.796875)"/>
     <use xlink:href="#Montserrat-Medium-76" transform="translate(1020.521561 0.796875)"/>
     <use xlink:href="#Montserrat-Medium-69" transform="translate(1076.421555 0.796875)"/>
     <use xlink:href="#Montserrat-Medium-61" transform="translate(1104.321548 0.796875)"/>
     <use xlink:href="#Montserrat-Medium-74" transform="translate(1164.121536 0.796875)"/>
     <use xlink:href="#Montserrat-Medium-69" transform="translate(1205.52153 0.796875)"/>
     <use xlink:href="#Montserrat-Medium-6f" transform="translate(1233.421524 0.796875)"/>
     <use xlink:href="#Montserrat-Medium-6e" transform="translate(1296.921509 0.796875)"/>
     <use xlink:href="#Montserrat-Medium-20" transform="translate(1365.0215 0.796875)"/>
     <use xlink:href="#Montserrat-Medium-70" transform="translate(1391.921494 0.796875)"/>
     <use xlink:href="#Montserrat-Medium-65" transform="translate(1460.121475 0.796875)"/>
     <use xlink:href="#Montserrat-Medium-72" transform="translate(1521.321472 0.796875)"/>
     <use xlink:href="#Montserrat-Medium-20" transform="translate(1562.321457 0.796875)"/>
     <use xlink:href="#Montserrat-Medium-53" transform="translate(1589.221451 0.796875)"/>
     <use xlink:href="#Montserrat-Medium-79" transform="translate(1651.321442 0.796875)"/>
     <use xlink:href="#Montserrat-Medium-73" transform="translate(1707.221436 0.796875)"/>
     <use xlink:href="#Montserrat-Medium-74" transform="translate(1757.321426 0.796875)"/>
     <use xlink:href="#Montserrat-Medium-65" transform="translate(1798.72142 0.796875)"/>
     <use xlink:href="#Montserrat-Medium-6d" transform="translate(1859.921417 0.796875)"/>
     <use xlink:href="#Montserrat-Medium-20" transform="translate(1965.621399 0.796875)"/>
     <use xlink:href="#Montserrat-Medium-28" transform="translate(1992.521393 0.796875)"/>
     <use xlink:href="#Montserrat-Medium-6b" transform="translate(2026.22139 0.796875)"/>
     <use xlink:href="#Montserrat-Medium-63" transform="translate(2087.721375 0.796875)"/>
     <use xlink:href="#Montserrat-Medium-61" transform="translate(2144.821365 0.796875)"/>
     <use xlink:href="#Montserrat-Medium-6c" transform="translate(2204.621353 0.796875)"/>
     <use xlink:href="#Montserrat-Medium-2f" transform="translate(2232.521347 0.796875)"/>
     <use xlink:href="#Montserrat-Medium-6d" transform="translate(2267.721344 0.796875)"/>
     <use xlink:href="#Montserrat-Medium-6f" transform="translate(2373.421326 0.796875)"/>
     <use xlink:href="#Montserrat-Medium-6c" transform="translate(2436.92131 0.796875)"/>
     <use xlink:href="#Montserrat-Medium-29" transform="translate(2464.821304 0.796875)"/>
    </g>
   </g>
   <g id="legend_1">
    <g id="patch_56">
     <path d="M 55.770938 41.670312 
L 75.770938 41.670312 
L 75.770938 34.670312 
L 55.770938 34.670312 
z
" style="fill: #3274a1; stroke: #000000; stroke-width: 0.5; stroke-linejoin: miter"/>
    </g>
    <g id="text_26">
     <!-- QligFEPv2-Sage 2.2.1 -->
     <g transform="translate(83.770938 41.670312) scale(0.1 -0.1)">
      <defs>
       <path id="Montserrat-MediumItalic-51" d="M 2490 -51 
Q 1824 -51 1350 185 
Q 877 422 630 848 
Q 384 1274 384 1837 
Q 384 2394 576 2883 
Q 768 3373 1126 3744 
Q 1485 4115 1984 4323 
Q 2483 4531 3104 4531 
Q 3776 4531 4249 4294 
Q 4723 4058 4969 3632 
Q 5216 3206 5216 2643 
Q 5216 2086 5024 1596 
Q 4832 1107 4473 736 
Q 4115 365 3612 157 
Q 3110 -51 2490 -51 
z
M 3776 -934 
Q 3251 -934 2841 -668 
Q 2432 -403 2131 90 
L 2848 243 
Q 3027 -109 3257 -269 
Q 3488 -429 3795 -429 
Q 4026 -429 4240 -336 
Q 4454 -243 4621 -70 
L 4883 -461 
Q 4685 -704 4393 -819 
Q 4102 -934 3776 -934 
z
M 2547 518 
Q 3008 518 3385 681 
Q 3763 845 4025 1136 
Q 4288 1427 4429 1804 
Q 4570 2182 4570 2605 
Q 4570 3008 4397 3312 
Q 4224 3616 3885 3789 
Q 3546 3962 3053 3962 
Q 2586 3962 2211 3798 
Q 1837 3635 1571 3344 
Q 1306 3053 1165 2675 
Q 1024 2298 1024 1875 
Q 1024 1472 1200 1168 
Q 1376 864 1712 691 
Q 2048 518 2547 518 
z
" transform="scale(0.015625)"/>
       <path id="Montserrat-MediumItalic-6c" d="M 250 0 
L 1197 4749 
L 1811 4749 
L 864 0 
L 250 0 
z
" transform="scale(0.015625)"/>
       <path id="Montserrat-MediumItalic-69" d="M 250 0 
L 922 3392 
L 1536 3392 
L 864 0 
L 250 0 
z
M 1415 4045 
Q 1242 4045 1133 4153 
Q 1024 4262 1024 4416 
Q 1024 4595 1145 4720 
Q 1267 4845 1466 4845 
Q 1639 4845 1747 4739 
Q 1856 4634 1856 4486 
Q 1856 4288 1734 4166 
Q 1613 4045 1415 4045 
z
" transform="scale(0.015625)"/>
       <path id="Montserrat-MediumItalic-67" d="M 1555 -1280 
Q 1075 -1280 678 -1155 
Q 282 -1030 6 -800 
L 346 -326 
Q 544 -512 873 -624 
Q 1203 -736 1600 -736 
Q 2202 -736 2522 -464 
Q 2842 -192 2950 365 
L 3110 1152 
L 3302 1786 
L 3398 2464 
L 3584 3392 
L 4166 3392 
L 3584 461 
Q 3398 -461 2899 -870 
Q 2400 -1280 1555 -1280 
z
M 1773 141 
Q 1331 141 988 307 
Q 646 474 454 784 
Q 262 1094 262 1523 
Q 262 1933 406 2275 
Q 550 2618 806 2877 
Q 1062 3136 1417 3280 
Q 1773 3424 2195 3424 
Q 2579 3424 2896 3289 
Q 3213 3155 3401 2876 
Q 3590 2598 3590 2157 
Q 3597 1594 3379 1136 
Q 3162 678 2755 409 
Q 2349 141 1773 141 
z
M 1894 678 
Q 2285 678 2582 851 
Q 2880 1024 3053 1325 
Q 3226 1626 3226 2010 
Q 3226 2419 2960 2652 
Q 2694 2886 2214 2886 
Q 1824 2886 1526 2716 
Q 1229 2547 1056 2246 
Q 883 1946 883 1562 
Q 883 1146 1152 912 
Q 1421 678 1894 678 
z
" transform="scale(0.015625)"/>
       <path id="Montserrat-MediumItalic-46" d="M 1389 2362 
L 3693 2362 
L 3584 1811 
L 1274 1811 
L 1389 2362 
z
M 973 0 
L 333 0 
L 1229 4480 
L 4390 4480 
L 4282 3923 
L 1754 3923 
L 973 0 
z
" transform="scale(0.015625)"/>
       <path id="Montserrat-MediumItalic-45" d="M 1427 2547 
L 3731 2547 
L 3622 2003 
L 1318 2003 
L 1427 2547 
z
M 1082 557 
L 3699 557 
L 3590 0 
L 333 0 
L 1229 4480 
L 4390 4480 
L 4282 3923 
L 1754 3923 
L 1082 557 
z
" transform="scale(0.015625)"/>
       <path id="Montserrat-MediumItalic-50" d="M 333 0 
L 1229 4480 
L 2893 4480 
Q 3680 4480 4109 4134 
Q 4538 3789 4538 3168 
Q 4538 2598 4285 2192 
Q 4032 1786 3558 1571 
Q 3085 1357 2438 1357 
L 966 1357 
L 1306 1664 
L 973 0 
L 333 0 
z
M 1293 1594 
L 1069 1914 
L 2451 1914 
Q 3136 1914 3517 2218 
Q 3898 2522 3898 3110 
Q 3898 3514 3622 3718 
Q 3347 3923 2835 3923 
L 1485 3923 
L 1824 4250 
L 1293 1594 
z
" transform="scale(0.015625)"/>
       <path id="Montserrat-MediumItalic-76" d="M 1139 0 
L 326 3392 
L 941 3392 
L 1658 320 
L 1350 320 
L 3302 3392 
L 3923 3392 
L 1766 0 
L 1139 0 
z
" transform="scale(0.015625)"/>
       <path id="Montserrat-MediumItalic-32" d="M -102 0 
L -13 435 
L 2170 2182 
Q 2470 2426 2640 2618 
Q 2810 2810 2880 2979 
Q 2950 3149 2950 3328 
Q 2950 3622 2736 3798 
Q 2522 3974 2074 3974 
Q 1747 3974 1446 3846 
Q 1146 3718 915 3475 
L 486 3846 
Q 768 4160 1206 4345 
Q 1645 4531 2163 4531 
Q 2618 4531 2938 4387 
Q 3258 4243 3424 3993 
Q 3590 3744 3590 3411 
Q 3590 3155 3500 2908 
Q 3411 2662 3196 2403 
Q 2982 2144 2598 1837 
L 659 301 
L 512 557 
L 3226 557 
L 3117 0 
L -102 0 
z
" transform="scale(0.015625)"/>
       <path id="Montserrat-MediumItalic-2d" d="M 333 1491 
L 435 2022 
L 2157 2022 
L 2048 1491 
L 333 1491 
z
" transform="scale(0.015625)"/>
       <path id="Montserrat-MediumItalic-53" d="M 1715 -51 
Q 1376 -51 1053 22 
Q 730 96 464 217 
Q 198 339 38 493 
L 320 1005 
Q 493 851 726 736 
Q 960 621 1225 557 
Q 1491 493 1773 493 
Q 2131 493 2406 582 
Q 2682 672 2832 841 
Q 2982 1011 2982 1254 
Q 2982 1453 2854 1581 
Q 2726 1709 2524 1789 
Q 2323 1869 2076 1936 
Q 1830 2003 1584 2089 
Q 1338 2176 1136 2304 
Q 934 2432 809 2633 
Q 685 2835 685 3142 
Q 685 3571 921 3881 
Q 1158 4192 1577 4361 
Q 1997 4531 2547 4531 
Q 2963 4531 3340 4435 
Q 3718 4339 3987 4154 
L 3731 3629 
Q 3482 3808 3168 3897 
Q 2854 3987 2515 3987 
Q 2150 3987 1881 3891 
Q 1613 3795 1465 3619 
Q 1318 3443 1312 3206 
Q 1312 3002 1433 2874 
Q 1555 2746 1760 2662 
Q 1965 2579 2211 2505 
Q 2458 2432 2701 2352 
Q 2944 2272 3152 2147 
Q 3360 2022 3485 1830 
Q 3610 1638 3610 1344 
Q 3610 915 3370 598 
Q 3130 282 2704 115 
Q 2278 -51 1715 -51 
z
" transform="scale(0.015625)"/>
       <path id="Montserrat-MediumItalic-61" d="M 1741 -38 
Q 1312 -38 973 138 
Q 634 314 438 640 
Q 243 966 243 1427 
Q 243 1862 387 2227 
Q 531 2592 790 2861 
Q 1050 3130 1402 3277 
Q 1754 3424 2163 3424 
Q 2605 3424 2912 3270 
Q 3219 3117 3385 2819 
Q 3552 2522 3552 2093 
Q 3552 1466 3334 982 
Q 3117 499 2710 230 
Q 2304 -38 1741 -38 
z
M 1875 499 
Q 2259 499 2560 684 
Q 2861 870 3030 1193 
Q 3200 1517 3200 1933 
Q 3200 2381 2937 2633 
Q 2675 2886 2189 2886 
Q 1811 2886 1510 2704 
Q 1210 2522 1037 2198 
Q 864 1875 864 1453 
Q 864 1011 1126 755 
Q 1389 499 1875 499 
z
M 2854 0 
L 3034 877 
L 3238 1664 
L 3322 2470 
L 3501 3392 
L 4115 3392 
L 3443 0 
L 2854 0 
z
" transform="scale(0.015625)"/>
       <path id="Montserrat-MediumItalic-65" d="M 1869 -38 
Q 1370 -38 1005 144 
Q 640 326 441 656 
Q 243 986 243 1434 
Q 243 2010 492 2458 
Q 742 2906 1174 3165 
Q 1606 3424 2157 3424 
Q 2618 3424 2957 3248 
Q 3296 3072 3485 2745 
Q 3674 2419 3674 1958 
Q 3674 1843 3661 1724 
Q 3648 1606 3629 1504 
L 691 1504 
L 768 1952 
L 3334 1952 
L 3085 1798 
Q 3142 2157 3033 2403 
Q 2925 2650 2691 2781 
Q 2458 2912 2131 2912 
Q 1747 2912 1456 2729 
Q 1165 2547 1005 2224 
Q 845 1901 845 1466 
Q 845 1005 1110 752 
Q 1376 499 1920 499 
Q 2240 499 2515 604 
Q 2790 710 2970 890 
L 3232 448 
Q 2989 211 2624 86 
Q 2259 -38 1869 -38 
z
" transform="scale(0.015625)"/>
       <path id="Montserrat-MediumItalic-20" transform="scale(0.015625)"/>
       <path id="Montserrat-MediumItalic-2e" d="M 448 -38 
Q 275 -38 156 80 
Q 38 198 38 371 
Q 38 582 172 710 
Q 307 838 493 838 
Q 666 838 781 723 
Q 896 608 896 422 
Q 896 288 832 182 
Q 768 77 669 19 
Q 570 -38 448 -38 
z
" transform="scale(0.015625)"/>
       <path id="Montserrat-MediumItalic-31" d="M 723 0 
L 1562 4198 
L 1786 3923 
L 499 3923 
L 608 4480 
L 2253 4480 
L 1357 0 
L 723 0 
z
" transform="scale(0.015625)"/>
      </defs>
      <use xlink:href="#Montserrat-MediumItalic-51"/>
      <use xlink:href="#Montserrat-MediumItalic-6c" transform="translate(83.999985 0)"/>
      <use xlink:href="#Montserrat-MediumItalic-69" transform="translate(111.899979 0)"/>
      <use xlink:href="#Montserrat-MediumItalic-67" transform="translate(139.799973 0)"/>
      <use xlink:href="#Montserrat-MediumItalic-46" transform="translate(208.799957 0)"/>
      <use xlink:href="#Montserrat-MediumItalic-45" transform="translate(272.299942 0)"/>
      <use xlink:href="#Montserrat-MediumItalic-50" transform="translate(339.299927 0)"/>
      <use xlink:href="#Montserrat-MediumItalic-76" transform="translate(411.499908 0)"/>
      <use xlink:href="#Montserrat-MediumItalic-32" transform="translate(467.399902 0)"/>
      <use xlink:href="#Montserrat-MediumItalic-2d" transform="translate(524.799896 0)"/>
      <use xlink:href="#Montserrat-MediumItalic-53" transform="translate(563.099884 0)"/>
      <use xlink:href="#Montserrat-MediumItalic-61" transform="translate(625.199875 0)"/>
      <use xlink:href="#Montserrat-MediumItalic-67" transform="translate(693.399857 0)"/>
      <use xlink:href="#Montserrat-MediumItalic-65" transform="translate(762.399841 0)"/>
      <use xlink:href="#Montserrat-MediumItalic-20" transform="translate(823.499832 0)"/>
      <use xlink:href="#Montserrat-MediumItalic-32" transform="translate(850.399826 0)"/>
      <use xlink:href="#Montserrat-MediumItalic-2e" transform="translate(907.79982 0)"/>
      <use xlink:href="#Montserrat-MediumItalic-32" transform="translate(930.499817 0)"/>
      <use xlink:href="#Montserrat-MediumItalic-2e" transform="translate(987.899811 0)"/>
      <use xlink:href="#Montserrat-MediumItalic-31" transform="translate(1010.599808 0)"/>
     </g>
    </g>
    <g id="patch_57">
     <path d="M 55.770938 56.090625 
L 75.770938 56.090625 
L 75.770938 49.090625 
L 55.770938 49.090625 
z
" style="fill: #b5c8e1; stroke: #000000; stroke-width: 0.5; stroke-linejoin: miter"/>
    </g>
    <g id="text_27">
     <!-- PMX-Sage 2.0 -->
     <g transform="translate(83.770938 56.090625) scale(0.1 -0.1)">
      <defs>
       <path id="Montserrat-MediumItalic-4d" d="M 333 0 
L 1229 4480 
L 1747 4480 
L 3091 1088 
L 2816 1094 
L 5446 4480 
L 5997 4480 
L 5101 0 
L 4486 0 
L 5197 3533 
L 5357 3520 
L 3021 544 
L 2726 544 
L 1517 3533 
L 1651 3514 
L 947 0 
L 333 0 
z
" transform="scale(0.015625)"/>
       <path id="Montserrat-MediumItalic-58" d="M -250 0 
L 2074 2483 
L 2042 2125 
L 749 4480 
L 1421 4480 
L 2464 2566 
L 2182 2592 
L 3942 4480 
L 4672 4480 
L 2490 2138 
L 2509 2496 
L 3878 0 
L 3194 0 
L 2093 2035 
L 2374 2016 
L 518 0 
L -250 0 
z
" transform="scale(0.015625)"/>
       <path id="Montserrat-MediumItalic-30" d="M 1869 -51 
Q 1395 -51 1056 144 
Q 717 339 534 710 
Q 352 1082 352 1594 
Q 352 2176 512 2707 
Q 672 3238 966 3648 
Q 1261 4058 1680 4294 
Q 2099 4531 2618 4531 
Q 3091 4531 3427 4336 
Q 3763 4141 3945 3773 
Q 4128 3405 4128 2886 
Q 4128 2304 3968 1773 
Q 3808 1242 3513 832 
Q 3219 422 2803 185 
Q 2387 -51 1869 -51 
z
M 1920 518 
Q 2298 518 2589 736 
Q 2880 954 3081 1302 
Q 3283 1651 3385 2064 
Q 3488 2477 3488 2874 
Q 3488 3411 3245 3686 
Q 3002 3962 2566 3962 
Q 2189 3962 1894 3744 
Q 1600 3526 1398 3177 
Q 1197 2829 1094 2416 
Q 992 2003 992 1606 
Q 992 1075 1235 796 
Q 1478 518 1920 518 
z
" transform="scale(0.015625)"/>
      </defs>
      <use xlink:href="#Montserrat-MediumItalic-50"/>
      <use xlink:href="#Montserrat-MediumItalic-4d" transform="translate(72.199982 0)"/>
      <use xlink:href="#Montserrat-MediumItalic-58" transform="translate(167.699966 0)"/>
      <use xlink:href="#Montserrat-MediumItalic-2d" transform="translate(234.999954 0)"/>
      <use xlink:href="#Montserrat-MediumItalic-53" transform="translate(273.299942 0)"/>
      <use xlink:href="#Montserrat-MediumItalic-61" transform="translate(335.399933 0)"/>
      <use xlink:href="#Montserrat-MediumItalic-67" transform="translate(403.599915 0)"/>
      <use xlink:href="#Montserrat-MediumItalic-65" transform="translate(472.599899 0)"/>
      <use xlink:href="#Montserrat-MediumItalic-20" transform="translate(533.69989 0)"/>
      <use xlink:href="#Montserrat-MediumItalic-32" transform="translate(560.599884 0)"/>
      <use xlink:href="#Montserrat-MediumItalic-2e" transform="translate(617.999878 0)"/>
      <use xlink:href="#Montserrat-MediumItalic-30" transform="translate(640.699875 0)"/>
     </g>
    </g>
    <g id="patch_58">
     <path d="M 55.770938 70.510937 
L 75.770938 70.510937 
L 75.770938 63.510937 
L 55.770938 63.510937 
z
" style="fill: #e1812c; stroke: #000000; stroke-width: 0.5; stroke-linejoin: miter"/>
    </g>
    <g id="text_28">
     <!-- FEP+ OPLS3e -->
     <g transform="translate(83.770938 70.510937) scale(0.1 -0.1)">
      <defs>
       <path id="Montserrat-MediumItalic-2b" d="M 1427 838 
L 1978 3642 
L 2522 3642 
L 1965 838 
L 1427 838 
z
M 493 1984 
L 589 2490 
L 3456 2490 
L 3360 1984 
L 493 1984 
z
" transform="scale(0.015625)"/>
       <path id="Montserrat-MediumItalic-4f" d="M 2490 -51 
Q 1824 -51 1350 185 
Q 877 422 630 848 
Q 384 1274 384 1837 
Q 384 2394 576 2883 
Q 768 3373 1126 3744 
Q 1485 4115 1984 4323 
Q 2483 4531 3104 4531 
Q 3776 4531 4249 4294 
Q 4723 4058 4969 3632 
Q 5216 3206 5216 2643 
Q 5216 2086 5024 1596 
Q 4832 1107 4473 736 
Q 4115 365 3612 157 
Q 3110 -51 2490 -51 
z
M 2547 518 
Q 3008 518 3385 681 
Q 3763 845 4025 1136 
Q 4288 1427 4429 1804 
Q 4570 2182 4570 2605 
Q 4570 3008 4397 3312 
Q 4224 3616 3885 3789 
Q 3546 3962 3053 3962 
Q 2586 3962 2211 3798 
Q 1837 3635 1571 3344 
Q 1306 3053 1165 2675 
Q 1024 2298 1024 1875 
Q 1024 1472 1200 1168 
Q 1376 864 1712 691 
Q 2048 518 2547 518 
z
" transform="scale(0.015625)"/>
       <path id="Montserrat-MediumItalic-4c" d="M 333 0 
L 1229 4480 
L 1869 4480 
L 1082 557 
L 3514 557 
L 3405 0 
L 333 0 
z
" transform="scale(0.015625)"/>
       <path id="Montserrat-MediumItalic-33" d="M 1402 -51 
Q 896 -51 483 99 
Q 70 250 -166 512 
L 166 1005 
Q 352 794 685 656 
Q 1018 518 1440 518 
Q 1830 518 2102 627 
Q 2374 736 2521 937 
Q 2669 1139 2669 1414 
Q 2669 1754 2425 1923 
Q 2182 2093 1683 2093 
L 1344 2093 
L 1434 2541 
L 3072 4173 
L 3149 3923 
L 678 3923 
L 794 4480 
L 3750 4480 
L 3667 4045 
L 2022 2413 
L 1715 2605 
L 1856 2605 
Q 2323 2605 2646 2467 
Q 2970 2330 3139 2070 
Q 3309 1811 3309 1446 
Q 3309 1011 3072 672 
Q 2835 333 2406 141 
Q 1978 -51 1402 -51 
z
" transform="scale(0.015625)"/>
      </defs>
      <use xlink:href="#Montserrat-MediumItalic-46"/>
      <use xlink:href="#Montserrat-MediumItalic-45" transform="translate(63.499985 0)"/>
      <use xlink:href="#Montserrat-MediumItalic-50" transform="translate(130.499969 0)"/>
      <use xlink:href="#Montserrat-MediumItalic-2b" transform="translate(202.699951 0)"/>
      <use xlink:href="#Montserrat-MediumItalic-20" transform="translate(260.999939 0)"/>
      <use xlink:href="#Montserrat-MediumItalic-4f" transform="translate(287.899933 0)"/>
      <use xlink:href="#Montserrat-MediumItalic-50" transform="translate(371.899918 0)"/>
      <use xlink:href="#Montserrat-MediumItalic-4c" transform="translate(444.099899 0)"/>
      <use xlink:href="#Montserrat-MediumItalic-53" transform="translate(503.499893 0)"/>
      <use xlink:href="#Montserrat-MediumItalic-33" transform="translate(565.599884 0)"/>
      <use xlink:href="#Montserrat-MediumItalic-65" transform="translate(622.799881 0)"/>
     </g>
    </g>
   </g>
  </g>
 </g>
 <defs>
  <clipPath id="pb584beda2a">
   <rect x="46.770938" y="25.1" width="558" height="166.32"/>
  </clipPath>
 </defs>
</svg>
