<?xml version="1.0" encoding="utf-8" standalone="no"?>
<!DOCTYPE svg PUBLIC "-//W3C//DTD SVG 1.1//EN"
  "http://www.w3.org/Graphics/SVG/1.1/DTD/svg11.dtd">
<svg xmlns:xlink="http://www.w3.org/1999/xlink" width="275.128453pt" height="206.290529pt" viewBox="0 0 275.128453 206.290529" xmlns="http://www.w3.org/2000/svg" version="1.1">
 <metadata>
  <rdf:RDF xmlns:dc="http://purl.org/dc/elements/1.1/" xmlns:cc="http://creativecommons.org/ns#" xmlns:rdf="http://www.w3.org/1999/02/22-rdf-syntax-ns#">
   <cc:Work>
    <dc:type rdf:resource="http://purl.org/dc/dcmitype/StillImage"/>
    <dc:date>2025-08-12T14:51:16.643842</dc:date>
    <dc:format>image/svg+xml</dc:format>
    <dc:creator>
     <cc:Agent>
      <dc:title>Matplotlib v3.10.1, https://matplotlib.org/</dc:title>
     </cc:Agent>
    </dc:creator>
   </cc:Work>
  </rdf:RDF>
 </metadata>
 <defs>
  <style type="text/css">*{stroke-linejoin: round; stroke-linecap: butt}</style>
 </defs>
 <g id="figure_1">
  <g id="patch_1">
   <path d="M 0 206.290529 
L 275.128453 206.290529 
L 275.128453 0 
L 0 0 
L 0 206.290529 
z
" style="fill: none"/>
  </g>
  <g id="axes_1">
   <g id="patch_2">
    <path d="M 20.8 168.842091 
L 37.551351 168.842091 
L 37.551351 17.482087 
L 20.8 17.482087 
L 20.8 168.842091 
z
" style="fill: none"/>
   </g>
   <g id="LineCollection_1">
    <path d="M 20.8 21.0859 
L 29.175675 21.0859 
" clip-path="url(#p630a951b1a)" style="fill: none; stroke: #112d4e; stroke-opacity: 0.6"/>
    <path d="M 20.8 21.230053 
L 29.175675 21.230053 
" clip-path="url(#p630a951b1a)" style="fill: none; stroke: #112d4e; stroke-opacity: 0.6"/>
    <path d="M 20.8 21.374205 
L 29.175675 21.374205 
" clip-path="url(#p630a951b1a)" style="fill: none; stroke: #112d4e; stroke-opacity: 0.6"/>
    <path d="M 20.8 21.518357 
L 29.175675 21.518357 
" clip-path="url(#p630a951b1a)" style="fill: none; stroke: #112d4e; stroke-opacity: 0.6"/>
    <path d="M 20.8 21.66251 
L 29.175675 21.66251 
" clip-path="url(#p630a951b1a)" style="fill: none; stroke: #112d4e; stroke-opacity: 0.6"/>
    <path d="M 20.8 21.806662 
L 29.175675 21.806662 
" clip-path="url(#p630a951b1a)" style="fill: none; stroke: #112d4e; stroke-opacity: 0.6"/>
    <path d="M 20.8 21.950814 
L 29.175675 21.950814 
" clip-path="url(#p630a951b1a)" style="fill: none; stroke: #112d4e; stroke-opacity: 0.6"/>
    <path d="M 20.8 22.094967 
L 29.175675 22.094967 
" clip-path="url(#p630a951b1a)" style="fill: none; stroke: #112d4e; stroke-opacity: 0.6"/>
    <path d="M 20.8 22.383272 
L 29.175675 22.383272 
" clip-path="url(#p630a951b1a)" style="fill: none; stroke: #112d4e; stroke-opacity: 0.6"/>
    <path d="M 20.8 22.527424 
L 29.175675 22.527424 
" clip-path="url(#p630a951b1a)" style="fill: none; stroke: #112d4e; stroke-opacity: 0.6"/>
    <path d="M 20.8 22.671576 
L 29.175675 22.671576 
" clip-path="url(#p630a951b1a)" style="fill: none; stroke: #112d4e; stroke-opacity: 0.6"/>
    <path d="M 20.8 22.815729 
L 29.175675 22.815729 
" clip-path="url(#p630a951b1a)" style="fill: none; stroke: #112d4e; stroke-opacity: 0.6"/>
    <path d="M 20.8 23.104033 
L 29.175675 23.104033 
" clip-path="url(#p630a951b1a)" style="fill: none; stroke: #112d4e; stroke-opacity: 0.6"/>
    <path d="M 20.8 23.248186 
L 29.175675 23.248186 
" clip-path="url(#p630a951b1a)" style="fill: none; stroke: #112d4e; stroke-opacity: 0.6"/>
    <path d="M 20.8 23.536491 
L 29.175675 23.536491 
" clip-path="url(#p630a951b1a)" style="fill: none; stroke: #112d4e; stroke-opacity: 0.6"/>
    <path d="M 20.8 23.824795 
L 29.175675 23.824795 
" clip-path="url(#p630a951b1a)" style="fill: none; stroke: #112d4e; stroke-opacity: 0.6"/>
    <path d="M 20.8 24.1131 
L 29.175675 24.1131 
" clip-path="url(#p630a951b1a)" style="fill: none; stroke: #112d4e; stroke-opacity: 0.6"/>
    <path d="M 20.8 24.257252 
L 29.175675 24.257252 
" clip-path="url(#p630a951b1a)" style="fill: none; stroke: #112d4e; stroke-opacity: 0.6"/>
    <path d="M 20.8 24.545557 
L 29.175675 24.545557 
" clip-path="url(#p630a951b1a)" style="fill: none; stroke: #112d4e; stroke-opacity: 0.6"/>
    <path d="M 20.8 24.833862 
L 29.175675 24.833862 
" clip-path="url(#p630a951b1a)" style="fill: none; stroke: #112d4e; stroke-opacity: 0.6"/>
    <path d="M 20.8 25.266319 
L 29.175675 25.266319 
" clip-path="url(#p630a951b1a)" style="fill: none; stroke: #112d4e; stroke-opacity: 0.6"/>
    <path d="M 20.8 25.554624 
L 29.175675 25.554624 
" clip-path="url(#p630a951b1a)" style="fill: none; stroke: #112d4e; stroke-opacity: 0.6"/>
    <path d="M 20.8 25.842929 
L 29.175675 25.842929 
" clip-path="url(#p630a951b1a)" style="fill: none; stroke: #112d4e; stroke-opacity: 0.6"/>
    <path d="M 20.8 26.275386 
L 29.175675 26.275386 
" clip-path="url(#p630a951b1a)" style="fill: none; stroke: #112d4e; stroke-opacity: 0.6"/>
    <path d="M 20.8 26.707843 
L 29.175675 26.707843 
" clip-path="url(#p630a951b1a)" style="fill: none; stroke: #112d4e; stroke-opacity: 0.6"/>
    <path d="M 20.8 27.1403 
L 29.175675 27.1403 
" clip-path="url(#p630a951b1a)" style="fill: none; stroke: #112d4e; stroke-opacity: 0.6"/>
    <path d="M 20.8 27.572757 
L 29.175675 27.572757 
" clip-path="url(#p630a951b1a)" style="fill: none; stroke: #112d4e; stroke-opacity: 0.6"/>
    <path d="M 20.8 28.005214 
L 29.175675 28.005214 
" clip-path="url(#p630a951b1a)" style="fill: none; stroke: #112d4e; stroke-opacity: 0.6"/>
    <path d="M 20.8 28.581824 
L 29.175675 28.581824 
" clip-path="url(#p630a951b1a)" style="fill: none; stroke: #112d4e; stroke-opacity: 0.6"/>
    <path d="M 20.8 29.158433 
L 29.175675 29.158433 
" clip-path="url(#p630a951b1a)" style="fill: none; stroke: #112d4e; stroke-opacity: 0.6"/>
    <path d="M 20.8 29.735043 
L 29.175675 29.735043 
" clip-path="url(#p630a951b1a)" style="fill: none; stroke: #112d4e; stroke-opacity: 0.6"/>
    <path d="M 20.8 30.455805 
L 29.175675 30.455805 
" clip-path="url(#p630a951b1a)" style="fill: none; stroke: #112d4e; stroke-opacity: 0.6"/>
    <path d="M 20.8 31.176567 
L 29.175675 31.176567 
" clip-path="url(#p630a951b1a)" style="fill: none; stroke: #112d4e; stroke-opacity: 0.6"/>
    <path d="M 20.8 31.897329 
L 29.175675 31.897329 
" clip-path="url(#p630a951b1a)" style="fill: none; stroke: #112d4e; stroke-opacity: 0.6"/>
    <path d="M 20.8 32.762243 
L 29.175675 32.762243 
" clip-path="url(#p630a951b1a)" style="fill: none; stroke: #112d4e; stroke-opacity: 0.6"/>
    <path d="M 20.8 33.771309 
L 29.175675 33.771309 
" clip-path="url(#p630a951b1a)" style="fill: none; stroke: #112d4e; stroke-opacity: 0.6"/>
    <path d="M 20.8 34.780376 
L 29.175675 34.780376 
" clip-path="url(#p630a951b1a)" style="fill: none; stroke: #112d4e; stroke-opacity: 0.6"/>
    <path d="M 20.8 35.933595 
L 29.175675 35.933595 
" clip-path="url(#p630a951b1a)" style="fill: none; stroke: #112d4e; stroke-opacity: 0.6"/>
    <path d="M 20.8 37.230966 
L 29.175675 37.230966 
" clip-path="url(#p630a951b1a)" style="fill: none; stroke: #112d4e; stroke-opacity: 0.6"/>
    <path d="M 20.8 38.67249 
L 29.175675 38.67249 
" clip-path="url(#p630a951b1a)" style="fill: none; stroke: #112d4e; stroke-opacity: 0.6"/>
    <path d="M 20.8 40.258166 
L 29.175675 40.258166 
" clip-path="url(#p630a951b1a)" style="fill: none; stroke: #112d4e; stroke-opacity: 0.6"/>
    <path d="M 20.8 42.132147 
L 29.175675 42.132147 
" clip-path="url(#p630a951b1a)" style="fill: none; stroke: #112d4e; stroke-opacity: 0.6"/>
    <path d="M 20.8 44.438585 
L 29.175675 44.438585 
" clip-path="url(#p630a951b1a)" style="fill: none; stroke: #112d4e; stroke-opacity: 0.6"/>
    <path d="M 20.8 46.889176 
L 29.175675 46.889176 
" clip-path="url(#p630a951b1a)" style="fill: none; stroke: #112d4e; stroke-opacity: 0.6"/>
    <path d="M 20.8 49.916376 
L 29.175675 49.916376 
" clip-path="url(#p630a951b1a)" style="fill: none; stroke: #112d4e; stroke-opacity: 0.6"/>
    <path d="M 20.8 53.520185 
L 29.175675 53.520185 
" clip-path="url(#p630a951b1a)" style="fill: none; stroke: #112d4e; stroke-opacity: 0.6"/>
    <path d="M 20.8 57.988909 
L 29.175675 57.988909 
" clip-path="url(#p630a951b1a)" style="fill: none; stroke: #112d4e; stroke-opacity: 0.6"/>
    <path d="M 20.8 63.466699 
L 29.175675 63.466699 
" clip-path="url(#p630a951b1a)" style="fill: none; stroke: #112d4e; stroke-opacity: 0.6"/>
    <path d="M 20.8 70.530166 
L 29.175675 70.530166 
" clip-path="url(#p630a951b1a)" style="fill: none; stroke: #112d4e; stroke-opacity: 0.6"/>
    <path d="M 20.8 79.90007 
L 29.175675 79.90007 
" clip-path="url(#p630a951b1a)" style="fill: none; stroke: #112d4e; stroke-opacity: 0.6"/>
    <path d="M 20.8 93.162089 
L 29.175675 93.162089 
" clip-path="url(#p630a951b1a)" style="fill: none; stroke: #112d4e; stroke-opacity: 0.6"/>
    <path d="M 20.8 106.424108 
L 29.175675 106.424108 
" clip-path="url(#p630a951b1a)" style="fill: none; stroke: #112d4e; stroke-opacity: 0.6"/>
    <path d="M 20.8 115.794013 
L 29.175675 115.794013 
" clip-path="url(#p630a951b1a)" style="fill: none; stroke: #112d4e; stroke-opacity: 0.6"/>
    <path d="M 20.8 122.857479 
L 29.175675 122.857479 
" clip-path="url(#p630a951b1a)" style="fill: none; stroke: #112d4e; stroke-opacity: 0.6"/>
    <path d="M 20.8 128.335269 
L 29.175675 128.335269 
" clip-path="url(#p630a951b1a)" style="fill: none; stroke: #112d4e; stroke-opacity: 0.6"/>
    <path d="M 20.8 132.803993 
L 29.175675 132.803993 
" clip-path="url(#p630a951b1a)" style="fill: none; stroke: #112d4e; stroke-opacity: 0.6"/>
    <path d="M 20.8 136.407803 
L 29.175675 136.407803 
" clip-path="url(#p630a951b1a)" style="fill: none; stroke: #112d4e; stroke-opacity: 0.6"/>
    <path d="M 20.8 139.435003 
L 29.175675 139.435003 
" clip-path="url(#p630a951b1a)" style="fill: none; stroke: #112d4e; stroke-opacity: 0.6"/>
    <path d="M 20.8 141.885593 
L 29.175675 141.885593 
" clip-path="url(#p630a951b1a)" style="fill: none; stroke: #112d4e; stroke-opacity: 0.6"/>
    <path d="M 20.8 144.192031 
L 29.175675 144.192031 
" clip-path="url(#p630a951b1a)" style="fill: none; stroke: #112d4e; stroke-opacity: 0.6"/>
    <path d="M 20.8 146.066012 
L 29.175675 146.066012 
" clip-path="url(#p630a951b1a)" style="fill: none; stroke: #112d4e; stroke-opacity: 0.6"/>
    <path d="M 20.8 147.651688 
L 29.175675 147.651688 
" clip-path="url(#p630a951b1a)" style="fill: none; stroke: #112d4e; stroke-opacity: 0.6"/>
    <path d="M 20.8 149.093212 
L 29.175675 149.093212 
" clip-path="url(#p630a951b1a)" style="fill: none; stroke: #112d4e; stroke-opacity: 0.6"/>
    <path d="M 20.8 150.390583 
L 29.175675 150.390583 
" clip-path="url(#p630a951b1a)" style="fill: none; stroke: #112d4e; stroke-opacity: 0.6"/>
    <path d="M 20.8 151.543802 
L 29.175675 151.543802 
" clip-path="url(#p630a951b1a)" style="fill: none; stroke: #112d4e; stroke-opacity: 0.6"/>
    <path d="M 20.8 152.552869 
L 29.175675 152.552869 
" clip-path="url(#p630a951b1a)" style="fill: none; stroke: #112d4e; stroke-opacity: 0.6"/>
    <path d="M 20.8 153.561936 
L 29.175675 153.561936 
" clip-path="url(#p630a951b1a)" style="fill: none; stroke: #112d4e; stroke-opacity: 0.6"/>
    <path d="M 20.8 154.42685 
L 29.175675 154.42685 
" clip-path="url(#p630a951b1a)" style="fill: none; stroke: #112d4e; stroke-opacity: 0.6"/>
    <path d="M 20.8 155.147612 
L 29.175675 155.147612 
" clip-path="url(#p630a951b1a)" style="fill: none; stroke: #112d4e; stroke-opacity: 0.6"/>
    <path d="M 20.8 155.868374 
L 29.175675 155.868374 
" clip-path="url(#p630a951b1a)" style="fill: none; stroke: #112d4e; stroke-opacity: 0.6"/>
    <path d="M 20.8 156.589136 
L 29.175675 156.589136 
" clip-path="url(#p630a951b1a)" style="fill: none; stroke: #112d4e; stroke-opacity: 0.6"/>
    <path d="M 20.8 157.165745 
L 29.175675 157.165745 
" clip-path="url(#p630a951b1a)" style="fill: none; stroke: #112d4e; stroke-opacity: 0.6"/>
    <path d="M 20.8 157.742355 
L 29.175675 157.742355 
" clip-path="url(#p630a951b1a)" style="fill: none; stroke: #112d4e; stroke-opacity: 0.6"/>
    <path d="M 20.8 158.318964 
L 29.175675 158.318964 
" clip-path="url(#p630a951b1a)" style="fill: none; stroke: #112d4e; stroke-opacity: 0.6"/>
    <path d="M 20.8 158.751421 
L 29.175675 158.751421 
" clip-path="url(#p630a951b1a)" style="fill: none; stroke: #112d4e; stroke-opacity: 0.6"/>
    <path d="M 20.8 159.183878 
L 29.175675 159.183878 
" clip-path="url(#p630a951b1a)" style="fill: none; stroke: #112d4e; stroke-opacity: 0.6"/>
    <path d="M 20.8 159.616335 
L 29.175675 159.616335 
" clip-path="url(#p630a951b1a)" style="fill: none; stroke: #112d4e; stroke-opacity: 0.6"/>
    <path d="M 20.8 160.048793 
L 29.175675 160.048793 
" clip-path="url(#p630a951b1a)" style="fill: none; stroke: #112d4e; stroke-opacity: 0.6"/>
    <path d="M 20.8 160.48125 
L 29.175675 160.48125 
" clip-path="url(#p630a951b1a)" style="fill: none; stroke: #112d4e; stroke-opacity: 0.6"/>
    <path d="M 20.8 160.769554 
L 29.175675 160.769554 
" clip-path="url(#p630a951b1a)" style="fill: none; stroke: #112d4e; stroke-opacity: 0.6"/>
    <path d="M 20.8 161.057859 
L 29.175675 161.057859 
" clip-path="url(#p630a951b1a)" style="fill: none; stroke: #112d4e; stroke-opacity: 0.6"/>
    <path d="M 20.8 161.490316 
L 29.175675 161.490316 
" clip-path="url(#p630a951b1a)" style="fill: none; stroke: #112d4e; stroke-opacity: 0.6"/>
    <path d="M 20.8 161.778621 
L 29.175675 161.778621 
" clip-path="url(#p630a951b1a)" style="fill: none; stroke: #112d4e; stroke-opacity: 0.6"/>
    <path d="M 20.8 162.066926 
L 29.175675 162.066926 
" clip-path="url(#p630a951b1a)" style="fill: none; stroke: #112d4e; stroke-opacity: 0.6"/>
    <path d="M 20.8 162.211078 
L 29.175675 162.211078 
" clip-path="url(#p630a951b1a)" style="fill: none; stroke: #112d4e; stroke-opacity: 0.6"/>
    <path d="M 20.8 162.499383 
L 29.175675 162.499383 
" clip-path="url(#p630a951b1a)" style="fill: none; stroke: #112d4e; stroke-opacity: 0.6"/>
    <path d="M 20.8 162.787688 
L 29.175675 162.787688 
" clip-path="url(#p630a951b1a)" style="fill: none; stroke: #112d4e; stroke-opacity: 0.6"/>
    <path d="M 20.8 163.075993 
L 29.175675 163.075993 
" clip-path="url(#p630a951b1a)" style="fill: none; stroke: #112d4e; stroke-opacity: 0.6"/>
    <path d="M 20.8 163.220145 
L 29.175675 163.220145 
" clip-path="url(#p630a951b1a)" style="fill: none; stroke: #112d4e; stroke-opacity: 0.6"/>
    <path d="M 20.8 163.364297 
L 29.175675 163.364297 
" clip-path="url(#p630a951b1a)" style="fill: none; stroke: #112d4e; stroke-opacity: 0.6"/>
    <path d="M 20.8 163.652602 
L 29.175675 163.652602 
" clip-path="url(#p630a951b1a)" style="fill: none; stroke: #112d4e; stroke-opacity: 0.6"/>
    <path d="M 20.8 163.796754 
L 29.175675 163.796754 
" clip-path="url(#p630a951b1a)" style="fill: none; stroke: #112d4e; stroke-opacity: 0.6"/>
    <path d="M 20.8 163.940907 
L 29.175675 163.940907 
" clip-path="url(#p630a951b1a)" style="fill: none; stroke: #112d4e; stroke-opacity: 0.6"/>
    <path d="M 20.8 164.229212 
L 29.175675 164.229212 
" clip-path="url(#p630a951b1a)" style="fill: none; stroke: #112d4e; stroke-opacity: 0.6"/>
    <path d="M 20.8 164.373364 
L 29.175675 164.373364 
" clip-path="url(#p630a951b1a)" style="fill: none; stroke: #112d4e; stroke-opacity: 0.6"/>
    <path d="M 20.8 164.517516 
L 29.175675 164.517516 
" clip-path="url(#p630a951b1a)" style="fill: none; stroke: #112d4e; stroke-opacity: 0.6"/>
    <path d="M 20.8 164.661669 
L 29.175675 164.661669 
" clip-path="url(#p630a951b1a)" style="fill: none; stroke: #112d4e; stroke-opacity: 0.6"/>
    <path d="M 20.8 164.805821 
L 29.175675 164.805821 
" clip-path="url(#p630a951b1a)" style="fill: none; stroke: #112d4e; stroke-opacity: 0.6"/>
    <path d="M 20.8 164.949973 
L 29.175675 164.949973 
" clip-path="url(#p630a951b1a)" style="fill: none; stroke: #112d4e; stroke-opacity: 0.6"/>
    <path d="M 20.8 165.094126 
L 29.175675 165.094126 
" clip-path="url(#p630a951b1a)" style="fill: none; stroke: #112d4e; stroke-opacity: 0.6"/>
    <path d="M 20.8 165.238278 
L 29.175675 165.238278 
" clip-path="url(#p630a951b1a)" style="fill: none; stroke: #112d4e; stroke-opacity: 0.6"/>
   </g>
   <g id="matplotlib.axis_1"/>
   <g id="matplotlib.axis_2">
    <g id="ytick_1"/>
    <g id="ytick_2"/>
    <g id="ytick_3"/>
    <g id="ytick_4"/>
    <g id="ytick_5"/>
    <g id="text_1">
     <!-- Sampled Lambda Values ($\lambda$) -->
     <g transform="translate(14.8 164.162089) rotate(-90) scale(0.1 -0.1)">
      <defs>
       <path id="Montserrat-Medium-53" d="M 1978 -51 
Q 1466 -51 998 105 
Q 531 262 262 512 
L 499 1011 
Q 755 787 1152 640 
Q 1549 493 1978 493 
Q 2368 493 2611 582 
Q 2854 672 2969 829 
Q 3085 986 3085 1184 
Q 3085 1414 2934 1555 
Q 2784 1696 2544 1782 
Q 2304 1869 2016 1933 
Q 1728 1997 1437 2083 
Q 1146 2170 906 2304 
Q 666 2438 518 2665 
Q 371 2893 371 3251 
Q 371 3597 553 3888 
Q 736 4179 1117 4355 
Q 1498 4531 2086 4531 
Q 2477 4531 2861 4428 
Q 3245 4326 3526 4134 
L 3315 3622 
Q 3027 3814 2707 3900 
Q 2387 3987 2086 3987 
Q 1709 3987 1465 3891 
Q 1222 3795 1110 3635 
Q 998 3475 998 3277 
Q 998 3040 1148 2899 
Q 1299 2758 1539 2675 
Q 1779 2592 2067 2525 
Q 2355 2458 2646 2374 
Q 2938 2291 3178 2156 
Q 3418 2022 3565 1798 
Q 3712 1574 3712 1222 
Q 3712 883 3526 592 
Q 3341 301 2953 125 
Q 2566 -51 1978 -51 
z
" transform="scale(0.015625)"/>
       <path id="Montserrat-Medium-61" d="M 2688 0 
L 2688 717 
L 2656 851 
L 2656 2074 
Q 2656 2464 2429 2678 
Q 2202 2893 1747 2893 
Q 1446 2893 1158 2793 
Q 870 2694 672 2528 
L 416 2989 
Q 678 3200 1046 3312 
Q 1414 3424 1818 3424 
Q 2515 3424 2892 3085 
Q 3270 2746 3270 2048 
L 3270 0 
L 2688 0 
z
M 1574 -38 
Q 1197 -38 912 90 
Q 627 218 473 445 
Q 320 672 320 960 
Q 320 1235 451 1459 
Q 582 1683 880 1817 
Q 1178 1952 1683 1952 
L 2758 1952 
L 2758 1510 
L 1709 1510 
Q 1248 1510 1088 1356 
Q 928 1203 928 986 
Q 928 736 1126 585 
Q 1325 435 1677 435 
Q 2022 435 2281 588 
Q 2541 742 2656 1037 
L 2778 614 
Q 2656 314 2349 138 
Q 2042 -38 1574 -38 
z
" transform="scale(0.015625)"/>
       <path id="Montserrat-Medium-6d" d="M 582 0 
L 582 3392 
L 1171 3392 
L 1171 2490 
L 1075 2720 
Q 1235 3053 1568 3238 
Q 1901 3424 2342 3424 
Q 2829 3424 3181 3184 
Q 3533 2944 3642 2458 
L 3392 2560 
Q 3546 2950 3930 3187 
Q 4314 3424 4826 3424 
Q 5235 3424 5548 3264 
Q 5862 3104 6038 2777 
Q 6214 2451 6214 1952 
L 6214 0 
L 5600 0 
L 5600 1882 
Q 5600 2374 5369 2624 
Q 5139 2874 4723 2874 
Q 4416 2874 4185 2746 
Q 3955 2618 3830 2368 
Q 3706 2118 3706 1747 
L 3706 0 
L 3091 0 
L 3091 1882 
Q 3091 2374 2864 2624 
Q 2637 2874 2214 2874 
Q 1914 2874 1683 2746 
Q 1453 2618 1325 2368 
Q 1197 2118 1197 1747 
L 1197 0 
L 582 0 
z
" transform="scale(0.015625)"/>
       <path id="Montserrat-Medium-70" d="M 2381 -38 
Q 1958 -38 1609 157 
Q 1261 352 1053 736 
Q 845 1120 845 1696 
Q 845 2272 1046 2656 
Q 1248 3040 1597 3232 
Q 1946 3424 2381 3424 
Q 2880 3424 3264 3206 
Q 3648 2989 3872 2601 
Q 4096 2214 4096 1696 
Q 4096 1178 3872 787 
Q 3648 397 3264 179 
Q 2880 -38 2381 -38 
z
M 582 -1242 
L 582 3392 
L 1171 3392 
L 1171 2477 
L 1133 1690 
L 1197 902 
L 1197 -1242 
L 582 -1242 
z
M 2330 499 
Q 2656 499 2915 646 
Q 3174 794 3324 1066 
Q 3475 1338 3475 1696 
Q 3475 2061 3324 2326 
Q 3174 2592 2915 2739 
Q 2656 2886 2330 2886 
Q 2010 2886 1750 2739 
Q 1491 2592 1340 2326 
Q 1190 2061 1190 1696 
Q 1190 1338 1340 1066 
Q 1491 794 1750 646 
Q 2010 499 2330 499 
z
" transform="scale(0.015625)"/>
       <path id="Montserrat-Medium-6c" d="M 582 0 
L 582 4749 
L 1197 4749 
L 1197 0 
L 582 0 
z
" transform="scale(0.015625)"/>
       <path id="Montserrat-Medium-65" d="M 2093 -38 
Q 1549 -38 1136 186 
Q 723 410 496 800 
Q 269 1190 269 1696 
Q 269 2202 489 2592 
Q 710 2982 1097 3203 
Q 1485 3424 1971 3424 
Q 2464 3424 2841 3206 
Q 3219 2989 3433 2595 
Q 3648 2202 3648 1677 
Q 3648 1638 3645 1587 
Q 3642 1536 3635 1491 
L 749 1491 
L 749 1933 
L 3315 1933 
L 3066 1779 
Q 3072 2106 2931 2362 
Q 2790 2618 2544 2762 
Q 2298 2906 1971 2906 
Q 1651 2906 1401 2762 
Q 1152 2618 1011 2358 
Q 870 2099 870 1766 
L 870 1664 
Q 870 1325 1027 1059 
Q 1184 794 1465 646 
Q 1747 499 2112 499 
Q 2413 499 2659 601 
Q 2906 704 3091 909 
L 3430 512 
Q 3200 243 2857 102 
Q 2515 -38 2093 -38 
z
" transform="scale(0.015625)"/>
       <path id="Montserrat-Medium-64" d="M 1984 -38 
Q 1491 -38 1104 179 
Q 717 397 493 787 
Q 269 1178 269 1696 
Q 269 2214 493 2601 
Q 717 2989 1104 3206 
Q 1491 3424 1984 3424 
Q 2413 3424 2758 3232 
Q 3104 3040 3312 2656 
Q 3520 2272 3520 1696 
Q 3520 1120 3318 736 
Q 3117 352 2771 157 
Q 2426 -38 1984 -38 
z
M 2035 499 
Q 2355 499 2614 646 
Q 2874 794 3024 1066 
Q 3174 1338 3174 1696 
Q 3174 2061 3024 2326 
Q 2874 2592 2614 2739 
Q 2355 2886 2035 2886 
Q 1709 2886 1453 2739 
Q 1197 2592 1043 2326 
Q 890 2061 890 1696 
Q 890 1338 1043 1066 
Q 1197 794 1453 646 
Q 1709 499 2035 499 
z
M 3194 0 
L 3194 915 
L 3232 1702 
L 3168 2490 
L 3168 4749 
L 3782 4749 
L 3782 0 
L 3194 0 
z
" transform="scale(0.015625)"/>
       <path id="Montserrat-Medium-20" transform="scale(0.015625)"/>
       <path id="Montserrat-Medium-4c" d="M 672 0 
L 672 4480 
L 1312 4480 
L 1312 557 
L 3738 557 
L 3738 0 
L 672 0 
z
" transform="scale(0.015625)"/>
       <path id="Montserrat-Medium-62" d="M 2381 -38 
Q 1946 -38 1597 157 
Q 1248 352 1046 736 
Q 845 1120 845 1696 
Q 845 2272 1053 2656 
Q 1261 3040 1609 3232 
Q 1958 3424 2381 3424 
Q 2880 3424 3264 3206 
Q 3648 2989 3872 2601 
Q 4096 2214 4096 1696 
Q 4096 1178 3872 787 
Q 3648 397 3264 179 
Q 2880 -38 2381 -38 
z
M 582 0 
L 582 4749 
L 1197 4749 
L 1197 2490 
L 1133 1702 
L 1171 915 
L 1171 0 
L 582 0 
z
M 2330 499 
Q 2656 499 2915 646 
Q 3174 794 3324 1066 
Q 3475 1338 3475 1696 
Q 3475 2061 3324 2326 
Q 3174 2592 2915 2739 
Q 2656 2886 2330 2886 
Q 2010 2886 1750 2739 
Q 1491 2592 1340 2326 
Q 1190 2061 1190 1696 
Q 1190 1338 1340 1066 
Q 1491 794 1750 646 
Q 2010 499 2330 499 
z
" transform="scale(0.015625)"/>
       <path id="Montserrat-Medium-56" d="M 1965 0 
L -6 4480 
L 685 4480 
L 2496 346 
L 2099 346 
L 3923 4480 
L 4563 4480 
L 2598 0 
L 1965 0 
z
" transform="scale(0.015625)"/>
       <path id="Montserrat-Medium-75" d="M 2010 -38 
Q 1574 -38 1244 122 
Q 915 282 732 611 
Q 550 941 550 1440 
L 550 3392 
L 1165 3392 
L 1165 1510 
Q 1165 1011 1405 761 
Q 1645 512 2080 512 
Q 2400 512 2637 643 
Q 2874 774 3002 1027 
Q 3130 1280 3130 1638 
L 3130 3392 
L 3744 3392 
L 3744 0 
L 3162 0 
L 3162 915 
L 3258 672 
Q 3091 333 2758 147 
Q 2426 -38 2010 -38 
z
" transform="scale(0.015625)"/>
       <path id="Montserrat-Medium-73" d="M 1555 -38 
Q 1133 -38 752 77 
Q 371 192 154 358 
L 410 845 
Q 627 698 947 595 
Q 1267 493 1600 493 
Q 2029 493 2217 614 
Q 2406 736 2406 954 
Q 2406 1114 2291 1203 
Q 2176 1293 1987 1337 
Q 1798 1382 1568 1417 
Q 1338 1453 1107 1507 
Q 877 1562 685 1661 
Q 493 1760 377 1936 
Q 262 2112 262 2406 
Q 262 2714 435 2944 
Q 608 3174 925 3299 
Q 1242 3424 1677 3424 
Q 2010 3424 2352 3344 
Q 2694 3264 2912 3117 
L 2650 2630 
Q 2419 2784 2169 2841 
Q 1920 2899 1670 2899 
Q 1267 2899 1068 2768 
Q 870 2637 870 2432 
Q 870 2259 988 2166 
Q 1107 2074 1296 2022 
Q 1485 1971 1715 1936 
Q 1946 1901 2176 1846 
Q 2406 1792 2595 1696 
Q 2784 1600 2902 1427 
Q 3021 1254 3021 966 
Q 3021 659 2841 435 
Q 2662 211 2336 86 
Q 2010 -38 1555 -38 
z
" transform="scale(0.015625)"/>
       <path id="Montserrat-Medium-28" d="M 1370 -1242 
Q 1005 -659 806 105 
Q 608 870 608 1754 
Q 608 2637 806 3408 
Q 1005 4179 1370 4749 
L 1952 4749 
Q 1568 4070 1389 3331 
Q 1210 2592 1210 1754 
Q 1210 915 1389 176 
Q 1568 -563 1952 -1242 
L 1370 -1242 
z
" transform="scale(0.015625)"/>
       <path id="DejaVuSans-Oblique-3bb" d="M 2350 4316 
L 3125 0 
L 2516 0 
L 2038 2588 
L 328 0 
L -281 0 
L 1903 3356 
L 1794 3975 
Q 1725 4369 1391 4369 
L 1091 4369 
L 1184 4863 
L 1550 4856 
Q 2253 4847 2350 4316 
z
" transform="scale(0.015625)"/>
       <path id="Montserrat-Medium-29" d="M 205 -1242 
Q 595 -563 774 176 
Q 954 915 954 1754 
Q 954 2592 774 3331 
Q 595 4070 205 4749 
L 787 4749 
Q 1165 4179 1360 3408 
Q 1555 2637 1555 1754 
Q 1555 870 1360 105 
Q 1165 -659 787 -1242 
L 205 -1242 
z
" transform="scale(0.015625)"/>
      </defs>
      <use xlink:href="#Montserrat-Medium-53" transform="translate(0 0.015625)"/>
      <use xlink:href="#Montserrat-Medium-61" transform="translate(62.099991 0.015625)"/>
      <use xlink:href="#Montserrat-Medium-6d" transform="translate(121.899979 0.015625)"/>
      <use xlink:href="#Montserrat-Medium-70" transform="translate(227.59996 0.015625)"/>
      <use xlink:href="#Montserrat-Medium-6c" transform="translate(295.799942 0.015625)"/>
      <use xlink:href="#Montserrat-Medium-65" transform="translate(323.699936 0.015625)"/>
      <use xlink:href="#Montserrat-Medium-64" transform="translate(384.899933 0.015625)"/>
      <use xlink:href="#Montserrat-Medium-20" transform="translate(453.099915 0.015625)"/>
      <use xlink:href="#Montserrat-Medium-4c" transform="translate(479.999908 0.015625)"/>
      <use xlink:href="#Montserrat-Medium-61" transform="translate(539.399902 0.015625)"/>
      <use xlink:href="#Montserrat-Medium-6d" transform="translate(599.19989 0.015625)"/>
      <use xlink:href="#Montserrat-Medium-62" transform="translate(704.899872 0.015625)"/>
      <use xlink:href="#Montserrat-Medium-64" transform="translate(773.099854 0.015625)"/>
      <use xlink:href="#Montserrat-Medium-61" transform="translate(841.299835 0.015625)"/>
      <use xlink:href="#Montserrat-Medium-20" transform="translate(901.099823 0.015625)"/>
      <use xlink:href="#Montserrat-Medium-56" transform="translate(927.999817 0.015625)"/>
      <use xlink:href="#Montserrat-Medium-61" transform="translate(999.199799 0.015625)"/>
      <use xlink:href="#Montserrat-Medium-6c" transform="translate(1058.999786 0.015625)"/>
      <use xlink:href="#Montserrat-Medium-75" transform="translate(1086.89978 0.015625)"/>
      <use xlink:href="#Montserrat-Medium-65" transform="translate(1154.599762 0.015625)"/>
      <use xlink:href="#Montserrat-Medium-73" transform="translate(1215.799759 0.015625)"/>
      <use xlink:href="#Montserrat-Medium-20" transform="translate(1265.89975 0.015625)"/>
      <use xlink:href="#Montserrat-Medium-28" transform="translate(1292.799744 0.015625)"/>
      <use xlink:href="#DejaVuSans-Oblique-3bb" transform="translate(1326.499741 0.015625)"/>
      <use xlink:href="#Montserrat-Medium-29" transform="translate(1385.679428 0.015625)"/>
     </g>
    </g>
   </g>
  </g>
  <g id="axes_2">
   <g id="patch_3">
    <path d="M 52.004834 168.842091 
L 253.021043 168.842091 
L 253.021043 17.482087 
L 52.004834 17.482087 
L 52.004834 168.842091 
z
" style="fill: none"/>
   </g>
   <g id="patch_4">
    <path d="M 61.754678 24.661627 
Q 57.874788 22.873763 53.994899 21.0859 
Q 58.093685 19.88176 62.192471 18.67762 
z
" clip-path="url(#pbb8daa2105)" style="fill: #3f72af; stroke: #3f72af; stroke-width: 1.5; stroke-linecap: round"/>
   </g>
   <g id="patch_5">
    <path d="M 243.271199 161.662552 
Q 247.151089 163.450415 251.030978 165.238278 
Q 246.932192 166.442418 242.833406 167.646559 
z
" clip-path="url(#pbb8daa2105)" style="fill: #3f72af; stroke: #3f72af; stroke-width: 1.5; stroke-linecap: round"/>
   </g>
   <g id="matplotlib.axis_3">
    <g id="xtick_1">
     <g id="line2d_1">
      <defs>
       <path id="mb7f9233cab" d="M 0 0 
L 0 3.5 
" style="stroke: #000000; stroke-width: 0.8"/>
      </defs>
      <g>
       <use xlink:href="#mb7f9233cab" x="53.994899" y="168.842091" style="stroke: #000000; stroke-width: 0.8"/>
      </g>
     </g>
     <g id="text_2">
      <!-- 0 -->
      <g transform="translate(50.813649 183.440529) scale(0.1 -0.1)">
       <defs>
        <path id="DejaVuSans-30" d="M 2034 4250 
Q 1547 4250 1301 3770 
Q 1056 3291 1056 2328 
Q 1056 1369 1301 889 
Q 1547 409 2034 409 
Q 2525 409 2770 889 
Q 3016 1369 3016 2328 
Q 3016 3291 2770 3770 
Q 2525 4250 2034 4250 
z
M 2034 4750 
Q 2819 4750 3233 4129 
Q 3647 3509 3647 2328 
Q 3647 1150 3233 529 
Q 2819 -91 2034 -91 
Q 1250 -91 836 529 
Q 422 1150 422 2328 
Q 422 3509 836 4129 
Q 1250 4750 2034 4750 
z
" transform="scale(0.015625)"/>
       </defs>
       <use xlink:href="#DejaVuSans-30"/>
      </g>
     </g>
    </g>
    <g id="xtick_2">
     <g id="line2d_2">
      <g>
       <use xlink:href="#mb7f9233cab" x="93.402115" y="168.842091" style="stroke: #000000; stroke-width: 0.8"/>
      </g>
     </g>
     <g id="text_3">
      <!-- 20 -->
      <g transform="translate(87.039615 183.440529) scale(0.1 -0.1)">
       <defs>
        <path id="DejaVuSans-32" d="M 1228 531 
L 3431 531 
L 3431 0 
L 469 0 
L 469 531 
Q 828 903 1448 1529 
Q 2069 2156 2228 2338 
Q 2531 2678 2651 2914 
Q 2772 3150 2772 3378 
Q 2772 3750 2511 3984 
Q 2250 4219 1831 4219 
Q 1534 4219 1204 4116 
Q 875 4013 500 3803 
L 500 4441 
Q 881 4594 1212 4672 
Q 1544 4750 1819 4750 
Q 2544 4750 2975 4387 
Q 3406 4025 3406 3419 
Q 3406 3131 3298 2873 
Q 3191 2616 2906 2266 
Q 2828 2175 2409 1742 
Q 1991 1309 1228 531 
z
" transform="scale(0.015625)"/>
       </defs>
       <use xlink:href="#DejaVuSans-32"/>
       <use xlink:href="#DejaVuSans-30" transform="translate(63.623047 0)"/>
      </g>
     </g>
    </g>
    <g id="xtick_3">
     <g id="line2d_3">
      <g>
       <use xlink:href="#mb7f9233cab" x="132.809331" y="168.842091" style="stroke: #000000; stroke-width: 0.8"/>
      </g>
     </g>
     <g id="text_4">
      <!-- 40 -->
      <g transform="translate(126.446831 183.440529) scale(0.1 -0.1)">
       <defs>
        <path id="DejaVuSans-34" d="M 2419 4116 
L 825 1625 
L 2419 1625 
L 2419 4116 
z
M 2253 4666 
L 3047 4666 
L 3047 1625 
L 3713 1625 
L 3713 1100 
L 3047 1100 
L 3047 0 
L 2419 0 
L 2419 1100 
L 313 1100 
L 313 1709 
L 2253 4666 
z
" transform="scale(0.015625)"/>
       </defs>
       <use xlink:href="#DejaVuSans-34"/>
       <use xlink:href="#DejaVuSans-30" transform="translate(63.623047 0)"/>
      </g>
     </g>
    </g>
    <g id="xtick_4">
     <g id="line2d_4">
      <g>
       <use xlink:href="#mb7f9233cab" x="172.216546" y="168.842091" style="stroke: #000000; stroke-width: 0.8"/>
      </g>
     </g>
     <g id="text_5">
      <!-- 60 -->
      <g transform="translate(165.854046 183.440529) scale(0.1 -0.1)">
       <defs>
        <path id="DejaVuSans-36" d="M 2113 2584 
Q 1688 2584 1439 2293 
Q 1191 2003 1191 1497 
Q 1191 994 1439 701 
Q 1688 409 2113 409 
Q 2538 409 2786 701 
Q 3034 994 3034 1497 
Q 3034 2003 2786 2293 
Q 2538 2584 2113 2584 
z
M 3366 4563 
L 3366 3988 
Q 3128 4100 2886 4159 
Q 2644 4219 2406 4219 
Q 1781 4219 1451 3797 
Q 1122 3375 1075 2522 
Q 1259 2794 1537 2939 
Q 1816 3084 2150 3084 
Q 2853 3084 3261 2657 
Q 3669 2231 3669 1497 
Q 3669 778 3244 343 
Q 2819 -91 2113 -91 
Q 1303 -91 875 529 
Q 447 1150 447 2328 
Q 447 3434 972 4092 
Q 1497 4750 2381 4750 
Q 2619 4750 2861 4703 
Q 3103 4656 3366 4563 
z
" transform="scale(0.015625)"/>
       </defs>
       <use xlink:href="#DejaVuSans-36"/>
       <use xlink:href="#DejaVuSans-30" transform="translate(63.623047 0)"/>
      </g>
     </g>
    </g>
    <g id="xtick_5">
     <g id="line2d_5">
      <g>
       <use xlink:href="#mb7f9233cab" x="211.623762" y="168.842091" style="stroke: #000000; stroke-width: 0.8"/>
      </g>
     </g>
     <g id="text_6">
      <!-- 80 -->
      <g transform="translate(205.261262 183.440529) scale(0.1 -0.1)">
       <defs>
        <path id="DejaVuSans-38" d="M 2034 2216 
Q 1584 2216 1326 1975 
Q 1069 1734 1069 1313 
Q 1069 891 1326 650 
Q 1584 409 2034 409 
Q 2484 409 2743 651 
Q 3003 894 3003 1313 
Q 3003 1734 2745 1975 
Q 2488 2216 2034 2216 
z
M 1403 2484 
Q 997 2584 770 2862 
Q 544 3141 544 3541 
Q 544 4100 942 4425 
Q 1341 4750 2034 4750 
Q 2731 4750 3128 4425 
Q 3525 4100 3525 3541 
Q 3525 3141 3298 2862 
Q 3072 2584 2669 2484 
Q 3125 2378 3379 2068 
Q 3634 1759 3634 1313 
Q 3634 634 3220 271 
Q 2806 -91 2034 -91 
Q 1263 -91 848 271 
Q 434 634 434 1313 
Q 434 1759 690 2068 
Q 947 2378 1403 2484 
z
M 1172 3481 
Q 1172 3119 1398 2916 
Q 1625 2713 2034 2713 
Q 2441 2713 2670 2916 
Q 2900 3119 2900 3481 
Q 2900 3844 2670 4047 
Q 2441 4250 2034 4250 
Q 1625 4250 1398 4047 
Q 1172 3844 1172 3481 
z
" transform="scale(0.015625)"/>
       </defs>
       <use xlink:href="#DejaVuSans-38"/>
       <use xlink:href="#DejaVuSans-30" transform="translate(63.623047 0)"/>
      </g>
     </g>
    </g>
    <g id="xtick_6">
     <g id="line2d_6">
      <g>
       <use xlink:href="#mb7f9233cab" x="251.030978" y="168.842091" style="stroke: #000000; stroke-width: 0.8"/>
      </g>
     </g>
     <g id="text_7">
      <!-- 100 -->
      <g transform="translate(241.487228 183.440529) scale(0.1 -0.1)">
       <defs>
        <path id="DejaVuSans-31" d="M 794 531 
L 1825 531 
L 1825 4091 
L 703 3866 
L 703 4441 
L 1819 4666 
L 2450 4666 
L 2450 531 
L 3481 531 
L 3481 0 
L 794 0 
L 794 531 
z
" transform="scale(0.015625)"/>
       </defs>
       <use xlink:href="#DejaVuSans-31"/>
       <use xlink:href="#DejaVuSans-30" transform="translate(63.623047 0)"/>
       <use xlink:href="#DejaVuSans-30" transform="translate(127.246094 0)"/>
      </g>
     </g>
    </g>
    <g id="text_8">
     <!-- Sampling Index -->
     <g transform="translate(112.547314 197.090529) scale(0.1 -0.1)">
      <defs>
       <path id="Montserrat-Medium-69" d="M 582 0 
L 582 3392 
L 1197 3392 
L 1197 0 
L 582 0 
z
M 890 4045 
Q 710 4045 592 4160 
Q 474 4275 474 4442 
Q 474 4614 592 4729 
Q 710 4845 890 4845 
Q 1069 4845 1187 4733 
Q 1306 4621 1306 4454 
Q 1306 4282 1190 4163 
Q 1075 4045 890 4045 
z
" transform="scale(0.015625)"/>
       <path id="Montserrat-Medium-6e" d="M 582 0 
L 582 3392 
L 1171 3392 
L 1171 2477 
L 1075 2720 
Q 1242 3053 1587 3238 
Q 1933 3424 2394 3424 
Q 2810 3424 3126 3264 
Q 3443 3104 3622 2777 
Q 3802 2451 3802 1952 
L 3802 0 
L 3187 0 
L 3187 1882 
Q 3187 2374 2947 2624 
Q 2707 2874 2272 2874 
Q 1946 2874 1702 2746 
Q 1459 2618 1328 2368 
Q 1197 2118 1197 1747 
L 1197 0 
L 582 0 
z
" transform="scale(0.015625)"/>
       <path id="Montserrat-Medium-67" d="M 2067 -1280 
Q 1600 -1280 1161 -1149 
Q 723 -1018 448 -774 
L 742 -301 
Q 979 -506 1324 -624 
Q 1670 -742 2048 -742 
Q 2650 -742 2931 -460 
Q 3213 -179 3213 397 
L 3213 1114 
L 3277 1786 
L 3245 2464 
L 3245 3392 
L 3827 3392 
L 3827 461 
Q 3827 -435 3379 -857 
Q 2931 -1280 2067 -1280 
z
M 1990 141 
Q 1498 141 1110 349 
Q 723 557 496 928 
Q 269 1299 269 1786 
Q 269 2278 496 2646 
Q 723 3014 1110 3219 
Q 1498 3424 1990 3424 
Q 2426 3424 2784 3248 
Q 3142 3072 3356 2707 
Q 3571 2342 3571 1786 
Q 3571 1235 3356 870 
Q 3142 506 2784 323 
Q 2426 141 1990 141 
z
M 2061 678 
Q 2400 678 2662 819 
Q 2925 960 3075 1209 
Q 3226 1459 3226 1786 
Q 3226 2112 3075 2361 
Q 2925 2611 2662 2748 
Q 2400 2886 2061 2886 
Q 1722 2886 1456 2748 
Q 1190 2611 1040 2361 
Q 890 2112 890 1786 
Q 890 1459 1040 1209 
Q 1190 960 1456 819 
Q 1722 678 2061 678 
z
" transform="scale(0.015625)"/>
       <path id="Montserrat-Medium-49" d="M 672 0 
L 672 4480 
L 1312 4480 
L 1312 0 
L 672 0 
z
" transform="scale(0.015625)"/>
       <path id="Montserrat-Medium-78" d="M 90 0 
L 1549 1894 
L 1542 1581 
L 154 3392 
L 838 3392 
L 1901 1997 
L 1638 1997 
L 2701 3392 
L 3373 3392 
L 1965 1568 
L 1971 1894 
L 3443 0 
L 2746 0 
L 1626 1485 
L 1875 1446 
L 774 0 
L 90 0 
z
" transform="scale(0.015625)"/>
      </defs>
      <use xlink:href="#Montserrat-Medium-53"/>
      <use xlink:href="#Montserrat-Medium-61" transform="translate(62.099991 0)"/>
      <use xlink:href="#Montserrat-Medium-6d" transform="translate(121.899979 0)"/>
      <use xlink:href="#Montserrat-Medium-70" transform="translate(227.59996 0)"/>
      <use xlink:href="#Montserrat-Medium-6c" transform="translate(295.799942 0)"/>
      <use xlink:href="#Montserrat-Medium-69" transform="translate(323.699936 0)"/>
      <use xlink:href="#Montserrat-Medium-6e" transform="translate(351.59993 0)"/>
      <use xlink:href="#Montserrat-Medium-67" transform="translate(419.699921 0)"/>
      <use xlink:href="#Montserrat-Medium-20" transform="translate(488.699905 0)"/>
      <use xlink:href="#Montserrat-Medium-49" transform="translate(515.599899 0)"/>
      <use xlink:href="#Montserrat-Medium-6e" transform="translate(546.599884 0)"/>
      <use xlink:href="#Montserrat-Medium-64" transform="translate(614.699875 0)"/>
      <use xlink:href="#Montserrat-Medium-65" transform="translate(682.899857 0)"/>
      <use xlink:href="#Montserrat-Medium-78" transform="translate(744.099854 0)"/>
     </g>
    </g>
   </g>
   <g id="matplotlib.axis_4">
    <g id="ytick_6">
     <g id="line2d_7">
      <path d="M 52.004834 165.238278 
L 253.021043 165.238278 
" clip-path="url(#pbb8daa2105)" style="fill: none; stroke: #112d4e; stroke-opacity: 0.15; stroke-width: 0.5; stroke-linecap: square"/>
     </g>
     <g id="line2d_8">
      <defs>
       <path id="m5ea9716979" d="M 0 0 
L -3.5 0 
" style="stroke: #000000; stroke-width: 0.8"/>
      </defs>
      <g>
       <use xlink:href="#m5ea9716979" x="52.004834" y="165.238278" style="stroke: #000000; stroke-width: 0.8"/>
      </g>
     </g>
    </g>
    <g id="ytick_7">
     <g id="line2d_9">
      <path d="M 52.004834 129.200184 
L 253.021043 129.200184 
" clip-path="url(#pbb8daa2105)" style="fill: none; stroke: #112d4e; stroke-opacity: 0.15; stroke-width: 0.5; stroke-linecap: square"/>
     </g>
     <g id="line2d_10">
      <g>
       <use xlink:href="#m5ea9716979" x="52.004834" y="129.200184" style="stroke: #000000; stroke-width: 0.8"/>
      </g>
     </g>
    </g>
    <g id="ytick_8">
     <g id="line2d_11">
      <path d="M 52.004834 93.162089 
L 253.021043 93.162089 
" clip-path="url(#pbb8daa2105)" style="fill: none; stroke: #112d4e; stroke-opacity: 0.15; stroke-width: 0.5; stroke-linecap: square"/>
     </g>
     <g id="line2d_12">
      <g>
       <use xlink:href="#m5ea9716979" x="52.004834" y="93.162089" style="stroke: #000000; stroke-width: 0.8"/>
      </g>
     </g>
    </g>
    <g id="ytick_9">
     <g id="line2d_13">
      <path d="M 52.004834 57.123995 
L 253.021043 57.123995 
" clip-path="url(#pbb8daa2105)" style="fill: none; stroke: #112d4e; stroke-opacity: 0.15; stroke-width: 0.5; stroke-linecap: square"/>
     </g>
     <g id="line2d_14">
      <g>
       <use xlink:href="#m5ea9716979" x="52.004834" y="57.123995" style="stroke: #000000; stroke-width: 0.8"/>
      </g>
     </g>
    </g>
    <g id="ytick_10">
     <g id="line2d_15">
      <path d="M 52.004834 21.0859 
L 253.021043 21.0859 
" clip-path="url(#pbb8daa2105)" style="fill: none; stroke: #112d4e; stroke-opacity: 0.15; stroke-width: 0.5; stroke-linecap: square"/>
     </g>
     <g id="line2d_16">
      <g>
       <use xlink:href="#m5ea9716979" x="52.004834" y="21.0859" style="stroke: #000000; stroke-width: 0.8"/>
      </g>
     </g>
    </g>
   </g>
   <g id="line2d_17">
    <path d="M 53.994899 21.0859 
L 55.965259 21.230053 
L 57.93562 21.374205 
L 59.905981 21.518357 
L 61.876342 21.66251 
L 63.846703 21.806662 
L 65.817063 21.950814 
L 67.787424 22.094967 
L 69.757785 22.383272 
L 71.728146 22.527424 
L 73.698507 22.671576 
L 75.668867 22.815729 
L 77.639228 23.104033 
L 79.609589 23.248186 
L 81.57995 23.536491 
L 83.550311 23.824795 
L 85.520671 24.1131 
L 87.491032 24.257252 
L 89.461393 24.545557 
L 91.431754 24.833862 
L 93.402115 25.266319 
L 95.372475 25.554624 
L 97.342836 25.842929 
L 99.313197 26.275386 
L 101.283558 26.707843 
L 103.253919 27.1403 
L 105.224279 27.572757 
L 107.19464 28.005214 
L 109.165001 28.581824 
L 111.135362 29.158433 
L 113.105723 29.735043 
L 115.076083 30.455805 
L 117.046444 31.176567 
L 119.016805 31.897329 
L 120.987166 32.762243 
L 122.957527 33.771309 
L 124.927887 34.780376 
L 126.898248 35.933595 
L 128.868609 37.230966 
L 130.83897 38.67249 
L 132.809331 40.258166 
L 134.779691 42.132147 
L 136.750052 44.438585 
L 138.720413 46.889176 
L 140.690774 49.916376 
L 142.661135 53.520185 
L 144.631495 57.988909 
L 146.601856 63.466699 
L 148.572217 70.530166 
L 150.542578 79.90007 
L 152.512939 93.162089 
L 154.483299 106.424108 
L 156.45366 115.794013 
L 158.424021 122.857479 
L 160.394382 128.335269 
L 162.364742 132.803993 
L 164.335103 136.407803 
L 166.305464 139.435003 
L 168.275825 141.885593 
L 170.246186 144.192031 
L 172.216546 146.066012 
L 174.186907 147.651688 
L 176.157268 149.093212 
L 178.127629 150.390583 
L 180.09799 151.543802 
L 182.06835 152.552869 
L 184.038711 153.561936 
L 186.009072 154.42685 
L 187.979433 155.147612 
L 189.949794 155.868374 
L 191.920154 156.589136 
L 193.890515 157.165745 
L 195.860876 157.742355 
L 197.831237 158.318964 
L 199.801598 158.751421 
L 201.771958 159.183878 
L 203.742319 159.616335 
L 205.71268 160.048793 
L 207.683041 160.48125 
L 209.653402 160.769554 
L 211.623762 161.057859 
L 213.594123 161.490316 
L 215.564484 161.778621 
L 217.534845 162.066926 
L 219.505206 162.211078 
L 221.475566 162.499383 
L 223.445927 162.787688 
L 225.416288 163.075993 
L 227.386649 163.220145 
L 229.35701 163.364297 
L 231.32737 163.652602 
L 233.297731 163.796754 
L 235.268092 163.940907 
L 237.238453 164.229212 
L 239.208814 164.373364 
L 241.179174 164.517516 
L 243.149535 164.661669 
L 245.119896 164.805821 
L 247.090257 164.949973 
L 249.060618 165.094126 
L 251.030978 165.238278 
" clip-path="url(#pbb8daa2105)" style="fill: none; stroke-dasharray: 7.4,3.2; stroke-dashoffset: 0; stroke: #3f72af; stroke-width: 2"/>
   </g>
   <g id="patch_6">
    <path d="M 52.004834 168.842091 
L 52.004834 17.482087 
" style="fill: none; stroke: #000000; stroke-width: 0.8; stroke-linejoin: miter; stroke-linecap: square"/>
   </g>
   <g id="patch_7">
    <path d="M 52.004834 168.842091 
L 253.021043 168.842091 
" style="fill: none; stroke: #000000; stroke-width: 0.8; stroke-linejoin: miter; stroke-linecap: square"/>
   </g>
   <g id="text_9">
    <!-- $λ = 1.0$ -->
    <g style="fill: #112d4e" transform="translate(48.083816 13.878281) scale(0.09 -0.09)">
     <defs>
      <path id="DejaVuSans-3d" d="M 678 2906 
L 4684 2906 
L 4684 2381 
L 678 2381 
L 678 2906 
z
M 678 1631 
L 4684 1631 
L 4684 1100 
L 678 1100 
L 678 1631 
z
" transform="scale(0.015625)"/>
      <path id="DejaVuSans-2e" d="M 684 794 
L 1344 794 
L 1344 0 
L 684 0 
L 684 794 
z
" transform="scale(0.015625)"/>
     </defs>
     <use xlink:href="#DejaVuSans-Oblique-3bb" transform="translate(0 0.015625)"/>
     <use xlink:href="#DejaVuSans-3d" transform="translate(78.662109 0.015625)"/>
     <use xlink:href="#DejaVuSans-31" transform="translate(181.933594 0.015625)"/>
     <use xlink:href="#DejaVuSans-2e" transform="translate(245.556641 0.015625)"/>
     <use xlink:href="#DejaVuSans-30" transform="translate(277.34375 0.015625)"/>
    </g>
   </g>
   <g id="text_10">
    <!-- $λ = 0.0$ -->
    <g style="fill: #112d4e" transform="translate(237.238453 158.030659) scale(0.09 -0.09)">
     <use xlink:href="#DejaVuSans-Oblique-3bb" transform="translate(0 0.015625)"/>
     <use xlink:href="#DejaVuSans-3d" transform="translate(78.662109 0.015625)"/>
     <use xlink:href="#DejaVuSans-30" transform="translate(181.933594 0.015625)"/>
     <use xlink:href="#DejaVuSans-2e" transform="translate(245.556641 0.015625)"/>
     <use xlink:href="#DejaVuSans-30" transform="translate(277.34375 0.015625)"/>
    </g>
   </g>
   <g id="line2d_18">
    <defs>
     <path id="md514422e92" d="M 0 3 
C 0.795609 3 1.55874 2.683901 2.12132 2.12132 
C 2.683901 1.55874 3 0.795609 3 0 
C 3 -0.795609 2.683901 -1.55874 2.12132 -2.12132 
C 1.55874 -2.683901 0.795609 -3 0 -3 
C -0.795609 -3 -1.55874 -2.683901 -2.12132 -2.12132 
C -2.683901 -1.55874 -3 -0.795609 -3 0 
C -3 0.795609 -2.683901 1.55874 -2.12132 2.12132 
C -1.55874 2.683901 -0.795609 3 0 3 
z
" style="stroke: #112d4e"/>
    </defs>
    <g clip-path="url(#pbb8daa2105)">
     <use xlink:href="#md514422e92" x="152.512939" y="93.162089" style="fill: #ffffff; stroke: #112d4e"/>
    </g>
   </g>
   <g id="legend_1">
    <g id="line2d_19">
     <path d="M 144.949168 30.582087 
L 154.949168 30.582087 
L 164.949168 30.582087 
" style="fill: none; stroke-dasharray: 7.4,3.2; stroke-dashoffset: 0; stroke: #3f72af; stroke-width: 2"/>
    </g>
    <g id="text_11">
     <!-- $\lambda$ Progression -->
     <g transform="translate(172.949168 34.082087) scale(0.1 -0.1)">
      <defs>
       <path id="Montserrat-Medium-50" d="M 672 0 
L 672 4480 
L 2419 4480 
Q 3008 4480 3424 4294 
Q 3840 4109 4064 3757 
Q 4288 3405 4288 2918 
Q 4288 2432 4064 2083 
Q 3840 1734 3424 1545 
Q 3008 1357 2419 1357 
L 1024 1357 
L 1312 1658 
L 1312 0 
L 672 0 
z
M 1312 1594 
L 1024 1914 
L 2400 1914 
Q 3014 1914 3331 2176 
Q 3648 2438 3648 2918 
Q 3648 3398 3331 3660 
Q 3014 3923 2400 3923 
L 1024 3923 
L 1312 4243 
L 1312 1594 
z
" transform="scale(0.015625)"/>
       <path id="Montserrat-Medium-72" d="M 582 0 
L 582 3392 
L 1171 3392 
L 1171 2470 
L 1114 2701 
Q 1254 3053 1587 3238 
Q 1920 3424 2406 3424 
L 2406 2829 
Q 2368 2835 2333 2835 
Q 2298 2835 2266 2835 
Q 1773 2835 1485 2540 
Q 1197 2246 1197 1690 
L 1197 0 
L 582 0 
z
" transform="scale(0.015625)"/>
       <path id="Montserrat-Medium-6f" d="M 2035 -38 
Q 1523 -38 1126 186 
Q 730 410 499 803 
Q 269 1197 269 1696 
Q 269 2202 499 2592 
Q 730 2982 1126 3203 
Q 1523 3424 2035 3424 
Q 2541 3424 2941 3203 
Q 3341 2982 3568 2595 
Q 3795 2208 3795 1696 
Q 3795 1190 3568 800 
Q 3341 410 2941 186 
Q 2541 -38 2035 -38 
z
M 2035 499 
Q 2362 499 2621 646 
Q 2880 794 3027 1066 
Q 3174 1338 3174 1696 
Q 3174 2061 3027 2326 
Q 2880 2592 2621 2739 
Q 2362 2886 2035 2886 
Q 1709 2886 1453 2739 
Q 1197 2592 1043 2326 
Q 890 2061 890 1696 
Q 890 1338 1043 1066 
Q 1197 794 1453 646 
Q 1709 499 2035 499 
z
" transform="scale(0.015625)"/>
      </defs>
      <use xlink:href="#DejaVuSans-Oblique-3bb" transform="translate(0 0.015625)"/>
      <use xlink:href="#Montserrat-Medium-20" transform="translate(59.179688 0.015625)"/>
      <use xlink:href="#Montserrat-Medium-50" transform="translate(86.079681 0.015625)"/>
      <use xlink:href="#Montserrat-Medium-72" transform="translate(158.279663 0.015625)"/>
      <use xlink:href="#Montserrat-Medium-6f" transform="translate(199.279648 0.015625)"/>
      <use xlink:href="#Montserrat-Medium-67" transform="translate(262.779633 0.015625)"/>
      <use xlink:href="#Montserrat-Medium-72" transform="translate(331.779617 0.015625)"/>
      <use xlink:href="#Montserrat-Medium-65" transform="translate(372.779602 0.015625)"/>
      <use xlink:href="#Montserrat-Medium-73" transform="translate(433.979599 0.015625)"/>
      <use xlink:href="#Montserrat-Medium-73" transform="translate(484.07959 0.015625)"/>
      <use xlink:href="#Montserrat-Medium-69" transform="translate(534.179581 0.015625)"/>
      <use xlink:href="#Montserrat-Medium-6f" transform="translate(562.079575 0.015625)"/>
      <use xlink:href="#Montserrat-Medium-6e" transform="translate(625.579559 0.015625)"/>
     </g>
    </g>
    <g id="line2d_20">
     <g>
      <use xlink:href="#md514422e92" x="154.949168" y="45.1524" style="fill: #ffffff; stroke: #112d4e"/>
     </g>
    </g>
    <g id="text_12">
     <!-- Starting Point -->
     <g transform="translate(172.949168 48.6524) scale(0.1 -0.1)">
      <defs>
       <path id="Montserrat-Medium-74" d="M 1747 -38 
Q 1235 -38 953 237 
Q 672 512 672 1024 
L 672 4134 
L 1286 4134 
L 1286 1050 
Q 1286 774 1424 627 
Q 1562 480 1818 480 
Q 2106 480 2298 640 
L 2490 198 
Q 2349 77 2153 19 
Q 1958 -38 1747 -38 
z
M 96 2886 
L 96 3392 
L 2259 3392 
L 2259 2886 
L 96 2886 
z
" transform="scale(0.015625)"/>
      </defs>
      <use xlink:href="#Montserrat-Medium-53"/>
      <use xlink:href="#Montserrat-Medium-74" transform="translate(62.099991 0)"/>
      <use xlink:href="#Montserrat-Medium-61" transform="translate(103.499985 0)"/>
      <use xlink:href="#Montserrat-Medium-72" transform="translate(163.299973 0)"/>
      <use xlink:href="#Montserrat-Medium-74" transform="translate(204.299957 0)"/>
      <use xlink:href="#Montserrat-Medium-69" transform="translate(245.699951 0)"/>
      <use xlink:href="#Montserrat-Medium-6e" transform="translate(273.599945 0)"/>
      <use xlink:href="#Montserrat-Medium-67" transform="translate(341.699936 0)"/>
      <use xlink:href="#Montserrat-Medium-20" transform="translate(410.699921 0)"/>
      <use xlink:href="#Montserrat-Medium-50" transform="translate(437.599915 0)"/>
      <use xlink:href="#Montserrat-Medium-6f" transform="translate(509.799896 0)"/>
      <use xlink:href="#Montserrat-Medium-69" transform="translate(573.299881 0)"/>
      <use xlink:href="#Montserrat-Medium-6e" transform="translate(601.199875 0)"/>
      <use xlink:href="#Montserrat-Medium-74" transform="translate(669.299866 0)"/>
     </g>
    </g>
   </g>
  </g>
 </g>
 <defs>
  <clipPath id="p630a951b1a">
   <rect x="20.8" y="17.482087" width="16.751351" height="151.360004"/>
  </clipPath>
  <clipPath id="pbb8daa2105">
   <rect x="52.004834" y="17.482087" width="201.016209" height="151.360004"/>
  </clipPath>
 </defs>
</svg>
