<?xml version="1.0" encoding="utf-8" standalone="no"?>
<!DOCTYPE svg PUBLIC "-//W3C//DTD SVG 1.1//EN"
  "http://www.w3.org/Graphics/SVG/1.1/DTD/svg11.dtd">
<svg xmlns:xlink="http://www.w3.org/1999/xlink" width="414.015625pt" height="323.285774pt" viewBox="0 0 414.015625 323.285774" xmlns="http://www.w3.org/2000/svg" version="1.1">
 <metadata>
  <rdf:RDF xmlns:dc="http://purl.org/dc/elements/1.1/" xmlns:cc="http://creativecommons.org/ns#" xmlns:rdf="http://www.w3.org/1999/02/22-rdf-syntax-ns#">
   <cc:Work>
    <dc:type rdf:resource="http://purl.org/dc/dcmitype/StillImage"/>
    <dc:date>2025-09-09T16:46:49.579983</dc:date>
    <dc:format>image/svg+xml</dc:format>
    <dc:creator>
     <cc:Agent>
      <dc:title>Matplotlib v3.10.5, https://matplotlib.org/</dc:title>
     </cc:Agent>
    </dc:creator>
   </cc:Work>
  </rdf:RDF>
 </metadata>
 <defs>
  <style type="text/css">*{stroke-linejoin: round; stroke-linecap: butt}</style>
 </defs>
 <g id="figure_1">
  <g id="patch_1">
   <path d="M 0 323.285774 
L 414.015625 323.285774 
L 414.015625 0 
L 0 0 
z
" style="fill: #ffffff"/>
  </g>
  <g id="axes_1">
   <g id="patch_2">
    <path d="M 56.347812 120.215829 
L 391.147812 120.215829 
L 391.147812 23.798437 
L 56.347812 23.798437 
z
" style="fill: #ffffff"/>
   </g>
   <g id="matplotlib.axis_1">
    <g id="xtick_1">
     <g id="line2d_1">
      <defs>
       <path id="m0f56b2f989" d="M 0 0 
L 0 3.5 
" style="stroke: #000000; stroke-width: 0.8"/>
      </defs>
      <g>
       <use xlink:href="#m0f56b2f989" x="66.810312" y="120.215829" style="stroke: #000000; stroke-width: 0.8"/>
      </g>
     </g>
    </g>
    <g id="xtick_2">
     <g id="line2d_2">
      <g>
       <use xlink:href="#m0f56b2f989" x="87.735312" y="120.215829" style="stroke: #000000; stroke-width: 0.8"/>
      </g>
     </g>
    </g>
    <g id="xtick_3">
     <g id="line2d_3">
      <g>
       <use xlink:href="#m0f56b2f989" x="108.660313" y="120.215829" style="stroke: #000000; stroke-width: 0.8"/>
      </g>
     </g>
    </g>
    <g id="xtick_4">
     <g id="line2d_4">
      <g>
       <use xlink:href="#m0f56b2f989" x="129.585312" y="120.215829" style="stroke: #000000; stroke-width: 0.8"/>
      </g>
     </g>
    </g>
    <g id="xtick_5">
     <g id="line2d_5">
      <g>
       <use xlink:href="#m0f56b2f989" x="150.510312" y="120.215829" style="stroke: #000000; stroke-width: 0.8"/>
      </g>
     </g>
    </g>
    <g id="xtick_6">
     <g id="line2d_6">
      <g>
       <use xlink:href="#m0f56b2f989" x="171.435313" y="120.215829" style="stroke: #000000; stroke-width: 0.8"/>
      </g>
     </g>
    </g>
    <g id="xtick_7">
     <g id="line2d_7">
      <g>
       <use xlink:href="#m0f56b2f989" x="192.360313" y="120.215829" style="stroke: #000000; stroke-width: 0.8"/>
      </g>
     </g>
    </g>
    <g id="xtick_8">
     <g id="line2d_8">
      <g>
       <use xlink:href="#m0f56b2f989" x="213.285312" y="120.215829" style="stroke: #000000; stroke-width: 0.8"/>
      </g>
     </g>
    </g>
    <g id="xtick_9">
     <g id="line2d_9">
      <g>
       <use xlink:href="#m0f56b2f989" x="234.210312" y="120.215829" style="stroke: #000000; stroke-width: 0.8"/>
      </g>
     </g>
    </g>
    <g id="xtick_10">
     <g id="line2d_10">
      <g>
       <use xlink:href="#m0f56b2f989" x="255.135312" y="120.215829" style="stroke: #000000; stroke-width: 0.8"/>
      </g>
     </g>
    </g>
    <g id="xtick_11">
     <g id="line2d_11">
      <g>
       <use xlink:href="#m0f56b2f989" x="276.060313" y="120.215829" style="stroke: #000000; stroke-width: 0.8"/>
      </g>
     </g>
    </g>
    <g id="xtick_12">
     <g id="line2d_12">
      <g>
       <use xlink:href="#m0f56b2f989" x="296.985313" y="120.215829" style="stroke: #000000; stroke-width: 0.8"/>
      </g>
     </g>
    </g>
    <g id="xtick_13">
     <g id="line2d_13">
      <g>
       <use xlink:href="#m0f56b2f989" x="317.910313" y="120.215829" style="stroke: #000000; stroke-width: 0.8"/>
      </g>
     </g>
    </g>
    <g id="xtick_14">
     <g id="line2d_14">
      <g>
       <use xlink:href="#m0f56b2f989" x="338.835313" y="120.215829" style="stroke: #000000; stroke-width: 0.8"/>
      </g>
     </g>
    </g>
    <g id="xtick_15">
     <g id="line2d_15">
      <g>
       <use xlink:href="#m0f56b2f989" x="359.760312" y="120.215829" style="stroke: #000000; stroke-width: 0.8"/>
      </g>
     </g>
    </g>
    <g id="xtick_16">
     <g id="line2d_16">
      <g>
       <use xlink:href="#m0f56b2f989" x="380.685313" y="120.215829" style="stroke: #000000; stroke-width: 0.8"/>
      </g>
     </g>
    </g>
   </g>
   <g id="matplotlib.axis_2">
    <g id="ytick_1">
     <g id="line2d_17">
      <path d="M 56.347812 120.215829 
L 391.147812 120.215829 
" clip-path="url(#pc92a5eb882)" style="fill: none; stroke: #b0b0b0; stroke-opacity: 0.5; stroke-width: 0.8; stroke-linecap: square"/>
     </g>
     <g id="line2d_18">
      <defs>
       <path id="m70287a6cff" d="M 0 0 
L -3.5 0 
" style="stroke: #000000; stroke-width: 0.8"/>
      </defs>
      <g>
       <use xlink:href="#m70287a6cff" x="56.347812" y="120.215829" style="stroke: #000000; stroke-width: 0.8"/>
      </g>
     </g>
     <g id="text_1">
      <!-- 0 -->
      <g transform="translate(42.6775 123.925985) scale(0.1 -0.1)">
       <defs>
        <path id="Montserrat-Medium-30" d="M 2138 -51 
Q 1613 -51 1200 217 
Q 787 486 547 998 
Q 307 1510 307 2240 
Q 307 2970 547 3482 
Q 787 3994 1200 4262 
Q 1613 4531 2138 4531 
Q 2656 4531 3072 4262 
Q 3488 3994 3725 3482 
Q 3962 2970 3962 2240 
Q 3962 1510 3725 998 
Q 3488 486 3072 217 
Q 2656 -51 2138 -51 
z
M 2138 518 
Q 2490 518 2755 710 
Q 3021 902 3171 1286 
Q 3322 1670 3322 2240 
Q 3322 2810 3171 3194 
Q 3021 3578 2755 3770 
Q 2490 3962 2138 3962 
Q 1786 3962 1517 3770 
Q 1248 3578 1097 3194 
Q 947 2810 947 2240 
Q 947 1670 1097 1286 
Q 1248 902 1517 710 
Q 1786 518 2138 518 
z
" transform="scale(0.015625)"/>
       </defs>
       <use xlink:href="#Montserrat-Medium-30"/>
      </g>
     </g>
    </g>
    <g id="ytick_2">
     <g id="line2d_19">
      <path d="M 56.347812 88.076698 
L 391.147812 88.076698 
" clip-path="url(#pc92a5eb882)" style="fill: none; stroke: #b0b0b0; stroke-opacity: 0.5; stroke-width: 0.8; stroke-linecap: square"/>
     </g>
     <g id="line2d_20">
      <g>
       <use xlink:href="#m70287a6cff" x="56.347812" y="88.076698" style="stroke: #000000; stroke-width: 0.8"/>
      </g>
     </g>
     <g id="text_2">
      <!-- 1 -->
      <g transform="translate(45.647812 91.786855) scale(0.1 -0.1)">
       <defs>
        <path id="Montserrat-Medium-31" d="M 1062 0 
L 1062 4224 
L 1338 3923 
L 51 3923 
L 51 4480 
L 1696 4480 
L 1696 0 
L 1062 0 
z
" transform="scale(0.015625)"/>
       </defs>
       <use xlink:href="#Montserrat-Medium-31"/>
      </g>
     </g>
    </g>
    <g id="ytick_3">
     <g id="line2d_21">
      <path d="M 56.347812 55.937568 
L 391.147812 55.937568 
" clip-path="url(#pc92a5eb882)" style="fill: none; stroke: #b0b0b0; stroke-opacity: 0.5; stroke-width: 0.8; stroke-linecap: square"/>
     </g>
     <g id="line2d_22">
      <g>
       <use xlink:href="#m70287a6cff" x="56.347812" y="55.937568" style="stroke: #000000; stroke-width: 0.8"/>
      </g>
     </g>
     <g id="text_3">
      <!-- 2 -->
      <g transform="translate(43.607187 59.647724) scale(0.1 -0.1)">
       <defs>
        <path id="Montserrat-Medium-32" d="M 237 0 
L 237 435 
L 2061 2195 
Q 2304 2426 2422 2602 
Q 2541 2778 2582 2928 
Q 2624 3078 2624 3219 
Q 2624 3565 2381 3763 
Q 2138 3962 1670 3962 
Q 1312 3962 1024 3843 
Q 736 3725 525 3475 
L 90 3853 
Q 346 4179 778 4355 
Q 1210 4531 1728 4531 
Q 2195 4531 2540 4380 
Q 2886 4230 3075 3948 
Q 3264 3667 3264 3283 
Q 3264 3066 3206 2854 
Q 3149 2643 2989 2406 
Q 2829 2170 2528 1875 
L 902 307 
L 749 557 
L 3456 557 
L 3456 0 
L 237 0 
z
" transform="scale(0.015625)"/>
       </defs>
       <use xlink:href="#Montserrat-Medium-32"/>
      </g>
     </g>
    </g>
    <g id="ytick_4">
     <g id="line2d_23">
      <path d="M 56.347812 23.798437 
L 391.147812 23.798437 
" clip-path="url(#pc92a5eb882)" style="fill: none; stroke: #b0b0b0; stroke-opacity: 0.5; stroke-width: 0.8; stroke-linecap: square"/>
     </g>
     <g id="line2d_24">
      <g>
       <use xlink:href="#m70287a6cff" x="56.347812" y="23.798437" style="stroke: #000000; stroke-width: 0.8"/>
      </g>
     </g>
     <g id="text_4">
      <!-- 3 -->
      <g transform="translate(43.6275 27.508594) scale(0.1 -0.1)">
       <defs>
        <path id="Montserrat-Medium-33" d="M 1677 -51 
Q 1203 -51 758 96 
Q 314 243 32 493 
L 326 998 
Q 550 787 908 652 
Q 1267 518 1677 518 
Q 2176 518 2454 732 
Q 2733 947 2733 1312 
Q 2733 1664 2467 1878 
Q 2202 2093 1626 2093 
L 1267 2093 
L 1267 2541 
L 2598 4179 
L 2688 3923 
L 237 3923 
L 237 4480 
L 3194 4480 
L 3194 4045 
L 1869 2413 
L 1536 2611 
L 1747 2611 
Q 2560 2611 2966 2246 
Q 3373 1882 3373 1318 
Q 3373 941 3187 627 
Q 3002 314 2627 131 
Q 2253 -51 1677 -51 
z
" transform="scale(0.015625)"/>
       </defs>
       <use xlink:href="#Montserrat-Medium-33"/>
      </g>
     </g>
    </g>
    <g id="text_5">
     <!-- Elapsed Time (h) -->
     <g transform="translate(36.34875 123.212446) rotate(-90) scale(0.12 -0.12)">
      <defs>
       <path id="Montserrat-MediumItalic-45" d="M 1427 2547 
L 3731 2547 
L 3622 2003 
L 1318 2003 
L 1427 2547 
z
M 1082 557 
L 3699 557 
L 3590 0 
L 333 0 
L 1229 4480 
L 4390 4480 
L 4282 3923 
L 1754 3923 
L 1082 557 
z
" transform="scale(0.015625)"/>
       <path id="Montserrat-MediumItalic-6c" d="M 250 0 
L 1197 4749 
L 1811 4749 
L 864 0 
L 250 0 
z
" transform="scale(0.015625)"/>
       <path id="Montserrat-MediumItalic-61" d="M 1741 -38 
Q 1312 -38 973 138 
Q 634 314 438 640 
Q 243 966 243 1427 
Q 243 1862 387 2227 
Q 531 2592 790 2861 
Q 1050 3130 1402 3277 
Q 1754 3424 2163 3424 
Q 2605 3424 2912 3270 
Q 3219 3117 3385 2819 
Q 3552 2522 3552 2093 
Q 3552 1466 3334 982 
Q 3117 499 2710 230 
Q 2304 -38 1741 -38 
z
M 1875 499 
Q 2259 499 2560 684 
Q 2861 870 3030 1193 
Q 3200 1517 3200 1933 
Q 3200 2381 2937 2633 
Q 2675 2886 2189 2886 
Q 1811 2886 1510 2704 
Q 1210 2522 1037 2198 
Q 864 1875 864 1453 
Q 864 1011 1126 755 
Q 1389 499 1875 499 
z
M 2854 0 
L 3034 877 
L 3238 1664 
L 3322 2470 
L 3501 3392 
L 4115 3392 
L 3443 0 
L 2854 0 
z
" transform="scale(0.015625)"/>
       <path id="Montserrat-MediumItalic-70" d="M 2202 -38 
Q 1766 -38 1456 118 
Q 1146 275 979 572 
Q 813 870 813 1293 
Q 813 1933 1030 2409 
Q 1248 2886 1654 3155 
Q 2061 3424 2624 3424 
Q 3059 3424 3395 3251 
Q 3731 3078 3926 2748 
Q 4122 2419 4122 1965 
Q 4122 1530 3978 1165 
Q 3834 800 3574 531 
Q 3315 262 2963 112 
Q 2611 -38 2202 -38 
z
M 0 -1242 
L 922 3392 
L 1510 3392 
L 1331 2515 
L 1133 1728 
L 1043 922 
L 614 -1242 
L 0 -1242 
z
M 2176 499 
Q 2560 499 2857 684 
Q 3155 870 3328 1193 
Q 3501 1517 3501 1933 
Q 3501 2381 3238 2633 
Q 2976 2886 2490 2886 
Q 2112 2886 1808 2704 
Q 1504 2522 1334 2198 
Q 1165 1875 1165 1453 
Q 1165 1011 1427 755 
Q 1690 499 2176 499 
z
" transform="scale(0.015625)"/>
       <path id="Montserrat-MediumItalic-73" d="M 1318 -38 
Q 890 -38 509 74 
Q 128 186 -77 352 
L 198 838 
Q 397 685 713 589 
Q 1030 493 1376 493 
Q 1818 493 2042 627 
Q 2266 762 2266 992 
Q 2266 1158 2131 1244 
Q 1997 1331 1782 1379 
Q 1568 1427 1325 1475 
Q 1082 1523 870 1612 
Q 659 1702 521 1872 
Q 384 2042 384 2323 
Q 384 2662 576 2908 
Q 768 3155 1113 3289 
Q 1459 3424 1920 3424 
Q 2253 3424 2576 3344 
Q 2899 3264 3104 3117 
L 2861 2630 
Q 2650 2778 2387 2838 
Q 2125 2899 1862 2899 
Q 1434 2899 1216 2755 
Q 998 2611 998 2394 
Q 998 2227 1132 2134 
Q 1267 2042 1481 1990 
Q 1696 1939 1936 1891 
Q 2176 1843 2390 1756 
Q 2605 1670 2739 1507 
Q 2874 1344 2874 1062 
Q 2874 710 2678 464 
Q 2483 218 2131 90 
Q 1779 -38 1318 -38 
z
" transform="scale(0.015625)"/>
       <path id="Montserrat-MediumItalic-65" d="M 1869 -38 
Q 1370 -38 1005 144 
Q 640 326 441 656 
Q 243 986 243 1434 
Q 243 2010 492 2458 
Q 742 2906 1174 3165 
Q 1606 3424 2157 3424 
Q 2618 3424 2957 3248 
Q 3296 3072 3485 2745 
Q 3674 2419 3674 1958 
Q 3674 1843 3661 1724 
Q 3648 1606 3629 1504 
L 691 1504 
L 768 1952 
L 3334 1952 
L 3085 1798 
Q 3142 2157 3033 2403 
Q 2925 2650 2691 2781 
Q 2458 2912 2131 2912 
Q 1747 2912 1456 2729 
Q 1165 2547 1005 2224 
Q 845 1901 845 1466 
Q 845 1005 1110 752 
Q 1376 499 1920 499 
Q 2240 499 2515 604 
Q 2790 710 2970 890 
L 3232 448 
Q 2989 211 2624 86 
Q 2259 -38 1869 -38 
z
" transform="scale(0.015625)"/>
       <path id="Montserrat-MediumItalic-64" d="M 1741 -38 
Q 1312 -38 973 138 
Q 634 314 438 640 
Q 243 966 243 1427 
Q 243 1862 387 2227 
Q 531 2592 790 2861 
Q 1050 3130 1402 3277 
Q 1754 3424 2163 3424 
Q 2605 3424 2912 3270 
Q 3219 3117 3385 2819 
Q 3552 2522 3552 2093 
Q 3552 1619 3430 1228 
Q 3309 838 3069 553 
Q 2829 269 2496 115 
Q 2163 -38 1741 -38 
z
M 1875 499 
Q 2259 499 2560 684 
Q 2861 870 3030 1193 
Q 3200 1517 3200 1933 
Q 3200 2381 2937 2633 
Q 2675 2886 2189 2886 
Q 1811 2886 1510 2704 
Q 1210 2522 1037 2198 
Q 864 1875 864 1453 
Q 864 1011 1126 755 
Q 1389 499 1875 499 
z
M 2854 0 
L 3034 877 
L 3232 1664 
L 3322 2470 
L 3776 4749 
L 4390 4749 
L 3443 0 
L 2854 0 
z
" transform="scale(0.015625)"/>
       <path id="Montserrat-MediumItalic-20" transform="scale(0.015625)"/>
       <path id="Montserrat-MediumItalic-54" d="M 1222 0 
L 2003 3923 
L 474 3923 
L 582 4480 
L 4288 4480 
L 4173 3923 
L 2643 3923 
L 1856 0 
L 1222 0 
z
" transform="scale(0.015625)"/>
       <path id="Montserrat-MediumItalic-69" d="M 250 0 
L 922 3392 
L 1536 3392 
L 864 0 
L 250 0 
z
M 1415 4045 
Q 1242 4045 1133 4153 
Q 1024 4262 1024 4416 
Q 1024 4595 1145 4720 
Q 1267 4845 1466 4845 
Q 1639 4845 1747 4739 
Q 1856 4634 1856 4486 
Q 1856 4288 1734 4166 
Q 1613 4045 1415 4045 
z
" transform="scale(0.015625)"/>
       <path id="Montserrat-MediumItalic-6d" d="M 5075 3424 
Q 5530 3424 5824 3245 
Q 6118 3066 6236 2723 
Q 6355 2381 6253 1901 
L 5875 0 
L 5261 0 
L 5638 1901 
Q 5734 2362 5558 2618 
Q 5382 2874 4922 2874 
Q 4454 2874 4147 2611 
Q 3840 2349 3731 1811 
L 3366 0 
L 2752 0 
L 3136 1901 
Q 3226 2362 3050 2618 
Q 2874 2874 2413 2874 
Q 1946 2874 1638 2608 
Q 1331 2342 1222 1792 
L 864 0 
L 250 0 
L 922 3392 
L 1510 3392 
L 1318 2419 
L 1203 2682 
Q 1440 3066 1801 3245 
Q 2163 3424 2605 3424 
Q 2950 3424 3206 3309 
Q 3462 3194 3612 2966 
Q 3763 2739 3789 2419 
L 3456 2483 
Q 3718 2957 4131 3190 
Q 4544 3424 5075 3424 
z
" transform="scale(0.015625)"/>
       <path id="Montserrat-MediumItalic-28" d="M 800 -1242 
Q 717 -1011 643 -723 
Q 570 -435 534 -118 
Q 499 198 499 506 
Q 499 1088 598 1670 
Q 698 2253 883 2806 
Q 1069 3360 1337 3853 
Q 1606 4346 1939 4749 
L 2566 4749 
Q 2214 4307 1945 3795 
Q 1677 3283 1481 2732 
Q 1286 2182 1187 1609 
Q 1088 1037 1088 474 
Q 1088 38 1158 -381 
Q 1229 -800 1363 -1242 
L 800 -1242 
z
" transform="scale(0.015625)"/>
       <path id="Montserrat-MediumItalic-68" d="M 2656 3424 
Q 3104 3424 3405 3245 
Q 3706 3066 3824 2723 
Q 3942 2381 3846 1901 
L 3469 0 
L 2854 0 
L 3232 1901 
Q 3328 2362 3142 2618 
Q 2957 2874 2477 2874 
Q 1984 2874 1657 2608 
Q 1331 2342 1222 1792 
L 864 0 
L 250 0 
L 1197 4749 
L 1811 4749 
L 1344 2419 
L 1203 2682 
Q 1446 3066 1820 3245 
Q 2195 3424 2656 3424 
z
" transform="scale(0.015625)"/>
       <path id="Montserrat-MediumItalic-29" d="M -122 -1242 
Q 230 -800 502 -288 
Q 774 224 966 774 
Q 1158 1325 1257 1897 
Q 1357 2470 1357 3034 
Q 1357 3469 1289 3888 
Q 1222 4307 1082 4749 
L 1645 4749 
Q 1734 4525 1804 4233 
Q 1875 3942 1910 3628 
Q 1946 3315 1946 3002 
Q 1946 2419 1846 1836 
Q 1747 1254 1561 700 
Q 1376 147 1110 -345 
Q 845 -838 506 -1242 
L -122 -1242 
z
" transform="scale(0.015625)"/>
      </defs>
      <use xlink:href="#Montserrat-MediumItalic-45"/>
      <use xlink:href="#Montserrat-MediumItalic-6c" transform="translate(66.999985 0)"/>
      <use xlink:href="#Montserrat-MediumItalic-61" transform="translate(94.899979 0)"/>
      <use xlink:href="#Montserrat-MediumItalic-70" transform="translate(163.09996 0)"/>
      <use xlink:href="#Montserrat-MediumItalic-73" transform="translate(231.299942 0)"/>
      <use xlink:href="#Montserrat-MediumItalic-65" transform="translate(281.399933 0)"/>
      <use xlink:href="#Montserrat-MediumItalic-64" transform="translate(342.499924 0)"/>
      <use xlink:href="#Montserrat-MediumItalic-20" transform="translate(410.699905 0)"/>
      <use xlink:href="#Montserrat-MediumItalic-54" transform="translate(437.599899 0)"/>
      <use xlink:href="#Montserrat-MediumItalic-69" transform="translate(496.299896 0)"/>
      <use xlink:href="#Montserrat-MediumItalic-6d" transform="translate(524.19989 0)"/>
      <use xlink:href="#Montserrat-MediumItalic-65" transform="translate(629.899872 0)"/>
      <use xlink:href="#Montserrat-MediumItalic-20" transform="translate(690.999863 0)"/>
      <use xlink:href="#Montserrat-MediumItalic-28" transform="translate(717.899857 0)"/>
      <use xlink:href="#Montserrat-MediumItalic-68" transform="translate(751.599854 0)"/>
      <use xlink:href="#Montserrat-MediumItalic-29" transform="translate(819.699844 0)"/>
     </g>
    </g>
   </g>
   <g id="patch_3">
    <path d="M 79.365312 120.215829 
L 96.105312 120.215829 
L 96.105312 77.820461 
L 79.365312 77.820461 
z
" clip-path="url(#pc92a5eb882)" style="fill: #7798ec; stroke: #000000; stroke-width: 0.5; stroke-linejoin: miter"/>
   </g>
   <g id="patch_4">
    <path d="M 163.065313 120.215829 
L 179.805313 120.215829 
L 179.805313 82.47705 
L 163.065313 82.47705 
z
" clip-path="url(#pc92a5eb882)" style="fill: #7798ec; stroke: #000000; stroke-width: 0.5; stroke-linejoin: miter"/>
   </g>
   <g id="patch_5">
    <path d="M 225.840312 120.215829 
L 242.580312 120.215829 
L 242.580312 80.502258 
L 225.840312 80.502258 
z
" clip-path="url(#pc92a5eb882)" style="fill: #7798ec; stroke: #000000; stroke-width: 0.5; stroke-linejoin: miter"/>
   </g>
   <g id="patch_6">
    <path d="M 351.390312 120.215829 
L 368.130313 120.215829 
L 368.130313 81.939584 
L 351.390312 81.939584 
z
" clip-path="url(#pc92a5eb882)" style="fill: #7798ec; stroke: #000000; stroke-width: 0.5; stroke-linejoin: miter"/>
   </g>
   <g id="patch_7">
    <path d="M 58.440312 120.215829 
L 75.180312 120.215829 
L 75.180312 70.672266 
L 58.440312 70.672266 
z
" clip-path="url(#pc92a5eb882)" style="fill: #c53d7f; stroke: #000000; stroke-width: 0.5; stroke-linejoin: miter"/>
   </g>
   <g id="patch_8">
    <path d="M 100.290312 120.215829 
L 117.030312 120.215829 
L 117.030312 71.613197 
L 100.290312 71.613197 
z
" clip-path="url(#pc92a5eb882)" style="fill: #c53d7f; stroke: #000000; stroke-width: 0.5; stroke-linejoin: miter"/>
   </g>
   <g id="patch_9">
    <path d="M 142.140312 120.215829 
L 158.880313 120.215829 
L 158.880313 73.643242 
L 142.140312 73.643242 
z
" clip-path="url(#pc92a5eb882)" style="fill: #c53d7f; stroke: #000000; stroke-width: 0.5; stroke-linejoin: miter"/>
   </g>
   <g id="patch_10">
    <path d="M 267.690313 120.215829 
L 284.430313 120.215829 
L 284.430313 70.554355 
L 267.690313 70.554355 
z
" clip-path="url(#pc92a5eb882)" style="fill: #c53d7f; stroke: #000000; stroke-width: 0.5; stroke-linejoin: miter"/>
   </g>
   <g id="patch_11">
    <path d="M 288.615313 120.215829 
L 305.355313 120.215829 
L 305.355313 73.757278 
L 288.615313 73.757278 
z
" clip-path="url(#pc92a5eb882)" style="fill: #c53d7f; stroke: #000000; stroke-width: 0.5; stroke-linejoin: miter"/>
   </g>
   <g id="patch_12">
    <path d="M 309.540312 120.215829 
L 326.280312 120.215829 
L 326.280312 72.183126 
L 309.540312 72.183126 
z
" clip-path="url(#pc92a5eb882)" style="fill: #c53d7f; stroke: #000000; stroke-width: 0.5; stroke-linejoin: miter"/>
   </g>
   <g id="patch_13">
    <path d="M 330.465313 120.215829 
L 347.205313 120.215829 
L 347.205313 71.086177 
L 330.465313 71.086177 
z
" clip-path="url(#pc92a5eb882)" style="fill: #c53d7f; stroke: #000000; stroke-width: 0.5; stroke-linejoin: miter"/>
   </g>
   <g id="patch_14">
    <path d="M 372.315313 120.215829 
L 389.055313 120.215829 
L 389.055313 71.541711 
L 372.315313 71.541711 
z
" clip-path="url(#pc92a5eb882)" style="fill: #c53d7f; stroke: #000000; stroke-width: 0.5; stroke-linejoin: miter"/>
   </g>
   <g id="patch_15">
    <path d="M 121.215312 120.215829 
L 137.955312 120.215829 
L 137.955312 74.768926 
L 121.215312 74.768926 
z
" clip-path="url(#pc92a5eb882)" style="fill: #dfa420; stroke: #000000; stroke-width: 0.5; stroke-linejoin: miter"/>
   </g>
   <g id="patch_16">
    <path d="M 183.990312 120.215829 
L 200.730312 120.215829 
L 200.730312 72.569953 
L 183.990312 72.569953 
z
" clip-path="url(#pc92a5eb882)" style="fill: #dfa420; stroke: #000000; stroke-width: 0.5; stroke-linejoin: miter"/>
   </g>
   <g id="patch_17">
    <path d="M 204.915312 120.215829 
L 221.655312 120.215829 
L 221.655312 76.225232 
L 204.915312 76.225232 
z
" clip-path="url(#pc92a5eb882)" style="fill: #dfa420; stroke: #000000; stroke-width: 0.5; stroke-linejoin: miter"/>
   </g>
   <g id="patch_18">
    <path d="M 246.765312 120.215829 
L 263.505313 120.215829 
L 263.505313 72.732279 
L 246.765312 72.732279 
z
" clip-path="url(#pc92a5eb882)" style="fill: #dfa420; stroke: #000000; stroke-width: 0.5; stroke-linejoin: miter"/>
   </g>
   <g id="patch_19">
    <path d="M 66.810312 120.215829 
L 66.810312 120.215829 
L 66.810312 120.215829 
L 66.810312 120.215829 
z
" clip-path="url(#pc92a5eb882)" style="fill: #7798ec; stroke: #000000; stroke-width: 0.5; stroke-linejoin: miter"/>
   </g>
   <g id="patch_20">
    <path d="M 66.810312 120.215829 
L 66.810312 120.215829 
L 66.810312 120.215829 
L 66.810312 120.215829 
z
" clip-path="url(#pc92a5eb882)" style="fill: #c53d7f; stroke: #000000; stroke-width: 0.5; stroke-linejoin: miter"/>
   </g>
   <g id="patch_21">
    <path d="M 66.810312 120.215829 
L 66.810312 120.215829 
L 66.810312 120.215829 
L 66.810312 120.215829 
z
" clip-path="url(#pc92a5eb882)" style="fill: #dfa420; stroke: #000000; stroke-width: 0.5; stroke-linejoin: miter"/>
   </g>
   <g id="line2d_25">
    <path d="M 84.596562 89.317738 
L 90.874062 89.317738 
M 87.735312 89.317738 
L 87.735312 66.323184 
M 84.596562 66.323184 
L 90.874062 66.323184 
" clip-path="url(#pc92a5eb882)" style="fill: none; stroke: #424242; stroke-linecap: square"/>
   </g>
   <g id="line2d_26">
    <path d="M 168.296562 83.696338 
L 174.574063 83.696338 
M 171.435313 83.696338 
L 171.435313 81.257763 
M 168.296562 81.257763 
L 174.574063 81.257763 
" clip-path="url(#pc92a5eb882)" style="fill: none; stroke: #424242; stroke-linecap: square"/>
   </g>
   <g id="line2d_27">
    <path d="M 231.071562 87.192952 
L 237.349063 87.192952 
M 234.210312 87.192952 
L 234.210312 73.811563 
M 231.071562 73.811563 
L 237.349063 73.811563 
" clip-path="url(#pc92a5eb882)" style="fill: none; stroke: #424242; stroke-linecap: square"/>
   </g>
   <g id="line2d_28">
    <path d="M 356.621563 82.548762 
L 362.899063 82.548762 
M 359.760312 82.548762 
L 359.760312 81.330406 
M 356.621563 81.330406 
L 362.899063 81.330406 
" clip-path="url(#pc92a5eb882)" style="fill: none; stroke: #424242; stroke-linecap: square"/>
   </g>
   <g id="line2d_29">
    <path d="M 63.671562 73.902056 
L 69.949062 73.902056 
M 66.810312 73.902056 
L 66.810312 67.442476 
M 63.671562 67.442476 
L 69.949062 67.442476 
" clip-path="url(#pc92a5eb882)" style="fill: none; stroke: #424242; stroke-linecap: square"/>
   </g>
   <g id="line2d_30">
    <path d="M 105.521562 74.392044 
L 111.799062 74.392044 
M 108.660313 74.392044 
L 108.660313 68.834351 
M 105.521562 68.834351 
L 111.799062 68.834351 
" clip-path="url(#pc92a5eb882)" style="fill: none; stroke: #424242; stroke-linecap: square"/>
   </g>
   <g id="line2d_31">
    <path d="M 147.371562 76.732392 
L 153.649063 76.732392 
M 150.510312 76.732392 
L 150.510312 70.554091 
M 147.371562 70.554091 
L 153.649063 70.554091 
" clip-path="url(#pc92a5eb882)" style="fill: none; stroke: #424242; stroke-linecap: square"/>
   </g>
   <g id="line2d_32">
    <path d="M 272.921562 73.528291 
L 279.199063 73.528291 
M 276.060313 73.528291 
L 276.060313 67.580419 
M 272.921562 67.580419 
L 279.199063 67.580419 
" clip-path="url(#pc92a5eb882)" style="fill: none; stroke: #424242; stroke-linecap: square"/>
   </g>
   <g id="line2d_33">
    <path d="M 293.846563 76.888419 
L 300.124063 76.888419 
M 296.985313 76.888419 
L 296.985313 70.626138 
M 293.846563 70.626138 
L 300.124063 70.626138 
" clip-path="url(#pc92a5eb882)" style="fill: none; stroke: #424242; stroke-linecap: square"/>
   </g>
   <g id="line2d_34">
    <path d="M 314.771563 75.43825 
L 321.049062 75.43825 
M 317.910313 75.43825 
L 317.910313 68.928002 
M 314.771563 68.928002 
L 321.049062 68.928002 
" clip-path="url(#pc92a5eb882)" style="fill: none; stroke: #424242; stroke-linecap: square"/>
   </g>
   <g id="line2d_35">
    <path d="M 335.696563 74.451114 
L 341.974063 74.451114 
M 338.835313 74.451114 
L 338.835313 67.72124 
M 335.696563 67.72124 
L 341.974063 67.72124 
" clip-path="url(#pc92a5eb882)" style="fill: none; stroke: #424242; stroke-linecap: square"/>
   </g>
   <g id="line2d_36">
    <path d="M 377.546562 76.66003 
L 383.824063 76.66003 
M 380.685313 76.66003 
L 380.685313 66.423392 
M 377.546562 66.423392 
L 383.824063 66.423392 
" clip-path="url(#pc92a5eb882)" style="fill: none; stroke: #424242; stroke-linecap: square"/>
   </g>
   <g id="line2d_37">
    <path d="M 126.446562 75.224891 
L 132.724063 75.224891 
M 129.585312 75.224891 
L 129.585312 74.312961 
M 126.446562 74.312961 
L 132.724063 74.312961 
" clip-path="url(#pc92a5eb882)" style="fill: none; stroke: #424242; stroke-linecap: square"/>
   </g>
   <g id="line2d_38">
    <path d="M 189.221563 72.942201 
L 195.499062 72.942201 
M 192.360313 72.942201 
L 192.360313 72.197705 
M 189.221563 72.197705 
L 195.499062 72.197705 
" clip-path="url(#pc92a5eb882)" style="fill: none; stroke: #424242; stroke-linecap: square"/>
   </g>
   <g id="line2d_39">
    <path d="M 210.146563 76.505152 
L 216.424062 76.505152 
M 213.285312 76.505152 
L 213.285312 75.945311 
M 210.146563 75.945311 
L 216.424062 75.945311 
" clip-path="url(#pc92a5eb882)" style="fill: none; stroke: #424242; stroke-linecap: square"/>
   </g>
   <g id="line2d_40">
    <path d="M 251.996562 74.576512 
L 258.274063 74.576512 
M 255.135312 74.576512 
L 255.135312 70.888046 
M 251.996562 70.888046 
L 258.274063 70.888046 
" clip-path="url(#pc92a5eb882)" style="fill: none; stroke: #424242; stroke-linecap: square"/>
   </g>
   <g id="patch_22">
    <path d="M 56.347812 120.215829 
L 56.347812 23.798437 
" style="fill: none; stroke: #000000; stroke-width: 0.8; stroke-linejoin: miter; stroke-linecap: square"/>
   </g>
   <g id="patch_23">
    <path d="M 56.347812 120.215829 
L 391.147813 120.215829 
" style="fill: none; stroke: #000000; stroke-width: 0.8; stroke-linejoin: miter; stroke-linecap: square"/>
   </g>
   <g id="text_6">
    <!-- Simulation Time for all 652 edges: Water Leg -->
    <g transform="translate(65.280937 17.798437) scale(0.14 -0.14)">
     <defs>
      <path id="Montserrat-Medium-53" d="M 1978 -51 
Q 1466 -51 998 105 
Q 531 262 262 512 
L 499 1011 
Q 755 787 1152 640 
Q 1549 493 1978 493 
Q 2368 493 2611 582 
Q 2854 672 2969 829 
Q 3085 986 3085 1184 
Q 3085 1414 2934 1555 
Q 2784 1696 2544 1782 
Q 2304 1869 2016 1933 
Q 1728 1997 1437 2083 
Q 1146 2170 906 2304 
Q 666 2438 518 2665 
Q 371 2893 371 3251 
Q 371 3597 553 3888 
Q 736 4179 1117 4355 
Q 1498 4531 2086 4531 
Q 2477 4531 2861 4428 
Q 3245 4326 3526 4134 
L 3315 3622 
Q 3027 3814 2707 3900 
Q 2387 3987 2086 3987 
Q 1709 3987 1465 3891 
Q 1222 3795 1110 3635 
Q 998 3475 998 3277 
Q 998 3040 1148 2899 
Q 1299 2758 1539 2675 
Q 1779 2592 2067 2525 
Q 2355 2458 2646 2374 
Q 2938 2291 3178 2156 
Q 3418 2022 3565 1798 
Q 3712 1574 3712 1222 
Q 3712 883 3526 592 
Q 3341 301 2953 125 
Q 2566 -51 1978 -51 
z
" transform="scale(0.015625)"/>
      <path id="Montserrat-Medium-69" d="M 582 0 
L 582 3392 
L 1197 3392 
L 1197 0 
L 582 0 
z
M 890 4045 
Q 710 4045 592 4160 
Q 474 4275 474 4442 
Q 474 4614 592 4729 
Q 710 4845 890 4845 
Q 1069 4845 1187 4733 
Q 1306 4621 1306 4454 
Q 1306 4282 1190 4163 
Q 1075 4045 890 4045 
z
" transform="scale(0.015625)"/>
      <path id="Montserrat-Medium-6d" d="M 582 0 
L 582 3392 
L 1171 3392 
L 1171 2490 
L 1075 2720 
Q 1235 3053 1568 3238 
Q 1901 3424 2342 3424 
Q 2829 3424 3181 3184 
Q 3533 2944 3642 2458 
L 3392 2560 
Q 3546 2950 3930 3187 
Q 4314 3424 4826 3424 
Q 5235 3424 5548 3264 
Q 5862 3104 6038 2777 
Q 6214 2451 6214 1952 
L 6214 0 
L 5600 0 
L 5600 1882 
Q 5600 2374 5369 2624 
Q 5139 2874 4723 2874 
Q 4416 2874 4185 2746 
Q 3955 2618 3830 2368 
Q 3706 2118 3706 1747 
L 3706 0 
L 3091 0 
L 3091 1882 
Q 3091 2374 2864 2624 
Q 2637 2874 2214 2874 
Q 1914 2874 1683 2746 
Q 1453 2618 1325 2368 
Q 1197 2118 1197 1747 
L 1197 0 
L 582 0 
z
" transform="scale(0.015625)"/>
      <path id="Montserrat-Medium-75" d="M 2010 -38 
Q 1574 -38 1244 122 
Q 915 282 732 611 
Q 550 941 550 1440 
L 550 3392 
L 1165 3392 
L 1165 1510 
Q 1165 1011 1405 761 
Q 1645 512 2080 512 
Q 2400 512 2637 643 
Q 2874 774 3002 1027 
Q 3130 1280 3130 1638 
L 3130 3392 
L 3744 3392 
L 3744 0 
L 3162 0 
L 3162 915 
L 3258 672 
Q 3091 333 2758 147 
Q 2426 -38 2010 -38 
z
" transform="scale(0.015625)"/>
      <path id="Montserrat-Medium-6c" d="M 582 0 
L 582 4749 
L 1197 4749 
L 1197 0 
L 582 0 
z
" transform="scale(0.015625)"/>
      <path id="Montserrat-Medium-61" d="M 2688 0 
L 2688 717 
L 2656 851 
L 2656 2074 
Q 2656 2464 2429 2678 
Q 2202 2893 1747 2893 
Q 1446 2893 1158 2793 
Q 870 2694 672 2528 
L 416 2989 
Q 678 3200 1046 3312 
Q 1414 3424 1818 3424 
Q 2515 3424 2892 3085 
Q 3270 2746 3270 2048 
L 3270 0 
L 2688 0 
z
M 1574 -38 
Q 1197 -38 912 90 
Q 627 218 473 445 
Q 320 672 320 960 
Q 320 1235 451 1459 
Q 582 1683 880 1817 
Q 1178 1952 1683 1952 
L 2758 1952 
L 2758 1510 
L 1709 1510 
Q 1248 1510 1088 1356 
Q 928 1203 928 986 
Q 928 736 1126 585 
Q 1325 435 1677 435 
Q 2022 435 2281 588 
Q 2541 742 2656 1037 
L 2778 614 
Q 2656 314 2349 138 
Q 2042 -38 1574 -38 
z
" transform="scale(0.015625)"/>
      <path id="Montserrat-Medium-74" d="M 1747 -38 
Q 1235 -38 953 237 
Q 672 512 672 1024 
L 672 4134 
L 1286 4134 
L 1286 1050 
Q 1286 774 1424 627 
Q 1562 480 1818 480 
Q 2106 480 2298 640 
L 2490 198 
Q 2349 77 2153 19 
Q 1958 -38 1747 -38 
z
M 96 2886 
L 96 3392 
L 2259 3392 
L 2259 2886 
L 96 2886 
z
" transform="scale(0.015625)"/>
      <path id="Montserrat-Medium-6f" d="M 2035 -38 
Q 1523 -38 1126 186 
Q 730 410 499 803 
Q 269 1197 269 1696 
Q 269 2202 499 2592 
Q 730 2982 1126 3203 
Q 1523 3424 2035 3424 
Q 2541 3424 2941 3203 
Q 3341 2982 3568 2595 
Q 3795 2208 3795 1696 
Q 3795 1190 3568 800 
Q 3341 410 2941 186 
Q 2541 -38 2035 -38 
z
M 2035 499 
Q 2362 499 2621 646 
Q 2880 794 3027 1066 
Q 3174 1338 3174 1696 
Q 3174 2061 3027 2326 
Q 2880 2592 2621 2739 
Q 2362 2886 2035 2886 
Q 1709 2886 1453 2739 
Q 1197 2592 1043 2326 
Q 890 2061 890 1696 
Q 890 1338 1043 1066 
Q 1197 794 1453 646 
Q 1709 499 2035 499 
z
" transform="scale(0.015625)"/>
      <path id="Montserrat-Medium-6e" d="M 582 0 
L 582 3392 
L 1171 3392 
L 1171 2477 
L 1075 2720 
Q 1242 3053 1587 3238 
Q 1933 3424 2394 3424 
Q 2810 3424 3126 3264 
Q 3443 3104 3622 2777 
Q 3802 2451 3802 1952 
L 3802 0 
L 3187 0 
L 3187 1882 
Q 3187 2374 2947 2624 
Q 2707 2874 2272 2874 
Q 1946 2874 1702 2746 
Q 1459 2618 1328 2368 
Q 1197 2118 1197 1747 
L 1197 0 
L 582 0 
z
" transform="scale(0.015625)"/>
      <path id="Montserrat-Medium-20" transform="scale(0.015625)"/>
      <path id="Montserrat-Medium-54" d="M 1562 0 
L 1562 3923 
L 26 3923 
L 26 4480 
L 3731 4480 
L 3731 3923 
L 2195 3923 
L 2195 0 
L 1562 0 
z
" transform="scale(0.015625)"/>
      <path id="Montserrat-Medium-65" d="M 2093 -38 
Q 1549 -38 1136 186 
Q 723 410 496 800 
Q 269 1190 269 1696 
Q 269 2202 489 2592 
Q 710 2982 1097 3203 
Q 1485 3424 1971 3424 
Q 2464 3424 2841 3206 
Q 3219 2989 3433 2595 
Q 3648 2202 3648 1677 
Q 3648 1638 3645 1587 
Q 3642 1536 3635 1491 
L 749 1491 
L 749 1933 
L 3315 1933 
L 3066 1779 
Q 3072 2106 2931 2362 
Q 2790 2618 2544 2762 
Q 2298 2906 1971 2906 
Q 1651 2906 1401 2762 
Q 1152 2618 1011 2358 
Q 870 2099 870 1766 
L 870 1664 
Q 870 1325 1027 1059 
Q 1184 794 1465 646 
Q 1747 499 2112 499 
Q 2413 499 2659 601 
Q 2906 704 3091 909 
L 3430 512 
Q 3200 243 2857 102 
Q 2515 -38 2093 -38 
z
" transform="scale(0.015625)"/>
      <path id="Montserrat-Medium-66" d="M 672 0 
L 672 3693 
Q 672 4192 963 4489 
Q 1254 4787 1792 4787 
Q 1990 4787 2172 4739 
Q 2355 4691 2483 4589 
L 2298 4122 
Q 2202 4198 2080 4240 
Q 1958 4282 1824 4282 
Q 1555 4282 1414 4131 
Q 1274 3981 1274 3686 
L 1274 3232 
L 1286 2950 
L 1286 0 
L 672 0 
z
M 96 2886 
L 96 3392 
L 2259 3392 
L 2259 2886 
L 96 2886 
z
" transform="scale(0.015625)"/>
      <path id="Montserrat-Medium-72" d="M 582 0 
L 582 3392 
L 1171 3392 
L 1171 2470 
L 1114 2701 
Q 1254 3053 1587 3238 
Q 1920 3424 2406 3424 
L 2406 2829 
Q 2368 2835 2333 2835 
Q 2298 2835 2266 2835 
Q 1773 2835 1485 2540 
Q 1197 2246 1197 1690 
L 1197 0 
L 582 0 
z
" transform="scale(0.015625)"/>
      <path id="Montserrat-Medium-36" d="M 2189 -51 
Q 1594 -51 1171 211 
Q 749 474 528 970 
Q 307 1466 307 2182 
Q 307 2944 576 3469 
Q 845 3994 1325 4262 
Q 1805 4531 2426 4531 
Q 2746 4531 3037 4467 
Q 3328 4403 3539 4269 
L 3296 3770 
Q 3123 3891 2902 3936 
Q 2682 3981 2438 3981 
Q 1754 3981 1350 3555 
Q 947 3130 947 2291 
Q 947 2157 960 1971 
Q 973 1786 1024 1606 
L 806 1824 
Q 902 2118 1110 2320 
Q 1318 2522 1609 2621 
Q 1901 2720 2240 2720 
Q 2688 2720 3033 2553 
Q 3379 2387 3577 2083 
Q 3776 1779 3776 1363 
Q 3776 934 3565 614 
Q 3354 294 2995 121 
Q 2637 -51 2189 -51 
z
M 2163 467 
Q 2458 467 2678 576 
Q 2899 685 3027 880 
Q 3155 1075 3155 1338 
Q 3155 1734 2880 1968 
Q 2605 2202 2131 2202 
Q 1824 2202 1593 2086 
Q 1363 1971 1232 1776 
Q 1101 1581 1101 1331 
Q 1101 1101 1222 905 
Q 1344 710 1581 588 
Q 1818 467 2163 467 
z
" transform="scale(0.015625)"/>
      <path id="Montserrat-Medium-35" d="M 1754 -51 
Q 1280 -51 835 96 
Q 390 243 109 493 
L 403 998 
Q 627 787 985 652 
Q 1344 518 1747 518 
Q 2259 518 2534 736 
Q 2810 954 2810 1318 
Q 2810 1568 2688 1753 
Q 2566 1939 2268 2038 
Q 1971 2138 1453 2138 
L 435 2138 
L 672 4480 
L 3200 4480 
L 3200 3923 
L 909 3923 
L 1242 4237 
L 1056 2387 
L 723 2694 
L 1587 2694 
Q 2259 2694 2668 2521 
Q 3078 2349 3264 2045 
Q 3450 1741 3450 1344 
Q 3450 960 3264 643 
Q 3078 326 2704 137 
Q 2330 -51 1754 -51 
z
" transform="scale(0.015625)"/>
      <path id="Montserrat-Medium-64" d="M 1984 -38 
Q 1491 -38 1104 179 
Q 717 397 493 787 
Q 269 1178 269 1696 
Q 269 2214 493 2601 
Q 717 2989 1104 3206 
Q 1491 3424 1984 3424 
Q 2413 3424 2758 3232 
Q 3104 3040 3312 2656 
Q 3520 2272 3520 1696 
Q 3520 1120 3318 736 
Q 3117 352 2771 157 
Q 2426 -38 1984 -38 
z
M 2035 499 
Q 2355 499 2614 646 
Q 2874 794 3024 1066 
Q 3174 1338 3174 1696 
Q 3174 2061 3024 2326 
Q 2874 2592 2614 2739 
Q 2355 2886 2035 2886 
Q 1709 2886 1453 2739 
Q 1197 2592 1043 2326 
Q 890 2061 890 1696 
Q 890 1338 1043 1066 
Q 1197 794 1453 646 
Q 1709 499 2035 499 
z
M 3194 0 
L 3194 915 
L 3232 1702 
L 3168 2490 
L 3168 4749 
L 3782 4749 
L 3782 0 
L 3194 0 
z
" transform="scale(0.015625)"/>
      <path id="Montserrat-Medium-67" d="M 2067 -1280 
Q 1600 -1280 1161 -1149 
Q 723 -1018 448 -774 
L 742 -301 
Q 979 -506 1324 -624 
Q 1670 -742 2048 -742 
Q 2650 -742 2931 -460 
Q 3213 -179 3213 397 
L 3213 1114 
L 3277 1786 
L 3245 2464 
L 3245 3392 
L 3827 3392 
L 3827 461 
Q 3827 -435 3379 -857 
Q 2931 -1280 2067 -1280 
z
M 1990 141 
Q 1498 141 1110 349 
Q 723 557 496 928 
Q 269 1299 269 1786 
Q 269 2278 496 2646 
Q 723 3014 1110 3219 
Q 1498 3424 1990 3424 
Q 2426 3424 2784 3248 
Q 3142 3072 3356 2707 
Q 3571 2342 3571 1786 
Q 3571 1235 3356 870 
Q 3142 506 2784 323 
Q 2426 141 1990 141 
z
M 2061 678 
Q 2400 678 2662 819 
Q 2925 960 3075 1209 
Q 3226 1459 3226 1786 
Q 3226 2112 3075 2361 
Q 2925 2611 2662 2748 
Q 2400 2886 2061 2886 
Q 1722 2886 1456 2748 
Q 1190 2611 1040 2361 
Q 890 2112 890 1786 
Q 890 1459 1040 1209 
Q 1190 960 1456 819 
Q 1722 678 2061 678 
z
" transform="scale(0.015625)"/>
      <path id="Montserrat-Medium-73" d="M 1555 -38 
Q 1133 -38 752 77 
Q 371 192 154 358 
L 410 845 
Q 627 698 947 595 
Q 1267 493 1600 493 
Q 2029 493 2217 614 
Q 2406 736 2406 954 
Q 2406 1114 2291 1203 
Q 2176 1293 1987 1337 
Q 1798 1382 1568 1417 
Q 1338 1453 1107 1507 
Q 877 1562 685 1661 
Q 493 1760 377 1936 
Q 262 2112 262 2406 
Q 262 2714 435 2944 
Q 608 3174 925 3299 
Q 1242 3424 1677 3424 
Q 2010 3424 2352 3344 
Q 2694 3264 2912 3117 
L 2650 2630 
Q 2419 2784 2169 2841 
Q 1920 2899 1670 2899 
Q 1267 2899 1068 2768 
Q 870 2637 870 2432 
Q 870 2259 988 2166 
Q 1107 2074 1296 2022 
Q 1485 1971 1715 1936 
Q 1946 1901 2176 1846 
Q 2406 1792 2595 1696 
Q 2784 1600 2902 1427 
Q 3021 1254 3021 966 
Q 3021 659 2841 435 
Q 2662 211 2336 86 
Q 2010 -38 1555 -38 
z
" transform="scale(0.015625)"/>
      <path id="Montserrat-Medium-3a" d="M 730 2548 
Q 550 2548 422 2672 
Q 294 2797 294 2989 
Q 294 3181 422 3302 
Q 550 3424 730 3424 
Q 902 3424 1027 3302 
Q 1152 3181 1152 2989 
Q 1152 2797 1027 2672 
Q 902 2548 730 2548 
z
M 730 -38 
Q 550 -38 422 86 
Q 294 211 294 403 
Q 294 595 422 716 
Q 550 838 730 838 
Q 902 838 1027 716 
Q 1152 595 1152 403 
Q 1152 211 1027 86 
Q 902 -38 730 -38 
z
" transform="scale(0.015625)"/>
      <path id="Montserrat-Medium-57" d="M 1702 0 
L 205 4480 
L 864 4480 
L 2240 346 
L 1907 346 
L 3334 4480 
L 3923 4480 
L 5318 346 
L 4998 346 
L 6394 4480 
L 7002 4480 
L 5504 0 
L 4832 0 
L 3526 3834 
L 3699 3834 
L 2387 0 
L 1702 0 
z
" transform="scale(0.015625)"/>
      <path id="Montserrat-Medium-4c" d="M 672 0 
L 672 4480 
L 1312 4480 
L 1312 557 
L 3738 557 
L 3738 0 
L 672 0 
z
" transform="scale(0.015625)"/>
     </defs>
     <use xlink:href="#Montserrat-Medium-53"/>
     <use xlink:href="#Montserrat-Medium-69" transform="translate(62.099991 0)"/>
     <use xlink:href="#Montserrat-Medium-6d" transform="translate(89.999985 0)"/>
     <use xlink:href="#Montserrat-Medium-75" transform="translate(195.699966 0)"/>
     <use xlink:href="#Montserrat-Medium-6c" transform="translate(263.399948 0)"/>
     <use xlink:href="#Montserrat-Medium-61" transform="translate(291.299942 0)"/>
     <use xlink:href="#Montserrat-Medium-74" transform="translate(351.09993 0)"/>
     <use xlink:href="#Montserrat-Medium-69" transform="translate(392.499924 0)"/>
     <use xlink:href="#Montserrat-Medium-6f" transform="translate(420.399918 0)"/>
     <use xlink:href="#Montserrat-Medium-6e" transform="translate(483.899902 0)"/>
     <use xlink:href="#Montserrat-Medium-20" transform="translate(551.999893 0)"/>
     <use xlink:href="#Montserrat-Medium-54" transform="translate(578.899887 0)"/>
     <use xlink:href="#Montserrat-Medium-69" transform="translate(637.599884 0)"/>
     <use xlink:href="#Montserrat-Medium-6d" transform="translate(665.499878 0)"/>
     <use xlink:href="#Montserrat-Medium-65" transform="translate(771.19986 0)"/>
     <use xlink:href="#Montserrat-Medium-20" transform="translate(832.399857 0)"/>
     <use xlink:href="#Montserrat-Medium-66" transform="translate(859.29985 0)"/>
     <use xlink:href="#Montserrat-Medium-6f" transform="translate(894.599838 0)"/>
     <use xlink:href="#Montserrat-Medium-72" transform="translate(958.099823 0)"/>
     <use xlink:href="#Montserrat-Medium-20" transform="translate(999.099808 0)"/>
     <use xlink:href="#Montserrat-Medium-61" transform="translate(1025.999802 0)"/>
     <use xlink:href="#Montserrat-Medium-6c" transform="translate(1085.799789 0)"/>
     <use xlink:href="#Montserrat-Medium-6c" transform="translate(1113.699783 0)"/>
     <use xlink:href="#Montserrat-Medium-20" transform="translate(1141.599777 0)"/>
     <use xlink:href="#Montserrat-Medium-36" transform="translate(1168.499771 0)"/>
     <use xlink:href="#Montserrat-Medium-35" transform="translate(1230.199768 0)"/>
     <use xlink:href="#Montserrat-Medium-32" transform="translate(1287.599762 0)"/>
     <use xlink:href="#Montserrat-Medium-20" transform="translate(1344.999756 0)"/>
     <use xlink:href="#Montserrat-Medium-65" transform="translate(1371.89975 0)"/>
     <use xlink:href="#Montserrat-Medium-64" transform="translate(1433.099747 0)"/>
     <use xlink:href="#Montserrat-Medium-67" transform="translate(1501.299728 0)"/>
     <use xlink:href="#Montserrat-Medium-65" transform="translate(1570.299713 0)"/>
     <use xlink:href="#Montserrat-Medium-73" transform="translate(1631.49971 0)"/>
     <use xlink:href="#Montserrat-Medium-3a" transform="translate(1681.599701 0)"/>
     <use xlink:href="#Montserrat-Medium-20" transform="translate(1704.299698 0)"/>
     <use xlink:href="#Montserrat-Medium-57" transform="translate(1731.199692 0)"/>
     <use xlink:href="#Montserrat-Medium-61" transform="translate(1843.799683 0)"/>
     <use xlink:href="#Montserrat-Medium-74" transform="translate(1903.59967 0)"/>
     <use xlink:href="#Montserrat-Medium-65" transform="translate(1944.999664 0)"/>
     <use xlink:href="#Montserrat-Medium-72" transform="translate(2006.199661 0)"/>
     <use xlink:href="#Montserrat-Medium-20" transform="translate(2047.199646 0)"/>
     <use xlink:href="#Montserrat-Medium-4c" transform="translate(2074.09964 0)"/>
     <use xlink:href="#Montserrat-Medium-65" transform="translate(2133.499634 0)"/>
     <use xlink:href="#Montserrat-Medium-67" transform="translate(2194.699631 0)"/>
    </g>
   </g>
  </g>
  <g id="axes_2">
   <g id="patch_24">
    <path d="M 56.347812 245.558437 
L 391.147812 245.558437 
L 391.147812 149.141046 
L 56.347812 149.141046 
z
" style="fill: #ffffff"/>
   </g>
   <g id="matplotlib.axis_3">
    <g id="xtick_17">
     <g id="line2d_41">
      <g>
       <use xlink:href="#m0f56b2f989" x="66.810312" y="245.558437" style="stroke: #000000; stroke-width: 0.8"/>
      </g>
     </g>
     <g id="text_7">
      <!-- bace -->
      <g transform="translate(54.641447 275.22121) rotate(-45) scale(0.1 -0.1)">
       <defs>
        <path id="Montserrat-Medium-62" d="M 2381 -38 
Q 1946 -38 1597 157 
Q 1248 352 1046 736 
Q 845 1120 845 1696 
Q 845 2272 1053 2656 
Q 1261 3040 1609 3232 
Q 1958 3424 2381 3424 
Q 2880 3424 3264 3206 
Q 3648 2989 3872 2601 
Q 4096 2214 4096 1696 
Q 4096 1178 3872 787 
Q 3648 397 3264 179 
Q 2880 -38 2381 -38 
z
M 582 0 
L 582 4749 
L 1197 4749 
L 1197 2490 
L 1133 1702 
L 1171 915 
L 1171 0 
L 582 0 
z
M 2330 499 
Q 2656 499 2915 646 
Q 3174 794 3324 1066 
Q 3475 1338 3475 1696 
Q 3475 2061 3324 2326 
Q 3174 2592 2915 2739 
Q 2656 2886 2330 2886 
Q 2010 2886 1750 2739 
Q 1491 2592 1340 2326 
Q 1190 2061 1190 1696 
Q 1190 1338 1340 1066 
Q 1491 794 1750 646 
Q 2010 499 2330 499 
z
" transform="scale(0.015625)"/>
        <path id="Montserrat-Medium-63" d="M 2061 -38 
Q 1542 -38 1136 186 
Q 730 410 499 800 
Q 269 1190 269 1696 
Q 269 2202 499 2592 
Q 730 2982 1136 3203 
Q 1542 3424 2061 3424 
Q 2522 3424 2883 3241 
Q 3245 3059 3443 2701 
L 2976 2400 
Q 2810 2650 2570 2768 
Q 2330 2886 2054 2886 
Q 1722 2886 1459 2739 
Q 1197 2592 1043 2326 
Q 890 2061 890 1696 
Q 890 1331 1043 1062 
Q 1197 794 1459 646 
Q 1722 499 2054 499 
Q 2330 499 2570 617 
Q 2810 736 2976 986 
L 3443 691 
Q 3245 339 2883 150 
Q 2522 -38 2061 -38 
z
" transform="scale(0.015625)"/>
       </defs>
       <use xlink:href="#Montserrat-Medium-62"/>
       <use xlink:href="#Montserrat-Medium-61" transform="translate(68.199982 0)"/>
       <use xlink:href="#Montserrat-Medium-63" transform="translate(127.999969 0)"/>
       <use xlink:href="#Montserrat-Medium-65" transform="translate(185.09996 0)"/>
      </g>
     </g>
    </g>
    <g id="xtick_18">
     <g id="line2d_42">
      <g>
       <use xlink:href="#m0f56b2f989" x="87.735312" y="245.558437" style="stroke: #000000; stroke-width: 0.8"/>
      </g>
     </g>
     <g id="text_8">
      <!-- cdk2 -->
      <g transform="translate(75.714497 275.073159) rotate(-45) scale(0.1 -0.1)">
       <defs>
        <path id="Montserrat-Medium-6b" d="M 1082 819 
L 1094 1606 
L 3046 3392 
L 3789 3392 
L 2291 1920 
L 1958 1638 
L 1082 819 
z
M 582 0 
L 582 4749 
L 1197 4749 
L 1197 0 
L 582 0 
z
M 3174 0 
L 1843 1651 
L 2240 2144 
L 3930 0 
L 3174 0 
z
" transform="scale(0.015625)"/>
       </defs>
       <use xlink:href="#Montserrat-Medium-63"/>
       <use xlink:href="#Montserrat-Medium-64" transform="translate(57.099991 0)"/>
       <use xlink:href="#Montserrat-Medium-6b" transform="translate(125.299973 0)"/>
       <use xlink:href="#Montserrat-Medium-32" transform="translate(186.799957 0)"/>
      </g>
     </g>
    </g>
    <g id="xtick_19">
     <g id="line2d_43">
      <g>
       <use xlink:href="#m0f56b2f989" x="108.660313" y="245.558437" style="stroke: #000000; stroke-width: 0.8"/>
      </g>
     </g>
     <g id="text_9">
      <!-- jnk1 -->
      <g transform="translate(100.22475 271.700039) rotate(-45) scale(0.1 -0.1)">
       <defs>
        <path id="Montserrat-Medium-6a" d="M 147 -1280 
Q -64 -1280 -259 -1229 
Q -454 -1178 -589 -1075 
L -390 -602 
Q -198 -762 109 -762 
Q 352 -762 483 -611 
Q 614 -461 614 -166 
L 614 3392 
L 1229 3392 
L 1229 -154 
Q 1229 -672 950 -976 
Q 672 -1280 147 -1280 
z
M 922 4045 
Q 742 4045 624 4160 
Q 506 4275 506 4442 
Q 506 4614 624 4729 
Q 742 4845 922 4845 
Q 1101 4845 1219 4733 
Q 1338 4621 1338 4454 
Q 1338 4282 1222 4163 
Q 1107 4045 922 4045 
z
" transform="scale(0.015625)"/>
       </defs>
       <use xlink:href="#Montserrat-Medium-6a"/>
       <use xlink:href="#Montserrat-Medium-6e" transform="translate(28.399994 0)"/>
       <use xlink:href="#Montserrat-Medium-6b" transform="translate(96.499985 0)"/>
       <use xlink:href="#Montserrat-Medium-31" transform="translate(157.999969 0)"/>
      </g>
     </g>
    </g>
    <g id="xtick_20">
     <g id="line2d_44">
      <g>
       <use xlink:href="#m0f56b2f989" x="129.585312" y="245.558437" style="stroke: #000000; stroke-width: 0.8"/>
      </g>
     </g>
     <g id="text_10">
      <!-- mcl1 -->
      <g transform="translate(118.731223 273.906433) rotate(-45) scale(0.1 -0.1)">
       <use xlink:href="#Montserrat-Medium-6d"/>
       <use xlink:href="#Montserrat-Medium-63" transform="translate(105.699982 0)"/>
       <use xlink:href="#Montserrat-Medium-6c" transform="translate(162.799973 0)"/>
       <use xlink:href="#Montserrat-Medium-31" transform="translate(190.699966 0)"/>
      </g>
     </g>
    </g>
    <g id="xtick_21">
     <g id="line2d_45">
      <g>
       <use xlink:href="#m0f56b2f989" x="150.510312" y="245.558437" style="stroke: #000000; stroke-width: 0.8"/>
      </g>
     </g>
     <g id="text_11">
      <!-- p38 -->
      <g transform="translate(142.335495 271.227161) rotate(-45) scale(0.1 -0.1)">
       <defs>
        <path id="Montserrat-Medium-70" d="M 2381 -38 
Q 1958 -38 1609 157 
Q 1261 352 1053 736 
Q 845 1120 845 1696 
Q 845 2272 1046 2656 
Q 1248 3040 1597 3232 
Q 1946 3424 2381 3424 
Q 2880 3424 3264 3206 
Q 3648 2989 3872 2601 
Q 4096 2214 4096 1696 
Q 4096 1178 3872 787 
Q 3648 397 3264 179 
Q 2880 -38 2381 -38 
z
M 582 -1242 
L 582 3392 
L 1171 3392 
L 1171 2477 
L 1133 1690 
L 1197 902 
L 1197 -1242 
L 582 -1242 
z
M 2330 499 
Q 2656 499 2915 646 
Q 3174 794 3324 1066 
Q 3475 1338 3475 1696 
Q 3475 2061 3324 2326 
Q 3174 2592 2915 2739 
Q 2656 2886 2330 2886 
Q 2010 2886 1750 2739 
Q 1491 2592 1340 2326 
Q 1190 2061 1190 1696 
Q 1190 1338 1340 1066 
Q 1491 794 1750 646 
Q 2010 499 2330 499 
z
" transform="scale(0.015625)"/>
        <path id="Montserrat-Medium-38" d="M 2054 -51 
Q 1510 -51 1113 109 
Q 717 269 499 566 
Q 282 864 282 1267 
Q 282 1664 490 1942 
Q 698 2221 1094 2365 
Q 1491 2509 2054 2509 
Q 2618 2509 3018 2365 
Q 3418 2221 3629 1939 
Q 3840 1658 3840 1267 
Q 3840 864 3622 566 
Q 3405 269 3001 109 
Q 2598 -51 2054 -51 
z
M 2054 467 
Q 2592 467 2896 688 
Q 3200 909 3200 1286 
Q 3200 1658 2896 1872 
Q 2592 2086 2054 2086 
Q 1523 2086 1222 1872 
Q 922 1658 922 1286 
Q 922 909 1222 688 
Q 1523 467 2054 467 
z
M 2054 2573 
Q 2522 2573 2787 2765 
Q 3053 2957 3053 3290 
Q 3053 3629 2777 3821 
Q 2502 4013 2054 4013 
Q 1606 4013 1340 3821 
Q 1075 3629 1075 3290 
Q 1075 2957 1334 2765 
Q 1594 2573 2054 2573 
z
M 2054 2163 
Q 1542 2163 1184 2300 
Q 826 2438 634 2697 
Q 442 2957 442 3315 
Q 442 3693 643 3965 
Q 845 4237 1209 4384 
Q 1574 4531 2054 4531 
Q 2541 4531 2905 4384 
Q 3270 4237 3475 3965 
Q 3680 3693 3680 3315 
Q 3680 2957 3488 2697 
Q 3296 2438 2931 2300 
Q 2566 2163 2054 2163 
z
" transform="scale(0.015625)"/>
       </defs>
       <use xlink:href="#Montserrat-Medium-70"/>
       <use xlink:href="#Montserrat-Medium-33" transform="translate(68.199982 0)"/>
       <use xlink:href="#Montserrat-Medium-38" transform="translate(125.399979 0)"/>
      </g>
     </g>
    </g>
    <g id="xtick_22">
     <g id="line2d_46">
      <g>
       <use xlink:href="#m0f56b2f989" x="171.435313" y="245.558437" style="stroke: #000000; stroke-width: 0.8"/>
      </g>
     </g>
     <g id="text_12">
      <!-- ptp1b -->
      <g transform="translate(156.670039 277.817618) rotate(-45) scale(0.1 -0.1)">
       <use xlink:href="#Montserrat-Medium-70"/>
       <use xlink:href="#Montserrat-Medium-74" transform="translate(68.199982 0)"/>
       <use xlink:href="#Montserrat-Medium-70" transform="translate(109.599976 0)"/>
       <use xlink:href="#Montserrat-Medium-31" transform="translate(177.799957 0)"/>
       <use xlink:href="#Montserrat-Medium-62" transform="translate(214.799942 0)"/>
      </g>
     </g>
    </g>
    <g id="xtick_23">
     <g id="line2d_47">
      <g>
       <use xlink:href="#m0f56b2f989" x="192.360313" y="245.558437" style="stroke: #000000; stroke-width: 0.8"/>
      </g>
     </g>
     <g id="text_13">
      <!-- thrombin -->
      <g transform="translate(163.389927 292.02273) rotate(-45) scale(0.1 -0.1)">
       <defs>
        <path id="Montserrat-Medium-68" d="M 582 0 
L 582 4749 
L 1197 4749 
L 1197 2477 
L 1075 2720 
Q 1242 3053 1587 3238 
Q 1933 3424 2394 3424 
Q 2810 3424 3126 3264 
Q 3443 3104 3622 2777 
Q 3802 2451 3802 1952 
L 3802 0 
L 3187 0 
L 3187 1882 
Q 3187 2374 2947 2624 
Q 2707 2874 2272 2874 
Q 1946 2874 1702 2746 
Q 1459 2618 1328 2368 
Q 1197 2118 1197 1747 
L 1197 0 
L 582 0 
z
" transform="scale(0.015625)"/>
       </defs>
       <use xlink:href="#Montserrat-Medium-74"/>
       <use xlink:href="#Montserrat-Medium-68" transform="translate(41.399994 0)"/>
       <use xlink:href="#Montserrat-Medium-72" transform="translate(109.499985 0)"/>
       <use xlink:href="#Montserrat-Medium-6f" transform="translate(150.499969 0)"/>
       <use xlink:href="#Montserrat-Medium-6d" transform="translate(213.999954 0)"/>
       <use xlink:href="#Montserrat-Medium-62" transform="translate(319.699936 0)"/>
       <use xlink:href="#Montserrat-Medium-69" transform="translate(387.899918 0)"/>
       <use xlink:href="#Montserrat-Medium-6e" transform="translate(415.799911 0)"/>
      </g>
     </g>
    </g>
    <g id="xtick_24">
     <g id="line2d_48">
      <g>
       <use xlink:href="#m0f56b2f989" x="213.285312" y="245.558437" style="stroke: #000000; stroke-width: 0.8"/>
      </g>
     </g>
     <g id="text_14">
      <!-- tyk2 -->
      <g transform="translate(203.243291 273.094365) rotate(-45) scale(0.1 -0.1)">
       <defs>
        <path id="Montserrat-Medium-79" d="M 730 -1280 
Q 486 -1280 256 -1200 
Q 26 -1120 -141 -966 
L 122 -506 
Q 250 -627 403 -691 
Q 557 -755 730 -755 
Q 954 -755 1101 -640 
Q 1248 -525 1376 -230 
L 1587 237 
L 1651 314 
L 2982 3392 
L 3584 3392 
L 1939 -339 
Q 1792 -698 1609 -902 
Q 1427 -1107 1209 -1193 
Q 992 -1280 730 -1280 
z
M 1536 -109 
L -13 3392 
L 627 3392 
L 1946 371 
L 1536 -109 
z
" transform="scale(0.015625)"/>
       </defs>
       <use xlink:href="#Montserrat-Medium-74"/>
       <use xlink:href="#Montserrat-Medium-79" transform="translate(41.399994 0)"/>
       <use xlink:href="#Montserrat-Medium-6b" transform="translate(97.299988 0)"/>
       <use xlink:href="#Montserrat-Medium-32" transform="translate(158.799973 0)"/>
      </g>
     </g>
    </g>
    <g id="xtick_25">
     <g id="line2d_49">
      <g>
       <use xlink:href="#m0f56b2f989" x="234.210312" y="245.558437" style="stroke: #000000; stroke-width: 0.8"/>
      </g>
     </g>
     <g id="text_15">
      <!-- cdk8 -->
      <g transform="translate(221.694522 275.568134) rotate(-45) scale(0.1 -0.1)">
       <use xlink:href="#Montserrat-Medium-63"/>
       <use xlink:href="#Montserrat-Medium-64" transform="translate(57.099991 0)"/>
       <use xlink:href="#Montserrat-Medium-6b" transform="translate(125.299973 0)"/>
       <use xlink:href="#Montserrat-Medium-38" transform="translate(186.799957 0)"/>
      </g>
     </g>
    </g>
    <g id="xtick_26">
     <g id="line2d_50">
      <g>
       <use xlink:href="#m0f56b2f989" x="255.135312" y="245.558437" style="stroke: #000000; stroke-width: 0.8"/>
      </g>
     </g>
     <g id="text_16">
      <!-- cmet -->
      <g transform="translate(241.61521 276.572447) rotate(-45) scale(0.1 -0.1)">
       <use xlink:href="#Montserrat-Medium-63"/>
       <use xlink:href="#Montserrat-Medium-6d" transform="translate(57.099991 0)"/>
       <use xlink:href="#Montserrat-Medium-65" transform="translate(162.799973 0)"/>
       <use xlink:href="#Montserrat-Medium-74" transform="translate(223.999969 0)"/>
      </g>
     </g>
    </g>
    <g id="xtick_27">
     <g id="line2d_51">
      <g>
       <use xlink:href="#m0f56b2f989" x="276.060313" y="245.558437" style="stroke: #000000; stroke-width: 0.8"/>
      </g>
     </g>
     <g id="text_17">
      <!-- eg5 -->
      <g transform="translate(267.999295 271.029392) rotate(-45) scale(0.1 -0.1)">
       <use xlink:href="#Montserrat-Medium-65"/>
       <use xlink:href="#Montserrat-Medium-67" transform="translate(61.199997 0)"/>
       <use xlink:href="#Montserrat-Medium-35" transform="translate(130.199982 0)"/>
      </g>
     </g>
    </g>
    <g id="xtick_28">
     <g id="line2d_52">
      <g>
       <use xlink:href="#m0f56b2f989" x="296.985313" y="245.558437" style="stroke: #000000; stroke-width: 0.8"/>
      </g>
     </g>
     <g id="text_18">
      <!-- hif2a -->
      <g transform="translate(284.660662 275.376994) rotate(-45) scale(0.1 -0.1)">
       <use xlink:href="#Montserrat-Medium-68"/>
       <use xlink:href="#Montserrat-Medium-69" transform="translate(68.099991 0)"/>
       <use xlink:href="#Montserrat-Medium-66" transform="translate(95.999985 0)"/>
       <use xlink:href="#Montserrat-Medium-32" transform="translate(131.299973 0)"/>
       <use xlink:href="#Montserrat-Medium-61" transform="translate(188.699966 0)"/>
      </g>
     </g>
    </g>
    <g id="xtick_29">
     <g id="line2d_53">
      <g>
       <use xlink:href="#m0f56b2f989" x="317.910313" y="245.558437" style="stroke: #000000; stroke-width: 0.8"/>
      </g>
     </g>
     <g id="text_19">
      <!-- shp2 -->
      <g transform="translate(305.918223 275.044433) rotate(-45) scale(0.1 -0.1)">
       <use xlink:href="#Montserrat-Medium-73"/>
       <use xlink:href="#Montserrat-Medium-68" transform="translate(50.099991 0)"/>
       <use xlink:href="#Montserrat-Medium-70" transform="translate(118.199982 0)"/>
       <use xlink:href="#Montserrat-Medium-32" transform="translate(186.399963 0)"/>
      </g>
     </g>
    </g>
    <g id="xtick_30">
     <g id="line2d_54">
      <g>
       <use xlink:href="#m0f56b2f989" x="338.835313" y="245.558437" style="stroke: #000000; stroke-width: 0.8"/>
      </g>
     </g>
     <g id="text_20">
      <!-- syk -->
      <g transform="translate(332.238227 269.649429) rotate(-45) scale(0.1 -0.1)">
       <use xlink:href="#Montserrat-Medium-73"/>
       <use xlink:href="#Montserrat-Medium-79" transform="translate(50.099991 0)"/>
       <use xlink:href="#Montserrat-Medium-6b" transform="translate(105.999985 0)"/>
      </g>
     </g>
    </g>
    <g id="xtick_31">
     <g id="line2d_55">
      <g>
       <use xlink:href="#m0f56b2f989" x="359.760312" y="245.558437" style="stroke: #000000; stroke-width: 0.8"/>
      </g>
     </g>
     <g id="text_21">
      <!-- pfkfb3 -->
      <g transform="translate(342.018561 280.878064) rotate(-45) scale(0.1 -0.1)">
       <use xlink:href="#Montserrat-Medium-70"/>
       <use xlink:href="#Montserrat-Medium-66" transform="translate(68.199982 0)"/>
       <use xlink:href="#Montserrat-Medium-6b" transform="translate(103.499969 0)"/>
       <use xlink:href="#Montserrat-Medium-66" transform="translate(164.999954 0)"/>
       <use xlink:href="#Montserrat-Medium-62" transform="translate(200.299942 0)"/>
       <use xlink:href="#Montserrat-Medium-33" transform="translate(268.499924 0)"/>
      </g>
     </g>
    </g>
    <g id="xtick_32">
     <g id="line2d_56">
      <g>
       <use xlink:href="#m0f56b2f989" x="380.685313" y="245.558437" style="stroke: #000000; stroke-width: 0.8"/>
      </g>
     </g>
     <g id="text_22">
      <!-- tnks2 -->
      <g transform="translate(366.239342 277.498315) rotate(-45) scale(0.1 -0.1)">
       <use xlink:href="#Montserrat-Medium-74"/>
       <use xlink:href="#Montserrat-Medium-6e" transform="translate(41.399994 0)"/>
       <use xlink:href="#Montserrat-Medium-6b" transform="translate(109.499985 0)"/>
       <use xlink:href="#Montserrat-Medium-73" transform="translate(170.999969 0)"/>
       <use xlink:href="#Montserrat-Medium-32" transform="translate(221.09996 0)"/>
      </g>
     </g>
    </g>
   </g>
   <g id="matplotlib.axis_4">
    <g id="ytick_5">
     <g id="line2d_57">
      <path d="M 56.347812 245.558437 
L 391.147812 245.558437 
" clip-path="url(#p12c1cfa729)" style="fill: none; stroke: #b0b0b0; stroke-opacity: 0.5; stroke-width: 0.8; stroke-linecap: square"/>
     </g>
     <g id="line2d_58">
      <g>
       <use xlink:href="#m70287a6cff" x="56.347812" y="245.558437" style="stroke: #000000; stroke-width: 0.8"/>
      </g>
     </g>
     <g id="text_23">
      <!-- 0 -->
      <g transform="translate(42.6775 249.268594) scale(0.1 -0.1)">
       <use xlink:href="#Montserrat-Medium-30"/>
      </g>
     </g>
    </g>
    <g id="ytick_6">
     <g id="line2d_59">
      <path d="M 56.347812 213.419307 
L 391.147812 213.419307 
" clip-path="url(#p12c1cfa729)" style="fill: none; stroke: #b0b0b0; stroke-opacity: 0.5; stroke-width: 0.8; stroke-linecap: square"/>
     </g>
     <g id="line2d_60">
      <g>
       <use xlink:href="#m70287a6cff" x="56.347812" y="213.419307" style="stroke: #000000; stroke-width: 0.8"/>
      </g>
     </g>
     <g id="text_24">
      <!-- 1 -->
      <g transform="translate(45.647812 217.129463) scale(0.1 -0.1)">
       <use xlink:href="#Montserrat-Medium-31"/>
      </g>
     </g>
    </g>
    <g id="ytick_7">
     <g id="line2d_61">
      <path d="M 56.347812 181.280177 
L 391.147812 181.280177 
" clip-path="url(#p12c1cfa729)" style="fill: none; stroke: #b0b0b0; stroke-opacity: 0.5; stroke-width: 0.8; stroke-linecap: square"/>
     </g>
     <g id="line2d_62">
      <g>
       <use xlink:href="#m70287a6cff" x="56.347812" y="181.280177" style="stroke: #000000; stroke-width: 0.8"/>
      </g>
     </g>
     <g id="text_25">
      <!-- 2 -->
      <g transform="translate(43.607187 184.990333) scale(0.1 -0.1)">
       <use xlink:href="#Montserrat-Medium-32"/>
      </g>
     </g>
    </g>
    <g id="ytick_8">
     <g id="line2d_63">
      <path d="M 56.347812 149.141046 
L 391.147812 149.141046 
" clip-path="url(#p12c1cfa729)" style="fill: none; stroke: #b0b0b0; stroke-opacity: 0.5; stroke-width: 0.8; stroke-linecap: square"/>
     </g>
     <g id="line2d_64">
      <g>
       <use xlink:href="#m70287a6cff" x="56.347812" y="149.141046" style="stroke: #000000; stroke-width: 0.8"/>
      </g>
     </g>
     <g id="text_26">
      <!-- 3 -->
      <g transform="translate(43.6275 152.851202) scale(0.1 -0.1)">
       <use xlink:href="#Montserrat-Medium-33"/>
      </g>
     </g>
    </g>
    <g id="text_27">
     <!-- Elapsed Time (h) -->
     <g transform="translate(36.34875 248.555054) rotate(-90) scale(0.12 -0.12)">
      <use xlink:href="#Montserrat-MediumItalic-45"/>
      <use xlink:href="#Montserrat-MediumItalic-6c" transform="translate(66.999985 0)"/>
      <use xlink:href="#Montserrat-MediumItalic-61" transform="translate(94.899979 0)"/>
      <use xlink:href="#Montserrat-MediumItalic-70" transform="translate(163.09996 0)"/>
      <use xlink:href="#Montserrat-MediumItalic-73" transform="translate(231.299942 0)"/>
      <use xlink:href="#Montserrat-MediumItalic-65" transform="translate(281.399933 0)"/>
      <use xlink:href="#Montserrat-MediumItalic-64" transform="translate(342.499924 0)"/>
      <use xlink:href="#Montserrat-MediumItalic-20" transform="translate(410.699905 0)"/>
      <use xlink:href="#Montserrat-MediumItalic-54" transform="translate(437.599899 0)"/>
      <use xlink:href="#Montserrat-MediumItalic-69" transform="translate(496.299896 0)"/>
      <use xlink:href="#Montserrat-MediumItalic-6d" transform="translate(524.19989 0)"/>
      <use xlink:href="#Montserrat-MediumItalic-65" transform="translate(629.899872 0)"/>
      <use xlink:href="#Montserrat-MediumItalic-20" transform="translate(690.999863 0)"/>
      <use xlink:href="#Montserrat-MediumItalic-28" transform="translate(717.899857 0)"/>
      <use xlink:href="#Montserrat-MediumItalic-68" transform="translate(751.599854 0)"/>
      <use xlink:href="#Montserrat-MediumItalic-29" transform="translate(819.699844 0)"/>
     </g>
    </g>
   </g>
   <g id="patch_25">
    <path d="M 58.440312 245.558437 
L 75.180312 245.558437 
L 75.180312 194.272566 
L 58.440312 194.272566 
z
" clip-path="url(#p12c1cfa729)" style="fill: #648fff; stroke: #000000; stroke-width: 0.5; stroke-linejoin: miter"/>
   </g>
   <g id="patch_26">
    <path d="M 79.365312 245.558437 
L 96.105312 245.558437 
L 96.105312 174.011498 
L 79.365312 174.011498 
z
" clip-path="url(#p12c1cfa729)" style="fill: #648fff; stroke: #000000; stroke-width: 0.5; stroke-linejoin: miter"/>
   </g>
   <g id="patch_27">
    <path d="M 100.290312 245.558437 
L 117.030312 245.558437 
L 117.030312 192.621322 
L 100.290312 192.621322 
z
" clip-path="url(#p12c1cfa729)" style="fill: #648fff; stroke: #000000; stroke-width: 0.5; stroke-linejoin: miter"/>
   </g>
   <g id="patch_28">
    <path d="M 121.215312 245.558437 
L 137.955312 245.558437 
L 137.955312 209.441733 
L 121.215312 209.441733 
z
" clip-path="url(#p12c1cfa729)" style="fill: #648fff; stroke: #000000; stroke-width: 0.5; stroke-linejoin: miter"/>
   </g>
   <g id="patch_29">
    <path d="M 142.140312 245.558437 
L 158.880313 245.558437 
L 158.880313 194.795797 
L 142.140312 194.795797 
z
" clip-path="url(#p12c1cfa729)" style="fill: #648fff; stroke: #000000; stroke-width: 0.5; stroke-linejoin: miter"/>
   </g>
   <g id="patch_30">
    <path d="M 163.065313 245.558437 
L 179.805313 245.558437 
L 179.805313 196.098128 
L 163.065313 196.098128 
z
" clip-path="url(#p12c1cfa729)" style="fill: #648fff; stroke: #000000; stroke-width: 0.5; stroke-linejoin: miter"/>
   </g>
   <g id="patch_31">
    <path d="M 183.990312 245.558437 
L 200.730312 245.558437 
L 200.730312 196.420003 
L 183.990312 196.420003 
z
" clip-path="url(#p12c1cfa729)" style="fill: #648fff; stroke: #000000; stroke-width: 0.5; stroke-linejoin: miter"/>
   </g>
   <g id="patch_32">
    <path d="M 204.915312 245.558437 
L 221.655312 245.558437 
L 221.655312 199.77864 
L 204.915312 199.77864 
z
" clip-path="url(#p12c1cfa729)" style="fill: #648fff; stroke: #000000; stroke-width: 0.5; stroke-linejoin: miter"/>
   </g>
   <g id="patch_33">
    <path d="M 225.840312 245.558437 
L 242.580312 245.558437 
L 242.580312 171.440868 
L 225.840312 171.440868 
z
" clip-path="url(#p12c1cfa729)" style="fill: #648fff; stroke: #000000; stroke-width: 0.5; stroke-linejoin: miter"/>
   </g>
   <g id="patch_34">
    <path d="M 246.765312 245.558437 
L 263.505313 245.558437 
L 263.505313 196.573837 
L 246.765312 196.573837 
z
" clip-path="url(#p12c1cfa729)" style="fill: #648fff; stroke: #000000; stroke-width: 0.5; stroke-linejoin: miter"/>
   </g>
   <g id="patch_35">
    <path d="M 267.690313 245.558437 
L 284.430313 245.558437 
L 284.430313 190.268175 
L 267.690313 190.268175 
z
" clip-path="url(#p12c1cfa729)" style="fill: #648fff; stroke: #000000; stroke-width: 0.5; stroke-linejoin: miter"/>
   </g>
   <g id="patch_36">
    <path d="M 288.615313 245.558437 
L 305.355313 245.558437 
L 305.355313 212.426958 
L 288.615313 212.426958 
z
" clip-path="url(#p12c1cfa729)" style="fill: #648fff; stroke: #000000; stroke-width: 0.5; stroke-linejoin: miter"/>
   </g>
   <g id="patch_37">
    <path d="M 309.540312 245.558437 
L 326.280312 245.558437 
L 326.280312 183.089499 
L 309.540312 183.089499 
z
" clip-path="url(#p12c1cfa729)" style="fill: #648fff; stroke: #000000; stroke-width: 0.5; stroke-linejoin: miter"/>
   </g>
   <g id="patch_38">
    <path d="M 330.465313 245.558437 
L 347.205313 245.558437 
L 347.205313 198.974539 
L 330.465313 198.974539 
z
" clip-path="url(#p12c1cfa729)" style="fill: #648fff; stroke: #000000; stroke-width: 0.5; stroke-linejoin: miter"/>
   </g>
   <g id="patch_39">
    <path d="M 351.390312 245.558437 
L 368.130313 245.558437 
L 368.130313 187.041023 
L 351.390312 187.041023 
z
" clip-path="url(#p12c1cfa729)" style="fill: #648fff; stroke: #000000; stroke-width: 0.5; stroke-linejoin: miter"/>
   </g>
   <g id="patch_40">
    <path d="M 372.315313 245.558437 
L 389.055313 245.558437 
L 389.055313 207.758654 
L 372.315313 207.758654 
z
" clip-path="url(#p12c1cfa729)" style="fill: #648fff; stroke: #000000; stroke-width: 0.5; stroke-linejoin: miter"/>
   </g>
   <g id="patch_41">
    <path d="M 66.810312 245.558437 
L 66.810312 245.558437 
L 66.810312 245.558437 
L 66.810312 245.558437 
z
" clip-path="url(#p12c1cfa729)" style="fill: #648fff; stroke: #000000; stroke-width: 0.5; stroke-linejoin: miter"/>
   </g>
   <g id="patch_42">
    <path d="M 66.810312 245.558437 
L 66.810312 245.558437 
L 66.810312 245.558437 
L 66.810312 245.558437 
z
" clip-path="url(#p12c1cfa729)" style="fill: #648fff; stroke: #000000; stroke-width: 0.5; stroke-linejoin: miter"/>
   </g>
   <g id="patch_43">
    <path d="M 66.810312 245.558437 
L 66.810312 245.558437 
L 66.810312 245.558437 
L 66.810312 245.558437 
z
" clip-path="url(#p12c1cfa729)" style="fill: #648fff; stroke: #000000; stroke-width: 0.5; stroke-linejoin: miter"/>
   </g>
   <g id="line2d_65">
    <path d="M 63.671562 195.194453 
L 69.949062 195.194453 
M 66.810312 195.194453 
L 66.810312 193.350679 
M 63.671562 193.350679 
L 69.949062 193.350679 
" clip-path="url(#p12c1cfa729)" style="fill: none; stroke: #424242; stroke-linecap: square"/>
   </g>
   <g id="line2d_66">
    <path d="M 84.596562 175.457458 
L 90.874062 175.457458 
M 87.735312 175.457458 
L 87.735312 172.565538 
M 84.596562 172.565538 
L 90.874062 172.565538 
" clip-path="url(#p12c1cfa729)" style="fill: none; stroke: #424242; stroke-linecap: square"/>
   </g>
   <g id="line2d_67">
    <path d="M 105.521562 195.694641 
L 111.799062 195.694641 
M 108.660313 195.694641 
L 108.660313 189.548003 
M 105.521562 189.548003 
L 111.799062 189.548003 
" clip-path="url(#p12c1cfa729)" style="fill: none; stroke: #424242; stroke-linecap: square"/>
   </g>
   <g id="line2d_68">
    <path d="M 126.446562 212.444382 
L 132.724063 212.444382 
M 129.585312 212.444382 
L 129.585312 206.439083 
M 126.446562 206.439083 
L 132.724063 206.439083 
" clip-path="url(#p12c1cfa729)" style="fill: none; stroke: #424242; stroke-linecap: square"/>
   </g>
   <g id="line2d_69">
    <path d="M 147.371562 197.943972 
L 153.649063 197.943972 
M 150.510312 197.943972 
L 150.510312 191.647622 
M 147.371562 191.647622 
L 153.649063 191.647622 
" clip-path="url(#p12c1cfa729)" style="fill: none; stroke: #424242; stroke-linecap: square"/>
   </g>
   <g id="line2d_70">
    <path d="M 168.296562 197.145729 
L 174.574063 197.145729 
M 171.435313 197.145729 
L 171.435313 195.050528 
M 168.296562 195.050528 
L 174.574063 195.050528 
" clip-path="url(#p12c1cfa729)" style="fill: none; stroke: #424242; stroke-linecap: square"/>
   </g>
   <g id="line2d_71">
    <path d="M 189.221563 197.175045 
L 195.499062 197.175045 
M 192.360313 197.175045 
L 192.360313 195.66496 
M 189.221563 195.66496 
L 195.499062 195.66496 
" clip-path="url(#p12c1cfa729)" style="fill: none; stroke: #424242; stroke-linecap: square"/>
   </g>
   <g id="line2d_72">
    <path d="M 210.146563 202.911205 
L 216.424062 202.911205 
M 213.285312 202.911205 
L 213.285312 196.646075 
M 210.146563 196.646075 
L 216.424062 196.646075 
" clip-path="url(#p12c1cfa729)" style="fill: none; stroke: #424242; stroke-linecap: square"/>
   </g>
   <g id="line2d_73">
    <path d="M 231.071562 172.534347 
L 237.349063 172.534347 
M 234.210312 172.534347 
L 234.210312 170.347389 
M 231.071562 170.347389 
L 237.349063 170.347389 
" clip-path="url(#p12c1cfa729)" style="fill: none; stroke: #424242; stroke-linecap: square"/>
   </g>
   <g id="line2d_74">
    <path d="M 251.996562 203.44129 
L 258.274063 203.44129 
M 255.135312 203.44129 
L 255.135312 189.706383 
M 251.996562 189.706383 
L 258.274063 189.706383 
" clip-path="url(#p12c1cfa729)" style="fill: none; stroke: #424242; stroke-linecap: square"/>
   </g>
   <g id="line2d_75">
    <path d="M 272.921562 198.439651 
L 279.199063 198.439651 
M 276.060313 198.439651 
L 276.060313 182.096698 
M 272.921562 182.096698 
L 279.199063 182.096698 
" clip-path="url(#p12c1cfa729)" style="fill: none; stroke: #424242; stroke-linecap: square"/>
   </g>
   <g id="line2d_76">
    <path d="M 293.846563 214.873008 
L 300.124063 214.873008 
M 296.985313 214.873008 
L 296.985313 209.980909 
M 293.846563 209.980909 
L 300.124063 209.980909 
" clip-path="url(#p12c1cfa729)" style="fill: none; stroke: #424242; stroke-linecap: square"/>
   </g>
   <g id="line2d_77">
    <path d="M 314.771563 184.556427 
L 321.049062 184.556427 
M 317.910313 184.556427 
L 317.910313 181.622571 
M 314.771563 181.622571 
L 321.049062 181.622571 
" clip-path="url(#p12c1cfa729)" style="fill: none; stroke: #424242; stroke-linecap: square"/>
   </g>
   <g id="line2d_78">
    <path d="M 335.696563 199.905537 
L 341.974063 199.905537 
M 338.835313 199.905537 
L 338.835313 198.043541 
M 335.696563 198.043541 
L 341.974063 198.043541 
" clip-path="url(#p12c1cfa729)" style="fill: none; stroke: #424242; stroke-linecap: square"/>
   </g>
   <g id="line2d_79">
    <path d="M 356.621563 195.285966 
L 362.899063 195.285966 
M 359.760312 195.285966 
L 359.760312 178.79608 
M 356.621563 178.79608 
L 362.899063 178.79608 
" clip-path="url(#p12c1cfa729)" style="fill: none; stroke: #424242; stroke-linecap: square"/>
   </g>
   <g id="line2d_80">
    <path d="M 377.546562 208.430236 
L 383.824063 208.430236 
M 380.685313 208.430236 
L 380.685313 207.087072 
M 377.546562 207.087072 
L 383.824063 207.087072 
" clip-path="url(#p12c1cfa729)" style="fill: none; stroke: #424242; stroke-linecap: square"/>
   </g>
   <g id="patch_44">
    <path d="M 56.347812 245.558437 
L 56.347812 149.141046 
" style="fill: none; stroke: #000000; stroke-width: 0.8; stroke-linejoin: miter; stroke-linecap: square"/>
   </g>
   <g id="patch_45">
    <path d="M 56.347812 245.558437 
L 391.147813 245.558437 
" style="fill: none; stroke: #000000; stroke-width: 0.8; stroke-linejoin: miter; stroke-linecap: square"/>
   </g>
   <g id="text_28">
    <!-- Simulation Time for all 652 edges: Protein Leg -->
    <g transform="translate(61.129063 143.141046) scale(0.14 -0.14)">
     <defs>
      <path id="Montserrat-Medium-50" d="M 672 0 
L 672 4480 
L 2419 4480 
Q 3008 4480 3424 4294 
Q 3840 4109 4064 3757 
Q 4288 3405 4288 2918 
Q 4288 2432 4064 2083 
Q 3840 1734 3424 1545 
Q 3008 1357 2419 1357 
L 1024 1357 
L 1312 1658 
L 1312 0 
L 672 0 
z
M 1312 1594 
L 1024 1914 
L 2400 1914 
Q 3014 1914 3331 2176 
Q 3648 2438 3648 2918 
Q 3648 3398 3331 3660 
Q 3014 3923 2400 3923 
L 1024 3923 
L 1312 4243 
L 1312 1594 
z
" transform="scale(0.015625)"/>
     </defs>
     <use xlink:href="#Montserrat-Medium-53"/>
     <use xlink:href="#Montserrat-Medium-69" transform="translate(62.099991 0)"/>
     <use xlink:href="#Montserrat-Medium-6d" transform="translate(89.999985 0)"/>
     <use xlink:href="#Montserrat-Medium-75" transform="translate(195.699966 0)"/>
     <use xlink:href="#Montserrat-Medium-6c" transform="translate(263.399948 0)"/>
     <use xlink:href="#Montserrat-Medium-61" transform="translate(291.299942 0)"/>
     <use xlink:href="#Montserrat-Medium-74" transform="translate(351.09993 0)"/>
     <use xlink:href="#Montserrat-Medium-69" transform="translate(392.499924 0)"/>
     <use xlink:href="#Montserrat-Medium-6f" transform="translate(420.399918 0)"/>
     <use xlink:href="#Montserrat-Medium-6e" transform="translate(483.899902 0)"/>
     <use xlink:href="#Montserrat-Medium-20" transform="translate(551.999893 0)"/>
     <use xlink:href="#Montserrat-Medium-54" transform="translate(578.899887 0)"/>
     <use xlink:href="#Montserrat-Medium-69" transform="translate(637.599884 0)"/>
     <use xlink:href="#Montserrat-Medium-6d" transform="translate(665.499878 0)"/>
     <use xlink:href="#Montserrat-Medium-65" transform="translate(771.19986 0)"/>
     <use xlink:href="#Montserrat-Medium-20" transform="translate(832.399857 0)"/>
     <use xlink:href="#Montserrat-Medium-66" transform="translate(859.29985 0)"/>
     <use xlink:href="#Montserrat-Medium-6f" transform="translate(894.599838 0)"/>
     <use xlink:href="#Montserrat-Medium-72" transform="translate(958.099823 0)"/>
     <use xlink:href="#Montserrat-Medium-20" transform="translate(999.099808 0)"/>
     <use xlink:href="#Montserrat-Medium-61" transform="translate(1025.999802 0)"/>
     <use xlink:href="#Montserrat-Medium-6c" transform="translate(1085.799789 0)"/>
     <use xlink:href="#Montserrat-Medium-6c" transform="translate(1113.699783 0)"/>
     <use xlink:href="#Montserrat-Medium-20" transform="translate(1141.599777 0)"/>
     <use xlink:href="#Montserrat-Medium-36" transform="translate(1168.499771 0)"/>
     <use xlink:href="#Montserrat-Medium-35" transform="translate(1230.199768 0)"/>
     <use xlink:href="#Montserrat-Medium-32" transform="translate(1287.599762 0)"/>
     <use xlink:href="#Montserrat-Medium-20" transform="translate(1344.999756 0)"/>
     <use xlink:href="#Montserrat-Medium-65" transform="translate(1371.89975 0)"/>
     <use xlink:href="#Montserrat-Medium-64" transform="translate(1433.099747 0)"/>
     <use xlink:href="#Montserrat-Medium-67" transform="translate(1501.299728 0)"/>
     <use xlink:href="#Montserrat-Medium-65" transform="translate(1570.299713 0)"/>
     <use xlink:href="#Montserrat-Medium-73" transform="translate(1631.49971 0)"/>
     <use xlink:href="#Montserrat-Medium-3a" transform="translate(1681.599701 0)"/>
     <use xlink:href="#Montserrat-Medium-20" transform="translate(1704.299698 0)"/>
     <use xlink:href="#Montserrat-Medium-50" transform="translate(1731.199692 0)"/>
     <use xlink:href="#Montserrat-Medium-72" transform="translate(1803.399673 0)"/>
     <use xlink:href="#Montserrat-Medium-6f" transform="translate(1844.399658 0)"/>
     <use xlink:href="#Montserrat-Medium-74" transform="translate(1907.899643 0)"/>
     <use xlink:href="#Montserrat-Medium-65" transform="translate(1949.299637 0)"/>
     <use xlink:href="#Montserrat-Medium-69" transform="translate(2010.499634 0)"/>
     <use xlink:href="#Montserrat-Medium-6e" transform="translate(2038.399628 0)"/>
     <use xlink:href="#Montserrat-Medium-20" transform="translate(2106.499619 0)"/>
     <use xlink:href="#Montserrat-Medium-4c" transform="translate(2133.399612 0)"/>
     <use xlink:href="#Montserrat-Medium-65" transform="translate(2192.799606 0)"/>
     <use xlink:href="#Montserrat-Medium-67" transform="translate(2253.999603 0)"/>
    </g>
   </g>
   <g id="legend_1">
    <g id="text_29">
     <!-- CPU Type -->
     <g transform="translate(182.332031 295.724837) scale(0.1 -0.1)">
      <defs>
       <path id="Montserrat-Medium-43" d="M 2675 -51 
Q 2163 -51 1731 118 
Q 1299 288 982 598 
Q 666 909 486 1325 
Q 307 1741 307 2240 
Q 307 2739 486 3155 
Q 666 3571 986 3881 
Q 1306 4192 1738 4361 
Q 2170 4531 2682 4531 
Q 3200 4531 3638 4355 
Q 4077 4179 4384 3834 
L 3968 3430 
Q 3712 3699 3392 3830 
Q 3072 3962 2707 3962 
Q 2330 3962 2006 3834 
Q 1683 3706 1446 3475 
Q 1210 3245 1078 2928 
Q 947 2611 947 2240 
Q 947 1869 1078 1552 
Q 1210 1235 1446 1004 
Q 1683 774 2006 646 
Q 2330 518 2707 518 
Q 3072 518 3392 649 
Q 3712 781 3968 1056 
L 4384 653 
Q 4077 307 3638 128 
Q 3200 -51 2675 -51 
z
" transform="scale(0.015625)"/>
       <path id="Montserrat-Medium-55" d="M 2528 -51 
Q 1645 -51 1139 454 
Q 634 960 634 1933 
L 634 4480 
L 1274 4480 
L 1274 1958 
Q 1274 1210 1603 864 
Q 1933 518 2534 518 
Q 3142 518 3472 864 
Q 3802 1210 3802 1958 
L 3802 4480 
L 4422 4480 
L 4422 1933 
Q 4422 960 3920 454 
Q 3418 -51 2528 -51 
z
" transform="scale(0.015625)"/>
      </defs>
      <use xlink:href="#Montserrat-Medium-43"/>
      <use xlink:href="#Montserrat-Medium-50" transform="translate(71.299988 0)"/>
      <use xlink:href="#Montserrat-Medium-55" transform="translate(143.499969 0)"/>
      <use xlink:href="#Montserrat-Medium-20" transform="translate(222.59996 0)"/>
      <use xlink:href="#Montserrat-Medium-54" transform="translate(249.499954 0)"/>
      <use xlink:href="#Montserrat-Medium-79" transform="translate(308.199951 0)"/>
      <use xlink:href="#Montserrat-Medium-70" transform="translate(364.099945 0)"/>
      <use xlink:href="#Montserrat-Medium-65" transform="translate(432.299927 0)"/>
     </g>
    </g>
    <g id="patch_46">
     <path d="M 11.2 310.145149 
L 31.2 310.145149 
L 31.2 303.145149 
L 11.2 303.145149 
z
" style="fill: #7798ec; stroke: #000000; stroke-width: 0.5; stroke-linejoin: miter"/>
    </g>
    <g id="text_30">
     <!-- AMD EPYC 7H12 -->
     <g transform="translate(39.2 310.145149) scale(0.1 -0.1)">
      <defs>
       <path id="Montserrat-MediumItalic-41" d="M -346 0 
L 2586 4480 
L 3219 4480 
L 4352 0 
L 3718 0 
L 2720 4134 
L 2976 4134 
L 346 0 
L -346 0 
z
M 742 1120 
L 1024 1632 
L 3539 1632 
L 3629 1120 
L 742 1120 
z
" transform="scale(0.015625)"/>
       <path id="Montserrat-MediumItalic-4d" d="M 333 0 
L 1229 4480 
L 1747 4480 
L 3091 1088 
L 2816 1094 
L 5446 4480 
L 5997 4480 
L 5101 0 
L 4486 0 
L 5197 3533 
L 5357 3520 
L 3021 544 
L 2726 544 
L 1517 3533 
L 1651 3514 
L 947 0 
L 333 0 
z
" transform="scale(0.015625)"/>
       <path id="Montserrat-MediumItalic-44" d="M 333 0 
L 1229 4480 
L 2982 4480 
Q 3661 4480 4141 4253 
Q 4621 4026 4873 3616 
Q 5126 3206 5126 2643 
Q 5126 2054 4928 1564 
Q 4730 1075 4362 726 
Q 3994 378 3482 189 
Q 2970 0 2336 0 
L 333 0 
z
M 1082 557 
L 2355 557 
Q 3021 557 3494 822 
Q 3968 1088 4224 1552 
Q 4480 2016 4480 2605 
Q 4480 3008 4307 3305 
Q 4134 3603 3785 3763 
Q 3437 3923 2918 3923 
L 1754 3923 
L 1082 557 
z
" transform="scale(0.015625)"/>
       <path id="Montserrat-MediumItalic-50" d="M 333 0 
L 1229 4480 
L 2893 4480 
Q 3680 4480 4109 4134 
Q 4538 3789 4538 3168 
Q 4538 2598 4285 2192 
Q 4032 1786 3558 1571 
Q 3085 1357 2438 1357 
L 966 1357 
L 1306 1664 
L 973 0 
L 333 0 
z
M 1293 1594 
L 1069 1914 
L 2451 1914 
Q 3136 1914 3517 2218 
Q 3898 2522 3898 3110 
Q 3898 3514 3622 3718 
Q 3347 3923 2835 3923 
L 1485 3923 
L 1824 4250 
L 1293 1594 
z
" transform="scale(0.015625)"/>
       <path id="Montserrat-MediumItalic-59" d="M 1478 0 
L 1824 1728 
L 1901 1306 
L 608 4480 
L 1242 4480 
L 2323 1818 
L 1965 1811 
L 4115 4480 
L 4794 4480 
L 2246 1299 
L 2464 1728 
L 2118 0 
L 1478 0 
z
" transform="scale(0.015625)"/>
       <path id="Montserrat-MediumItalic-43" d="M 2522 -51 
Q 1843 -51 1366 185 
Q 890 422 637 848 
Q 384 1274 384 1837 
Q 384 2394 576 2883 
Q 768 3373 1129 3744 
Q 1491 4115 1993 4323 
Q 2496 4531 3130 4531 
Q 3686 4531 4115 4352 
Q 4544 4173 4774 3834 
L 4314 3437 
Q 4115 3693 3808 3827 
Q 3501 3962 3085 3962 
Q 2605 3962 2224 3798 
Q 1843 3635 1574 3344 
Q 1306 3053 1165 2675 
Q 1024 2298 1024 1875 
Q 1024 1472 1200 1168 
Q 1376 864 1718 691 
Q 2061 518 2566 518 
Q 2976 518 3318 652 
Q 3661 787 3923 1050 
L 4294 627 
Q 3987 288 3526 118 
Q 3066 -51 2522 -51 
z
" transform="scale(0.015625)"/>
       <path id="Montserrat-MediumItalic-37" d="M 742 0 
L 3456 4211 
L 3597 3923 
L 934 3923 
L 1318 4237 
L 1094 3123 
L 480 3123 
L 749 4480 
L 4128 4480 
L 4045 4045 
L 1446 0 
L 742 0 
z
" transform="scale(0.015625)"/>
       <path id="Montserrat-MediumItalic-48" d="M 4442 4480 
L 5082 4480 
L 4186 0 
L 3546 0 
L 4442 4480 
z
M 973 0 
L 333 0 
L 1229 4480 
L 1869 4480 
L 973 0 
z
M 4006 1997 
L 1318 1997 
L 1427 2554 
L 4115 2554 
L 4006 1997 
z
" transform="scale(0.015625)"/>
       <path id="Montserrat-MediumItalic-31" d="M 723 0 
L 1562 4198 
L 1786 3923 
L 499 3923 
L 608 4480 
L 2253 4480 
L 1357 0 
L 723 0 
z
" transform="scale(0.015625)"/>
       <path id="Montserrat-MediumItalic-32" d="M -102 0 
L -13 435 
L 2170 2182 
Q 2470 2426 2640 2618 
Q 2810 2810 2880 2979 
Q 2950 3149 2950 3328 
Q 2950 3622 2736 3798 
Q 2522 3974 2074 3974 
Q 1747 3974 1446 3846 
Q 1146 3718 915 3475 
L 486 3846 
Q 768 4160 1206 4345 
Q 1645 4531 2163 4531 
Q 2618 4531 2938 4387 
Q 3258 4243 3424 3993 
Q 3590 3744 3590 3411 
Q 3590 3155 3500 2908 
Q 3411 2662 3196 2403 
Q 2982 2144 2598 1837 
L 659 301 
L 512 557 
L 3226 557 
L 3117 0 
L -102 0 
z
" transform="scale(0.015625)"/>
      </defs>
      <use xlink:href="#Montserrat-MediumItalic-41"/>
      <use xlink:href="#Montserrat-MediumItalic-4d" transform="translate(73.199982 0)"/>
      <use xlink:href="#Montserrat-MediumItalic-44" transform="translate(168.699966 0)"/>
      <use xlink:href="#Montserrat-MediumItalic-20" transform="translate(251.299957 0)"/>
      <use xlink:href="#Montserrat-MediumItalic-45" transform="translate(278.199951 0)"/>
      <use xlink:href="#Montserrat-MediumItalic-50" transform="translate(345.199936 0)"/>
      <use xlink:href="#Montserrat-MediumItalic-59" transform="translate(417.399918 0)"/>
      <use xlink:href="#Montserrat-MediumItalic-43" transform="translate(484.299911 0)"/>
      <use xlink:href="#Montserrat-MediumItalic-20" transform="translate(556.599899 0)"/>
      <use xlink:href="#Montserrat-MediumItalic-37" transform="translate(583.499893 0)"/>
      <use xlink:href="#Montserrat-MediumItalic-48" transform="translate(643.299881 0)"/>
      <use xlink:href="#Montserrat-MediumItalic-31" transform="translate(724.499863 0)"/>
      <use xlink:href="#Montserrat-MediumItalic-32" transform="translate(761.499847 0)"/>
     </g>
    </g>
    <g id="patch_47">
     <path d="M 141.092188 310.145149 
L 161.092188 310.145149 
L 161.092188 303.145149 
L 141.092188 303.145149 
z
" style="fill: #c53d7f; stroke: #000000; stroke-width: 0.5; stroke-linejoin: miter"/>
    </g>
    <g id="text_31">
     <!-- AMD EPYC 7742 -->
     <g transform="translate(169.092188 310.145149) scale(0.1 -0.1)">
      <defs>
       <path id="Montserrat-MediumItalic-34" d="M 128 1101 
L 211 1549 
L 3059 4480 
L 3782 4480 
L 960 1549 
L 608 1651 
L 4198 1651 
L 4090 1101 
L 128 1101 
z
M 2394 0 
L 2618 1101 
L 2746 1651 
L 2944 2624 
L 3539 2624 
L 3014 0 
L 2394 0 
z
" transform="scale(0.015625)"/>
      </defs>
      <use xlink:href="#Montserrat-MediumItalic-41"/>
      <use xlink:href="#Montserrat-MediumItalic-4d" transform="translate(73.199982 0)"/>
      <use xlink:href="#Montserrat-MediumItalic-44" transform="translate(168.699966 0)"/>
      <use xlink:href="#Montserrat-MediumItalic-20" transform="translate(251.299957 0)"/>
      <use xlink:href="#Montserrat-MediumItalic-45" transform="translate(278.199951 0)"/>
      <use xlink:href="#Montserrat-MediumItalic-50" transform="translate(345.199936 0)"/>
      <use xlink:href="#Montserrat-MediumItalic-59" transform="translate(417.399918 0)"/>
      <use xlink:href="#Montserrat-MediumItalic-43" transform="translate(484.299911 0)"/>
      <use xlink:href="#Montserrat-MediumItalic-20" transform="translate(556.599899 0)"/>
      <use xlink:href="#Montserrat-MediumItalic-37" transform="translate(583.499893 0)"/>
      <use xlink:href="#Montserrat-MediumItalic-37" transform="translate(643.299881 0)"/>
      <use xlink:href="#Montserrat-MediumItalic-34" transform="translate(703.099869 0)"/>
      <use xlink:href="#Montserrat-MediumItalic-32" transform="translate(769.999863 0)"/>
     </g>
    </g>
    <g id="patch_48">
     <path d="M 271.834375 310.145149 
L 291.834375 310.145149 
L 291.834375 303.145149 
L 271.834375 303.145149 
z
" style="fill: #dfa420; stroke: #000000; stroke-width: 0.5; stroke-linejoin: miter"/>
    </g>
    <g id="text_32">
     <!-- Intel Xeon Gold 6130 -->
     <g transform="translate(299.834375 310.145149) scale(0.1 -0.1)">
      <defs>
       <path id="Montserrat-MediumItalic-49" d="M 333 0 
L 1229 4480 
L 1869 4480 
L 973 0 
L 333 0 
z
" transform="scale(0.015625)"/>
       <path id="Montserrat-MediumItalic-6e" d="M 2656 3424 
Q 3104 3424 3405 3245 
Q 3706 3066 3824 2723 
Q 3942 2381 3846 1901 
L 3469 0 
L 2854 0 
L 3232 1901 
Q 3328 2362 3142 2618 
Q 2957 2874 2477 2874 
Q 1984 2874 1657 2608 
Q 1331 2342 1222 1792 
L 864 0 
L 250 0 
L 922 3392 
L 1510 3392 
L 1318 2419 
L 1203 2682 
Q 1446 3066 1820 3245 
Q 2195 3424 2656 3424 
z
" transform="scale(0.015625)"/>
       <path id="Montserrat-MediumItalic-74" d="M 1414 -38 
Q 1107 -38 886 96 
Q 666 230 573 480 
Q 480 730 544 1069 
L 1158 4134 
L 1773 4134 
L 1158 1082 
Q 1114 806 1213 643 
Q 1312 480 1587 480 
Q 1715 480 1843 521 
Q 1971 563 2074 640 
L 2202 173 
Q 2029 51 1821 6 
Q 1613 -38 1414 -38 
z
M 333 2886 
L 429 3392 
L 2598 3392 
L 2496 2886 
L 333 2886 
z
" transform="scale(0.015625)"/>
       <path id="Montserrat-MediumItalic-58" d="M -250 0 
L 2074 2483 
L 2042 2125 
L 749 4480 
L 1421 4480 
L 2464 2566 
L 2182 2592 
L 3942 4480 
L 4672 4480 
L 2490 2138 
L 2509 2496 
L 3878 0 
L 3194 0 
L 2093 2035 
L 2374 2016 
L 518 0 
L -250 0 
z
" transform="scale(0.015625)"/>
       <path id="Montserrat-MediumItalic-6f" d="M 1837 -38 
Q 1350 -38 995 144 
Q 640 326 441 656 
Q 243 986 243 1427 
Q 243 2003 499 2454 
Q 755 2906 1206 3165 
Q 1658 3424 2234 3424 
Q 2714 3424 3072 3245 
Q 3430 3066 3625 2739 
Q 3821 2413 3821 1965 
Q 3821 1389 3565 937 
Q 3309 486 2864 224 
Q 2419 -38 1837 -38 
z
M 1875 499 
Q 2259 499 2560 684 
Q 2861 870 3030 1193 
Q 3200 1517 3200 1933 
Q 3200 2381 2937 2633 
Q 2675 2886 2189 2886 
Q 1811 2886 1510 2704 
Q 1210 2522 1037 2198 
Q 864 1875 864 1453 
Q 864 1011 1126 755 
Q 1389 499 1875 499 
z
" transform="scale(0.015625)"/>
       <path id="Montserrat-MediumItalic-47" d="M 2522 -51 
Q 1856 -51 1379 185 
Q 902 422 643 848 
Q 384 1274 384 1837 
Q 384 2394 576 2883 
Q 768 3373 1129 3744 
Q 1491 4115 2000 4323 
Q 2509 4531 3142 4531 
Q 3731 4531 4169 4352 
Q 4608 4173 4870 3840 
L 4410 3450 
Q 4186 3712 3862 3837 
Q 3539 3962 3117 3962 
Q 2637 3962 2253 3798 
Q 1869 3635 1593 3350 
Q 1318 3066 1171 2685 
Q 1024 2304 1024 1875 
Q 1024 1472 1200 1168 
Q 1376 864 1725 691 
Q 2074 518 2592 518 
Q 2970 518 3293 646 
Q 3616 774 3904 1018 
L 4154 506 
Q 3827 243 3401 96 
Q 2976 -51 2522 -51 
z
M 3565 602 
L 3891 2266 
L 4506 2266 
L 4154 506 
L 3565 602 
z
" transform="scale(0.015625)"/>
       <path id="Montserrat-MediumItalic-36" d="M 2067 -51 
Q 1568 -51 1181 153 
Q 794 358 579 764 
Q 365 1171 365 1766 
Q 365 2144 451 2531 
Q 538 2918 726 3276 
Q 915 3635 1212 3920 
Q 1510 4205 1926 4368 
Q 2342 4531 2893 4531 
Q 3219 4531 3513 4467 
Q 3808 4403 4013 4269 
L 3718 3763 
Q 3539 3885 3318 3933 
Q 3098 3981 2848 3981 
Q 2477 3981 2185 3869 
Q 1894 3757 1683 3565 
Q 1472 3373 1328 3123 
Q 1184 2874 1110 2592 
Q 1037 2310 1024 2029 
Q 1018 1850 1014 1760 
Q 1011 1670 1011 1606 
L 755 1696 
Q 877 2074 1104 2301 
Q 1331 2528 1632 2624 
Q 1933 2720 2272 2720 
Q 2669 2720 2995 2573 
Q 3322 2426 3520 2141 
Q 3718 1856 3718 1440 
Q 3718 986 3504 650 
Q 3290 314 2915 131 
Q 2541 -51 2067 -51 
z
M 2054 467 
Q 2509 467 2797 716 
Q 3085 966 3085 1402 
Q 3085 1786 2819 1994 
Q 2554 2202 2131 2202 
Q 1805 2202 1561 2083 
Q 1318 1965 1184 1760 
Q 1050 1555 1050 1299 
Q 1050 1088 1165 899 
Q 1280 710 1504 588 
Q 1728 467 2054 467 
z
" transform="scale(0.015625)"/>
       <path id="Montserrat-MediumItalic-33" d="M 1402 -51 
Q 896 -51 483 99 
Q 70 250 -166 512 
L 166 1005 
Q 352 794 685 656 
Q 1018 518 1440 518 
Q 1830 518 2102 627 
Q 2374 736 2521 937 
Q 2669 1139 2669 1414 
Q 2669 1754 2425 1923 
Q 2182 2093 1683 2093 
L 1344 2093 
L 1434 2541 
L 3072 4173 
L 3149 3923 
L 678 3923 
L 794 4480 
L 3750 4480 
L 3667 4045 
L 2022 2413 
L 1715 2605 
L 1856 2605 
Q 2323 2605 2646 2467 
Q 2970 2330 3139 2070 
Q 3309 1811 3309 1446 
Q 3309 1011 3072 672 
Q 2835 333 2406 141 
Q 1978 -51 1402 -51 
z
" transform="scale(0.015625)"/>
       <path id="Montserrat-MediumItalic-30" d="M 1869 -51 
Q 1395 -51 1056 144 
Q 717 339 534 710 
Q 352 1082 352 1594 
Q 352 2176 512 2707 
Q 672 3238 966 3648 
Q 1261 4058 1680 4294 
Q 2099 4531 2618 4531 
Q 3091 4531 3427 4336 
Q 3763 4141 3945 3773 
Q 4128 3405 4128 2886 
Q 4128 2304 3968 1773 
Q 3808 1242 3513 832 
Q 3219 422 2803 185 
Q 2387 -51 1869 -51 
z
M 1920 518 
Q 2298 518 2589 736 
Q 2880 954 3081 1302 
Q 3283 1651 3385 2064 
Q 3488 2477 3488 2874 
Q 3488 3411 3245 3686 
Q 3002 3962 2566 3962 
Q 2189 3962 1894 3744 
Q 1600 3526 1398 3177 
Q 1197 2829 1094 2416 
Q 992 2003 992 1606 
Q 992 1075 1235 796 
Q 1478 518 1920 518 
z
" transform="scale(0.015625)"/>
      </defs>
      <use xlink:href="#Montserrat-MediumItalic-49"/>
      <use xlink:href="#Montserrat-MediumItalic-6e" transform="translate(30.999985 0)"/>
      <use xlink:href="#Montserrat-MediumItalic-74" transform="translate(99.099976 0)"/>
      <use xlink:href="#Montserrat-MediumItalic-65" transform="translate(140.799973 0)"/>
      <use xlink:href="#Montserrat-MediumItalic-6c" transform="translate(201.899963 0)"/>
      <use xlink:href="#Montserrat-MediumItalic-20" transform="translate(229.799957 0)"/>
      <use xlink:href="#Montserrat-MediumItalic-58" transform="translate(256.699951 0)"/>
      <use xlink:href="#Montserrat-MediumItalic-65" transform="translate(323.999939 0)"/>
      <use xlink:href="#Montserrat-MediumItalic-6f" transform="translate(385.09993 0)"/>
      <use xlink:href="#Montserrat-MediumItalic-6e" transform="translate(448.599915 0)"/>
      <use xlink:href="#Montserrat-MediumItalic-20" transform="translate(516.699905 0)"/>
      <use xlink:href="#Montserrat-MediumItalic-47" transform="translate(543.599899 0)"/>
      <use xlink:href="#Montserrat-MediumItalic-6f" transform="translate(620.799881 0)"/>
      <use xlink:href="#Montserrat-MediumItalic-6c" transform="translate(684.299866 0)"/>
      <use xlink:href="#Montserrat-MediumItalic-64" transform="translate(712.19986 0)"/>
      <use xlink:href="#Montserrat-MediumItalic-20" transform="translate(780.399841 0)"/>
      <use xlink:href="#Montserrat-MediumItalic-36" transform="translate(807.299835 0)"/>
      <use xlink:href="#Montserrat-MediumItalic-31" transform="translate(868.999832 0)"/>
      <use xlink:href="#Montserrat-MediumItalic-33" transform="translate(905.999817 0)"/>
      <use xlink:href="#Montserrat-MediumItalic-30" transform="translate(963.199814 0)"/>
     </g>
    </g>
   </g>
  </g>
 </g>
 <defs>
  <clipPath id="pc92a5eb882">
   <rect x="56.347812" y="23.798437" width="334.8" height="96.417391"/>
  </clipPath>
  <clipPath id="p12c1cfa729">
   <rect x="56.347812" y="149.141046" width="334.8" height="96.417391"/>
  </clipPath>
 </defs>
</svg>
