<?xml version="1.0" encoding="utf-8" standalone="no"?>
<!DOCTYPE svg PUBLIC "-//W3C//DTD SVG 1.1//EN"
  "http://www.w3.org/Graphics/SVG/1.1/DTD/svg11.dtd">
<svg xmlns:xlink="http://www.w3.org/1999/xlink" width="603.810437pt" height="222.978959pt" viewBox="0 0 603.810437 222.978959" xmlns="http://www.w3.org/2000/svg" version="1.1">
 <metadata>
  <rdf:RDF xmlns:dc="http://purl.org/dc/elements/1.1/" xmlns:cc="http://creativecommons.org/ns#" xmlns:rdf="http://www.w3.org/1999/02/22-rdf-syntax-ns#">
   <cc:Work>
    <dc:type rdf:resource="http://purl.org/dc/dcmitype/StillImage"/>
    <dc:date>2025-08-19T14:46:26.631943</dc:date>
    <dc:format>image/svg+xml</dc:format>
    <dc:creator>
     <cc:Agent>
      <dc:title>Matplotlib v3.10.5, https://matplotlib.org/</dc:title>
     </cc:Agent>
    </dc:creator>
   </cc:Work>
  </rdf:RDF>
 </metadata>
 <defs>
  <style type="text/css">*{stroke-linejoin: round; stroke-linecap: butt}</style>
 </defs>
 <g id="figure_1">
  <g id="patch_1">
   <path d="M 0 222.978959 
L 603.810437 222.978959 
L 603.810437 0 
L 0 0 
z
" style="fill: #ffffff"/>
  </g>
  <g id="axes_1">
   <g id="patch_2">
    <path d="M 56.134688 167.942437 
L 502.534687 167.942437 
L 502.534687 23.798437 
L 56.134688 23.798437 
z
" style="fill: #ffffff"/>
   </g>
   <g id="matplotlib.axis_1">
    <g id="xtick_1">
     <g id="line2d_1">
      <defs>
       <path id="mc99ae12fef" d="M 0 0 
L 0 3.5 
" style="stroke: #000000; stroke-width: 0.8"/>
      </defs>
      <g>
       <use xlink:href="#mc99ae12fef" x="70.084688" y="167.942437" style="stroke: #000000; stroke-width: 0.8"/>
      </g>
     </g>
     <g id="text_1">
      <!-- bace -->
      <g transform="translate(57.915822 197.60521) rotate(-45) scale(0.1 -0.1)">
       <defs>
        <path id="Montserrat-Medium-62" d="M 2381 -38 
Q 1946 -38 1597 157 
Q 1248 352 1046 736 
Q 845 1120 845 1696 
Q 845 2272 1053 2656 
Q 1261 3040 1609 3232 
Q 1958 3424 2381 3424 
Q 2880 3424 3264 3206 
Q 3648 2989 3872 2601 
Q 4096 2214 4096 1696 
Q 4096 1178 3872 787 
Q 3648 397 3264 179 
Q 2880 -38 2381 -38 
z
M 582 0 
L 582 4749 
L 1197 4749 
L 1197 2490 
L 1133 1702 
L 1171 915 
L 1171 0 
L 582 0 
z
M 2330 499 
Q 2656 499 2915 646 
Q 3174 794 3324 1066 
Q 3475 1338 3475 1696 
Q 3475 2061 3324 2326 
Q 3174 2592 2915 2739 
Q 2656 2886 2330 2886 
Q 2010 2886 1750 2739 
Q 1491 2592 1340 2326 
Q 1190 2061 1190 1696 
Q 1190 1338 1340 1066 
Q 1491 794 1750 646 
Q 2010 499 2330 499 
z
" transform="scale(0.015625)"/>
        <path id="Montserrat-Medium-61" d="M 2688 0 
L 2688 717 
L 2656 851 
L 2656 2074 
Q 2656 2464 2429 2678 
Q 2202 2893 1747 2893 
Q 1446 2893 1158 2793 
Q 870 2694 672 2528 
L 416 2989 
Q 678 3200 1046 3312 
Q 1414 3424 1818 3424 
Q 2515 3424 2892 3085 
Q 3270 2746 3270 2048 
L 3270 0 
L 2688 0 
z
M 1574 -38 
Q 1197 -38 912 90 
Q 627 218 473 445 
Q 320 672 320 960 
Q 320 1235 451 1459 
Q 582 1683 880 1817 
Q 1178 1952 1683 1952 
L 2758 1952 
L 2758 1510 
L 1709 1510 
Q 1248 1510 1088 1356 
Q 928 1203 928 986 
Q 928 736 1126 585 
Q 1325 435 1677 435 
Q 2022 435 2281 588 
Q 2541 742 2656 1037 
L 2778 614 
Q 2656 314 2349 138 
Q 2042 -38 1574 -38 
z
" transform="scale(0.015625)"/>
        <path id="Montserrat-Medium-63" d="M 2061 -38 
Q 1542 -38 1136 186 
Q 730 410 499 800 
Q 269 1190 269 1696 
Q 269 2202 499 2592 
Q 730 2982 1136 3203 
Q 1542 3424 2061 3424 
Q 2522 3424 2883 3241 
Q 3245 3059 3443 2701 
L 2976 2400 
Q 2810 2650 2570 2768 
Q 2330 2886 2054 2886 
Q 1722 2886 1459 2739 
Q 1197 2592 1043 2326 
Q 890 2061 890 1696 
Q 890 1331 1043 1062 
Q 1197 794 1459 646 
Q 1722 499 2054 499 
Q 2330 499 2570 617 
Q 2810 736 2976 986 
L 3443 691 
Q 3245 339 2883 150 
Q 2522 -38 2061 -38 
z
" transform="scale(0.015625)"/>
        <path id="Montserrat-Medium-65" d="M 2093 -38 
Q 1549 -38 1136 186 
Q 723 410 496 800 
Q 269 1190 269 1696 
Q 269 2202 489 2592 
Q 710 2982 1097 3203 
Q 1485 3424 1971 3424 
Q 2464 3424 2841 3206 
Q 3219 2989 3433 2595 
Q 3648 2202 3648 1677 
Q 3648 1638 3645 1587 
Q 3642 1536 3635 1491 
L 749 1491 
L 749 1933 
L 3315 1933 
L 3066 1779 
Q 3072 2106 2931 2362 
Q 2790 2618 2544 2762 
Q 2298 2906 1971 2906 
Q 1651 2906 1401 2762 
Q 1152 2618 1011 2358 
Q 870 2099 870 1766 
L 870 1664 
Q 870 1325 1027 1059 
Q 1184 794 1465 646 
Q 1747 499 2112 499 
Q 2413 499 2659 601 
Q 2906 704 3091 909 
L 3430 512 
Q 3200 243 2857 102 
Q 2515 -38 2093 -38 
z
" transform="scale(0.015625)"/>
       </defs>
       <use xlink:href="#Montserrat-Medium-62"/>
       <use xlink:href="#Montserrat-Medium-61" transform="translate(68.199982 0)"/>
       <use xlink:href="#Montserrat-Medium-63" transform="translate(127.999969 0)"/>
       <use xlink:href="#Montserrat-Medium-65" transform="translate(185.09996 0)"/>
      </g>
     </g>
    </g>
    <g id="xtick_2">
     <g id="line2d_2">
      <g>
       <use xlink:href="#mc99ae12fef" x="97.984688" y="167.942437" style="stroke: #000000; stroke-width: 0.8"/>
      </g>
     </g>
     <g id="text_2">
      <!-- cdk2 -->
      <g transform="translate(85.963872 197.457159) rotate(-45) scale(0.1 -0.1)">
       <defs>
        <path id="Montserrat-Medium-64" d="M 1984 -38 
Q 1491 -38 1104 179 
Q 717 397 493 787 
Q 269 1178 269 1696 
Q 269 2214 493 2601 
Q 717 2989 1104 3206 
Q 1491 3424 1984 3424 
Q 2413 3424 2758 3232 
Q 3104 3040 3312 2656 
Q 3520 2272 3520 1696 
Q 3520 1120 3318 736 
Q 3117 352 2771 157 
Q 2426 -38 1984 -38 
z
M 2035 499 
Q 2355 499 2614 646 
Q 2874 794 3024 1066 
Q 3174 1338 3174 1696 
Q 3174 2061 3024 2326 
Q 2874 2592 2614 2739 
Q 2355 2886 2035 2886 
Q 1709 2886 1453 2739 
Q 1197 2592 1043 2326 
Q 890 2061 890 1696 
Q 890 1338 1043 1066 
Q 1197 794 1453 646 
Q 1709 499 2035 499 
z
M 3194 0 
L 3194 915 
L 3232 1702 
L 3168 2490 
L 3168 4749 
L 3782 4749 
L 3782 0 
L 3194 0 
z
" transform="scale(0.015625)"/>
        <path id="Montserrat-Medium-6b" d="M 1082 819 
L 1094 1606 
L 3046 3392 
L 3789 3392 
L 2291 1920 
L 1958 1638 
L 1082 819 
z
M 582 0 
L 582 4749 
L 1197 4749 
L 1197 0 
L 582 0 
z
M 3174 0 
L 1843 1651 
L 2240 2144 
L 3930 0 
L 3174 0 
z
" transform="scale(0.015625)"/>
        <path id="Montserrat-Medium-32" d="M 237 0 
L 237 435 
L 2061 2195 
Q 2304 2426 2422 2602 
Q 2541 2778 2582 2928 
Q 2624 3078 2624 3219 
Q 2624 3565 2381 3763 
Q 2138 3962 1670 3962 
Q 1312 3962 1024 3843 
Q 736 3725 525 3475 
L 90 3853 
Q 346 4179 778 4355 
Q 1210 4531 1728 4531 
Q 2195 4531 2540 4380 
Q 2886 4230 3075 3948 
Q 3264 3667 3264 3283 
Q 3264 3066 3206 2854 
Q 3149 2643 2989 2406 
Q 2829 2170 2528 1875 
L 902 307 
L 749 557 
L 3456 557 
L 3456 0 
L 237 0 
z
" transform="scale(0.015625)"/>
       </defs>
       <use xlink:href="#Montserrat-Medium-63"/>
       <use xlink:href="#Montserrat-Medium-64" transform="translate(57.099991 0)"/>
       <use xlink:href="#Montserrat-Medium-6b" transform="translate(125.299973 0)"/>
       <use xlink:href="#Montserrat-Medium-32" transform="translate(186.799957 0)"/>
      </g>
     </g>
    </g>
    <g id="xtick_3">
     <g id="line2d_3">
      <g>
       <use xlink:href="#mc99ae12fef" x="125.884687" y="167.942437" style="stroke: #000000; stroke-width: 0.8"/>
      </g>
     </g>
     <g id="text_3">
      <!-- cdk8 -->
      <g transform="translate(113.368897 197.952134) rotate(-45) scale(0.1 -0.1)">
       <defs>
        <path id="Montserrat-Medium-38" d="M 2054 -51 
Q 1510 -51 1113 109 
Q 717 269 499 566 
Q 282 864 282 1267 
Q 282 1664 490 1942 
Q 698 2221 1094 2365 
Q 1491 2509 2054 2509 
Q 2618 2509 3018 2365 
Q 3418 2221 3629 1939 
Q 3840 1658 3840 1267 
Q 3840 864 3622 566 
Q 3405 269 3001 109 
Q 2598 -51 2054 -51 
z
M 2054 467 
Q 2592 467 2896 688 
Q 3200 909 3200 1286 
Q 3200 1658 2896 1872 
Q 2592 2086 2054 2086 
Q 1523 2086 1222 1872 
Q 922 1658 922 1286 
Q 922 909 1222 688 
Q 1523 467 2054 467 
z
M 2054 2573 
Q 2522 2573 2787 2765 
Q 3053 2957 3053 3290 
Q 3053 3629 2777 3821 
Q 2502 4013 2054 4013 
Q 1606 4013 1340 3821 
Q 1075 3629 1075 3290 
Q 1075 2957 1334 2765 
Q 1594 2573 2054 2573 
z
M 2054 2163 
Q 1542 2163 1184 2300 
Q 826 2438 634 2697 
Q 442 2957 442 3315 
Q 442 3693 643 3965 
Q 845 4237 1209 4384 
Q 1574 4531 2054 4531 
Q 2541 4531 2905 4384 
Q 3270 4237 3475 3965 
Q 3680 3693 3680 3315 
Q 3680 2957 3488 2697 
Q 3296 2438 2931 2300 
Q 2566 2163 2054 2163 
z
" transform="scale(0.015625)"/>
       </defs>
       <use xlink:href="#Montserrat-Medium-63"/>
       <use xlink:href="#Montserrat-Medium-64" transform="translate(57.099991 0)"/>
       <use xlink:href="#Montserrat-Medium-6b" transform="translate(125.299973 0)"/>
       <use xlink:href="#Montserrat-Medium-38" transform="translate(186.799957 0)"/>
      </g>
     </g>
    </g>
    <g id="xtick_4">
     <g id="line2d_4">
      <g>
       <use xlink:href="#mc99ae12fef" x="153.784687" y="167.942437" style="stroke: #000000; stroke-width: 0.8"/>
      </g>
     </g>
     <g id="text_4">
      <!-- cmet -->
      <g transform="translate(140.264585 198.956447) rotate(-45) scale(0.1 -0.1)">
       <defs>
        <path id="Montserrat-Medium-6d" d="M 582 0 
L 582 3392 
L 1171 3392 
L 1171 2490 
L 1075 2720 
Q 1235 3053 1568 3238 
Q 1901 3424 2342 3424 
Q 2829 3424 3181 3184 
Q 3533 2944 3642 2458 
L 3392 2560 
Q 3546 2950 3930 3187 
Q 4314 3424 4826 3424 
Q 5235 3424 5548 3264 
Q 5862 3104 6038 2777 
Q 6214 2451 6214 1952 
L 6214 0 
L 5600 0 
L 5600 1882 
Q 5600 2374 5369 2624 
Q 5139 2874 4723 2874 
Q 4416 2874 4185 2746 
Q 3955 2618 3830 2368 
Q 3706 2118 3706 1747 
L 3706 0 
L 3091 0 
L 3091 1882 
Q 3091 2374 2864 2624 
Q 2637 2874 2214 2874 
Q 1914 2874 1683 2746 
Q 1453 2618 1325 2368 
Q 1197 2118 1197 1747 
L 1197 0 
L 582 0 
z
" transform="scale(0.015625)"/>
        <path id="Montserrat-Medium-74" d="M 1747 -38 
Q 1235 -38 953 237 
Q 672 512 672 1024 
L 672 4134 
L 1286 4134 
L 1286 1050 
Q 1286 774 1424 627 
Q 1562 480 1818 480 
Q 2106 480 2298 640 
L 2490 198 
Q 2349 77 2153 19 
Q 1958 -38 1747 -38 
z
M 96 2886 
L 96 3392 
L 2259 3392 
L 2259 2886 
L 96 2886 
z
" transform="scale(0.015625)"/>
       </defs>
       <use xlink:href="#Montserrat-Medium-63"/>
       <use xlink:href="#Montserrat-Medium-6d" transform="translate(57.099991 0)"/>
       <use xlink:href="#Montserrat-Medium-65" transform="translate(162.799973 0)"/>
       <use xlink:href="#Montserrat-Medium-74" transform="translate(223.999969 0)"/>
      </g>
     </g>
    </g>
    <g id="xtick_5">
     <g id="line2d_5">
      <g>
       <use xlink:href="#mc99ae12fef" x="181.684687" y="167.942437" style="stroke: #000000; stroke-width: 0.8"/>
      </g>
     </g>
     <g id="text_5">
      <!-- eg5 -->
      <g transform="translate(173.62367 193.413392) rotate(-45) scale(0.1 -0.1)">
       <defs>
        <path id="Montserrat-Medium-67" d="M 2067 -1280 
Q 1600 -1280 1161 -1149 
Q 723 -1018 448 -774 
L 742 -301 
Q 979 -506 1324 -624 
Q 1670 -742 2048 -742 
Q 2650 -742 2931 -460 
Q 3213 -179 3213 397 
L 3213 1114 
L 3277 1786 
L 3245 2464 
L 3245 3392 
L 3827 3392 
L 3827 461 
Q 3827 -435 3379 -857 
Q 2931 -1280 2067 -1280 
z
M 1990 141 
Q 1498 141 1110 349 
Q 723 557 496 928 
Q 269 1299 269 1786 
Q 269 2278 496 2646 
Q 723 3014 1110 3219 
Q 1498 3424 1990 3424 
Q 2426 3424 2784 3248 
Q 3142 3072 3356 2707 
Q 3571 2342 3571 1786 
Q 3571 1235 3356 870 
Q 3142 506 2784 323 
Q 2426 141 1990 141 
z
M 2061 678 
Q 2400 678 2662 819 
Q 2925 960 3075 1209 
Q 3226 1459 3226 1786 
Q 3226 2112 3075 2361 
Q 2925 2611 2662 2748 
Q 2400 2886 2061 2886 
Q 1722 2886 1456 2748 
Q 1190 2611 1040 2361 
Q 890 2112 890 1786 
Q 890 1459 1040 1209 
Q 1190 960 1456 819 
Q 1722 678 2061 678 
z
" transform="scale(0.015625)"/>
        <path id="Montserrat-Medium-35" d="M 1754 -51 
Q 1280 -51 835 96 
Q 390 243 109 493 
L 403 998 
Q 627 787 985 652 
Q 1344 518 1747 518 
Q 2259 518 2534 736 
Q 2810 954 2810 1318 
Q 2810 1568 2688 1753 
Q 2566 1939 2268 2038 
Q 1971 2138 1453 2138 
L 435 2138 
L 672 4480 
L 3200 4480 
L 3200 3923 
L 909 3923 
L 1242 4237 
L 1056 2387 
L 723 2694 
L 1587 2694 
Q 2259 2694 2668 2521 
Q 3078 2349 3264 2045 
Q 3450 1741 3450 1344 
Q 3450 960 3264 643 
Q 3078 326 2704 137 
Q 2330 -51 1754 -51 
z
" transform="scale(0.015625)"/>
       </defs>
       <use xlink:href="#Montserrat-Medium-65"/>
       <use xlink:href="#Montserrat-Medium-67" transform="translate(61.199997 0)"/>
       <use xlink:href="#Montserrat-Medium-35" transform="translate(130.199982 0)"/>
      </g>
     </g>
    </g>
    <g id="xtick_6">
     <g id="line2d_6">
      <g>
       <use xlink:href="#mc99ae12fef" x="209.584688" y="167.942437" style="stroke: #000000; stroke-width: 0.8"/>
      </g>
     </g>
     <g id="text_6">
      <!-- hif2a -->
      <g transform="translate(197.260037 197.760994) rotate(-45) scale(0.1 -0.1)">
       <defs>
        <path id="Montserrat-Medium-68" d="M 582 0 
L 582 4749 
L 1197 4749 
L 1197 2477 
L 1075 2720 
Q 1242 3053 1587 3238 
Q 1933 3424 2394 3424 
Q 2810 3424 3126 3264 
Q 3443 3104 3622 2777 
Q 3802 2451 3802 1952 
L 3802 0 
L 3187 0 
L 3187 1882 
Q 3187 2374 2947 2624 
Q 2707 2874 2272 2874 
Q 1946 2874 1702 2746 
Q 1459 2618 1328 2368 
Q 1197 2118 1197 1747 
L 1197 0 
L 582 0 
z
" transform="scale(0.015625)"/>
        <path id="Montserrat-Medium-69" d="M 582 0 
L 582 3392 
L 1197 3392 
L 1197 0 
L 582 0 
z
M 890 4045 
Q 710 4045 592 4160 
Q 474 4275 474 4442 
Q 474 4614 592 4729 
Q 710 4845 890 4845 
Q 1069 4845 1187 4733 
Q 1306 4621 1306 4454 
Q 1306 4282 1190 4163 
Q 1075 4045 890 4045 
z
" transform="scale(0.015625)"/>
        <path id="Montserrat-Medium-66" d="M 672 0 
L 672 3693 
Q 672 4192 963 4489 
Q 1254 4787 1792 4787 
Q 1990 4787 2172 4739 
Q 2355 4691 2483 4589 
L 2298 4122 
Q 2202 4198 2080 4240 
Q 1958 4282 1824 4282 
Q 1555 4282 1414 4131 
Q 1274 3981 1274 3686 
L 1274 3232 
L 1286 2950 
L 1286 0 
L 672 0 
z
M 96 2886 
L 96 3392 
L 2259 3392 
L 2259 2886 
L 96 2886 
z
" transform="scale(0.015625)"/>
       </defs>
       <use xlink:href="#Montserrat-Medium-68"/>
       <use xlink:href="#Montserrat-Medium-69" transform="translate(68.099991 0)"/>
       <use xlink:href="#Montserrat-Medium-66" transform="translate(95.999985 0)"/>
       <use xlink:href="#Montserrat-Medium-32" transform="translate(131.299973 0)"/>
       <use xlink:href="#Montserrat-Medium-61" transform="translate(188.699966 0)"/>
      </g>
     </g>
    </g>
    <g id="xtick_7">
     <g id="line2d_7">
      <g>
       <use xlink:href="#mc99ae12fef" x="237.484687" y="167.942437" style="stroke: #000000; stroke-width: 0.8"/>
      </g>
     </g>
     <g id="text_7">
      <!-- jnk1 -->
      <g transform="translate(229.049125 194.084039) rotate(-45) scale(0.1 -0.1)">
       <defs>
        <path id="Montserrat-Medium-6a" d="M 147 -1280 
Q -64 -1280 -259 -1229 
Q -454 -1178 -589 -1075 
L -390 -602 
Q -198 -762 109 -762 
Q 352 -762 483 -611 
Q 614 -461 614 -166 
L 614 3392 
L 1229 3392 
L 1229 -154 
Q 1229 -672 950 -976 
Q 672 -1280 147 -1280 
z
M 922 4045 
Q 742 4045 624 4160 
Q 506 4275 506 4442 
Q 506 4614 624 4729 
Q 742 4845 922 4845 
Q 1101 4845 1219 4733 
Q 1338 4621 1338 4454 
Q 1338 4282 1222 4163 
Q 1107 4045 922 4045 
z
" transform="scale(0.015625)"/>
        <path id="Montserrat-Medium-6e" d="M 582 0 
L 582 3392 
L 1171 3392 
L 1171 2477 
L 1075 2720 
Q 1242 3053 1587 3238 
Q 1933 3424 2394 3424 
Q 2810 3424 3126 3264 
Q 3443 3104 3622 2777 
Q 3802 2451 3802 1952 
L 3802 0 
L 3187 0 
L 3187 1882 
Q 3187 2374 2947 2624 
Q 2707 2874 2272 2874 
Q 1946 2874 1702 2746 
Q 1459 2618 1328 2368 
Q 1197 2118 1197 1747 
L 1197 0 
L 582 0 
z
" transform="scale(0.015625)"/>
        <path id="Montserrat-Medium-31" d="M 1062 0 
L 1062 4224 
L 1338 3923 
L 51 3923 
L 51 4480 
L 1696 4480 
L 1696 0 
L 1062 0 
z
" transform="scale(0.015625)"/>
       </defs>
       <use xlink:href="#Montserrat-Medium-6a"/>
       <use xlink:href="#Montserrat-Medium-6e" transform="translate(28.399994 0)"/>
       <use xlink:href="#Montserrat-Medium-6b" transform="translate(96.499985 0)"/>
       <use xlink:href="#Montserrat-Medium-31" transform="translate(157.999969 0)"/>
      </g>
     </g>
    </g>
    <g id="xtick_8">
     <g id="line2d_8">
      <g>
       <use xlink:href="#mc99ae12fef" x="265.384687" y="167.942437" style="stroke: #000000; stroke-width: 0.8"/>
      </g>
     </g>
     <g id="text_8">
      <!-- mcl1 -->
      <g transform="translate(254.530598 196.290433) rotate(-45) scale(0.1 -0.1)">
       <defs>
        <path id="Montserrat-Medium-6c" d="M 582 0 
L 582 4749 
L 1197 4749 
L 1197 0 
L 582 0 
z
" transform="scale(0.015625)"/>
       </defs>
       <use xlink:href="#Montserrat-Medium-6d"/>
       <use xlink:href="#Montserrat-Medium-63" transform="translate(105.699982 0)"/>
       <use xlink:href="#Montserrat-Medium-6c" transform="translate(162.799973 0)"/>
       <use xlink:href="#Montserrat-Medium-31" transform="translate(190.699966 0)"/>
      </g>
     </g>
    </g>
    <g id="xtick_9">
     <g id="line2d_9">
      <g>
       <use xlink:href="#mc99ae12fef" x="293.284688" y="167.942437" style="stroke: #000000; stroke-width: 0.8"/>
      </g>
     </g>
     <g id="text_9">
      <!-- p38 -->
      <g transform="translate(285.10987 193.611161) rotate(-45) scale(0.1 -0.1)">
       <defs>
        <path id="Montserrat-Medium-70" d="M 2381 -38 
Q 1958 -38 1609 157 
Q 1261 352 1053 736 
Q 845 1120 845 1696 
Q 845 2272 1046 2656 
Q 1248 3040 1597 3232 
Q 1946 3424 2381 3424 
Q 2880 3424 3264 3206 
Q 3648 2989 3872 2601 
Q 4096 2214 4096 1696 
Q 4096 1178 3872 787 
Q 3648 397 3264 179 
Q 2880 -38 2381 -38 
z
M 582 -1242 
L 582 3392 
L 1171 3392 
L 1171 2477 
L 1133 1690 
L 1197 902 
L 1197 -1242 
L 582 -1242 
z
M 2330 499 
Q 2656 499 2915 646 
Q 3174 794 3324 1066 
Q 3475 1338 3475 1696 
Q 3475 2061 3324 2326 
Q 3174 2592 2915 2739 
Q 2656 2886 2330 2886 
Q 2010 2886 1750 2739 
Q 1491 2592 1340 2326 
Q 1190 2061 1190 1696 
Q 1190 1338 1340 1066 
Q 1491 794 1750 646 
Q 2010 499 2330 499 
z
" transform="scale(0.015625)"/>
        <path id="Montserrat-Medium-33" d="M 1677 -51 
Q 1203 -51 758 96 
Q 314 243 32 493 
L 326 998 
Q 550 787 908 652 
Q 1267 518 1677 518 
Q 2176 518 2454 732 
Q 2733 947 2733 1312 
Q 2733 1664 2467 1878 
Q 2202 2093 1626 2093 
L 1267 2093 
L 1267 2541 
L 2598 4179 
L 2688 3923 
L 237 3923 
L 237 4480 
L 3194 4480 
L 3194 4045 
L 1869 2413 
L 1536 2611 
L 1747 2611 
Q 2560 2611 2966 2246 
Q 3373 1882 3373 1318 
Q 3373 941 3187 627 
Q 3002 314 2627 131 
Q 2253 -51 1677 -51 
z
" transform="scale(0.015625)"/>
       </defs>
       <use xlink:href="#Montserrat-Medium-70"/>
       <use xlink:href="#Montserrat-Medium-33" transform="translate(68.199982 0)"/>
       <use xlink:href="#Montserrat-Medium-38" transform="translate(125.399979 0)"/>
      </g>
     </g>
    </g>
    <g id="xtick_10">
     <g id="line2d_10">
      <g>
       <use xlink:href="#mc99ae12fef" x="321.184687" y="167.942437" style="stroke: #000000; stroke-width: 0.8"/>
      </g>
     </g>
     <g id="text_10">
      <!-- pfkfb3 -->
      <g transform="translate(303.442936 203.262064) rotate(-45) scale(0.1 -0.1)">
       <use xlink:href="#Montserrat-Medium-70"/>
       <use xlink:href="#Montserrat-Medium-66" transform="translate(68.199982 0)"/>
       <use xlink:href="#Montserrat-Medium-6b" transform="translate(103.499969 0)"/>
       <use xlink:href="#Montserrat-Medium-66" transform="translate(164.999954 0)"/>
       <use xlink:href="#Montserrat-Medium-62" transform="translate(200.299942 0)"/>
       <use xlink:href="#Montserrat-Medium-33" transform="translate(268.499924 0)"/>
      </g>
     </g>
    </g>
    <g id="xtick_11">
     <g id="line2d_11">
      <g>
       <use xlink:href="#mc99ae12fef" x="349.084687" y="167.942437" style="stroke: #000000; stroke-width: 0.8"/>
      </g>
     </g>
     <g id="text_11">
      <!-- ptp1b -->
      <g transform="translate(334.319414 200.201618) rotate(-45) scale(0.1 -0.1)">
       <use xlink:href="#Montserrat-Medium-70"/>
       <use xlink:href="#Montserrat-Medium-74" transform="translate(68.199982 0)"/>
       <use xlink:href="#Montserrat-Medium-70" transform="translate(109.599976 0)"/>
       <use xlink:href="#Montserrat-Medium-31" transform="translate(177.799957 0)"/>
       <use xlink:href="#Montserrat-Medium-62" transform="translate(214.799942 0)"/>
      </g>
     </g>
    </g>
    <g id="xtick_12">
     <g id="line2d_12">
      <g>
       <use xlink:href="#mc99ae12fef" x="376.984687" y="167.942437" style="stroke: #000000; stroke-width: 0.8"/>
      </g>
     </g>
     <g id="text_12">
      <!-- shp2 -->
      <g transform="translate(364.992598 197.428433) rotate(-45) scale(0.1 -0.1)">
       <defs>
        <path id="Montserrat-Medium-73" d="M 1555 -38 
Q 1133 -38 752 77 
Q 371 192 154 358 
L 410 845 
Q 627 698 947 595 
Q 1267 493 1600 493 
Q 2029 493 2217 614 
Q 2406 736 2406 954 
Q 2406 1114 2291 1203 
Q 2176 1293 1987 1337 
Q 1798 1382 1568 1417 
Q 1338 1453 1107 1507 
Q 877 1562 685 1661 
Q 493 1760 377 1936 
Q 262 2112 262 2406 
Q 262 2714 435 2944 
Q 608 3174 925 3299 
Q 1242 3424 1677 3424 
Q 2010 3424 2352 3344 
Q 2694 3264 2912 3117 
L 2650 2630 
Q 2419 2784 2169 2841 
Q 1920 2899 1670 2899 
Q 1267 2899 1068 2768 
Q 870 2637 870 2432 
Q 870 2259 988 2166 
Q 1107 2074 1296 2022 
Q 1485 1971 1715 1936 
Q 1946 1901 2176 1846 
Q 2406 1792 2595 1696 
Q 2784 1600 2902 1427 
Q 3021 1254 3021 966 
Q 3021 659 2841 435 
Q 2662 211 2336 86 
Q 2010 -38 1555 -38 
z
" transform="scale(0.015625)"/>
       </defs>
       <use xlink:href="#Montserrat-Medium-73"/>
       <use xlink:href="#Montserrat-Medium-68" transform="translate(50.099991 0)"/>
       <use xlink:href="#Montserrat-Medium-70" transform="translate(118.199982 0)"/>
       <use xlink:href="#Montserrat-Medium-32" transform="translate(186.399963 0)"/>
      </g>
     </g>
    </g>
    <g id="xtick_13">
     <g id="line2d_13">
      <g>
       <use xlink:href="#mc99ae12fef" x="404.884687" y="167.942437" style="stroke: #000000; stroke-width: 0.8"/>
      </g>
     </g>
     <g id="text_13">
      <!-- syk -->
      <g transform="translate(398.287602 192.033429) rotate(-45) scale(0.1 -0.1)">
       <defs>
        <path id="Montserrat-Medium-79" d="M 730 -1280 
Q 486 -1280 256 -1200 
Q 26 -1120 -141 -966 
L 122 -506 
Q 250 -627 403 -691 
Q 557 -755 730 -755 
Q 954 -755 1101 -640 
Q 1248 -525 1376 -230 
L 1587 237 
L 1651 314 
L 2982 3392 
L 3584 3392 
L 1939 -339 
Q 1792 -698 1609 -902 
Q 1427 -1107 1209 -1193 
Q 992 -1280 730 -1280 
z
M 1536 -109 
L -13 3392 
L 627 3392 
L 1946 371 
L 1536 -109 
z
" transform="scale(0.015625)"/>
       </defs>
       <use xlink:href="#Montserrat-Medium-73"/>
       <use xlink:href="#Montserrat-Medium-79" transform="translate(50.099991 0)"/>
       <use xlink:href="#Montserrat-Medium-6b" transform="translate(105.999985 0)"/>
      </g>
     </g>
    </g>
    <g id="xtick_14">
     <g id="line2d_14">
      <g>
       <use xlink:href="#mc99ae12fef" x="432.784688" y="167.942437" style="stroke: #000000; stroke-width: 0.8"/>
      </g>
     </g>
     <g id="text_14">
      <!-- thrombin -->
      <g transform="translate(403.814302 214.40673) rotate(-45) scale(0.1 -0.1)">
       <defs>
        <path id="Montserrat-Medium-72" d="M 582 0 
L 582 3392 
L 1171 3392 
L 1171 2470 
L 1114 2701 
Q 1254 3053 1587 3238 
Q 1920 3424 2406 3424 
L 2406 2829 
Q 2368 2835 2333 2835 
Q 2298 2835 2266 2835 
Q 1773 2835 1485 2540 
Q 1197 2246 1197 1690 
L 1197 0 
L 582 0 
z
" transform="scale(0.015625)"/>
        <path id="Montserrat-Medium-6f" d="M 2035 -38 
Q 1523 -38 1126 186 
Q 730 410 499 803 
Q 269 1197 269 1696 
Q 269 2202 499 2592 
Q 730 2982 1126 3203 
Q 1523 3424 2035 3424 
Q 2541 3424 2941 3203 
Q 3341 2982 3568 2595 
Q 3795 2208 3795 1696 
Q 3795 1190 3568 800 
Q 3341 410 2941 186 
Q 2541 -38 2035 -38 
z
M 2035 499 
Q 2362 499 2621 646 
Q 2880 794 3027 1066 
Q 3174 1338 3174 1696 
Q 3174 2061 3027 2326 
Q 2880 2592 2621 2739 
Q 2362 2886 2035 2886 
Q 1709 2886 1453 2739 
Q 1197 2592 1043 2326 
Q 890 2061 890 1696 
Q 890 1338 1043 1066 
Q 1197 794 1453 646 
Q 1709 499 2035 499 
z
" transform="scale(0.015625)"/>
       </defs>
       <use xlink:href="#Montserrat-Medium-74"/>
       <use xlink:href="#Montserrat-Medium-68" transform="translate(41.399994 0)"/>
       <use xlink:href="#Montserrat-Medium-72" transform="translate(109.499985 0)"/>
       <use xlink:href="#Montserrat-Medium-6f" transform="translate(150.499969 0)"/>
       <use xlink:href="#Montserrat-Medium-6d" transform="translate(213.999954 0)"/>
       <use xlink:href="#Montserrat-Medium-62" transform="translate(319.699936 0)"/>
       <use xlink:href="#Montserrat-Medium-69" transform="translate(387.899918 0)"/>
       <use xlink:href="#Montserrat-Medium-6e" transform="translate(415.799911 0)"/>
      </g>
     </g>
    </g>
    <g id="xtick_15">
     <g id="line2d_15">
      <g>
       <use xlink:href="#mc99ae12fef" x="460.684687" y="167.942437" style="stroke: #000000; stroke-width: 0.8"/>
      </g>
     </g>
     <g id="text_15">
      <!-- tnks2 -->
      <g transform="translate(446.238717 199.882315) rotate(-45) scale(0.1 -0.1)">
       <use xlink:href="#Montserrat-Medium-74"/>
       <use xlink:href="#Montserrat-Medium-6e" transform="translate(41.399994 0)"/>
       <use xlink:href="#Montserrat-Medium-6b" transform="translate(109.499985 0)"/>
       <use xlink:href="#Montserrat-Medium-73" transform="translate(170.999969 0)"/>
       <use xlink:href="#Montserrat-Medium-32" transform="translate(221.09996 0)"/>
      </g>
     </g>
    </g>
    <g id="xtick_16">
     <g id="line2d_16">
      <g>
       <use xlink:href="#mc99ae12fef" x="488.584687" y="167.942437" style="stroke: #000000; stroke-width: 0.8"/>
      </g>
     </g>
     <g id="text_16">
      <!-- tyk2 -->
      <g transform="translate(478.542666 195.478365) rotate(-45) scale(0.1 -0.1)">
       <use xlink:href="#Montserrat-Medium-74"/>
       <use xlink:href="#Montserrat-Medium-79" transform="translate(41.399994 0)"/>
       <use xlink:href="#Montserrat-Medium-6b" transform="translate(97.299988 0)"/>
       <use xlink:href="#Montserrat-Medium-32" transform="translate(158.799973 0)"/>
      </g>
     </g>
    </g>
   </g>
   <g id="matplotlib.axis_2">
    <g id="ytick_1">
     <g id="line2d_17">
      <path d="M 56.134688 167.942437 
L 502.534687 167.942437 
" clip-path="url(#p58242b21f8)" style="fill: none; stroke: #b0b0b0; stroke-opacity: 0.5; stroke-width: 0.8; stroke-linecap: square"/>
     </g>
     <g id="line2d_18">
      <defs>
       <path id="m366efdacb4" d="M 0 0 
L -3.5 0 
" style="stroke: #000000; stroke-width: 0.8"/>
      </defs>
      <g>
       <use xlink:href="#m366efdacb4" x="56.134688" y="167.942437" style="stroke: #000000; stroke-width: 0.8"/>
      </g>
     </g>
     <g id="text_17">
      <!-- 0 -->
      <g transform="translate(42.464375 171.652594) scale(0.1 -0.1)">
       <defs>
        <path id="Montserrat-Medium-30" d="M 2138 -51 
Q 1613 -51 1200 217 
Q 787 486 547 998 
Q 307 1510 307 2240 
Q 307 2970 547 3482 
Q 787 3994 1200 4262 
Q 1613 4531 2138 4531 
Q 2656 4531 3072 4262 
Q 3488 3994 3725 3482 
Q 3962 2970 3962 2240 
Q 3962 1510 3725 998 
Q 3488 486 3072 217 
Q 2656 -51 2138 -51 
z
M 2138 518 
Q 2490 518 2755 710 
Q 3021 902 3171 1286 
Q 3322 1670 3322 2240 
Q 3322 2810 3171 3194 
Q 3021 3578 2755 3770 
Q 2490 3962 2138 3962 
Q 1786 3962 1517 3770 
Q 1248 3578 1097 3194 
Q 947 2810 947 2240 
Q 947 1670 1097 1286 
Q 1248 902 1517 710 
Q 1786 518 2138 518 
z
" transform="scale(0.015625)"/>
       </defs>
       <use xlink:href="#Montserrat-Medium-30"/>
      </g>
     </g>
    </g>
    <g id="ytick_2">
     <g id="line2d_19">
      <path d="M 56.134688 134.026202 
L 502.534687 134.026202 
" clip-path="url(#p58242b21f8)" style="fill: none; stroke: #b0b0b0; stroke-opacity: 0.5; stroke-width: 0.8; stroke-linecap: square"/>
     </g>
     <g id="line2d_20">
      <g>
       <use xlink:href="#m366efdacb4" x="56.134688" y="134.026202" style="stroke: #000000; stroke-width: 0.8"/>
      </g>
     </g>
     <g id="text_18">
      <!-- 2000 -->
      <g transform="translate(23.383125 137.736358) scale(0.1 -0.1)">
       <use xlink:href="#Montserrat-Medium-32"/>
       <use xlink:href="#Montserrat-Medium-30" transform="translate(57.399994 0)"/>
       <use xlink:href="#Montserrat-Medium-30" transform="translate(124.099991 0)"/>
       <use xlink:href="#Montserrat-Medium-30" transform="translate(190.799988 0)"/>
      </g>
     </g>
    </g>
    <g id="ytick_3">
     <g id="line2d_21">
      <path d="M 56.134688 100.109967 
L 502.534687 100.109967 
" clip-path="url(#p58242b21f8)" style="fill: none; stroke: #b0b0b0; stroke-opacity: 0.5; stroke-width: 0.8; stroke-linecap: square"/>
     </g>
     <g id="line2d_22">
      <g>
       <use xlink:href="#m366efdacb4" x="56.134688" y="100.109967" style="stroke: #000000; stroke-width: 0.8"/>
      </g>
     </g>
     <g id="text_19">
      <!-- 4000 -->
      <g transform="translate(22.433125 103.820123) scale(0.1 -0.1)">
       <defs>
        <path id="Montserrat-Medium-34" d="M 243 1101 
L 243 1549 
L 2534 4480 
L 3226 4480 
L 954 1549 
L 627 1651 
L 4205 1651 
L 4205 1101 
L 243 1101 
z
M 2733 0 
L 2733 1101 
L 2752 1651 
L 2752 2624 
L 3354 2624 
L 3354 0 
L 2733 0 
z
" transform="scale(0.015625)"/>
       </defs>
       <use xlink:href="#Montserrat-Medium-34"/>
       <use xlink:href="#Montserrat-Medium-30" transform="translate(66.899994 0)"/>
       <use xlink:href="#Montserrat-Medium-30" transform="translate(133.599991 0)"/>
       <use xlink:href="#Montserrat-Medium-30" transform="translate(200.299988 0)"/>
      </g>
     </g>
    </g>
    <g id="ytick_4">
     <g id="line2d_23">
      <path d="M 56.134688 66.193732 
L 502.534687 66.193732 
" clip-path="url(#p58242b21f8)" style="fill: none; stroke: #b0b0b0; stroke-opacity: 0.5; stroke-width: 0.8; stroke-linecap: square"/>
     </g>
     <g id="line2d_24">
      <g>
       <use xlink:href="#m366efdacb4" x="56.134688" y="66.193732" style="stroke: #000000; stroke-width: 0.8"/>
      </g>
     </g>
     <g id="text_20">
      <!-- 6000 -->
      <g transform="translate(22.953438 69.903888) scale(0.1 -0.1)">
       <defs>
        <path id="Montserrat-Medium-36" d="M 2189 -51 
Q 1594 -51 1171 211 
Q 749 474 528 970 
Q 307 1466 307 2182 
Q 307 2944 576 3469 
Q 845 3994 1325 4262 
Q 1805 4531 2426 4531 
Q 2746 4531 3037 4467 
Q 3328 4403 3539 4269 
L 3296 3770 
Q 3123 3891 2902 3936 
Q 2682 3981 2438 3981 
Q 1754 3981 1350 3555 
Q 947 3130 947 2291 
Q 947 2157 960 1971 
Q 973 1786 1024 1606 
L 806 1824 
Q 902 2118 1110 2320 
Q 1318 2522 1609 2621 
Q 1901 2720 2240 2720 
Q 2688 2720 3033 2553 
Q 3379 2387 3577 2083 
Q 3776 1779 3776 1363 
Q 3776 934 3565 614 
Q 3354 294 2995 121 
Q 2637 -51 2189 -51 
z
M 2163 467 
Q 2458 467 2678 576 
Q 2899 685 3027 880 
Q 3155 1075 3155 1338 
Q 3155 1734 2880 1968 
Q 2605 2202 2131 2202 
Q 1824 2202 1593 2086 
Q 1363 1971 1232 1776 
Q 1101 1581 1101 1331 
Q 1101 1101 1222 905 
Q 1344 710 1581 588 
Q 1818 467 2163 467 
z
" transform="scale(0.015625)"/>
       </defs>
       <use xlink:href="#Montserrat-Medium-36"/>
       <use xlink:href="#Montserrat-Medium-30" transform="translate(61.699997 0)"/>
       <use xlink:href="#Montserrat-Medium-30" transform="translate(128.399994 0)"/>
       <use xlink:href="#Montserrat-Medium-30" transform="translate(195.099991 0)"/>
      </g>
     </g>
    </g>
    <g id="ytick_5">
     <g id="line2d_25">
      <path d="M 56.134688 32.277496 
L 502.534687 32.277496 
" clip-path="url(#p58242b21f8)" style="fill: none; stroke: #b0b0b0; stroke-opacity: 0.5; stroke-width: 0.8; stroke-linecap: square"/>
     </g>
     <g id="line2d_26">
      <g>
       <use xlink:href="#m366efdacb4" x="56.134688" y="32.277496" style="stroke: #000000; stroke-width: 0.8"/>
      </g>
     </g>
     <g id="text_21">
      <!-- 8000 -->
      <g transform="translate(22.683125 35.987653) scale(0.1 -0.1)">
       <use xlink:href="#Montserrat-Medium-38"/>
       <use xlink:href="#Montserrat-Medium-30" transform="translate(64.399994 0)"/>
       <use xlink:href="#Montserrat-Medium-30" transform="translate(131.099991 0)"/>
       <use xlink:href="#Montserrat-Medium-30" transform="translate(197.799988 0)"/>
      </g>
     </g>
    </g>
    <g id="text_22">
     <!-- Number of Atoms -->
     <g transform="translate(16.104375 150.573562) rotate(-90) scale(0.12 -0.12)">
      <defs>
       <path id="Montserrat-MediumItalic-4e" d="M 333 0 
L 1229 4480 
L 1754 4480 
L 3904 781 
L 3712 806 
L 4442 4480 
L 5082 4480 
L 4186 0 
L 3661 0 
L 1510 3699 
L 1702 3674 
L 973 0 
L 333 0 
z
" transform="scale(0.015625)"/>
       <path id="Montserrat-MediumItalic-75" d="M 1690 -38 
Q 1254 -38 956 141 
Q 659 320 537 662 
Q 416 1005 512 1491 
L 890 3392 
L 1504 3392 
L 1126 1485 
Q 1037 1030 1219 771 
Q 1402 512 1869 512 
Q 2349 512 2675 781 
Q 3002 1050 3110 1594 
L 3469 3392 
L 4083 3392 
L 3411 0 
L 2822 0 
L 3014 973 
L 3123 710 
Q 2886 326 2512 144 
Q 2138 -38 1690 -38 
z
" transform="scale(0.015625)"/>
       <path id="Montserrat-MediumItalic-6d" d="M 5075 3424 
Q 5530 3424 5824 3245 
Q 6118 3066 6236 2723 
Q 6355 2381 6253 1901 
L 5875 0 
L 5261 0 
L 5638 1901 
Q 5734 2362 5558 2618 
Q 5382 2874 4922 2874 
Q 4454 2874 4147 2611 
Q 3840 2349 3731 1811 
L 3366 0 
L 2752 0 
L 3136 1901 
Q 3226 2362 3050 2618 
Q 2874 2874 2413 2874 
Q 1946 2874 1638 2608 
Q 1331 2342 1222 1792 
L 864 0 
L 250 0 
L 922 3392 
L 1510 3392 
L 1318 2419 
L 1203 2682 
Q 1440 3066 1801 3245 
Q 2163 3424 2605 3424 
Q 2950 3424 3206 3309 
Q 3462 3194 3612 2966 
Q 3763 2739 3789 2419 
L 3456 2483 
Q 3718 2957 4131 3190 
Q 4544 3424 5075 3424 
z
" transform="scale(0.015625)"/>
       <path id="Montserrat-MediumItalic-62" d="M 250 0 
L 1197 4749 
L 1811 4749 
L 1357 2502 
L 1133 1728 
L 1037 998 
L 832 0 
L 250 0 
z
M 2202 -38 
Q 1766 -38 1456 118 
Q 1146 275 979 572 
Q 813 870 813 1293 
Q 813 1766 934 2160 
Q 1056 2554 1296 2835 
Q 1536 3117 1869 3270 
Q 2202 3424 2624 3424 
Q 3059 3424 3395 3251 
Q 3731 3078 3926 2748 
Q 4122 2419 4122 1965 
Q 4122 1530 3978 1165 
Q 3834 800 3574 531 
Q 3315 262 2963 112 
Q 2611 -38 2202 -38 
z
M 2176 499 
Q 2560 499 2857 684 
Q 3155 870 3328 1193 
Q 3501 1517 3501 1933 
Q 3501 2381 3238 2633 
Q 2976 2886 2490 2886 
Q 2112 2886 1808 2704 
Q 1504 2522 1334 2198 
Q 1165 1875 1165 1453 
Q 1165 1011 1427 755 
Q 1690 499 2176 499 
z
" transform="scale(0.015625)"/>
       <path id="Montserrat-MediumItalic-65" d="M 1869 -38 
Q 1370 -38 1005 144 
Q 640 326 441 656 
Q 243 986 243 1434 
Q 243 2010 492 2458 
Q 742 2906 1174 3165 
Q 1606 3424 2157 3424 
Q 2618 3424 2957 3248 
Q 3296 3072 3485 2745 
Q 3674 2419 3674 1958 
Q 3674 1843 3661 1724 
Q 3648 1606 3629 1504 
L 691 1504 
L 768 1952 
L 3334 1952 
L 3085 1798 
Q 3142 2157 3033 2403 
Q 2925 2650 2691 2781 
Q 2458 2912 2131 2912 
Q 1747 2912 1456 2729 
Q 1165 2547 1005 2224 
Q 845 1901 845 1466 
Q 845 1005 1110 752 
Q 1376 499 1920 499 
Q 2240 499 2515 604 
Q 2790 710 2970 890 
L 3232 448 
Q 2989 211 2624 86 
Q 2259 -38 1869 -38 
z
" transform="scale(0.015625)"/>
       <path id="Montserrat-MediumItalic-72" d="M 250 0 
L 922 3392 
L 1510 3392 
L 1318 2406 
L 1254 2650 
Q 1491 3078 1856 3251 
Q 2221 3424 2758 3424 
L 2643 2829 
Q 2605 2835 2566 2835 
Q 2528 2835 2483 2835 
Q 1978 2835 1648 2560 
Q 1318 2285 1203 1696 
L 864 0 
L 250 0 
z
" transform="scale(0.015625)"/>
       <path id="Montserrat-MediumItalic-20" transform="scale(0.015625)"/>
       <path id="Montserrat-MediumItalic-6f" d="M 1837 -38 
Q 1350 -38 995 144 
Q 640 326 441 656 
Q 243 986 243 1427 
Q 243 2003 499 2454 
Q 755 2906 1206 3165 
Q 1658 3424 2234 3424 
Q 2714 3424 3072 3245 
Q 3430 3066 3625 2739 
Q 3821 2413 3821 1965 
Q 3821 1389 3565 937 
Q 3309 486 2864 224 
Q 2419 -38 1837 -38 
z
M 1875 499 
Q 2259 499 2560 684 
Q 2861 870 3030 1193 
Q 3200 1517 3200 1933 
Q 3200 2381 2937 2633 
Q 2675 2886 2189 2886 
Q 1811 2886 1510 2704 
Q 1210 2522 1037 2198 
Q 864 1875 864 1453 
Q 864 1011 1126 755 
Q 1389 499 1875 499 
z
" transform="scale(0.015625)"/>
       <path id="Montserrat-MediumItalic-66" d="M 333 0 
L 1082 3712 
Q 1184 4224 1501 4505 
Q 1818 4787 2336 4787 
Q 2547 4787 2736 4732 
Q 2925 4678 3046 4576 
L 2790 4122 
Q 2611 4282 2336 4282 
Q 2061 4282 1901 4128 
Q 1741 3974 1670 3661 
L 1574 3219 
L 1542 2963 
L 947 0 
L 333 0 
z
M 333 2886 
L 429 3392 
L 2598 3392 
L 2496 2886 
L 333 2886 
z
" transform="scale(0.015625)"/>
       <path id="Montserrat-MediumItalic-41" d="M -346 0 
L 2586 4480 
L 3219 4480 
L 4352 0 
L 3718 0 
L 2720 4134 
L 2976 4134 
L 346 0 
L -346 0 
z
M 742 1120 
L 1024 1632 
L 3539 1632 
L 3629 1120 
L 742 1120 
z
" transform="scale(0.015625)"/>
       <path id="Montserrat-MediumItalic-74" d="M 1414 -38 
Q 1107 -38 886 96 
Q 666 230 573 480 
Q 480 730 544 1069 
L 1158 4134 
L 1773 4134 
L 1158 1082 
Q 1114 806 1213 643 
Q 1312 480 1587 480 
Q 1715 480 1843 521 
Q 1971 563 2074 640 
L 2202 173 
Q 2029 51 1821 6 
Q 1613 -38 1414 -38 
z
M 333 2886 
L 429 3392 
L 2598 3392 
L 2496 2886 
L 333 2886 
z
" transform="scale(0.015625)"/>
       <path id="Montserrat-MediumItalic-73" d="M 1318 -38 
Q 890 -38 509 74 
Q 128 186 -77 352 
L 198 838 
Q 397 685 713 589 
Q 1030 493 1376 493 
Q 1818 493 2042 627 
Q 2266 762 2266 992 
Q 2266 1158 2131 1244 
Q 1997 1331 1782 1379 
Q 1568 1427 1325 1475 
Q 1082 1523 870 1612 
Q 659 1702 521 1872 
Q 384 2042 384 2323 
Q 384 2662 576 2908 
Q 768 3155 1113 3289 
Q 1459 3424 1920 3424 
Q 2253 3424 2576 3344 
Q 2899 3264 3104 3117 
L 2861 2630 
Q 2650 2778 2387 2838 
Q 2125 2899 1862 2899 
Q 1434 2899 1216 2755 
Q 998 2611 998 2394 
Q 998 2227 1132 2134 
Q 1267 2042 1481 1990 
Q 1696 1939 1936 1891 
Q 2176 1843 2390 1756 
Q 2605 1670 2739 1507 
Q 2874 1344 2874 1062 
Q 2874 710 2678 464 
Q 2483 218 2131 90 
Q 1779 -38 1318 -38 
z
" transform="scale(0.015625)"/>
      </defs>
      <use xlink:href="#Montserrat-MediumItalic-4e"/>
      <use xlink:href="#Montserrat-MediumItalic-75" transform="translate(81.199982 0)"/>
      <use xlink:href="#Montserrat-MediumItalic-6d" transform="translate(148.899963 0)"/>
      <use xlink:href="#Montserrat-MediumItalic-62" transform="translate(254.599945 0)"/>
      <use xlink:href="#Montserrat-MediumItalic-65" transform="translate(322.799927 0)"/>
      <use xlink:href="#Montserrat-MediumItalic-72" transform="translate(383.899918 0)"/>
      <use xlink:href="#Montserrat-MediumItalic-20" transform="translate(424.899902 0)"/>
      <use xlink:href="#Montserrat-MediumItalic-6f" transform="translate(451.799896 0)"/>
      <use xlink:href="#Montserrat-MediumItalic-66" transform="translate(515.299881 0)"/>
      <use xlink:href="#Montserrat-MediumItalic-20" transform="translate(550.599869 0)"/>
      <use xlink:href="#Montserrat-MediumItalic-41" transform="translate(577.499863 0)"/>
      <use xlink:href="#Montserrat-MediumItalic-74" transform="translate(650.699844 0)"/>
      <use xlink:href="#Montserrat-MediumItalic-6f" transform="translate(692.399841 0)"/>
      <use xlink:href="#Montserrat-MediumItalic-6d" transform="translate(755.899826 0)"/>
      <use xlink:href="#Montserrat-MediumItalic-73" transform="translate(861.599808 0)"/>
     </g>
    </g>
   </g>
   <g id="patch_3">
    <path d="M 58.924688 167.942437 
L 70.084688 167.942437 
L 70.084688 60.013017 
L 58.924688 60.013017 
z
" clip-path="url(#p58242b21f8)" style="fill: #3274a1; stroke: #000000; stroke-width: 0.5; stroke-linejoin: miter"/>
   </g>
   <g id="patch_4">
    <path d="M 86.824688 167.942437 
L 97.984688 167.942437 
L 97.984688 60.03331 
L 86.824688 60.03331 
z
" clip-path="url(#p58242b21f8)" style="fill: #3274a1; stroke: #000000; stroke-width: 0.5; stroke-linejoin: miter"/>
   </g>
   <g id="patch_5">
    <path d="M 114.724688 167.942437 
L 125.884687 167.942437 
L 125.884687 60.086084 
L 114.724688 60.086084 
z
" clip-path="url(#p58242b21f8)" style="fill: #3274a1; stroke: #000000; stroke-width: 0.5; stroke-linejoin: miter"/>
   </g>
   <g id="patch_6">
    <path d="M 142.624687 167.942437 
L 153.784687 167.942437 
L 153.784687 60.031636 
L 142.624687 60.031636 
z
" clip-path="url(#p58242b21f8)" style="fill: #3274a1; stroke: #000000; stroke-width: 0.5; stroke-linejoin: miter"/>
   </g>
   <g id="patch_7">
    <path d="M 170.524687 167.942437 
L 181.684687 167.942437 
L 181.684687 59.906406 
L 170.524687 59.906406 
z
" clip-path="url(#p58242b21f8)" style="fill: #3274a1; stroke: #000000; stroke-width: 0.5; stroke-linejoin: miter"/>
   </g>
   <g id="patch_8">
    <path d="M 198.424687 167.942437 
L 209.584687 167.942437 
L 209.584687 60.272474 
L 198.424687 60.272474 
z
" clip-path="url(#p58242b21f8)" style="fill: #3274a1; stroke: #000000; stroke-width: 0.5; stroke-linejoin: miter"/>
   </g>
   <g id="patch_9">
    <path d="M 226.324687 167.942437 
L 237.484687 167.942437 
L 237.484687 60.132147 
L 226.324687 60.132147 
z
" clip-path="url(#p58242b21f8)" style="fill: #3274a1; stroke: #000000; stroke-width: 0.5; stroke-linejoin: miter"/>
   </g>
   <g id="patch_10">
    <path d="M 254.224687 167.942437 
L 265.384687 167.942437 
L 265.384687 60.085527 
L 254.224687 60.085527 
z
" clip-path="url(#p58242b21f8)" style="fill: #3274a1; stroke: #000000; stroke-width: 0.5; stroke-linejoin: miter"/>
   </g>
   <g id="patch_11">
    <path d="M 282.124687 167.942437 
L 293.284688 167.942437 
L 293.284688 60.050094 
L 282.124687 60.050094 
z
" clip-path="url(#p58242b21f8)" style="fill: #3274a1; stroke: #000000; stroke-width: 0.5; stroke-linejoin: miter"/>
   </g>
   <g id="patch_12">
    <path d="M 310.024688 167.942437 
L 321.184687 167.942437 
L 321.184687 60.175484 
L 310.024688 60.175484 
z
" clip-path="url(#p58242b21f8)" style="fill: #3274a1; stroke: #000000; stroke-width: 0.5; stroke-linejoin: miter"/>
   </g>
   <g id="patch_13">
    <path d="M 337.924688 167.942437 
L 349.084687 167.942437 
L 349.084687 60.219849 
L 337.924688 60.219849 
z
" clip-path="url(#p58242b21f8)" style="fill: #3274a1; stroke: #000000; stroke-width: 0.5; stroke-linejoin: miter"/>
   </g>
   <g id="patch_14">
    <path d="M 365.824687 167.942437 
L 376.984687 167.942437 
L 376.984687 60.120434 
L 365.824687 60.120434 
z
" clip-path="url(#p58242b21f8)" style="fill: #3274a1; stroke: #000000; stroke-width: 0.5; stroke-linejoin: miter"/>
   </g>
   <g id="patch_15">
    <path d="M 393.724688 167.942437 
L 404.884688 167.942437 
L 404.884688 60.051394 
L 393.724688 60.051394 
z
" clip-path="url(#p58242b21f8)" style="fill: #3274a1; stroke: #000000; stroke-width: 0.5; stroke-linejoin: miter"/>
   </g>
   <g id="patch_16">
    <path d="M 421.624688 167.942437 
L 432.784688 167.942437 
L 432.784688 59.844128 
L 421.624688 59.844128 
z
" clip-path="url(#p58242b21f8)" style="fill: #3274a1; stroke: #000000; stroke-width: 0.5; stroke-linejoin: miter"/>
   </g>
   <g id="patch_17">
    <path d="M 449.524688 167.942437 
L 460.684687 167.942437 
L 460.684687 60.137114 
L 449.524688 60.137114 
z
" clip-path="url(#p58242b21f8)" style="fill: #3274a1; stroke: #000000; stroke-width: 0.5; stroke-linejoin: miter"/>
   </g>
   <g id="patch_18">
    <path d="M 477.424688 167.942437 
L 488.584687 167.942437 
L 488.584687 60.287682 
L 477.424688 60.287682 
z
" clip-path="url(#p58242b21f8)" style="fill: #3274a1; stroke: #000000; stroke-width: 0.5; stroke-linejoin: miter"/>
   </g>
   <g id="patch_19">
    <path d="M 70.084688 167.942437 
L 81.244687 167.942437 
L 81.244687 62.740159 
L 70.084688 62.740159 
z
" clip-path="url(#p58242b21f8)" style="fill: #b5c8e1; stroke: #000000; stroke-width: 0.5; stroke-linejoin: miter"/>
   </g>
   <g id="patch_20">
    <path d="M 97.984688 167.942437 
L 109.144688 167.942437 
L 109.144688 63.498162 
L 97.984688 63.498162 
z
" clip-path="url(#p58242b21f8)" style="fill: #b5c8e1; stroke: #000000; stroke-width: 0.5; stroke-linejoin: miter"/>
   </g>
   <g id="patch_21">
    <path d="M 125.884687 167.942437 
L 137.044688 167.942437 
L 137.044688 65.288895 
L 125.884687 65.288895 
z
" clip-path="url(#p58242b21f8)" style="fill: #b5c8e1; stroke: #000000; stroke-width: 0.5; stroke-linejoin: miter"/>
   </g>
   <g id="patch_22">
    <path d="M 153.784687 167.942437 
L 164.944687 167.942437 
L 164.944687 64.670408 
L 153.784687 64.670408 
z
" clip-path="url(#p58242b21f8)" style="fill: #b5c8e1; stroke: #000000; stroke-width: 0.5; stroke-linejoin: miter"/>
   </g>
   <g id="patch_23">
    <path d="M 181.684687 167.942437 
L 192.844687 167.942437 
L 192.844687 63.695511 
L 181.684687 63.695511 
z
" clip-path="url(#p58242b21f8)" style="fill: #b5c8e1; stroke: #000000; stroke-width: 0.5; stroke-linejoin: miter"/>
   </g>
   <g id="patch_24">
    <path d="M 209.584688 167.942437 
L 220.744687 167.942437 
L 220.744687 66.548702 
L 209.584688 66.548702 
z
" clip-path="url(#p58242b21f8)" style="fill: #b5c8e1; stroke: #000000; stroke-width: 0.5; stroke-linejoin: miter"/>
   </g>
   <g id="patch_25">
    <path d="M 237.484687 167.942437 
L 248.644687 167.942437 
L 248.644687 63.145667 
L 237.484687 63.145667 
z
" clip-path="url(#p58242b21f8)" style="fill: #b5c8e1; stroke: #000000; stroke-width: 0.5; stroke-linejoin: miter"/>
   </g>
   <g id="patch_26">
    <path d="M 265.384687 167.942437 
L 276.544688 167.942437 
L 276.544688 65.525254 
L 265.384687 65.525254 
z
" clip-path="url(#p58242b21f8)" style="fill: #b5c8e1; stroke: #000000; stroke-width: 0.5; stroke-linejoin: miter"/>
   </g>
   <g id="patch_27">
    <path d="M 293.284687 167.942437 
L 304.444687 167.942437 
L 304.444687 60.936715 
L 293.284687 60.936715 
z
" clip-path="url(#p58242b21f8)" style="fill: #b5c8e1; stroke: #000000; stroke-width: 0.5; stroke-linejoin: miter"/>
   </g>
   <g id="patch_28">
    <path d="M 321.184687 167.942437 
L 332.344687 167.942437 
L 332.344687 60.442103 
L 321.184687 60.442103 
z
" clip-path="url(#p58242b21f8)" style="fill: #b5c8e1; stroke: #000000; stroke-width: 0.5; stroke-linejoin: miter"/>
   </g>
   <g id="patch_29">
    <path d="M 349.084687 167.942437 
L 360.244687 167.942437 
L 360.244687 58.031224 
L 349.084687 58.031224 
z
" clip-path="url(#p58242b21f8)" style="fill: #b5c8e1; stroke: #000000; stroke-width: 0.5; stroke-linejoin: miter"/>
   </g>
   <g id="patch_30">
    <path d="M 376.984687 167.942437 
L 388.144687 167.942437 
L 388.144687 63.838387 
L 376.984687 63.838387 
z
" clip-path="url(#p58242b21f8)" style="fill: #b5c8e1; stroke: #000000; stroke-width: 0.5; stroke-linejoin: miter"/>
   </g>
   <g id="patch_31">
    <path d="M 404.884687 167.942437 
L 416.044687 167.942437 
L 416.044687 64.67423 
L 404.884687 64.67423 
z
" clip-path="url(#p58242b21f8)" style="fill: #b5c8e1; stroke: #000000; stroke-width: 0.5; stroke-linejoin: miter"/>
   </g>
   <g id="patch_32">
    <path d="M 432.784688 167.942437 
L 443.944687 167.942437 
L 443.944687 62.261871 
L 432.784688 62.261871 
z
" clip-path="url(#p58242b21f8)" style="fill: #b5c8e1; stroke: #000000; stroke-width: 0.5; stroke-linejoin: miter"/>
   </g>
   <g id="patch_33">
    <path d="M 460.684687 167.942437 
L 471.844687 167.942437 
L 471.844687 63.529252 
L 460.684687 63.529252 
z
" clip-path="url(#p58242b21f8)" style="fill: #b5c8e1; stroke: #000000; stroke-width: 0.5; stroke-linejoin: miter"/>
   </g>
   <g id="patch_34">
    <path d="M 488.584687 167.942437 
L 499.744687 167.942437 
L 499.744687 65.900819 
L 488.584687 65.900819 
z
" clip-path="url(#p58242b21f8)" style="fill: #b5c8e1; stroke: #000000; stroke-width: 0.5; stroke-linejoin: miter"/>
   </g>
   <g id="patch_35">
    <path d="M 70.084688 167.942437 
L 70.084688 167.942437 
L 70.084688 167.942437 
L 70.084688 167.942437 
z
" clip-path="url(#p58242b21f8)" style="fill: #3274a1; stroke: #000000; stroke-width: 0.5; stroke-linejoin: miter"/>
   </g>
   <g id="patch_36">
    <path d="M 70.084688 167.942437 
L 70.084688 167.942437 
L 70.084688 167.942437 
L 70.084688 167.942437 
z
" clip-path="url(#p58242b21f8)" style="fill: #b5c8e1; stroke: #000000; stroke-width: 0.5; stroke-linejoin: miter"/>
   </g>
   <g id="line2d_27">
    <path d="M 64.504688 60.038281 
L 64.504688 59.984283 
" clip-path="url(#p58242b21f8)" style="fill: none; stroke: #424242; stroke-width: 2.25; stroke-linecap: square"/>
   </g>
   <g id="line2d_28">
    <path d="M 92.404687 60.072622 
L 92.404687 59.99554 
" clip-path="url(#p58242b21f8)" style="fill: none; stroke: #424242; stroke-width: 2.25; stroke-linecap: square"/>
   </g>
   <g id="line2d_29">
    <path d="M 120.304688 60.111831 
L 120.304688 60.062153 
" clip-path="url(#p58242b21f8)" style="fill: none; stroke: #424242; stroke-width: 2.25; stroke-linecap: square"/>
   </g>
   <g id="line2d_30">
    <path d="M 148.204687 60.100474 
L 148.204687 59.963779 
" clip-path="url(#p58242b21f8)" style="fill: none; stroke: #424242; stroke-width: 2.25; stroke-linecap: square"/>
   </g>
   <g id="line2d_31">
    <path d="M 176.104688 59.941574 
L 176.104688 59.869988 
" clip-path="url(#p58242b21f8)" style="fill: none; stroke: #424242; stroke-width: 2.25; stroke-linecap: square"/>
   </g>
   <g id="line2d_32">
    <path d="M 204.004687 60.295181 
L 204.004687 60.250335 
" clip-path="url(#p58242b21f8)" style="fill: none; stroke: #424242; stroke-width: 2.25; stroke-linecap: square"/>
   </g>
   <g id="line2d_33">
    <path d="M 231.904687 60.158526 
L 231.904687 60.102627 
" clip-path="url(#p58242b21f8)" style="fill: none; stroke: #424242; stroke-width: 2.25; stroke-linecap: square"/>
   </g>
   <g id="line2d_34">
    <path d="M 259.804688 60.099476 
L 259.804688 60.071304 
" clip-path="url(#p58242b21f8)" style="fill: none; stroke: #424242; stroke-width: 2.25; stroke-linecap: square"/>
   </g>
   <g id="line2d_35">
    <path d="M 287.704687 60.079538 
L 287.704687 60.021929 
" clip-path="url(#p58242b21f8)" style="fill: none; stroke: #424242; stroke-width: 2.25; stroke-linecap: square"/>
   </g>
   <g id="line2d_36">
    <path d="M 315.604688 60.203135 
L 315.604688 60.147221 
" clip-path="url(#p58242b21f8)" style="fill: none; stroke: #424242; stroke-width: 2.25; stroke-linecap: square"/>
   </g>
   <g id="line2d_37">
    <path d="M 343.504688 60.277918 
L 343.504688 60.161215 
" clip-path="url(#p58242b21f8)" style="fill: none; stroke: #424242; stroke-width: 2.25; stroke-linecap: square"/>
   </g>
   <g id="line2d_38">
    <path d="M 371.404688 60.14382 
L 371.404688 60.098423 
" clip-path="url(#p58242b21f8)" style="fill: none; stroke: #424242; stroke-width: 2.25; stroke-linecap: square"/>
   </g>
   <g id="line2d_39">
    <path d="M 399.304688 60.080196 
L 399.304688 60.018547 
" clip-path="url(#p58242b21f8)" style="fill: none; stroke: #424242; stroke-width: 2.25; stroke-linecap: square"/>
   </g>
   <g id="line2d_40">
    <path d="M 427.204687 59.865931 
L 427.204687 59.822325 
" clip-path="url(#p58242b21f8)" style="fill: none; stroke: #424242; stroke-width: 2.25; stroke-linecap: square"/>
   </g>
   <g id="line2d_41">
    <path d="M 455.104687 60.193641 
L 455.104687 60.082129 
" clip-path="url(#p58242b21f8)" style="fill: none; stroke: #424242; stroke-width: 2.25; stroke-linecap: square"/>
   </g>
   <g id="line2d_42">
    <path d="M 483.004688 60.308494 
L 483.004688 60.266869 
" clip-path="url(#p58242b21f8)" style="fill: none; stroke: #424242; stroke-width: 2.25; stroke-linecap: square"/>
   </g>
   <g id="line2d_43">
    <path d="M 75.664687 62.911825 
L 75.664687 62.581635 
" clip-path="url(#p58242b21f8)" style="fill: none; stroke: #424242; stroke-width: 2.25; stroke-linecap: square"/>
   </g>
   <g id="line2d_44">
    <path d="M 103.564688 63.710948 
L 103.564688 63.289269 
" clip-path="url(#p58242b21f8)" style="fill: none; stroke: #424242; stroke-width: 2.25; stroke-linecap: square"/>
   </g>
   <g id="line2d_45">
    <path d="M 131.464687 65.508457 
L 131.464687 65.089304 
" clip-path="url(#p58242b21f8)" style="fill: none; stroke: #424242; stroke-width: 2.25; stroke-linecap: square"/>
   </g>
   <g id="line2d_46">
    <path d="M 159.364688 64.784779 
L 159.364688 64.552634 
" clip-path="url(#p58242b21f8)" style="fill: none; stroke: #424242; stroke-width: 2.25; stroke-linecap: square"/>
   </g>
   <g id="line2d_47">
    <path d="M 187.264687 64.066532 
L 187.264687 63.366245 
" clip-path="url(#p58242b21f8)" style="fill: none; stroke: #424242; stroke-width: 2.25; stroke-linecap: square"/>
   </g>
   <g id="line2d_48">
    <path d="M 215.164687 66.618554 
L 215.164687 66.492647 
" clip-path="url(#p58242b21f8)" style="fill: none; stroke: #424242; stroke-width: 2.25; stroke-linecap: square"/>
   </g>
   <g id="line2d_49">
    <path d="M 243.064687 63.634548 
L 243.064687 62.665077 
" clip-path="url(#p58242b21f8)" style="fill: none; stroke: #424242; stroke-width: 2.25; stroke-linecap: square"/>
   </g>
   <g id="line2d_50">
    <path d="M 270.964687 65.664481 
L 270.964687 65.377821 
" clip-path="url(#p58242b21f8)" style="fill: none; stroke: #424242; stroke-width: 2.25; stroke-linecap: square"/>
   </g>
   <g id="line2d_51">
    <path d="M 298.864687 61.066309 
L 298.864687 60.799426 
" clip-path="url(#p58242b21f8)" style="fill: none; stroke: #424242; stroke-width: 2.25; stroke-linecap: square"/>
   </g>
   <g id="line2d_52">
    <path d="M 326.764687 60.606668 
L 326.764687 60.288844 
" clip-path="url(#p58242b21f8)" style="fill: none; stroke: #424242; stroke-width: 2.25; stroke-linecap: square"/>
   </g>
   <g id="line2d_53">
    <path d="M 354.664688 58.508749 
L 354.664688 57.582001 
" clip-path="url(#p58242b21f8)" style="fill: none; stroke: #424242; stroke-width: 2.25; stroke-linecap: square"/>
   </g>
   <g id="line2d_54">
    <path d="M 382.564687 64.04146 
L 382.564687 63.639415 
" clip-path="url(#p58242b21f8)" style="fill: none; stroke: #424242; stroke-width: 2.25; stroke-linecap: square"/>
   </g>
   <g id="line2d_55">
    <path d="M 410.464687 64.821228 
L 410.464687 64.535275 
" clip-path="url(#p58242b21f8)" style="fill: none; stroke: #424242; stroke-width: 2.25; stroke-linecap: square"/>
   </g>
   <g id="line2d_56">
    <path d="M 438.364687 62.407226 
L 438.364687 62.094712 
" clip-path="url(#p58242b21f8)" style="fill: none; stroke: #424242; stroke-width: 2.25; stroke-linecap: square"/>
   </g>
   <g id="line2d_57">
    <path d="M 466.264687 63.933304 
L 466.264687 63.204696 
" clip-path="url(#p58242b21f8)" style="fill: none; stroke: #424242; stroke-width: 2.25; stroke-linecap: square"/>
   </g>
   <g id="line2d_58">
    <path d="M 494.164688 66.065794 
L 494.164688 65.728867 
" clip-path="url(#p58242b21f8)" style="fill: none; stroke: #424242; stroke-width: 2.25; stroke-linecap: square"/>
   </g>
   <g id="patch_37">
    <path d="M 56.134688 167.942437 
L 56.134688 23.798437 
" style="fill: none; stroke: #000000; stroke-width: 0.8; stroke-linejoin: miter; stroke-linecap: square"/>
   </g>
   <g id="patch_38">
    <path d="M 502.534687 167.942437 
L 502.534687 23.798437 
" style="fill: none; stroke: #000000; stroke-width: 0.8; stroke-linejoin: miter; stroke-linecap: square"/>
   </g>
   <g id="patch_39">
    <path d="M 56.134687 167.942437 
L 502.534688 167.942437 
" style="fill: none; stroke: #000000; stroke-width: 0.8; stroke-linejoin: miter; stroke-linecap: square"/>
   </g>
   <g id="patch_40">
    <path d="M 56.134687 23.798437 
L 502.534688 23.798437 
" style="fill: none; stroke: #000000; stroke-width: 0.8; stroke-linejoin: miter; stroke-linecap: square"/>
   </g>
   <g id="text_23">
    <!-- Number of Simulated Atoms for all Edges -->
    <g transform="translate(131.495781 17.798437) scale(0.14 -0.14)">
     <defs>
      <path id="Montserrat-Medium-4e" d="M 672 0 
L 672 4480 
L 1197 4480 
L 4160 800 
L 3885 800 
L 3885 4480 
L 4525 4480 
L 4525 0 
L 4000 0 
L 1037 3680 
L 1312 3680 
L 1312 0 
L 672 0 
z
" transform="scale(0.015625)"/>
      <path id="Montserrat-Medium-75" d="M 2010 -38 
Q 1574 -38 1244 122 
Q 915 282 732 611 
Q 550 941 550 1440 
L 550 3392 
L 1165 3392 
L 1165 1510 
Q 1165 1011 1405 761 
Q 1645 512 2080 512 
Q 2400 512 2637 643 
Q 2874 774 3002 1027 
Q 3130 1280 3130 1638 
L 3130 3392 
L 3744 3392 
L 3744 0 
L 3162 0 
L 3162 915 
L 3258 672 
Q 3091 333 2758 147 
Q 2426 -38 2010 -38 
z
" transform="scale(0.015625)"/>
      <path id="Montserrat-Medium-20" transform="scale(0.015625)"/>
      <path id="Montserrat-Medium-53" d="M 1978 -51 
Q 1466 -51 998 105 
Q 531 262 262 512 
L 499 1011 
Q 755 787 1152 640 
Q 1549 493 1978 493 
Q 2368 493 2611 582 
Q 2854 672 2969 829 
Q 3085 986 3085 1184 
Q 3085 1414 2934 1555 
Q 2784 1696 2544 1782 
Q 2304 1869 2016 1933 
Q 1728 1997 1437 2083 
Q 1146 2170 906 2304 
Q 666 2438 518 2665 
Q 371 2893 371 3251 
Q 371 3597 553 3888 
Q 736 4179 1117 4355 
Q 1498 4531 2086 4531 
Q 2477 4531 2861 4428 
Q 3245 4326 3526 4134 
L 3315 3622 
Q 3027 3814 2707 3900 
Q 2387 3987 2086 3987 
Q 1709 3987 1465 3891 
Q 1222 3795 1110 3635 
Q 998 3475 998 3277 
Q 998 3040 1148 2899 
Q 1299 2758 1539 2675 
Q 1779 2592 2067 2525 
Q 2355 2458 2646 2374 
Q 2938 2291 3178 2156 
Q 3418 2022 3565 1798 
Q 3712 1574 3712 1222 
Q 3712 883 3526 592 
Q 3341 301 2953 125 
Q 2566 -51 1978 -51 
z
" transform="scale(0.015625)"/>
      <path id="Montserrat-Medium-41" d="M -6 0 
L 2022 4480 
L 2656 4480 
L 4691 0 
L 4019 0 
L 2208 4122 
L 2464 4122 
L 653 0 
L -6 0 
z
M 858 1120 
L 1030 1632 
L 3552 1632 
L 3738 1120 
L 858 1120 
z
" transform="scale(0.015625)"/>
      <path id="Montserrat-Medium-45" d="M 672 0 
L 672 4480 
L 3834 4480 
L 3834 3923 
L 1312 3923 
L 1312 557 
L 3923 557 
L 3923 0 
L 672 0 
z
M 1254 2003 
L 1254 2547 
L 3558 2547 
L 3558 2003 
L 1254 2003 
z
" transform="scale(0.015625)"/>
     </defs>
     <use xlink:href="#Montserrat-Medium-4e"/>
     <use xlink:href="#Montserrat-Medium-75" transform="translate(81.199982 0)"/>
     <use xlink:href="#Montserrat-Medium-6d" transform="translate(148.899963 0)"/>
     <use xlink:href="#Montserrat-Medium-62" transform="translate(254.599945 0)"/>
     <use xlink:href="#Montserrat-Medium-65" transform="translate(322.799927 0)"/>
     <use xlink:href="#Montserrat-Medium-72" transform="translate(383.999924 0)"/>
     <use xlink:href="#Montserrat-Medium-20" transform="translate(424.999908 0)"/>
     <use xlink:href="#Montserrat-Medium-6f" transform="translate(451.899902 0)"/>
     <use xlink:href="#Montserrat-Medium-66" transform="translate(515.399887 0)"/>
     <use xlink:href="#Montserrat-Medium-20" transform="translate(550.699875 0)"/>
     <use xlink:href="#Montserrat-Medium-53" transform="translate(577.599869 0)"/>
     <use xlink:href="#Montserrat-Medium-69" transform="translate(639.69986 0)"/>
     <use xlink:href="#Montserrat-Medium-6d" transform="translate(667.599854 0)"/>
     <use xlink:href="#Montserrat-Medium-75" transform="translate(773.299835 0)"/>
     <use xlink:href="#Montserrat-Medium-6c" transform="translate(840.999817 0)"/>
     <use xlink:href="#Montserrat-Medium-61" transform="translate(868.899811 0)"/>
     <use xlink:href="#Montserrat-Medium-74" transform="translate(928.699799 0)"/>
     <use xlink:href="#Montserrat-Medium-65" transform="translate(970.099792 0)"/>
     <use xlink:href="#Montserrat-Medium-64" transform="translate(1031.299789 0)"/>
     <use xlink:href="#Montserrat-Medium-20" transform="translate(1099.499771 0)"/>
     <use xlink:href="#Montserrat-Medium-41" transform="translate(1126.399765 0)"/>
     <use xlink:href="#Montserrat-Medium-74" transform="translate(1199.599747 0)"/>
     <use xlink:href="#Montserrat-Medium-6f" transform="translate(1240.999741 0)"/>
     <use xlink:href="#Montserrat-Medium-6d" transform="translate(1304.499725 0)"/>
     <use xlink:href="#Montserrat-Medium-73" transform="translate(1410.199707 0)"/>
     <use xlink:href="#Montserrat-Medium-20" transform="translate(1460.299698 0)"/>
     <use xlink:href="#Montserrat-Medium-66" transform="translate(1487.199692 0)"/>
     <use xlink:href="#Montserrat-Medium-6f" transform="translate(1522.49968 0)"/>
     <use xlink:href="#Montserrat-Medium-72" transform="translate(1585.999664 0)"/>
     <use xlink:href="#Montserrat-Medium-20" transform="translate(1626.999649 0)"/>
     <use xlink:href="#Montserrat-Medium-61" transform="translate(1653.899643 0)"/>
     <use xlink:href="#Montserrat-Medium-6c" transform="translate(1713.699631 0)"/>
     <use xlink:href="#Montserrat-Medium-6c" transform="translate(1741.599625 0)"/>
     <use xlink:href="#Montserrat-Medium-20" transform="translate(1769.499619 0)"/>
     <use xlink:href="#Montserrat-Medium-45" transform="translate(1796.399612 0)"/>
     <use xlink:href="#Montserrat-Medium-64" transform="translate(1863.399597 0)"/>
     <use xlink:href="#Montserrat-Medium-67" transform="translate(1931.599579 0)"/>
     <use xlink:href="#Montserrat-Medium-65" transform="translate(2000.599564 0)"/>
     <use xlink:href="#Montserrat-Medium-73" transform="translate(2061.799561 0)"/>
    </g>
   </g>
   <g id="legend_1">
    <g id="text_24">
     <!-- Perturbation leg -->
     <g transform="translate(508.766687 133.070562) scale(0.1 -0.1)">
      <defs>
       <path id="Montserrat-Medium-50" d="M 672 0 
L 672 4480 
L 2419 4480 
Q 3008 4480 3424 4294 
Q 3840 4109 4064 3757 
Q 4288 3405 4288 2918 
Q 4288 2432 4064 2083 
Q 3840 1734 3424 1545 
Q 3008 1357 2419 1357 
L 1024 1357 
L 1312 1658 
L 1312 0 
L 672 0 
z
M 1312 1594 
L 1024 1914 
L 2400 1914 
Q 3014 1914 3331 2176 
Q 3648 2438 3648 2918 
Q 3648 3398 3331 3660 
Q 3014 3923 2400 3923 
L 1024 3923 
L 1312 4243 
L 1312 1594 
z
" transform="scale(0.015625)"/>
      </defs>
      <use xlink:href="#Montserrat-Medium-50"/>
      <use xlink:href="#Montserrat-Medium-65" transform="translate(72.199982 0)"/>
      <use xlink:href="#Montserrat-Medium-72" transform="translate(133.399979 0)"/>
      <use xlink:href="#Montserrat-Medium-74" transform="translate(174.399963 0)"/>
      <use xlink:href="#Montserrat-Medium-75" transform="translate(215.799957 0)"/>
      <use xlink:href="#Montserrat-Medium-72" transform="translate(283.499939 0)"/>
      <use xlink:href="#Montserrat-Medium-62" transform="translate(324.499924 0)"/>
      <use xlink:href="#Montserrat-Medium-61" transform="translate(392.699905 0)"/>
      <use xlink:href="#Montserrat-Medium-74" transform="translate(452.499893 0)"/>
      <use xlink:href="#Montserrat-Medium-69" transform="translate(493.899887 0)"/>
      <use xlink:href="#Montserrat-Medium-6f" transform="translate(521.799881 0)"/>
      <use xlink:href="#Montserrat-Medium-6e" transform="translate(585.299866 0)"/>
      <use xlink:href="#Montserrat-Medium-20" transform="translate(653.399857 0)"/>
      <use xlink:href="#Montserrat-Medium-6c" transform="translate(680.29985 0)"/>
      <use xlink:href="#Montserrat-Medium-65" transform="translate(708.199844 0)"/>
      <use xlink:href="#Montserrat-Medium-67" transform="translate(769.399841 0)"/>
     </g>
    </g>
    <g id="patch_41">
     <path d="M 518.113562 147.490875 
L 538.113562 147.490875 
L 538.113562 140.490875 
L 518.113562 140.490875 
z
" style="fill: #3274a1; stroke: #000000; stroke-width: 0.5; stroke-linejoin: miter"/>
    </g>
    <g id="text_25">
     <!-- water -->
     <g transform="translate(546.113562 147.490875) scale(0.1 -0.1)">
      <defs>
       <path id="Montserrat-MediumItalic-77" d="M 1005 0 
L 358 3392 
L 915 3392 
L 1485 320 
L 1197 320 
L 2950 3392 
L 3475 3392 
L 4058 320 
L 3770 320 
L 5504 3392 
L 6086 3392 
L 4186 0 
L 3584 0 
L 3014 2803 
L 3200 2803 
L 1594 0 
L 1005 0 
z
" transform="scale(0.015625)"/>
       <path id="Montserrat-MediumItalic-61" d="M 1741 -38 
Q 1312 -38 973 138 
Q 634 314 438 640 
Q 243 966 243 1427 
Q 243 1862 387 2227 
Q 531 2592 790 2861 
Q 1050 3130 1402 3277 
Q 1754 3424 2163 3424 
Q 2605 3424 2912 3270 
Q 3219 3117 3385 2819 
Q 3552 2522 3552 2093 
Q 3552 1466 3334 982 
Q 3117 499 2710 230 
Q 2304 -38 1741 -38 
z
M 1875 499 
Q 2259 499 2560 684 
Q 2861 870 3030 1193 
Q 3200 1517 3200 1933 
Q 3200 2381 2937 2633 
Q 2675 2886 2189 2886 
Q 1811 2886 1510 2704 
Q 1210 2522 1037 2198 
Q 864 1875 864 1453 
Q 864 1011 1126 755 
Q 1389 499 1875 499 
z
M 2854 0 
L 3034 877 
L 3238 1664 
L 3322 2470 
L 3501 3392 
L 4115 3392 
L 3443 0 
L 2854 0 
z
" transform="scale(0.015625)"/>
      </defs>
      <use xlink:href="#Montserrat-MediumItalic-77"/>
      <use xlink:href="#Montserrat-MediumItalic-61" transform="translate(90.099991 0)"/>
      <use xlink:href="#Montserrat-MediumItalic-74" transform="translate(158.299973 0)"/>
      <use xlink:href="#Montserrat-MediumItalic-65" transform="translate(199.999969 0)"/>
      <use xlink:href="#Montserrat-MediumItalic-72" transform="translate(261.09996 0)"/>
     </g>
    </g>
    <g id="patch_42">
     <path d="M 518.113562 162.001812 
L 538.113562 162.001812 
L 538.113562 155.001812 
L 518.113562 155.001812 
z
" style="fill: #b5c8e1; stroke: #000000; stroke-width: 0.5; stroke-linejoin: miter"/>
    </g>
    <g id="text_26">
     <!-- protein -->
     <g transform="translate(546.113562 162.001812) scale(0.1 -0.1)">
      <defs>
       <path id="Montserrat-MediumItalic-70" d="M 2202 -38 
Q 1766 -38 1456 118 
Q 1146 275 979 572 
Q 813 870 813 1293 
Q 813 1933 1030 2409 
Q 1248 2886 1654 3155 
Q 2061 3424 2624 3424 
Q 3059 3424 3395 3251 
Q 3731 3078 3926 2748 
Q 4122 2419 4122 1965 
Q 4122 1530 3978 1165 
Q 3834 800 3574 531 
Q 3315 262 2963 112 
Q 2611 -38 2202 -38 
z
M 0 -1242 
L 922 3392 
L 1510 3392 
L 1331 2515 
L 1133 1728 
L 1043 922 
L 614 -1242 
L 0 -1242 
z
M 2176 499 
Q 2560 499 2857 684 
Q 3155 870 3328 1193 
Q 3501 1517 3501 1933 
Q 3501 2381 3238 2633 
Q 2976 2886 2490 2886 
Q 2112 2886 1808 2704 
Q 1504 2522 1334 2198 
Q 1165 1875 1165 1453 
Q 1165 1011 1427 755 
Q 1690 499 2176 499 
z
" transform="scale(0.015625)"/>
       <path id="Montserrat-MediumItalic-69" d="M 250 0 
L 922 3392 
L 1536 3392 
L 864 0 
L 250 0 
z
M 1415 4045 
Q 1242 4045 1133 4153 
Q 1024 4262 1024 4416 
Q 1024 4595 1145 4720 
Q 1267 4845 1466 4845 
Q 1639 4845 1747 4739 
Q 1856 4634 1856 4486 
Q 1856 4288 1734 4166 
Q 1613 4045 1415 4045 
z
" transform="scale(0.015625)"/>
       <path id="Montserrat-MediumItalic-6e" d="M 2656 3424 
Q 3104 3424 3405 3245 
Q 3706 3066 3824 2723 
Q 3942 2381 3846 1901 
L 3469 0 
L 2854 0 
L 3232 1901 
Q 3328 2362 3142 2618 
Q 2957 2874 2477 2874 
Q 1984 2874 1657 2608 
Q 1331 2342 1222 1792 
L 864 0 
L 250 0 
L 922 3392 
L 1510 3392 
L 1318 2419 
L 1203 2682 
Q 1446 3066 1820 3245 
Q 2195 3424 2656 3424 
z
" transform="scale(0.015625)"/>
      </defs>
      <use xlink:href="#Montserrat-MediumItalic-70"/>
      <use xlink:href="#Montserrat-MediumItalic-72" transform="translate(68.199982 0)"/>
      <use xlink:href="#Montserrat-MediumItalic-6f" transform="translate(109.199966 0)"/>
      <use xlink:href="#Montserrat-MediumItalic-74" transform="translate(172.699951 0)"/>
      <use xlink:href="#Montserrat-MediumItalic-65" transform="translate(214.399948 0)"/>
      <use xlink:href="#Montserrat-MediumItalic-69" transform="translate(275.499939 0)"/>
      <use xlink:href="#Montserrat-MediumItalic-6e" transform="translate(303.399933 0)"/>
     </g>
    </g>
   </g>
  </g>
 </g>
 <defs>
  <clipPath id="p58242b21f8">
   <rect x="56.134688" y="23.798437" width="446.4" height="144.144"/>
  </clipPath>
 </defs>
</svg>
